/* XPM */
static char *_s1709288150[] = {
/* columns rows colors chars-per-pixel */
"80 45 151 2 ",
"   c None",
".  c #481B44",
"X  c #491C44",
"o  c #491D44",
"O  c #491C45",
"+  c #491D45",
"@  c #4A1D44",
"#  c #4A1D45",
"$  c #4B1F44",
"%  c #4A1E45",
"&  c #4B1E45",
"*  c #4A1F45",
"=  c #4A1D46",
"-  c #4A1E46",
";  c #4B1E46",
":  c #4A1F46",
">  c #4B1F46",
",  c #4A1E47",
"<  c #4B1E47",
"1  c #4B1F47",
"2  c #4C1E46",
"3  c #4C1F46",
"4  c #4D1F46",
"5  c #4C1E47",
"6  c #4C1F47",
"7  c #4B1F48",
"8  c #4C1F48",
"9  c #4B2145",
"0  c #4A2046",
"q  c #4B2046",
"w  c #4D2245",
"e  c #4C2046",
"r  c #4D2046",
"t  c #4C2047",
"y  c #4D2047",
"u  c #4C2147",
"i  c #4D2147",
"p  c #4E2047",
"a  c #4E2147",
"s  c #4D2246",
"d  c #4D2346",
"f  c #4D2247",
"g  c #4E2447",
"h  c #4C2048",
"j  c #4D2048",
"k  c #4C2148",
"l  c #4D2148",
"z  c #4D2049",
"x  c #4D2149",
"c  c #4E2148",
"v  c #4F2148",
"b  c #4E2149",
"n  c #4C2248",
"m  c #4D2248",
"M  c #4D2348",
"N  c #4D2249",
"B  c #4E2248",
"V  c #4F2248",
"C  c #4E2348",
"Z  c #4F2348",
"A  c #4E2249",
"S  c #4F2249",
"D  c #4E2349",
"F  c #4F2349",
"G  c #4F224A",
"H  c #4E234A",
"J  c #4F234A",
"K  c #4E2448",
"L  c #4F2448",
"P  c #4E2548",
"I  c #4F2548",
"U  c #4F2449",
"Y  c #4F2549",
"T  c #4F2648",
"R  c #4F244A",
"E  c #4F244B",
"W  c #502349",
"Q  c #50234A",
"!  c #50234B",
"~  c #502548",
"^  c #502449",
"/  c #502549",
"(  c #512549",
")  c #502648",
"_  c #502749",
"`  c #50244A",
"'  c #51244A",
"]  c #50254A",
"[  c #51254A",
"{  c #50244B",
"}  c #51244B",
"|  c #50254B",
" . c #51254B",
".. c #52254B",
"X. c #51264A",
"o. c #51274A",
"O. c #51264B",
"+. c #52264B",
"@. c #53274B",
"#. c #50254C",
"$. c #51264C",
"%. c #52264C",
"&. c #53264C",
"*. c #52274C",
"=. c #53274C",
"-. c #52274D",
";. c #53274D",
":. c #54274D",
">. c #52284A",
",. c #53284B",
"<. c #52294B",
"1. c #532A4B",
"2. c #54294B",
"3. c #52284C",
"4. c #53284C",
"5. c #53294C",
"6. c #53284D",
"7. c #53294D",
"8. c #53284E",
"9. c #552A4D",
"0. c #54284E",
"q. c #54294E",
"w. c #55294E",
"e. c #552A4E",
"r. c #542B4E",
"t. c #552B4E",
"y. c #552A4F",
"u. c #552B4F",
"i. c #562A4F",
"p. c #562B4F",
"a. c #552C4D",
"s. c #572D4E",
"d. c #562C4F",
"f. c #572C4F",
"g. c #592D4F",
"h. c #592F4E",
"j. c #562B50",
"k. c #562C50",
"l. c #572C50",
"z. c #572D50",
"x. c #572E50",
"c. c #582C50",
"v. c #582E50",
"b. c #592F50",
"n. c #592F51",
"m. c #592E52",
"M. c #592F52",
"N. c #5A3051",
"B. c #5B3152",
"V. c #5C3251",
"C. c #5C3254",
/* pixels */
"                                                                                                                                                                ",
"                                                                                                                                                                ",
"                                                                                                                                                                ",
"                                                                                                                                                                ",
"                                                                                                                                                                ",
"                                            1.$.` `                                                                                                             ",
"                                                ` $.W 8 i x                                                                                                     ",
"                                                  1.` x 2 W W               ` 2 i                                                                               ",
"                                                      ` x i i           ` $.` 8 2 x                                                                             ",
"                                                        @.y.W i ` i i x ` ` $.  ` 2 i             a.8.1.                                                        ",
"                                                              W x x 2 T $.l.      T q q   ` ` 1.1.$.                                                            ",
"                                                                  T                                                                                             ",
"                        N.                                                                                                                                      ",
"                          n.a.h.N.                                                                                                                              ",
"                                                          1.i i                                   $.                                                            ",
"                    T                                   ` ` 8.1.                                $.x 2                                                           ",
"                                              y.@.@.    ` y.y.                                  ` $ $ 8 x                                                       ",
"                                          @.T   y.`   i                                       h.@.2 $ 7 2 i                                                     ",
"                                                                                V.            y.:.W 8 2 2 x x                                                   ",
"                                                                                y.            x 8 W 8 $ $ 8 2                                                   ",
"                                                                        `       ` y.          i $ 7 8 8 $ 8 2 W       a.x   ` 1.                                ",
"                    n.      n.                                          W x W 2 i `         ` 2 8 O W 8 7 } ` x       l.      8.        y.~ ` ` $.              ",
"                  n.n.W $.8.` y.                        y.              i 2 8 2 $ x 2 x $.` x 2 W 2 x 2 8 8 x 8                       ` W 2 2 i                 ",
"                j.n.y.` i T ` i :.a.                    x 2 x             i x x 8 x 7 $ W W i @ x 2 :.x x   2 $ x                     i W v W y.                ",
"            n.y.N.C.          :.W x `                 q x x 2 $.W         7 7 x 8 x 8 7 8 x x i x :.y.`       x q                     ` `                       ",
"            y.                  ` x x `               $ 2 W $ 8 x 2 x     $ 8 $ $ O 2 $ x 8 x i 2 a.x         W $ x `                 ` y.                      ",
"                                      $ `             $ } 8 7 $ i 2 2 $ 8 8 7 O 2 $ 2 x 8   ` i i             T 7 x ` W               i 1.                      ",
"                                        g             8 } 8 = $ x 2 x x 8 x 7 8 x x 2 x 2     y.            ` x h x x x x           ` x :.                      ",
"                                                    q x i y.$ 8 2 W i i 8 $.  x ` x $.x $                     i `     $.i x     $.y.`                           ",
"                                                    ` W i x x 2 2 W 2 i 2 }       E x 2 $ x                     n.      8.y.y.y.x                               ",
"                                                    8.x W W $.W $ 8 x i 2 8         8   $ $                                                                     ",
"                                                    8.$ X 2       $ x     T i                                                                                   ",
"                                                      $ O 7         `       T ` 8.                              g                                               ",
"                                                      2 O $                                                 ` ` i                                               ",
"                                                      x 7 $       a.                                        T                                                   ",
"                                                      y.x $.    $.y.                                                                                            ",
"                                                  n.y.y.q   ` a.`                                                                                               ",
"                                                      1.q i                                                                                                     ",
"                                                          `                                                                                                     ",
"                                                                                                                                                                ",
"                                                                                                                                                                ",
"                                                                                                                                                                ",
"                                                                                                                                                                ",
"                                                                                                                                                                ",
"                                                                                                                                                                "
};
