/* XPM */
static char *prtal_10__dragged__removebg_prev1709294834[] = {
/* columns rows colors chars-per-pixel */
"70 70 244 2 ",
"   c None",
".  c #0A020E",
"X  c #07000E",
"o  c #0C0213",
"O  c #0D021B",
"+  c #070010",
"@  c #110315",
"#  c #13031B",
"$  c #18041D",
"%  c #15091E",
"&  c #140323",
"*  c #1B0524",
"=  c #1B0923",
"-  c #15032B",
";  c #1A042B",
":  c #1B0A2B",
">  c #150A27",
",  c #160333",
"<  c #1C0433",
"1  c #14033C",
"2  c #1C043B",
"3  c #1C0A3A",
"4  c #1A0A35",
"5  c #180C29",
"6  c #24052D",
"7  c #220B2A",
"8  c #250A28",
"9  c #27132C",
"0  c #220335",
"q  c #2A0A34",
"w  c #22033D",
"e  c #230B3C",
"r  c #2D0B3B",
"t  c #290536",
"y  c #32093D",
"u  c #32043B",
"i  c #27143C",
"p  c #331A34",
"a  c #3C1E3B",
"s  c #30133C",
"d  c #32182F",
"f  c #43213E",
"g  c #1C0343",
"h  c #190A43",
"j  c #1E034D",
"k  c #1C0B4B",
"l  c #160445",
"z  c #1C0A54",
"x  c #250342",
"c  c #2C0443",
"v  c #24034B",
"b  c #2B044D",
"n  c #260A45",
"m  c #350D4B",
"M  c #360947",
"N  c #251344",
"B  c #351548",
"V  c #250453",
"C  c #2C0453",
"Z  c #230D53",
"A  c #25045B",
"S  c #2C045B",
"D  c #290D5A",
"F  c #310455",
"G  c #33035B",
"H  c #340C5B",
"J  c #3A0958",
"K  c #291256",
"L  c #371459",
"P  c #3C2757",
"I  c #39264A",
"U  c #2C0662",
"Y  c #340563",
"T  c #3A0465",
"R  c #330962",
"E  c #3B036B",
"W  c #35056A",
"Q  c #3C1A67",
"!  c #390974",
"~  c #3A1375",
"^  c #2D1062",
"/  c #430C5C",
"(  c #490A59",
")  c #461256",
"_  c #4A1150",
"`  c #4A2349",
"'  c #51254E",
"]  c #5B295C",
"[  c #572955",
"{  c #602B5F",
"}  c #44096B",
"|  c #481965",
" . c #56176A",
".. c #430475",
"X. c #470878",
"o. c #510A7A",
"O. c #461778",
"+. c #5A187B",
"@. c #57096D",
"#. c #651C77",
"$. c #472864",
"%. c #5F2B63",
"&. c #582978",
"*. c #523373",
"=. c #5A347C",
"-. c #50306D",
";. c #642D69",
":. c #672D74",
">. c #6B3175",
",. c #6D327A",
"<. c #64387C",
"1. c #72337E",
"2. c #623067",
"3. c #594371",
"4. c #62467D",
"5. c #34078C",
"6. c #3D12A8",
"7. c #4B0385",
"8. c #4B028A",
"9. c #450682",
"0. c #580987",
"q. c #591987",
"w. c #520394",
"e. c #59049E",
"r. c #461896",
"t. c #591695",
"y. c #49108E",
"u. c #631C89",
"i. c #751B8C",
"p. c #670998",
"a. c #730A98",
"s. c #661894",
"d. c #6C1393",
"f. c #5B2585",
"g. c #5D3882",
"h. c #572697",
"j. c #6B2784",
"k. c #73288B",
"l. c #633A89",
"z. c #743484",
"x. c #76388D",
"c. c #6B2C94",
"v. c #6C289A",
"b. c #762898",
"n. c #693896",
"m. c #7F3A94",
"M. c #74369A",
"N. c #5B03AB",
"B. c #5702A3",
"V. c #5F11B6",
"C. c #6715A3",
"Z. c #7517AB",
"A. c #6705BA",
"S. c #7D19B3",
"D. c #6305A7",
"F. c #6C26A4",
"G. c #7829A8",
"H. c #7A3BA5",
"J. c #762DB6",
"K. c #624286",
"L. c #6F4B93",
"P. c #7C44A1",
"I. c #6B04C3",
"U. c #7406C7",
"Y. c #7A07D5",
"T. c #7C21CF",
"R. c #841C99",
"E. c #833C9A",
"W. c #853E94",
"Q. c #80378F",
"!. c #950DAE",
"~. c #881DB9",
"^. c #990EB3",
"/. c #872AAA",
"(. c #8838A8",
"). c #9734AF",
"_. c #8828B8",
"`. c #942CB9",
"'. c #8934B6",
"]. c #993BB9",
"[. c #922EAE",
"{. c #A32CBD",
"}. c #8B469A",
"|. c #99449C",
" X c #8A42A7",
".X c #9443AB",
"XX c #8B45B6",
"oX c #9C4ABC",
"OX c #9746B6",
"+X c #A54BBD",
"@X c #9D61BA",
"#X c #A164B5",
"$X c #8709DD",
"%X c #8A18D1",
"&X c #8B26C8",
"*X c #9727C8",
"=X c #973AC5",
"-X c #8E2DD2",
";X c #A838C8",
":X c #B636DA",
">X c #A531D0",
",X c #8D1BE0",
"<X c #930FE9",
"1X c #992AE4",
"2X c #A72DE6",
"3X c #A748C7",
"4X c #B457CA",
"5X c #B94BD4",
"6X c #B457D1",
"7X c #BF79CC",
"8X c #B468CA",
"9X c #AA4AE8",
"0X c #B352EB",
"qX c #BC6BEC",
"wX c #9146C7",
"eX c #C756D7",
"rX c #C665D9",
"tX c #C574D2",
"yX c #D958EB",
"uX c #DE55F3",
"iX c #C849E8",
"pX c #D969E5",
"aX c #D371E7",
"sX c #E973F5",
"dX c #C687EA",
"fX c #D99AE9",
"gX c #E185EC",
"hX c #EC86F5",
"jX c #F096F5",
"kX c #E897EF",
"lX c #D5A7EC",
"zX c #DDB9ED",
"xX c #EAAAF3",
"cX c #F4A8F8",
"vX c #ECB8F3",
"bX c #EFB4F5",
"nX c #DFC6ED",
"mX c #FAC4FB",
"MX c #FCD3FD",
"NX c #E6D0EC",
"BX c #FEEAFE",
"VX c #FDFCFD",
"CX c #FDF5FD",
"ZX c #EAE1EC",
/* pixels */
"                                                                                                                                            ",
"                                                                                                                                            ",
"                                                                                                                                            ",
"                                                                                                                                            ",
"                                                                                                                                            ",
"                                                                                                                                            ",
"                                                          P *.&.=.g.g.=.g.K.                                                                ",
"                                                        P l.'.>X:X:X-XT.T.P.n.                                                              ",
"                                                    I ` q.&X~.0.S.%Xt.w.A.&XwX(.g.                                                          ",
"                                                    $.s.S.u.c w 0.Z.X.C ....q.;XXX<.                                                        ",
"                                                  l.G.p.J t 0 2 o.C.X.S W G M } ).oX*.                                                      ",
"                                                4.'.G.m * < w C ..X.W S C b u t / ).wXK.                                                    ",
"                                                m.`.L & ; c C c c c v A C v w u u J b.H.P                                                   ",
"                                            3.=._.q.* $ < w 6 ; x S U A V v b b c c / /.M.-.                                                ",
"                                            3.n.F.n O # @ ; < j A A V V V F J | / ) ) @.=XM.                                                ",
"                                            K.G.J # o o ; 2 < j A V V C T } X.} o.@.M u j.oX                                                ",
"                                            n.F.; + + ; < & 2 v v v F T E ..0.0.7.S ; $ M ]. X                                              ",
"                                            h.h.; . $ ; & < l g v G } o.0.a.!.^.a.c + @ 6 j.+X                                              ",
"                                          *./.q.; @ * # & 1 1 x G } } ..o.0.a.^.!.@.$ . #  .3X                                              ",
"                                          c.;X .* * $ o - , g V G G G S C V A E 0.a.( @ o u '.H.                                            ",
"                                          `./.m * & o O - 2 V G G F V v j l l l l A ../ * $ u.H.K.                                          ",
"                                        -.`.u.6 * @ o O , v C C C V v g g l 1 1 , 1 k Q c # ) M.$.                                          ",
"                                        &.).m 8 $ o X & g j V b x x 2 0 < ; - , l 1 1 i e : c b.*.                                          ",
"                                        <.(.q # @ + + , l g x 2 2 0 w x x w , - , l h N ; : M /.L.                                          ",
"                                        x./.7 @ . X O g l 1 0 w x V G G C x 0 - - - l K 4 ; M [. X                                          ",
"                                        }..Xq # @ X - v 1 ; 2 x G ..X...T C c < & , 4 N 3 - u E.oX                                          ",
"                                        #X+Xu $ O + - l , < x Y 9.w.B.w.X.E b x - & i B 5 ; 0 R.+X                                          ",
"                                        #X(.q $ @ o & - & < V 5.N.A.U.I.e.7.! U j & 5 N 9 - 6 #.).                                          ",
"                                        dXz.q @ @ @ & & & 0 S w.I.%X1X1XU.w.! S Y c = 4 e 8 q #..X                                          ",
"                                        8X .8 $ # @ - - ; w Y B.Y.0XdXqX,XD...x u B s < e $ 8  .+X                                          ",
"                                        tX#.t @ O O - 2 < w T N.,XdXnXlX9XI.X.b w 6 4 , < : *  .].                                          ",
"                                        7Xj.t = % & - g w w E N.1XlXZXnX0XU.7.C w = - < < 8 d  .OX                                          ",
"                                        rXk.q $ o & , j v x E N.1XlXNXzX9XY.8.S c : = < - = 8 ) G.                                          ",
"                                        4Xs.u % + O , j ^ H E N.,XqXlXaX1XI.7.F B 8 = < - - #  .F.                                          ",
"                                        oXu.t * o + & g R R Y w.Y.1X0X2X$XD.7.F M = - < - $ =  .G.                                          ",
"                                        4X(.r 6 * + O , V U Y 8.I.Y.<X<XU.e...b n $ 6 2 - $ = &.(.                                          ",
"                                        @X].m 6 t $ + # 2 A E 8.A.Y.Y.U.D.8.G b 2 < c 2 - $ = f.F.                                          ",
"                                        l.=X| ; t : @ o & 2 S T 9.B.D.e.0.E C c x b G < ; $ * q.                                            ",
"                                        L.wX+.= 0 ; $ o # 5 x b S E ....T F b C n V V < : $ r v.                                            ",
"                                          n.&.8 & ; : - @ @ - e b C C C m C F F V A 1 < = % $.J.                                            ",
"                                          4.f.9 8 ; , < - > & - < e x n C H H S A j , : = = f.F.                                            ",
"                                          -.f.i q r e g g l 4 < < x v V G R R A V 3 - - % B G.M.                                            ",
"                                            g.Q 7 _ ( J C C V V V D U T T H D z 3 , > % : j.=X                                              ",
"                                            L.h.r q ] i.0.} R H R Y Y Y U A z h 4 : $ % s XXXX                                              ",
"                                            $.M.$.7 8 _ R.~.F.y.9.~ W ^ z z h h 3 : % 9 :.5XP.                                              ",
"                                              v.t.i 5 % y q.T.T.V.r.~ D k k k h 5 > = B =XwX                                                ",
"                                              &.F.$.i 5 > z 5.6.r.~ D Z k k 3 4 & : e | 5XOX                                                ",
"                                                G.'.$.i n ~ 6.h.f.Q D z k h h 3 n m m /.3X                                                  ",
"                                                c.=Xv.L L O.O.Q Q ^ Z z Z Z D J ) ) u.5X(.                                                  ",
"                                                  c.*Xc.&.L L L Q K ^ ~ ~ X.q.#. .+.{.5X                                                    ",
"                                                    ].>Xv.| ) &.&.~ y.C.C.S.a.i.i.;XyX                                                      ",
"                                                      3X5X(.k.k.c./.&X*XS._.`.{.eXpX                                                        ",
"                                                        eXuXeXeX;X>X-X2X&X*X:XuXsX}.`                                                       ",
"                                                        { |.pXsXuXsXuXuXiXuXsXtX}.2.' a p p p                                               ",
"                                                    ' [ ] %.Q.rXhXjXjXkXjXhXtXL.:.2.[ f p p d                                               ",
"                                                [ { ,.x.W.m.(.3XpXgXkXfXxXcXrX4X).}.1.2.[ ` a p                                             ",
"                                                ] ,.m.(..X4XrXkXmXCXVXVXVXCXMXjXqXoX).W.1.{ ' f p                                           ",
"                                                ] 1.(.+XpXjXMXCXVXVXVXVXVXVXVXmXsXrXqX3X.XQ.>.[ `                                           ",
"                                                ] >.z..XrXbXBXVXVXVXVXVXVXVXCXbXhXaX6X+XW.:.` a                                             ",
"                                                2.:.>.z. XrXaXkXbXmXvXxXzXmXbXgXrXoX Xz.2.f p d                                             ",
"                                                    [ { >.z.E.OX4X4XOX X|.}.W.x.z.,.2.[ ` a p                                               ",
"                                                          >.>.,.,.>.;.2.              a a a                                                 ",
"                                                                                                                                            ",
"                                                                                                                                            ",
"                                                                                                                                            ",
"                                                                                                                                            ",
"                                                                                                                                            ",
"                                                                                                                                            ",
"                                                                                                                                            ",
"                                                                                                                                            "
};
