/* XPM */
static char *prtal_11__dragged__removebg_prev1709294833[] = {
/* columns rows colors chars-per-pixel */
"70 70 242 2 ",
"   c None",
".  c #09010B",
"X  c #0C0213",
"o  c #0E021C",
"O  c #130216",
"+  c #110A15",
"@  c #13041B",
"#  c #1A041E",
"$  c #140A1B",
"%  c #1C0D1C",
"&  c #1C121D",
"*  c #0D0123",
"=  c #0F022D",
"-  c #140423",
";  c #150923",
":  c #1B0B24",
">  c #13022C",
",  c #1B032C",
"<  c #16092C",
"1  c #1B0A29",
"2  c #1E0423",
"3  c #1F1326",
"4  c #0E0238",
"5  c #140334",
"6  c #1B0333",
"7  c #1C0B35",
"8  c #14033B",
"9  c #1B043B",
"0  c #180A38",
"q  c #1D1232",
"w  c #23042D",
"e  c #230D2C",
"r  c #230826",
"t  c #211323",
"y  c #271828",
"u  c #240436",
"i  c #240B32",
"p  c #23023C",
"a  c #2C053D",
"s  c #250D3B",
"d  c #2A0A38",
"f  c #31093A",
"g  c #261535",
"h  c #311D2B",
"j  c #392439",
"k  c #2F2135",
"l  c #41283E",
"z  c #140242",
"x  c #1A0343",
"c  c #1A0C42",
"v  c #160349",
"b  c #1E044C",
"n  c #1C0C4B",
"m  c #1D1147",
"M  c #1D0453",
"N  c #1D0759",
"B  c #220343",
"V  c #2A0346",
"C  c #2A0B45",
"Z  c #23034C",
"A  c #2B034C",
"S  c #2C0B4B",
"D  c #240C46",
"F  c #340749",
"G  c #281549",
"H  c #35164B",
"J  c #240353",
"K  c #2A0454",
"L  c #2E0C54",
"P  c #22035A",
"I  c #2C025B",
"U  c #2B0C5C",
"Y  c #230D57",
"T  c #310254",
"R  c #32045B",
"E  c #330C5A",
"W  c #3C0A57",
"Q  c #231154",
"!  c #2A1459",
"~  c #31115D",
"^  c #3C135B",
"/  c #3A1754",
"(  c #372448",
")  c #3D265B",
"_  c #2A0765",
"`  c #340363",
"'  c #34046A",
"]  c #3C0C6B",
"[  c #370865",
"{  c #291066",
"}  c #381465",
"|  c #3B0373",
" . c #39067A",
".. c #3A1076",
"X. c #440856",
"o. c #4A155E",
"O. c #4B1453",
"+. c #47275B",
"@. c #532857",
"#. c #400968",
"$. c #4C1365",
"%. c #451768",
"&. c #430474",
"*. c #44057C",
"=. c #4A0979",
"-. c #471677",
";. c #571B75",
":. c #560F71",
">. c #631876",
",. c #48276B",
"<. c #4C2876",
"1. c #57257A",
"2. c #513374",
"3. c #573879",
"4. c #513764",
"5. c #69347A",
"6. c #672773",
"7. c #57426C",
"8. c #61447A",
"9. c #390A84",
"0. c #2E118E",
"q. c #330DA8",
"w. c #2607A0",
"e. c #4B0486",
"r. c #550B8B",
"t. c #5A098B",
"y. c #5B1986",
"u. c #490394",
"i. c #570798",
"p. c #581294",
"a. c #4F198B",
"s. c #651C88",
"d. c #721791",
"f. c #5C318A",
"g. c #592496",
"h. c #5B2689",
"j. c #77268B",
"k. c #633E8C",
"l. c #773688",
"z. c #6A2898",
"x. c #742798",
"c. c #663996",
"v. c #79349B",
"b. c #682384",
"n. c #5807A6",
"m. c #5B02B3",
"M. c #4713AD",
"N. c #6508A5",
"B. c #770EA6",
"V. c #681BA8",
"C. c #6704B7",
"Z. c #7D1DB8",
"A. c #7715B2",
"S. c #6828A9",
"D. c #7727A8",
"F. c #7737A5",
"G. c #7A27B6",
"H. c #7D35B6",
"J. c #614489",
"K. c #734697",
"L. c #7841A7",
"P. c #7306C9",
"I. c #7519CD",
"U. c #7B07D4",
"Y. c #7111D0",
"T. c #7F27CE",
"R. c #822899",
"E. c #843C9A",
"W. c #8C15B6",
"Q. c #A10EBC",
"!. c #8728AA",
"~. c #9429A8",
"^. c #883AA7",
"/. c #8729B7",
"(. c #8937B6",
"). c #9835BA",
"_. c #912EBE",
"`. c #A13ABD",
"'. c #89449A",
"]. c #8B41A1",
"[. c #9B46B2",
"{. c #9947B4",
"}. c #944FB1",
"|. c #A64FBB",
" X c #9860A4",
".X c #A76CB4",
"XX c #810CDD",
"oX c #8A18D0",
"OX c #B712D6",
"+X c #A30EC4",
"@X c #9526C7",
"#X c #8D33C4",
"$X c #9826D8",
"%X c #9133CF",
"&X c #A428C6",
"*X c #A739C7",
"=X c #AD31D7",
"-X c #9419EB",
";X c #8A0DE5",
":X c #9A23EB",
">X c #A32DEF",
",X c #B334F4",
"<X c #AC18F4",
"1X c #C233E7",
"2X c #9747CB",
"3X c #A848C8",
"4X c #A952C7",
"5X c #B456CC",
"6X c #B647D4",
"7X c #B949CF",
"8X c #B770CA",
"9X c #AE4BF1",
"0X c #B254F3",
"qX c #C145D9",
"wX c #CB59DC",
"eX c #C86AD6",
"rX c #C477D4",
"tX c #C06ECC",
"yX c #D14DEF",
"uX c #DA67EB",
"iX c #D779E6",
"pX c #CF6CF0",
"aX c #E572EE",
"sX c #E256F4",
"dX c #CA89D5",
"fX c #DE8DE9",
"gX c #CE8AF4",
"hX c #DA9EEC",
"jX c #E687EE",
"kX c #E796EF",
"lX c #F192F7",
"zX c #DDACF5",
"xX c #E4A5ED",
"cX c #EAA8F2",
"vX c #EABAF4",
"bX c #F4B3F9",
"nX c #FCC5FB",
"mX c #FADAFB",
"MX c #E9CEF6",
"NX c #F8ECF9",
"BX c #FDFCFD",
"VX c #FEF4FD",
/* pixels */
"                                                                                                                                            ",
"                                                                                                                                            ",
"                                                                                                                                            ",
"                                                                                                                                            ",
"                                                                                                                                            ",
"                                                                                                                                            ",
"                                                            f.2.1.f.2.<.f.J.                                                                ",
"                                                        +.K.2X%X$X$XI.T.G.H.f.)                                                             ",
"                                                      4.z.%XV.t.W.XXn.i.P.$X%XD.2.                                                          ",
"                                                    1.V.H.y.A 9 9.N.| I  .e.y._.!.J.                                                        ",
"                                                    #Xp.S 6 6 9 | i.| _ ' ` F X.!.(.2.                                                      ",
"                                                8.).x.C 1 6 B I *.*.` I I K V a X./.(.k.(                                                   ",
"                                                ].(.F @ , A A p V Z M N M b 9 B p W x.S.,.                                                  ",
"                                            7.3._.a.1 - 6 9 - - 8 N _ P M b Z Z a V W W.D.2.                                                ",
"                                            3.v.D.C o - O O - 8 N P N M J K K E W X.F $.(.L.                                                ",
"                                            K.(./ @ @ + @ * > b M M J J J [ ' *.r.:.X.f s.2X                                                ",
"                                            L.S.1 X $ h : o v M x x Z J _ r.B.C.u.P , O f ).F.                                              ",
"                                            S.S.e + % : X 5 x z x J ` &.i.Q.OXOXt.6 . X w d.|.                                              ",
"                                          2./.g.g y ; X > 8 8 x I ` ] &.=.t.B.+X+X:.@ . O $.3X3.                                            ",
"                                          E.6X1.( j + X > 4 8 J ` ` I K P J N ' t.B.X.O X f /.F.                                            ",
"                                          `.!.W j j + o = 8 J R } U P M b v z z z P 9.I O # y.F.8.                                          ",
"                                        8.*Xs.w 3 y 3 $ 7 b J I R E P Z G 7 5 = 4 4 z J V O X.z.,.                                          ",
"                                          /.H # + 3 y ; 8 Z J J Z B p 6 u 6 > > 8 z 4 4 9 , u S.J.                                          ",
"                                        K.F.w O + + + > v b Z p 9 u p V V p 6 > = 8 v 4 * - f !.K.                                          ",
"                                        K.E.w X X + $ 8 v x 6 6 p T R #.T V p 6 5 5 4 z 5 > V ~.}.                                          ",
"                                        '.|.i O X & 1 x 9 > 6 B ` *.e.e.&.T V p > 4 5 , 9 5 V ~.4X                                          ",
"                                        .X[.w # + & 1 x 5 , x | u.i.N.i.e.=.R V , * 8 8 o - u j.4X                                          ",
"                                        8X^.f # $ 3 $ > > 6 I u.m.C.U.P.N.i.:.` p o o 8 * O w >.).                                          ",
"                                        dXE.f t + + $ o - u ' n.P.;X>X:XXXi.&.F A - O > > O r >.).                                          ",
"                                        8X>.w t t y : @ > p | m.Y.0XgXpX-XC.=.V p , @ 5 9 O # :.).                                          ",
"                                        eXb.d % + $ - > , p | C.-XgXMXxX9XP.e.F p , @ 5 9 @ r o.).                                          ",
"                                        rXb.r # X X @ z 6 p | C.>XzXNXMX0XU.u.T p , o 5 5 O % o.).                                          ",
"                                        eXj.u @ X X * M B p ' C.>XzXmXvX9XU.u.P p - o 5 = O O F G.                                          ",
"                                        8X!.a O X . * M P B R C.-XpXcXgX>XY.u.I p < O 6 = o O #.G.                                          ",
"                                        3XB.a @ . X * b ` I ` u.U.,XyX,XXXC.e.A p - $ 9 5 @ # $./.                                          ",
"                                        }.).a 2 X X - x P  . .p.Y.-X<X;XP.n.=.V p 2 i D 5 $ @ %.H.                                          ",
"                                         X2XW i i $ % 1 B _ e.n.I.;X;XP.N.i.] C s D E Z < $ @ y.g.                                          ",
"                                        f.*X;.g d e y ; 6 A ' *.n.C.m.n.e.=.o./ / ) <.G 3 : e y.S.                                          ",
"                                        K.4X;.: w d 3 $ - 6 A ` ' ..*.&.] E +.o.} ,.2.( j y @.F.                                            ",
"                                          c.h.: ; 7 s 3 + $ < B E E E F S S ^ } Y { Q q 3 y ,.2X                                            ",
"                                          2.2.e r 1 s ( 7 $ $ ; i ( H p S } -.~ Y n 0 ; # e z.S.                                            ",
"                                          ,.,.g e f D / Q c 0 7 s G D L { ] %.~ N 8 < @ 2 H G.F.                                            ",
"                                            <.{ e O.$.X.U } L L ~ { [ ] ..} } Q z 5 ; o - 1.%X                                              ",
"                                            c.g.g y 6.R.d.y.1.-.] ] ..[ { { Q m 0 < + $ 7 F.2X                                              ",
"                                            ) z.,.g y O.~.&X&XD.p.a...{ N ! G m c < $ 1 <.%XF.                                              ",
"                                            ( z.S.H k $ d s.oX:XY.M...n m m Q n < $ 1 g (.3X                                                ",
"                                              h.G.,.( q ; N w.q.0.{ n c n Q m q < 7 C o.qX3X                                                ",
"                                                /.(.2.g D 9.q.0.{ { Q Q n n c s S ^ X.!.qX                                                  ",
"                                                ^.6XD./ o.-.-.{ U Q Q N L U [ #.:.o.s.qX`.                                                  ",
"                                                  !.*Xv.1.^ L ! ~ { { ..e.p.p.s.>.6.`.wX                                                    ",
"                                                    6X=Xz.1.%.} -.-.p.V.V.T.W.R.R.*XuX                                                      ",
"                                                      wX7X^.x.b.s.D.G.@XoX@X&X&XwXjXeX                                                      ",
"                                                        aXuXqX*X/.@X@X=X$X=X1XuXkX.X                                                        ",
"                                                            aXaXyXyXyXyX1XsXlXfX X                                                          ",
"                                                             XrXxXkXkXjXkXkXdX'.6.                                                          ",
"                                                      E.].[.[.5XpXfXxXhXcXcXrX5X[.E.5.5.                                                    ",
"                                                    E.[.7XeXaXcXmXNXVXBXBXBXmXlXpX6X{.E.5.@.                                                ",
"                                                    {.5XiXbXmXVXBXBXBXBXBXBXBXnXlXaXpX4X^.l.                                                ",
"                                                      3XiXnXVXVXBXBXBXBXBXBXBXnXlXaXpX5X].l.                                                ",
"                                                        |.eXfXcXbXvXvXxXvXvXxXfX5X{.E.l.                                                    ",
"                                                          l.E.[.|.|.[.].'.].E.l.l.                                                          ",
"                                                            5.l.                                                                            ",
"                                                                                                                                            ",
"                                                                                                                                            ",
"                                                                                                                                            ",
"                                                                                                                                            ",
"                                                                                                                                            ",
"                                                                                                                                            ",
"                                                                                                                                            ",
"                                                                                                                                            "
};
