/* XPM */
static char *prtal_12__dragged__removebg_prev1709294834[] = {
/* columns rows colors chars-per-pixel */
"70 70 249 2 ",
"   c None",
".  c #07000C",
"X  c #0A010E",
"o  c #040307",
"O  c #0C0114",
"+  c #0C021A",
"@  c #090212",
"#  c #110215",
"$  c #13031C",
"%  c #1A051C",
"&  c #150C1C",
"*  c #19091B",
"=  c #0D0122",
"-  c #0D012B",
";  c #140224",
":  c #1B0324",
">  c #1C0B24",
",  c #14032C",
"<  c #1B032B",
"1  c #1C0A2D",
"2  c #140A25",
"3  c #1E132B",
"4  c #0E0136",
"5  c #130334",
"6  c #1B0332",
"7  c #13033C",
"8  c #1C043B",
"9  c #180938",
"0  c #210B2E",
"q  c #260A2A",
"w  c #251627",
"e  c #210434",
"r  c #23023C",
"t  c #240A3B",
"y  c #280936",
"u  c #281439",
"i  c #331A38",
"p  c #300B3D",
"a  c #32262C",
"s  c #150344",
"d  c #1B0442",
"f  c #170A42",
"g  c #1B034C",
"h  c #1B0A4C",
"j  c #170947",
"k  c #1D0454",
"l  c #1C035B",
"z  c #1D0B55",
"x  c #240343",
"c  c #23034B",
"v  c #2B024A",
"b  c #2B0A4B",
"n  c #280A45",
"m  c #330C4C",
"M  c #380A47",
"N  c #2A1344",
"B  c #391548",
"V  c #230554",
"C  c #2B0455",
"Z  c #23045A",
"A  c #2B045C",
"S  c #280B57",
"D  c #340456",
"F  c #32035A",
"G  c #360C56",
"H  c #381358",
"J  c #2C1254",
"K  c #362349",
"L  c #1B0664",
"P  c #1E0871",
"I  c #2C0364",
"U  c #2E0B64",
"Y  c #2E036F",
"T  c #34046B",
"R  c #350B6C",
"E  c #380567",
"W  c #391568",
"Q  c #340273",
"!  c #380378",
"~  c #320D75",
"^  c #430958",
"/  c #4C135A",
"(  c #410E47",
")  c #592756",
"_  c #4C2C54",
"`  c #612B5E",
"'  c #440A66",
"]  c #481766",
"[  c #430C7C",
"{  c #450576",
"}  c #481674",
"|  c #561577",
" . c #541069",
".. c #621777",
"X. c #49286B",
"o. c #582766",
"O. c #493266",
"+. c #4A2477",
"@. c #58277A",
"#. c #55367B",
"$. c #51376E",
"%. c #642D69",
"&. c #6A3174",
"*. c #6A357A",
"=. c #71357C",
"-. c #652F70",
";. c #614967",
":. c #57446B",
">. c #3E0281",
",. c #370B82",
"<. c #370993",
"1. c #270B8C",
"2. c #2D09AC",
"3. c #4D038B",
"4. c #460685",
"5. c #530788",
"6. c #591A86",
"7. c #4A0595",
"8. c #550697",
"9. c #531796",
"0. c #4C148A",
"q. c #6B1A86",
"w. c #6B1897",
"e. c #791D9A",
"r. c #6C138F",
"t. c #562786",
"y. c #593089",
"u. c #662283",
"i. c #643B85",
"p. c #783689",
"a. c #67299A",
"s. c #79279B",
"d. c #663A94",
"f. c #7C359A",
"g. c #5A05A9",
"h. c #5D13A7",
"j. c #5803B6",
"k. c #5E12B7",
"l. c #6505BC",
"z. c #781EB6",
"x. c #7012AC",
"c. c #5F29A2",
"v. c #6923A7",
"b. c #7627A8",
"n. c #6835A2",
"m. c #7726B5",
"M. c #742DAE",
"N. c #5B4083",
"B. c #7F499A",
"V. c #694989",
"C. c #7647A6",
"Z. c #3206C1",
"A. c #5508C5",
"S. c #6C03C5",
"D. c #6604C5",
"F. c #7717CF",
"G. c #7A06D8",
"H. c #720DC6",
"J. c #6B20C4",
"K. c #7B0AE6",
"L. c #833A98",
"P. c #831FA9",
"I. c #890CB5",
"U. c #9615BD",
"Y. c #8529AA",
"T. c #863BA6",
"R. c #8928B9",
"E. c #9529B7",
"W. c #8934B7",
"Q. c #9737B8",
"!. c #9133AC",
"~. c #A135B9",
"^. c #821593",
"/. c #814092",
"(. c #8F41A6",
"). c #8240AE",
"_. c #9647A8",
"`. c #8745B7",
"'. c #9847B2",
"]. c #9150B5",
"[. c #A64DBE",
"{. c #A75DBA",
"}. c #9964B8",
"|. c #9C68A2",
" X c #A875B5",
".X c #951ED9",
"XX c #8A11CF",
"oX c #A40FD7",
"OX c #A911D6",
"+X c #8724C5",
"@X c #8835C7",
"#X c #9936C8",
"$X c #952CD3",
"%X c #A937C6",
"&X c #A22ADB",
"*X c #AC3CD1",
"=X c #B333CF",
"-X c #8909E9",
";X c #9914F2",
":X c #8F0BF3",
">X c #9B22E6",
",X c #9D21F3",
"<X c #A92CF9",
"1X c #AC33F8",
"2X c #BC2BF0",
"3X c #C03EDC",
"4X c #C83CEC",
"5X c #CB3AF4",
"6X c #C111ED",
"7X c #9142D0",
"8X c #A549C7",
"9X c #AA51C6",
"0X c #BB5CCD",
"qX c #B756CC",
"wX c #AD42D4",
"eX c #B949D7",
"rX c #B042C8",
"tX c #BF65D0",
"yX c #B373CA",
"uX c #B74CF9",
"iX c #BA5AFB",
"pX c #CB62DC",
"aX c #CF77DB",
"sX c #CA72CD",
"dX c #C849E7",
"fX c #D054E1",
"gX c #DA6CEC",
"hX c #D578E5",
"jX c #C96AF2",
"kX c #E66EF4",
"lX c #D654E7",
"zX c #CD8BDA",
"xX c #DA98E5",
"cX c #D78AF3",
"vX c #E78AED",
"bX c #ED86F4",
"nX c #E995F1",
"mX c #F598F9",
"MX c #EF93F5",
"NX c #E6A8EE",
"BX c #E7A9F6",
"VX c #E8B4F6",
"CX c #F9B2FC",
"ZX c #FDC2FD",
"AX c #FADAFD",
"SX c #ECC9FD",
"DX c #FCE8FD",
"FX c #FDF4FC",
"GX c #FDFDFD",
/* pixels */
"                                                                                                                                            ",
"                                                                                                                                            ",
"                                                                                                                                            ",
"                                                                                                                                            ",
"                                                                                                                                            ",
"                                                                      O.                                                                    ",
"                                                            #.y.+.y.X.X.#.N.                                                                ",
"                                                        O.V.@X.X.XXXF.F.z.M.d.O.                                                            ",
"                                                      O.9.J.k.8.z.-Xl.l.G.>X&Xb.$.                                                          ",
"                                                      v.v.} c 8 Q g.{ F >.7.r.U.M.d.                                                        ",
"                                                    #X8.n < , 8 I 7.>.Y Q T v ^ P.R.#.O.                                                    ",
"                                                $.W.b.n ; 6 d A Q >.Q I I C r r D b.W.d.K                                                   ",
"                                                p.E.J ; 6 c c c C Z l l L k c x x D w.z.+.                                                  ",
"                                            :.#.Q.6.1 ; r e $ , s L P L k g g c x x D P.m.*.                                                ",
"                                            :.f.Y.n $ ; ; + + 4 l I l g k k g Z D ^ M ' @XM.                                                ",
"                                            ].#XH $ # O + & , z l g g g g k I >.8.5.M y q.8X                                                ",
"                                            `.b.1 O X # $ > W V g d s k Y 8.D.D.<.g ; # M E.T.                                              ",
"                                          O.M.v.t X + O + N J d n V I [ x.OX6XoX{ ; o X : q.%X                                              ",
"                                          *.#X6.e O O @ 1 d 7 s V I E E 5.r.I.oXXX' # X #  .*Xi.                                            ",
"                                          '.eX} : $ @ + 4 5 s k A Z Z Z Z Z l Y 3.g.F # X y Y.n.                                            ",
"                                        ;.rXs.m % $ X + - 7 g Z V k k l g s 7 s g l ! A $ % | v.V.                                          ",
"                                        V.qX6.0 $ + @ = 4 s k k l Z c 8 6 6 , - 4 4 s V v $ H a.$.                                          ",
"                                        i.W.B % # X @ = 7 g g V c r 8 6 < ; ; - 4 s 4 4 6 e y b.V.                                          ",
"                                        /.T.< # O . @ - s g g 8 8 r v v v x 6 5 - - s 7 = : M !.C.                                          ",
"                                        /.T.1 X X o + 5 s 7 6 e r ' | ' D v v g s 7 = 7 7 ; p !.}.                                          ",
"                                        L.'.e O X o = s 7 < e c ' 5.5.5.{ C c r 8 s 7 = 5 6 y E.8X                                          ",
"                                        {.Q.y # X . = d 5 < 8 Q 7.8.g.8.3.{ D r < ; 7 5 O ; e e.*X                                          ",
"                                        yX!.p % X . O , ; 6 A 7.g.S.G.G.g.3.' D r $ = 7 = O < | E.                                          ",
"                                        zXf.B q O . X + ; r Q j.D.-X<X;XXX8.{ v x ; @ = , # %  .Q.                                          ",
"                                        tXq.i w @ @ X + ; r >.l.K.iXcXjX;Xl.{ v r < @ ; , $ %  .#X                                          ",
"                                        0Xq.t * @ . O + < r ! D.,XcXAXVXuXG.3.F r ; O ; 6 $ :  .Q.                                          ",
"                                        sXq.> * O @ + - < r ! S.1XVXFXSXiXG.8.F r , O 6 < + * / #X                                          ",
"                                        pX^.q > & @ + s 6 r E S.1XBXAXSXuXK.8.D r : + , ; X # v m.                                          ",
"                                        qXP.r w w O + g c x F g.;XjXBXcX,XG.3.C r ; O < ; # % G m.                                          ",
"                                        Q.+Xm > w & + d Z c C 3.K.<XuX1X-XD.3.F r $ % x ; O % ] +X                                          ",
"                                        ].#XB u w w 1 7 Z Y I 3.S.:X;X:XS.D.3.C 8 : r C $ O % ] W.                                          ",
"                                        }.wXo.N a a & 1 g A ! 7.D.K.-XK.D.g.! b 6 d A c # # $ 6.v.                                          ",
"                                        N.@X] 3 i > & + 8 c T >.g.j.D.g.3.0./ B t V V 7 $ # > 9.                                            ",
"                                        C.7X} 2 1 t $ O 2 v A I T ! { { ' ] J m V h j , # * M b.                                            ",
"                                          n.6.* $ 6 e & # 2 r A A C S b b N G S V g 7 2 + & ] @X                                            ",
"                                          @.t.0 q ; 6 9 , & & ; 6 t n N n A U A k s 5 2 $ 0 a.m.                                            ",
"                                          X.+.3 y p x d d 5 , 2 6 t B J U T I Z f 7 5 & > m R.`.                                            ",
"                                            +.J w M ' G Z Z V V S W +.R ~ U Z j 7 9 2 & > @.*X                                              ",
"                                            n.t.i q / e.r.{ E T E R W R U z h 9 9 5 2 & 0 M.7X                                              ",
"                                            X.v.] 3 > ( ^.U.I.x.8.7.,.P z f f f f 1 % > X.#X).                                              ",
"                                              s.e.u 3 & q { XX;XK.A.1.z f f h h 1 2 0 N M.wX                                                ",
"                                              y.R.} K 0 2 L 2.Z.2.P f 9 f h h 9 1 n m ] wXrX                                                ",
"                                                #XQ.X.u G <.2.1.L h h z z N f N J ' H s.3X                                                  ",
"                                                9XdXs./  .| 0.U S z z S G G R [ | ] u.3XeX                                                  ",
"                                                  %X*Xf.@.H J J W U W ~ 0.9.h.w.....~.fX                                                    ",
"                                                    fX*Xa.@.} ] W 0.9.h.H.XXI.^.s.~.gX                                                      ",
"                                                      hXqX!.s.u.6.a.m.F..X&X=X3XeXvXsX                                                      ",
"                                                        vXgXeXE.b.+X+X.X>X6X4XkXNX X                                                        ",
"                                                            vXgXdXdX4X5X5XkXmXxX|.=.                                                        ",
"                                                              xXnXMXnXvXnXvXzX/.%.)                                                         ",
"                                                          qX0XpXhXzXNXxXNXNXhX0X_.L.=.&.`                                                   ",
"                                                -.p.(.9XaXbXmXCXAXFXFXGXGXFXAXCXkXjX9XL.-.) _                                               ",
"                                              ) =.T.[.pXbXCXDXGXGXGXGXGXGXGXGXCXmXkXgX9XL.=.%.                                              ",
"                                            ) ) &.L.'.qXbXAXGXGXGXGXGXGXGXGXFXCXmXbXgXqX(.&.                                                ",
"                                            ) %.&.=.=.p.'.aXxXVXVXVXNXNXVXVXxXaXtX[.(.p.-.                                                  ",
"                                                      ) %.p.(.'.'.'.(.(._.(.L.p.=.-.o.                                                      ",
"                                                                                                                                            ",
"                                                                                                                                            ",
"                                                                                                                                            ",
"                                                                                                                                            ",
"                                                                                                                                            ",
"                                                                                                                                            ",
"                                                                                                                                            ",
"                                                                                                                                            ",
"                                                                                                                                            "
};
