/* XPM */
static char *prtal_13__dragged__removebg_prev1709294834[] = {
/* columns rows colors chars-per-pixel */
"70 70 242 2 ",
"   c None",
".  c #050106",
"X  c #06000C",
"o  c #09020E",
"O  c #050113",
"+  c #0C0114",
"@  c #0D021A",
"#  c #0B0419",
"$  c #120316",
"%  c #12031C",
"&  c #15091D",
"*  c #17091A",
"=  c #1C1118",
"-  c #24111D",
";  c #0C0222",
":  c #0C012E",
">  c #140324",
",  c #190324",
"<  c #1B0C25",
"1  c #14032B",
"2  c #1B032C",
"3  c #1D092B",
"4  c #140926",
"5  c #1B1129",
"6  c #0D0134",
"7  c #0E023B",
"8  c #130334",
"9  c #1B0433",
"0  c #12033C",
"q  c #1C053C",
"w  c #1C0A3C",
"e  c #150938",
"r  c #1F103D",
"t  c #21072A",
"y  c #261527",
"u  c #230D36",
"i  c #23043B",
"p  c #230C3A",
"a  c #270839",
"s  c #310E3A",
"d  c #281437",
"f  c #331A33",
"g  c #381B3B",
"h  c #33192E",
"j  c #45213F",
"k  c #0E0140",
"l  c #140443",
"z  c #1C0343",
"x  c #14034B",
"c  c #1B054B",
"v  c #1A0A4C",
"b  c #170A46",
"n  c #160352",
"m  c #1C0453",
"M  c #1D045B",
"N  c #1A0959",
"B  c #240344",
"V  c #2B0542",
"C  c #2C0A44",
"Z  c #2A034C",
"A  c #26094D",
"S  c #34084B",
"D  c #2B1645",
"F  c #35144C",
"G  c #250454",
"H  c #23055C",
"J  c #2A035B",
"K  c #290A57",
"L  c #350857",
"P  c #3A145C",
"I  c #361656",
"U  c #26155C",
"Y  c #35214D",
"T  c #3A255D",
"R  c #1B0363",
"E  c #1B076B",
"W  c #1C0676",
"Q  c #240563",
"!  c #290767",
"~  c #3D036B",
"^  c #370568",
"/  c #371468",
"(  c #280475",
")  c #340272",
"_  c #370479",
"`  c #36136D",
"'  c #41194D",
"]  c #430A59",
"[  c #42155E",
"{  c #4B2345",
"}  c #482245",
"|  c #51254B",
" . c #54284F",
".. c #532652",
"X. c #5A2A59",
"o. c #413152",
"O. c #41086B",
"+. c #471668",
"@. c #521867",
"#. c #490B7A",
"$. c #461377",
"%. c #581A75",
"&. c #48276C",
"*. c #5E2B62",
"=. c #532F6B",
"-. c #493564",
";. c #543D69",
":. c #4B2873",
">. c #572378",
",. c #543678",
"<. c #652D6A",
"1. c #652D6B",
"2. c #65316C",
"3. c #672F71",
"4. c #6B3176",
"5. c #71327D",
"6. c #5B417A",
"7. c #62487D",
"8. c #6D537F",
"9. c #390588",
"0. c #36038F",
"q. c #2B09A9",
"w. c #3505B5",
"e. c #43028A",
"r. c #4B0586",
"t. c #550A8A",
"y. c #4A1386",
"u. c #581888",
"i. c #480693",
"p. c #560696",
"a. c #4F1399",
"s. c #641A85",
"d. c #691997",
"f. c #701390",
"g. c #5D2599",
"h. c #572B86",
"j. c #652687",
"k. c #603B85",
"l. c #763687",
"z. c #742596",
"x. c #673A97",
"c. c #7B3592",
"v. c #6D2593",
"b. c #5707A3",
"n. c #5B05B3",
"m. c #4D0BAA",
"M. c #6408A7",
"N. c #691CAC",
"B. c #7B1DA3",
"V. c #6606B6",
"C. c #671BB8",
"Z. c #771BB7",
"A. c #770DB5",
"S. c #5921A7",
"D. c #6924A7",
"F. c #7728A8",
"G. c #6D32AD",
"H. c #792FB3",
"J. c #714791",
"K. c #764CA1",
"L. c #3706D6",
"P. c #520AD4",
"I. c #6B06C5",
"U. c #7405CA",
"Y. c #7A18CA",
"T. c #7905D5",
"R. c #732BC5",
"E. c #790BEB",
"W. c #863D9A",
"Q. c #803A8F",
"!. c #8613BA",
"~. c #882AA6",
"^. c #883BA6",
"/. c #8126B6",
"(. c #922BBA",
"). c #8B33BA",
"_. c #9737BC",
"`. c #952BAE",
"'. c #A43CAC",
"]. c #836294",
"[. c #8B44A6",
"{. c #9445AA",
"}. c #8545B5",
"|. c #9845B7",
" X c #9656B3",
".X c #A14DB8",
"XX c #A56DAB",
"oX c #894F90",
"OX c #8617C9",
"+X c #850BD6",
"@X c #9014DC",
"#X c #8525C6",
"$X c #9426C3",
"%X c #8A37C5",
"&X c #9C39C9",
"*X c #8E2CD0",
"=X c #A938CA",
"-X c #AB26D8",
";X c #B037D2",
":X c #870BE8",
">X c #970BEE",
",X c #9516EC",
"<X c #9F20F3",
"1X c #A526E2",
"2X c #AE30F3",
"3X c #B31AF6",
"4X c #CA35F1",
"5X c #9344CC",
"6X c #A647C9",
"7X c #B845CF",
"8X c #AD53C7",
"9X c #B75AC9",
"0X c #B645D6",
"qX c #B852D6",
"wX c #BB4EF5",
"eX c #C34EDA",
"rX c #CD6ED9",
"tX c #D755E7",
"yX c #C74EEE",
"uX c #E859F5",
"iX c #D669E8",
"pX c #D97AE5",
"aX c #D26EF3",
"sX c #E879F2",
"dX c #CA86D9",
"fX c #D58DDA",
"gX c #D88EF0",
"hX c #E388EC",
"jX c #E79AED",
"kX c #EA86F4",
"lX c #E998F2",
"zX c #F694FA",
"xX c #F78DFD",
"cX c #E3ABEC",
"vX c #E7A6F5",
"bX c #EAB5F8",
"nX c #F6B2F8",
"mX c #FAD8FD",
"MX c #F6C5FB",
"NX c #FCE7FD",
"BX c #FDF3FD",
"VX c #FDFEFD",
/* pixels */
"                                                                                                                                            ",
"                                                                                                                                            ",
"                                                                                                                                            ",
"                                                                                                                                            ",
"                                                                                                                                            ",
"                                                              -.    ;.o.                                                                    ",
"                                                            ,.,.&.h.:.:.&.7.                                                                ",
"                                                        6.k.R.R.OX+XY.OXZ.H.x.T                                                             ",
"                                                        g.C.n.i.d.+X+XU.+X1X1XN.:.                                                          ",
"                                                      N.C.y.A 8 B e.i._ e.i.d.!.F.x.                                                        ",
"                                                o.J.&XN.F 3 2 8 l ) e.) _ ) Z S d.#Xx.-.                                                    ",
"                                                6.`.F.[ s 8 z m H ) _ ! ( J B q Z N.%Xx.                                                    ",
"                                                W.%XF 1 q Z G J ! ( E R R M z z B S s.Z.:.                                                  ",
"                                            -.,.|.u.3 > Z B q B m E E R n x x z z i V A.R.k.                                                ",
"                                            k.[.~.a % 9 2 2 > 7 R R n x x x x M ^ L S ] #X}.                                                ",
"                                             X6XI , % > > @ 6 n K c x l x n ( 0.i._ V t s.=X                                                ",
"                                            |.F.3 $ % > @ ; n x l k k n _ n.P.w.W 6 $ $ C $X^.                                              ",
"                                          -./.g.p $ % $ # 7 l 0 k k R 9.V.>X>XV.G . . . , s.-X                                              ",
"                                          l.&Xu.u * y # 6 0 7 k x M H Q ( e.V.+XV.J o . $ ] =X                                              ",
"                                          9X0X+.t < & 4 8 6 7 x n n n n x n n ( 0.i.! + o a F.J.                                            ",
"                                          0Xv.C , > + 1 0 0 x x x x n x k 7 7 7 c m ( J $ > y.g.6.                                          ",
"                                        ].qXs.t % + X ; 0 b v c m m z 9 2 1 8 6 b D 7 m B % P D.                                            ",
"                                          ).F $ # o O : 6 x K P A B i 9 9 > > ; w Y b 6 8 9 i S.J.                                          ",
"                                        [.c., + O X O : 0 l C ' C ' L Z Z B z q e D D w ; > a F.K.                                          ",
"                                        {.z., O X . @ 6 7 0 9 i S %.#.O.S Z B B c D d e 6 @ 2 z. X                                          ",
"                                        ^.`., o . . ; k 8 > 9 Z ~ r.p.#.O.L B i p T r # 1 1 i /.5X                                          ",
"                                        &X~.t o X . ; k 1 2 i ) i.M.M.M.r.O.Z B g d c 1 X @ 2 f.).                                          ",
"                                        =X~.a $ X . O 8 > 2 J i.b.U.T.T.M.r.O.L C % 1 z + o > +./.                                          ",
"                                      J.9Xz.a $ . . O @ , i ) m.I.,X2X<XT.b.#.S B > # z 8 o % +.).                                          ",
"                                        7X>.t $ O X X + 1 i 9.I.E.wXgXaX<XU.t.S i , + Z Z + $ ] $X                                          ",
"                                        =Xs.t $ = & X # 2 B e.T.2XgXmXbX2X+Xp.L i > $ V L $ $ ] $X                                          ",
"                                        7X4., $ - = # % 2 B #.U.2XMXVXmXyX+Xp.O.B 1 + 9 a # - [ %XK.                                        ",
"                                        eXf., $ o O 5 r a V O.I.2XvXNXbXwXT.i.#.L 2 + ; > + - S N.                                          ",
"                                        =XB.i # o O & I F i ^ V.,XaXvXgX<XT.p.y.#.> + % % O $ S ).                                          ",
"                                      7.H.OXV $ o O + d K C S p.E.2XyX2X:XV.t.g.` , > 9 % o $ +.#X                                          ",
"                                        |.OXS @ + o 4 3 m Q J r.U.>X3X>XT.n.t.y.S a z z % o % +.H.                                          ",
"                                        K.*X/ > # o & u q H ! 0.n.T.,X:XV.b.e.J a B c l % o < y.D.                                          ",
"                                        k.G.P 4 < # & < q B J _ m.n.I.A.g.u.^ V q c 0 8 # + 3 u.                                            ",
"                                        K.5X$.$ 2 3 y < 9 K J K ) #.u.y.%.&.C s A l e 3 & $ s F.                                            ",
"                                        J.G.u., % e p & @ 9 K ) _ $.@.K S C B G m b r d # & I %X                                            ",
"                                          h.g.d 3 2 0 w 1 # & 2 C F D C B A K N b l r u & < u.Y.                                            ",
"                                          / S.p s s q 0 0 e ; 4 4 9 q A G H M m l e r < & C _.6X                                            ",
"                                          &.S.+.d S ] K c A c c b A H Q ! Q N b e e u - < >.;X                                              ",
"                                            G.g.f t ] f.t.) ! ! Q ! ! Q R N b e b e & * d F.5X                                              ",
"                                            :.F.+.5 < S f.!.A.b.i.i.0.W N b b b b e & 3 :.&X}.                                              ",
"                                            Y ~.B.p y 5 * I V.:XE.P.q.E v b v v e < t S H.qX                                                ",
"                                              j.(.%.Y 5 , M q.L.L.q.E b v v v r 3 C F ] =X7X                                                ",
"                                                =X|.=.D L b.P.q.W R U T U N U v L O.P v.;X                                                  ",
"                                                8XtXW.@.%.f.#.) U Q U / / / ~ O.t.@.j.0X7X                                                  ",
"                                                  =X0X{.>./ I I / U ` ` #.a.N.~.f.4.(.tX                                                    ",
"                                                    tX=Xj.>.+.+.` $.9.S.C.Y.$X`.'.=XuX                                                      ",
"                                                      pX9XH.v.3.$.g.N.Y.@X1X-X;XeXsXrX                                                      ",
"                                                        hXiX7X~.d.Z.Z.OX1X2X4XuXjXXX| h h                                                   ",
"                                                          XXpXiXeXyX;X2X4XuXzXfXXX*.} j h h f                                               ",
"                                                  ' j { ..*.oXdXjXjXxXkXjXhXdXQ.<. .{ j g g f h                                             ",
"                                              { ..X.3.l.W..X.XpXpXdXjXjXvXjXpX9X{.Q.5.<. .j g f                                             ",
"                                          j { X.2.Q.{.eXsXnXMXmXNXNXBXBXBXBXmXnXsXiX8XW.3.| Y f                                             ",
"                                          { { <.l.{.9XpXzXMXBXVXVXVXVXVXVXVXBXnXxXxXaX.Xc.3.X.{                                             ",
"                                          { | *.l.[..XeXjXmXBXVXVXVXVXVXVXVXmXnXzXxXpX8XW.3...                                              ",
"                                             .<.1.4.4.l..XdXcXbXcXcXcXcXbXvXhXrX9X9X{.c.4.X.                                                ",
"                                                  | | ..<.5.W.[.{.W.W.{.^.{.Q.5.4.<.X...                                                    ",
"                                                      {  .X.<.<.<.3.3.2.2.                                                                  ",
"                                                                                                                                            ",
"                                                                                                                                            ",
"                                                                                                                                            ",
"                                                                                                                                            ",
"                                                                                                                                            ",
"                                                                                                                                            ",
"                                                                                                                                            ",
"                                                                                                                                            "
};
