/* XPM */
static char *prtal_1__dragged__removebg_previ1709294380[] = {
/* columns rows colors chars-per-pixel */
"70 70 244 2 ",
"   c None",
".  c #040106",
"X  c #06000B",
"o  c #09020E",
"O  c #060112",
"+  c #0C0114",
"@  c #0D021B",
"#  c #0B041A",
"$  c #120316",
"%  c #13031C",
"&  c #14091D",
"*  c #17091A",
"=  c #1C1118",
"-  c #24111D",
";  c #0C0122",
":  c #0C012D",
">  c #140324",
",  c #1A0324",
"<  c #1B0B25",
"1  c #14022B",
"2  c #1A032C",
"3  c #1C0A2A",
"4  c #140829",
"5  c #0E0235",
"6  c #0D023B",
"7  c #130334",
"8  c #1B0433",
"9  c #12033C",
"0  c #1C053C",
"q  c #13083C",
"w  c #1C0B3C",
"e  c #150932",
"r  c #1B112A",
"t  c #21042C",
"y  c #210A2A",
"u  c #261525",
"i  c #23043B",
"p  c #230B3A",
"a  c #290C3A",
"s  c #240836",
"d  c #291537",
"f  c #361934",
"g  c #310D3B",
"h  c #411D3C",
"j  c #43203E",
"k  c #0E0140",
"l  c #140443",
"z  c #1B0343",
"x  c #14034B",
"c  c #1C054B",
"v  c #170A4A",
"b  c #1A0B4B",
"n  c #170B42",
"m  c #160352",
"M  c #1C0454",
"N  c #1D035C",
"B  c #1C095B",
"V  c #180857",
"C  c #240343",
"Z  c #2B0542",
"A  c #2D0A44",
"S  c #23044C",
"D  c #2B044C",
"F  c #290A4B",
"G  c #34084B",
"H  c #281444",
"J  c #34134B",
"K  c #240554",
"L  c #2B0355",
"P  c #24045B",
"I  c #2B035D",
"U  c #270E59",
"Y  c #350B53",
"T  c #360858",
"R  c #371559",
"E  c #27135D",
"W  c #372259",
"Q  c #36274A",
"!  c #1B0363",
"~  c #1B066C",
"^  c #1F097B",
"/  c #240564",
"(  c #290664",
")  c #29056A",
"_  c #3D036B",
"`  c #360668",
"'  c #371566",
"]  c #270475",
"[  c #350372",
"{  c #37047A",
"}  c #371270",
"|  c #3D2160",
" . c #421B48",
".. c #420A59",
"X. c #41155D",
"o. c #4B2347",
"O. c #53264C",
"+. c #5C295D",
"@. c #562754",
"#. c #423357",
"$. c #402F58",
"%. c #42086A",
"&. c #461568",
"*. c #521867",
"=. c #490A79",
"-. c #481576",
";. c #571A76",
":. c #49296C",
">. c #5C2C65",
",. c #483267",
"<. c #533D6C",
"1. c #4C2572",
"2. c #592579",
"3. c #563678",
"4. c #652E6D",
"5. c #632D64",
"6. c #692A77",
"7. c #6B337B",
"8. c #72337E",
"9. c #663A67",
"0. c #5B407A",
"q. c #574162",
"w. c #664C7D",
"e. c #370589",
"r. c #36038F",
"t. c #2F07AE",
"y. c #44028A",
"u. c #490686",
"i. c #540989",
"p. c #4D1487",
"a. c #581988",
"s. c #470693",
"d. c #560696",
"f. c #551797",
"g. c #631886",
"h. c #691A97",
"j. c #7B1F9A",
"k. c #6E118E",
"l. c #5C3786",
"z. c #5D2499",
"x. c #532387",
"c. c #66268A",
"v. c #773686",
"b. c #682698",
"n. c #752598",
"m. c #653995",
"M. c #7F3A92",
"N. c #7A319A",
"B. c #6B3086",
"V. c #5807A3",
"C. c #5C05B5",
"Z. c #4E0EA9",
"A. c #6409A8",
"S. c #661CAA",
"D. c #741BAA",
"F. c #6606B7",
"G. c #791BB7",
"H. c #6A15B8",
"J. c #5E22AB",
"K. c #6D28AB",
"L. c #7C2DAB",
"P. c #7625A7",
"I. c #7737A7",
"U. c #7C27B6",
"Y. c #712EB1",
"T. c #5E4D80",
"R. c #734A94",
"E. c #3706D5",
"W. c #5308D8",
"Q. c #4F0ECC",
"!. c #6C05C5",
"~. c #7505CB",
"^. c #7A18CA",
"/. c #7905D6",
"(. c #732CC5",
"). c #790BEC",
"_. c #863D9A",
"`. c #8614BB",
"'. c #872AA7",
"]. c #873AAA",
"[. c #8625B5",
"{. c #942BB6",
"}. c #8F37BF",
"|. c #9637B9",
" X c #A43CAB",
".X c #824198",
"XX c #864B8C",
"oX c #9E649D",
"OX c #8846A6",
"+X c #9545AB",
"@X c #9A48B5",
"#X c #9153B2",
"$X c #A34FB5",
"%X c #A96FB1",
"&X c #8517C9",
"*X c #830AD6",
"=X c #8E12DA",
"-X c #8727C5",
";X c #9422C2",
":X c #8837C2",
">X c #9A39C6",
",X c #8F2CD0",
"<X c #A737C8",
"1X c #A828DF",
"2X c #BC39D8",
"3X c #AE34D0",
"4X c #8A0BEB",
"5X c #9611EE",
"6X c #9F20F3",
"7X c #A72CF7",
"8X c #AC2EEE",
"9X c #B618F8",
"0X c #C834F0",
"qX c #A646C6",
"wX c #B448CC",
"eX c #B55ACA",
"rX c #B644D6",
"tX c #BB59D4",
"yX c #B863C8",
"uX c #BB4AF3",
"iX c #8B43D1",
"pX c #C652D9",
"aX c #C570D0",
"sX c #CC52ED",
"dX c #E65AF5",
"fX c #D164E5",
"gX c #D878E7",
"hX c #CC6BF0",
"jX c #E272EC",
"kX c #CC8AD8",
"lX c #D78CF4",
"zX c #E698EE",
"xX c #EA87F4",
"cX c #F598FA",
"vX c #EB91F3",
"bX c #E2A7EA",
"nX c #E9A7F8",
"mX c #F1B3F9",
"MX c #FAD7FD",
"NX c #F1C5FC",
"BX c #FDE6FD",
"VX c #FCEBFC",
"CX c #FDFDFC",
"ZX c #FEF6FD",
/* pixels */
"                                                                                                                                            ",
"                                                                                                                                            ",
"                                                                                                                                            ",
"                                                                                                                                            ",
"                                                                                                                                            ",
"                                                              ,.    q.$.                                                                    ",
"                                                            l.l.1.l.:.:.:.0.                                                                ",
"                                                        <.l.Y.(.&X*X^.^.G.}.m.W                                                             ",
"                                                      W x.H.C.s.A.*X/.~.*X1X1Xh.:.                                                          ",
"                                                  Q 3.S.J.p.F 7 C u.u.{ e.d.A.`.K.l.                                                        ",
"                                                #.R.>XS.R 8 2 7 9 [ y.[ { [ D G j.(.l.,.                                                    ",
"                                                <.].P.&.g 8 9 M P [ { ) ) P C i D D.:Xm.Q                                                   ",
"                                                OX|.Y 4 i K L I ) ] ! ! / N c z C D f.D.&.                                                  ",
"                                            #.3.>Xg.3 > C C 0 S m ] ~ ! V x l l z i Z D.U.3.                                                ",
"                                            T.].].s % 8 2 2 > 6 ! ! m m x x x P I T G ..-XI.#.                                              ",
"                                            #XqXY , % % > @ 5 V U c l k k N ^ r.V.{ g t a.|.                                                ",
"                                            |.L.3 $ % % + ; x x k 6 k m { C.W.t.~ 5 + o Z ;XN.                                              ",
"                                          #.[.z.p $ & % O l l 6 k x ! e.F.5X5XF.P o . o % g.<X                                              ",
"                                          B.>Xx.p & u # 5 9 7 k x N P / ] y.F.*XF.L o . $ &.>X3.                                            ",
"                                          $XrX&., < < 4 7 6 k x V m m x c m V ] r.s.L $ o s P.m.                                            ",
"                                          qXk.J , > + 1 9 9 x m x x x x l 9 6 6 c N ] I % % p.z.0.                                          ",
"                                        R.eX;.y % + o ; 7 v c c m K z 7 1 1 1 5 n H k K C % R K.:.                                          ",
"                                        7.].J * @ O O : 6 x U R L C i 8 2 > @ 1 w W n 5 8 2 i z.R.                                          ",
"                                        R.N., $ O X O : 9 l F  .A  .Y D D C z l e d J q : % i P.R.                                          ",
"                                        _.n.t o o X # 5 6 9 8 i Y *.=.%.T G C C b H f e 5 ; 8 P.#X                                          ",
"                                        _.'., o . . ; 6 7 > t D _ i.i.u.%.L C i a W w # : 1 t [.I.                                          ",
"                                        |.'.t o X . ; 6 1 2 i [ s.A.A.A.u.%.D C f H c 1 o @ , k.P.                                          ",
"                                      0.<X'.s $ X X O 7 1 t L r.V.~./.~.A.u._ T A % 1 l + o % -.h.                                          ",
"                                      w.wXn.s $ X . o @ > i [ C.Q.6X7X6X/.V.=...Z > + z 7 + % *.L.,.                                        ",
"                                        wX;.t $ o X o + 1 i e.!.=XuXlXhX6X~.i.G i 1 + D C $ $ ..[.                                          ",
"                                        2Xg.t $ = # o # , C y.~.7XlXMXmXuX/.i.T i > + Z T % $ ..[.3.                                        ",
"                                        wX;.t $ - = # % 8 Z =.~.7XNXZXNXsX*Xd.%.C 1 + 2 Z + * R :XR.                                        ",
"                                        2Xj., # # o < w a Z _ !.7XnXBXmXuX/.s.=.T > + % > + - G S.                                          ",
"                                        <XD.t # o X & W J i _ A.6XhXnXlX7X/.s.p.p.> + @ % + $ Y L.                                          ",
"                                      T.'.&XA + o o # H U S T d.4X7XsX7X4XF.i.z.&.> > 2 @ o % &.U.                                          ",
"                                        #X-XG % O o ; 3 K I L u.!.5X9X5X~.F.d.-.G i z z % + $ &.L.                                          ",
"                                        OX,XR > # o & d 0 P ) y.C./.4X4X!.V.u.I s D c l & o * x.f.                                          ",
"                                        m.Y.R > < # # < z C ( { Z.!.~.G.f.a.` A 0 z 9 7 % + , a.x.                                          ",
"                                        R.iX&.& 4 8 - u 8 K I I ) =.f.=.;.:.A a S n q e # $ a P.Y.                                          ",
"                                        w.Y.f.> * 8 w * & e K ` [ -.&.G G A C F K n w d * & R :X                                            ",
"                                          x.z.d t 2 0 0 4 % % 2 n J J Z C S U P v q n d * 3 g.^.                                            ",
"                                          ' z.p g A 0 9 9 e 4 4 3 8 w C K P P M 9 q w < & a >X].                                            ",
"                                          | J.} d G ..L c S c c b c P ( ( / B n q q s - * 2.<X                                              ",
"                                            Y.b.d u ..k.i.[ ) ( ( ( ( / / B n q n q < & s I.iX                                              ",
"                                            3.P.&.y r G k.`.G.V.s.s.r.^ V v n v n e & < :.>XI.                                              ",
"                                            J P.n.a d = , T A.4X).W.t.~ v v v v e 4 y G ].rX                                                ",
"                                              B.[.;.Q s > B t.E.E.t.~ v v v v n s C J X.>XrX                                                ",
"                                                <X|.<.H Y V.Q.t.^ V E W E v E H T &...b.2X                                                  ",
"                                                wXsX.X>.;.g.=.) ( E E ' ' ' _ =.i.*.c.2XrX                                                  ",
"                                                  <XrX+X2.&.R ' ' E } } e.s.K.j.B.6.{.pX                                                    ",
"                                                    pX<Xc.;.&.&.' -.p.Z.H.^.;X{. X<XdX                                                      ",
"                                                      aXeX].b.2.;.h.H.(.=X1X3X2XpXjXaX                                                      ",
"                                                    f 9.%XgXrX'.h.G.G.&X1X0X0XdXvX%X                                                        ",
"                                                    f f @.oXgXfXrXsX2X8X0XdXvXkXoX9.                                                        ",
"                                                  h  .o.O.+.XXkXzXvXvXxXzXvXkX_.4.O.@.O.                                                    ",
"                                                @.+.4.7._.$X%XfXgXkXzXzXzXxXgXeX+X_.8.5.@.                                                  ",
"                                              5.7.M.@XyXzXNXBXBXVXVXVXVXBXVXMXmXjXfXqXM.5.O.                                                ",
"                                            +.4.M.$XpXjXcXMXCXCXCXCXCXCXCXCXBXmXcXxXhX@Xv.5.                                                ",
"                                            O.>.B.OX@XtXxXMXCXCXCXCXCXZXZXVXMXmXcXcXjX$XM.4.                                                ",
"                                              +.>.4.9.v.$XaXbXmXbXbXbXnXnXvXgXaXeXeX@X_.8.                                                  ",
"                                                  o.o.O.+.6._._._._.OX+X+X+X_.7.7.                                                          ",
"                                                    j o.O.@.@.+.+.5.5.4.4.                                                                  ",
"                                                                                                                                            ",
"                                                                                                                                            ",
"                                                                                                                                            ",
"                                                                                                                                            ",
"                                                                                                                                            ",
"                                                                                                                                            ",
"                                                                                                                                            ",
"                                                                                                                                            "
};
