/* XPM */
static char *_s1709288150[] = {
/* columns rows colors chars-per-pixel */
"80 45 162 2 ",
"   c None",
".  c #4A1E43",
"X  c #481B44",
"o  c #481C44",
"O  c #491C45",
"+  c #491D45",
"@  c #4A1D44",
"#  c #4A1D45",
"$  c #4A1E45",
"%  c #4B1E45",
"&  c #4A1F45",
"*  c #4A1D46",
"=  c #4B1D47",
"-  c #4A1E46",
";  c #4B1E46",
":  c #4B1F46",
">  c #4B1E47",
",  c #4B1F47",
"<  c #4C1F46",
"1  c #4C1F47",
"2  c #4A1E48",
"3  c #4B1F48",
"4  c #4C1F48",
"5  c #4D1F48",
"6  c #4B2045",
"7  c #4B2245",
"8  c #4C2045",
"9  c #4C2046",
"0  c #4D2046",
"q  c #4C2146",
"w  c #4D2146",
"e  c #4C2047",
"r  c #4D2047",
"t  c #4C2147",
"y  c #4D2147",
"u  c #4E2147",
"i  c #4C2247",
"p  c #4D2247",
"a  c #4D2347",
"s  c #4E2247",
"d  c #4E2347",
"f  c #4C2048",
"g  c #4D2048",
"h  c #4C2148",
"j  c #4D2148",
"k  c #4D2049",
"l  c #4D2149",
"z  c #4E2148",
"x  c #4E2149",
"c  c #4D2248",
"v  c #4D2249",
"b  c #4D2349",
"n  c #4E2248",
"m  c #4E2348",
"M  c #4F2348",
"N  c #4E2249",
"B  c #4F2249",
"V  c #4E2349",
"C  c #4F2349",
"Z  c #4E224A",
"A  c #4F224A",
"S  c #4F234A",
"D  c #4E2448",
"F  c #4F2448",
"G  c #4E2548",
"H  c #4F2548",
"J  c #4F2449",
"K  c #4F2549",
"L  c #4F244A",
"P  c #4F254A",
"I  c #4F244B",
"U  c #502349",
"Y  c #50234A",
"T  c #50234B",
"R  c #502548",
"E  c #502449",
"W  c #512549",
"Q  c #512749",
"!  c #50244A",
"~  c #50254A",
"^  c #51254A",
"/  c #50244B",
"(  c #51244B",
")  c #50254B",
"_  c #51254B",
"`  c #52254A",
"'  c #52254B",
"]  c #50264A",
"[  c #51264A",
"{  c #51264B",
"}  c #51274B",
"|  c #52264B",
" . c #52274B",
".. c #53274B",
"X. c #51254C",
"o. c #51254D",
"O. c #52254C",
"+. c #51264C",
"@. c #51274C",
"#. c #51274D",
"$. c #52264C",
"%. c #53264C",
"&. c #52274C",
"*. c #53274C",
"=. c #53264D",
"-. c #52274D",
";. c #53274D",
":. c #54274C",
">. c #54274D",
",. c #54274E",
"<. c #51284A",
"1. c #52284A",
"2. c #52284B",
"3. c #53294B",
"4. c #532A4B",
"5. c #53284C",
"6. c #53294C",
"7. c #53284D",
"8. c #53294D",
"9. c #532A4D",
"0. c #53284E",
"q. c #54284C",
"w. c #54294C",
"e. c #55294C",
"r. c #54284D",
"t. c #54294D",
"y. c #542B4C",
"u. c #542A4D",
"i. c #552A4D",
"p. c #562B4D",
"a. c #54284E",
"s. c #54294E",
"d. c #55294E",
"f. c #56294F",
"g. c #542A4E",
"h. c #552A4E",
"j. c #542B4E",
"k. c #552B4E",
"l. c #552B4F",
"z. c #562A4E",
"x. c #562B4E",
"c. c #572B4E",
"v. c #562A4F",
"b. c #542C4C",
"n. c #562C4D",
"m. c #562C4F",
"M. c #562F4F",
"N. c #582D4F",
"B. c #562B50",
"V. c #572B50",
"C. c #572D50",
"Z. c #582C50",
"A. c #582C51",
"S. c #582D51",
"D. c #582E50",
"F. c #592E52",
"G. c #592F52",
"H. c #5A2E52",
"J. c #593151",
"K. c #5B3052",
"L. c #5D3153",
"P. c #613557",
/* pixels */
"                                                                                                                                                                ",
"                                                                                                                                                                ",
"                                                                                                                                                                ",
"                                                                                                                                                                ",
"                                            +.^ ^ 9                                                                                                             ",
"                                            6.+.+.N +.^ ^                                                                                                       ",
"                                                Z.g.+.,.Z.Z.                V.+.                                                                                ",
"                                                    g.:.Z.V.N               C.+.N N 6.                                                                          ",
"                                                      g.g.^ ^             g.g.Z.g.T T ^             V.g.k.                                                      ",
"                                                            T ^ g.^ +.N g.g.g.    c.^ q.p N ^     ( +.g.                                                        ",
"                                                              g.g.^ g.2.                  ^ g.^ P 6.^                                 P                         ",
"                      J.^       2.^                               ^                         q.                                                                  ",
"                        6.^   P +.                                                                                                                              ",
"                          g.H P                                                                                                                                 ",
"                                                                                                  +.^ p                                                         ",
"                  ^ P                                       P.                                    @ N @ 2 f @                                                   ",
"                                                        k.g.g.g.^ :.                            P @ 5 2 @ = @ 2                                                 ",
"                                                g.g.  q.N.k.  M.                                T @ 2 @ @ 2 = = @ p                                             ",
"                                            ^ N +.g.                                            N @ 5 @ 5 @ 2 2 @ @ 2                                           ",
"                                              p 6.                              N             N 5 @ 2 2 @ 5 @ 5 N @ 2                                           ",
"                                                                        p       N @           @ 2 2 2 5 N 1 @ 5 p @ . 1 g.  2.6.                                ",
"              J.L.L.                                                    T p p N p @ N       p @ @ 5 @ 5 @ 1 @ 1 p T 1 1 6.  g.g.                                ",
"          g.g.,.^ g.Z.q.2.    ^ ^ +.+.                ^                   P N 9 2 @ @ N @ N 5 @ 5 2 @ 2 5 N 1 N T T 1 T                                         ",
"              g.  k.^ g.+.6.^ ,.T ( ^ N ^           p N p                 p N N f @ @ @ 2 @ p @ 5 @ @ 5 N N T 1 p   T T                                         ",
"                            g.    ,.^ ^ ^         T p T 2 5 N (           9 2 @ 1 1 @ X = 2 T 1 2 @ @ N ^     ^ T     ^                                         ",
"                                    k.    N       T 1 @ @ 5 5 @ N N 5 2 @ 1 @ N @ 1 @ @ @ 5 2 5 5 2 N N         ,.    N                                         ",
"                                                I 5 @ 5 @ 5 N @ @ 2 @ 2 2 5 @ @ 2 @ 2 @ 2 N @ N N     @         P     p                 T N :.g.                ",
"                                                ( @ 5 @ 5 N 5 N @ 5 @ @ p N 5 2 @ @ N 5 2     ^                 p     ^               ^ N N ^ T N .             ",
"                                              +.N 5 1 @ 1 T @ 5 2 @ 2 @ 1 N N p @ @ 2 5 N                                       ^ 2.^ g.6.    Z.g.  p           ",
"                                              ,.5 1 1 @ N @ @ 1 5 @ @ @ @       p N @ @ @ N                         g.^       ^ N       +.                      ",
"                                              +.N N N 1 +.5 5 p 5 X 2 ,.p N       ^ 2   @ I                       +.+.,.P ^ C.                                  ",
"                                            +.+.p   T N N 5 N p N 2 @     6.                                    @ 1 T N +.                                      ",
"                                            ^ N       ^ N p +.      N     6.P                                 9 9 9 ^                                           ",
"                                            N f         N 1                   9 p                         ^ ^ p                                                 ",
"                                            N @           T                                               g.2.                                                  ",
"                                            p 9           q.    ^ +.                                                                                            ",
"                                            @ @       Z.  g.g.^ P ^                                                                                             ",
"                                            p N     Z.g.g.k.p                                                                                                   ",
"                                            N P                                                                                                                 ",
"                                                                                                                                                                ",
"                                                                                                                                                                ",
"                                                                                                                                                                ",
"                                                                                                                                                                ",
"                                                                                                                                                                ",
"                                                                                                                                                                "
};
