/* XPM */
static char *prtal_2__dragged__removebg_previ1709294380[] = {
/* columns rows colors chars-per-pixel */
"70 70 242 2 ",
"   c None",
".  c #040106",
"X  c #06010B",
"o  c #0A010E",
"O  c #070112",
"+  c #0B0213",
"@  c #0D021B",
"#  c #080317",
"$  c #110516",
"%  c #12031C",
"&  c #14091C",
"*  c #110A16",
"=  c #0C0125",
"-  c #0B012B",
";  c #070128",
":  c #130324",
">  c #190625",
",  c #1A0C23",
"<  c #14032C",
"1  c #1B042B",
"2  c #1C0A2B",
"3  c #140824",
"4  c #1C1125",
"5  c #1C1329",
"6  c #070136",
"7  c #0B0133",
"8  c #0B013C",
"9  c #130434",
"0  c #1C0434",
"q  c #1C0B34",
"w  c #13043C",
"e  c #1B033C",
"r  c #1A0A3C",
"t  c #160937",
"y  c #1E123F",
"u  c #20092E",
"i  c #221628",
"p  c #210434",
"a  c #220C35",
"s  c #22043B",
"d  c #240C3B",
"f  c #290C3A",
"g  c #2B143B",
"h  c #271538",
"j  c #37173C",
"k  c #0C0243",
"l  c #0D014A",
"z  c #150544",
"x  c #1B0344",
"c  c #1B0A42",
"v  c #1A0B4C",
"b  c #19064A",
"n  c #0E0256",
"m  c #1C0653",
"M  c #1C0B54",
"N  c #13025B",
"B  c #1B0A5A",
"V  c #170655",
"C  c #1E104D",
"Z  c #240443",
"A  c #23044B",
"S  c #2A024B",
"D  c #270946",
"F  c #330B4B",
"G  c #320E45",
"H  c #281645",
"J  c #341849",
"K  c #240455",
"L  c #2C0353",
"P  c #28075A",
"I  c #350957",
"U  c #2B1458",
"Y  c #3D135D",
"T  c #381555",
"R  c #362549",
"E  c #382555",
"W  c #3D324F",
"Q  c #1A0468",
"!  c #17046F",
"~  c #280767",
"^  c #340363",
"/  c #33036B",
"(  c #3C0669",
")  c #2C1262",
"_  c #391764",
"`  c #390478",
"'  c #330A79",
"]  c #471F54",
"[  c #4A2245",
"{  c #4E254A",
"}  c #5B2A5C",
"|  c #572756",
" . c #4A345D",
".. c #4D2756",
"X. c #461966",
"o. c #43067B",
"O. c #481677",
"+. c #571978",
"@. c #4D0F62",
"#. c #631B7E",
"$. c #472769",
"%. c #4C3369",
"&. c #4B2972",
"*. c #532779",
"=. c #4F3173",
"-. c #55387A",
";. c #5B3267",
":. c #612B64",
">. c #642E6A",
",. c #682E72",
"<. c #6B3275",
"1. c #6B3076",
"2. c #71337E",
"3. c #5E437F",
"4. c #584269",
"5. c #6A557B",
"6. c #1C058E",
"7. c #260588",
"8. c #360886",
"9. c #260693",
"0. c #350997",
"q. c #3105A4",
"w. c #440484",
"e. c #4C028A",
"r. c #490485",
"t. c #550989",
"y. c #5A1A86",
"u. c #4D039A",
"i. c #530297",
"p. c #461397",
"a. c #591A9B",
"s. c #461884",
"d. c #681A8A",
"f. c #681899",
"g. c #731F93",
"h. c #592586",
"j. c #5B3986",
"k. c #582399",
"l. c #5D3992",
"z. c #67278B",
"x. c #6B3882",
"c. c #773788",
"v. c #662E9D",
"b. c #752698",
"n. c #673799",
"m. c #7D3895",
"M. c #4608AE",
"N. c #5A05A8",
"B. c #5A07B4",
"V. c #5414AD",
"C. c #6306A7",
"Z. c #641BA7",
"A. c #6104B8",
"S. c #7D1FBA",
"D. c #6E19AE",
"F. c #5C22A2",
"G. c #6828A7",
"H. c #782BA7",
"J. c #6C25B7",
"K. c #7528B5",
"L. c #7932B7",
"P. c #7534A6",
"I. c #6A4588",
"U. c #724C99",
"Y. c #784DA5",
"T. c #3307CA",
"R. c #4B0AD0",
"E. c #6C05C8",
"W. c #7308C9",
"Q. c #7719C6",
"!. c #7A07D5",
"~. c #6B11CF",
"^. c #5208E3",
"/. c #843B96",
"(. c #81299C",
"). c #8A2AAA",
"_. c #863AA6",
"`. c #8628BB",
"'. c #8734B7",
"]. c #9124B9",
"[. c #83409A",
"{. c #814985",
"}. c #8A44A7",
"|. c #9547AB",
" X c #9654AD",
".X c #9745B4",
"XX c #8841B5",
"oX c #A765B2",
"OX c #A64FB8",
"+X c #8614D6",
"@X c #8008D6",
"#X c #892AC3",
"$X c #952BC2",
"%X c #8B3CC3",
"&X c #9C39C7",
"*X c #9C2DD8",
"=X c #A637CB",
"-X c #A428DE",
";X c #A736D3",
":X c #B13ED2",
">X c #AD2FCB",
",X c #8708E9",
"<X c #940EF2",
"1X c #A01FF2",
"2X c #9E23F4",
"3X c #A72AF8",
"4X c #AF2DF2",
"5X c #C539EA",
"6X c #8B41C8",
"7X c #A84BC8",
"8X c #B557CC",
"9X c #B846D9",
"0X c #BD5CD4",
"qX c #B053C7",
"wX c #BA67C8",
"eX c #B946F9",
"rX c #BF55F9",
"tX c #C35BDC",
"yX c #C179CE",
"uX c #CE75DB",
"iX c #CF4DEB",
"pX c #DA79E9",
"aX c #D06AEC",
"sX c #E47BF4",
"dX c #E655F5",
"fX c #C483CF",
"gX c #D985E6",
"hX c #DD98E7",
"jX c #DD97FC",
"kX c #D285FC",
"lX c #E589ED",
"zX c #EA8AF3",
"xX c #EB9CF2",
"cX c #EE93F5",
"vX c #F6AAF8",
"bX c #E7ADF7",
"nX c #F9D8FC",
"mX c #F2C7FC",
"MX c #FDEAFD",
"NX c #F9E5FB",
"BX c #FDFDFD",
"VX c #FDF4FD",
/* pixels */
"                                                                                                                                            ",
"                                                                                                                                            ",
"                                                                                                                                            ",
"                                                                                                                                            ",
"                                                                                                                                            ",
"                                                            R $.      R                                                                     ",
"                                                           .-.=.$.j.=.&.$.-.                                                                ",
"                                                        I.3.l.k.V.~.~.Q.K.L.n.R                                                             ",
"                                                          a.p.8.` A.!.!.!.1X-Xf.X.                                                          ",
"                                                    *.D.J.p.^ 9 : K e.8.8.u.y.D.G.&.R                                                       ",
"                                                W I.&XQ.o.0 9 = ; b 8.` ` ` s s a.J.h.%.                                                    ",
"                                                 .).S.X.G Z x z x ~ ! ~ ~ m 0 < s F.L.l.R                                                   ",
"                                               ./.%XP a T K K ~ ~ ! Q N Q n 8 9 e s O.a._                                                   ",
"                                            W %..Xy.1 1 L K ~ ~ ~ ! ! n k 8 6 6 9 < 1 Z.J.-.                                                ",
"                                            5.}._.d > s A x x z N n 8 6 6 k k n ~ K p F J.P.                                                ",
"                                             X7XI : > e w = - l k 6 6 6 k N 6.q.0.K 1 % O.'.                                                ",
"                                            .XH.2 % : < @ ; k 6 6 7 6 N 9.T.T.6.l # X o f K.n.                                              ",
"                                          ..`.k.a : : # # 8 7 7 7 8 N 7.R.^.^.0.6 . . . % y.#X                                              ",
"                                          c.&Xh.p % @ O - 7 7 6 k l n V Q 7.M.R.q.x X . o @.L.=.                                            ",
"                                          wX7XY 1 : + # 7 - 7 8 k 8 8 k 8 8 l N 7.0.K O . p G.l.                                            ",
"                                        4.qXd.G > : O = ; 7 6 8 8 8 w w r t 9 6 6 k Q m % % O.h.%.                                          ",
"                                        I.8Xy.2 % + O ; - 6 w z z x e 0 g g h 7 ; ; - z e + _ k.=.                                          ",
"                                        2._.J $ @ X # ; 7 8 r D s 0 e p f g a - - w 6 ; ; : 0 a.l.                                          ",
"                                        }.b.> + O . = ; 9 t d s p s Z S S F U U 0 = 9 H = + 0 F.U.                                          ",
"                                        '.d., o X X ; 7 y J q p S L ^ I I F ] f 0 3 & h 9 # : v.Y.                                          ",
"                                        H.f.% o X X = 7 g h s F o.o.t.o.o.I ] G : % @ + @ = 1 G.n.                                          ",
"                                        H.g.% o . o - c q p Z ^ o.i.C.C.e.( S Z 1 @ + O X + % +.+.i                                         ",
"                                      5.`.f.u o . o 3 r 1 p L ` N.W.@X+XC.r.I A e : @ + X o + ( O.E                                         ",
"                                      5.$Xh.u o X o i 2 2 s ^ N.~.<X3X2X!.N.o.s s < % : + o + X.v.E                                         ",
"                                        =XX.> o . * i , 1 s 8.A.!.rXjXaX1XW.e.S s : % 9 = o o I G.J                                         ",
"                                        #XO.> o . o * & 1 Z w.W.3XbXnXbXeX!.i.( Z < + = < O + S K.=.                                        ",
"                                        $X+.% o . O # 4 p Z w.E.eXbXVXnXiX!.i./ K 1 O @ < + X H L.I.                                        ",
"                                        $Xy.% o X X @ 5 g S ` W.2XjXNXbXrX!.u.~ P 0 O + = @ o s a.$.                                        ",
"                                      $.K.f.> O X X @ y J f ^ A.2XaXbXkX2XE.e.( P 0 # + = # o T K.                                          ",
"                                      %.G.V.Z + X X + t f s L i.!.3X4X3X,XA.r.o.^ z w = % + o Y G.                                          ",
"                                        Y.Q.A + o O @ 2 h s S o.~.,X<X<XE.i.r.` P x b - @ @ * Y P.                                          ",
"                                        U.J.U % o o & q q Z K ` B.E.!.!.N.e.8.` A w 9 = $ o , h.F.                                          ",
"                                        j.v.U % % + * 3 r Z K / M.B.B.N.e.( / S 9 t 7 : % o h h.G.                                          ",
"                                        Y.6XO.& : : @ * 1 A P L ^ ` r.o.^ L S p t w 9 < % * g P.                                            ",
"                                        %.G.a.> : < q i , 1 A ~ ` ` / L S Z p e w 9 9 < @ * J '.                                            ",
"                                        R h.J.G p 1 c H 4 & 3 9 x K D Z c Z b z z 9 w t * & +.Q.                                            ",
"                                          Y K.F f Z t w t 9 3 : : 1 0 e b v V z t w t 3 $ a L.6X                                            ",
"                                          T `.+.g D L M z z c c H c v K M v v c w z 9 * , *.*X                                              ",
"                                            '.H.g 2 T r.8.~ V U ) M M V n v C E v t 3 * a n.6X                                              ",
"                                            *.).X., , G t.N.M.0.0.7.6.! ) C C C C t % u $.&X.X                                              ",
"                                            E (.b.f g 5 & c 8.R.^.R.T.6.B M M M r 3 u G P.9X                                                ",
"                                              *.].*.J 5 & D 0.R.^.T.6.B B v v c q f F T '.:X                                                ",
"                                                >X_.$.g I f.Q.~.9.! M M M M C C U ( Y z.;X                                                  ",
"                                                8X:XH.X.+.#.o.' ) ) ) ) ) P I ` O.@.+.=X:X                                                  ",
"                                                  =X=X}.*.X.X.I ) ) &.O.s.p.F.f.d.,.].iX                                                    ",
"                                                    iX>Xz.+.$.X._ _ s.p.V.Q.].).g.].iX                                                      ",
"                                                      pX7XH.1.*.O.y.a.J.+X-X>X>X>XiXpX                                                      ",
"                                                        pXaX=Xb.z.b.D.`.-X4X5XdXlXoX                                                        ",
"                                                          yXpXtX=X9X=X-X5XdXzXpXoX>.[ [                                                     ",
"                                                      | | } {.yXhXlXzXzXxXlXfX[.,.} | [ [                                                   ",
"                                                } :.>.x./. XoXuXpXgXxXxXvXlXpXOX|./.2.>.| {                                                 ",
"                                              ,.2./.|.tXhXnXMXMXNXMXVXMXMXMXnXvXsXtXOX/.} [ j                                               ",
"                                            } 1./.|.8XsXvXNXBXBXBXBXBXBXBXBXMXvXsXsXtX|.2.} {                                               ",
"                                            | } <./._.8XsXnXBXBXBXBXBXVXVXMXnXvXvXzXaX.Xc.:.{                                               ",
"                                              | } :.>./.|.yXhXhXhXhXhXxXxXgXpXuX0XOX/.x.,.}                                                 ",
"                                                      } :.,.c./././.}.|.|._.c.2.>.:...                                                      ",
"                                                            } } | } >.<.<.>.                                                                ",
"                                                                                                                                            ",
"                                                                                                                                            ",
"                                                                                                                                            ",
"                                                                                                                                            ",
"                                                                                                                                            ",
"                                                                                                                                            ",
"                                                                                                                                            ",
"                                                                                                                                            "
};
