/* XPM */
static char *_s1709288151[] = {
/* columns rows colors chars-per-pixel */
"80 45 174 2 ",
"   c None",
".  c #481C42",
"X  c #481D42",
"o  c #4A1D43",
"O  c #481E42",
"+  c #481B44",
"@  c #481C44",
"#  c #491C44",
"$  c #481D44",
"%  c #491D44",
"&  c #491C45",
"*  c #491D45",
"=  c #4A1D44",
"-  c #4A1C45",
";  c #4A1D45",
":  c #491E44",
">  c #491E45",
",  c #4A1F44",
"<  c #4A1E45",
"1  c #4B1E45",
"2  c #4A1F45",
"3  c #4B1F45",
"4  c #491C46",
"5  c #4A1C46",
"6  c #4A1D46",
"7  c #4B1D46",
"8  c #491E46",
"9  c #4A1E46",
"0  c #4B1E46",
"q  c #4B1F46",
"w  c #4A1E47",
"e  c #4B1E47",
"r  c #4B1F47",
"t  c #4C1F46",
"y  c #4C1E47",
"u  c #4C1F47",
"i  c #4C1F48",
"p  c #4B2044",
"a  c #4B2045",
"s  c #4B2046",
"d  c #4B2146",
"f  c #4B2047",
"g  c #4B2147",
"h  c #4C2045",
"j  c #4C2145",
"k  c #4C2046",
"l  c #4D2046",
"z  c #4C2146",
"x  c #4C2047",
"c  c #4D2047",
"v  c #4C2147",
"b  c #4D2147",
"n  c #4C2246",
"m  c #4C2247",
"M  c #4D2247",
"N  c #4E2247",
"B  c #4B2048",
"V  c #4C2048",
"C  c #4D2048",
"Z  c #4C2148",
"A  c #4D2148",
"S  c #4D2049",
"D  c #4D2149",
"F  c #4E2148",
"G  c #4E2149",
"H  c #4D2248",
"J  c #4D2249",
"K  c #4E2248",
"L  c #4E2348",
"P  c #4E2249",
"I  c #4F2249",
"U  c #4E2349",
"Y  c #4F2349",
"T  c #4E214A",
"R  c #4E224A",
"E  c #4F224A",
"W  c #4E234A",
"Q  c #4F234A",
"!  c #4F2448",
"~  c #4F2449",
"^  c #4F2649",
"/  c #4F244A",
"(  c #4F254A",
")  c #4F244B",
"_  c #502348",
"`  c #502349",
"'  c #50234A",
"]  c #50234B",
"[  c #502548",
"{  c #502449",
"}  c #502549",
"|  c #502649",
" . c #512649",
".. c #50244A",
"X. c #50254A",
"o. c #51254A",
"O. c #50244B",
"+. c #51244B",
"@. c #50254B",
"#. c #51254B",
"$. c #52254A",
"%. c #52254B",
"&. c #50264A",
"*. c #51264A",
"=. c #50274A",
"-. c #51274A",
";. c #50264B",
":. c #51264B",
">. c #51274B",
",. c #52264A",
"<. c #52274A",
"1. c #52264B",
"2. c #52274B",
"3. c #51254C",
"4. c #51274C",
"5. c #52264C",
"6. c #53264C",
"7. c #52274C",
"8. c #53274C",
"9. c #53264D",
"0. c #52274D",
"q. c #53274D",
"w. c #50284A",
"e. c #51284A",
"r. c #51284B",
"t. c #52284A",
"y. c #53284A",
"u. c #53294A",
"i. c #52284B",
"p. c #53294B",
"a. c #54284B",
"s. c #54294B",
"d. c #51294C",
"f. c #52284C",
"g. c #53284C",
"h. c #52294C",
"j. c #53294C",
"k. c #53284D",
"l. c #532A4C",
"z. c #532A4D",
"x. c #54284C",
"c. c #54284D",
"v. c #54294D",
"b. c #542B4C",
"n. c #542A4D",
"m. c #552B4D",
"M. c #54284E",
"N. c #55284E",
"B. c #54294E",
"V. c #55294E",
"C. c #55294F",
"Z. c #542A4E",
"A. c #552A4E",
"S. c #552B4E",
"D. c #552A4F",
"F. c #562B4E",
"G. c #562A4F",
"H. c #562B4F",
"J. c #572B4F",
"K. c #562C4E",
"L. c #572C4E",
"P. c #572D4F",
"I. c #572E4E",
"U. c #562B50",
"Y. c #582D50",
"T. c #582C51",
"R. c #582E50",
"E. c #592E50",
"W. c #582E51",
"Q. c #592F52",
"!. c #5A2E52",
"~. c #593050",
"^. c #5B3053",
"/. c #5D3353",
/* pixels */
"                                                                                                                                                                ",
"                                                                                                                                                                ",
"                                                                                                                                                                ",
"                                                                                                                                                                ",
"                                                                                                                                                                ",
"                                                                                                                                                                ",
"                                                      F ~                                                                                                       ",
"                                          ~ b b F 4.F F F                     } 4.                                                                              ",
"                                        } F g w F 4.4.F u '                 ' i F F                                                                             ",
"                                              g.P.  } ' ' ' }     } 4.  F ' F i v.F                 t.                                                          ",
"                                                      W.    b } } ~ 4.F } 4.} t.U.v.F       6.4.} v.~ F                               b                         ",
"                                                              W.v.U.U.g.            U.      c.4.    b b                                   } b                   ",
"                        t.                                                                } 4.                                                                  ",
"                      4.~ g.  t.} 4.b                                                                                                                           ",
"                                                                                                  b   } u b F ~ }                                               ",
"                                                                                                F w w i u w w i i F u w w                                       ",
"                  L.    v.                              v.4.4.                                  w w # u i u u i + u u i u u                                     ",
"                                                  } t.  4.} 4.}                                 u u + o u i + + + w + u u 5 u b                                 ",
"                                                g.v.v.      4.}                               u u u + w i w u u u + u u w } ' w o                               ",
"                                              } 4.                                            w + # w + + i + w i w + 5 F   ! b u }                             ",
"        /.4.u c.J.4.            g.~ ~         L.W.                              w o         b i F w + + u u i ' w w $ F v.  g.                                  ",
"          } F c.4.U.v.        c.W.v.F F                                 b b   g u o         F } u u u 3 + u F       O g                                         ",
"          t.    v.U.c.4.} 4.4.' g.W.)   ~             w w                 w w w o o w o u u 4.' u u # u i i                                                     ",
"                v.  v.} }   } v.    t.              g w + o o             w o o # w w + + u u u u + u ' + i }                                                   ",
"                                                g u u u u u + w w         u w o + + u + u u u w w # w w w w u                                                   ",
"                                              g w o w w i i + u u w w w u u w # # w u + + u ' b u w o w w F F                           P.                      ",
"                                            b u u + + # u w w w w u + + u w # # + + w # + w u u # #           4.                      !.c.}                     ",
"                                          w u + + # w # + u w 5 w u F u w u + # # + w w i     w w                                     !.6.F                     ",
"                                        w b u + u u u w + w F 5 w b w ' b   u w 5 F F w w                             4.        J.J.6.c.U.4.g.      ^.t.g.      ",
"                                        u u u b i F b u b u F ' u F u g u       F } B w w                             ) 4.}   } v.v.v.v.v.U.}                   ",
"                                      w u 3 o F i ' u   b b i F u }   F F         F b b u b                         ) F } ~ ' F         v.c.g.                  ",
"                                    F w w u u u i '         ' u F                   ' g p b                       t.v.3.4.  F             c.L.                  ",
"                                    w w O g u # F             g         L.W.                                    4.    4.4.                v.                    ",
"                                    b     F F w w             ~             g.L.                          g.t.        4.v.                ^.                    ",
"                                  b         g u                                 t.                                                        g.                    ",
"                                              g                                                                                                                 ",
"                                                                } }                                                                                             ",
"                                                        L.} b } } 4.                                                                                            ",
"                                                      ~ }                                                                                                       ",
"                                                                                                                                                                ",
"                                                                                                                                                                ",
"                                                                                                                                                                ",
"                                                                                                                                                                ",
"                                                                                                                                                                ",
"                                                                                                                                                                "
};
