/* XPM */
static char *prtal_3__dragged__removebg_previ1709294380[] = {
/* columns rows colors chars-per-pixel */
"70 70 239 2 ",
"   c None",
".  c #030105",
"X  c #05010B",
"o  c #09010E",
"O  c #060012",
"+  c #0B0214",
"@  c #07001C",
"#  c #0B011C",
"$  c #0E0819",
"%  c #12051B",
"&  c #140A1D",
"*  c #140918",
"=  c #22191F",
"-  c #060123",
";  c #0B0124",
":  c #07002C",
">  c #0B012B",
",  c #140424",
"<  c #160A22",
"1  c #1A0B24",
"2  c #14042B",
"3  c #1B042C",
"4  c #1C0A2B",
"5  c #180529",
"6  c #191026",
"7  c #0C0233",
"8  c #0A013B",
"9  c #070138",
"0  c #130533",
"q  c #1B0433",
"w  c #1C0A32",
"e  c #13053C",
"r  c #1A033C",
"t  c #1C0B3B",
"y  c #140A37",
"u  c #23062E",
"i  c #291828",
"p  c #220B33",
"a  c #24033C",
"s  c #230A3A",
"d  c #26083B",
"f  c #261639",
"g  c #31153B",
"h  c #0C024C",
"j  c #0D0343",
"k  c #160A44",
"l  c #1B0C44",
"z  c #1A0648",
"x  c #0D0253",
"c  c #0F0359",
"v  c #1B0B54",
"b  c #1A035C",
"n  c #1C0B5B",
"m  c #160356",
"M  c #1F1152",
"N  c #2C0C43",
"B  c #23044A",
"V  c #2B044D",
"C  c #270846",
"Z  c #350D49",
"A  c #2C1D43",
"S  c #2D134C",
"D  c #271444",
"F  c #331448",
"G  c #240354",
"H  c #2A045B",
"J  c #290957",
"K  c #33035D",
"L  c #350855",
"P  c #261456",
"I  c #36145B",
"U  c #3A1657",
"Y  c #36274B",
"T  c #3C314C",
"R  c #392655",
"E  c #2E2343",
"W  c #190469",
"Q  c #1B0678",
"!  c #290767",
"~  c #330364",
"^  c #3D046B",
"/  c #350769",
"(  c #3A1566",
")  c #280877",
"_  c #380677",
"`  c #37146F",
"'  c #42185B",
"]  c #4C264B",
"[  c #51264B",
"{  c #4A2754",
"}  c #592955",
"|  c #5B2A5B",
" . c #552754",
".. c #473758",
"X. c #461968",
"o. c #561B6B",
"O. c #45037C",
"+. c #450879",
"@. c #461975",
"#. c #54187A",
"$. c #460E68",
"%. c #651F7F",
"&. c #482769",
"*. c #592A64",
"=. c #4C336D",
"-. c #4A3763",
";. c #52396F",
":. c #492377",
">. c #542879",
",. c #553878",
"<. c #652D6B",
"1. c #622D64",
"2. c #682F73",
"3. c #6D317A",
"4. c #6A3273",
"5. c #67306F",
"6. c #584077",
"7. c #69507E",
"8. c #1A048B",
"9. c #380785",
"0. c #391483",
"q. c #23059D",
"w. c #380D9D",
"e. c #2A0E8F",
"r. c #2908A7",
"t. c #2606B5",
"y. c #3A12A9",
"u. c #4B0384",
"i. c #480488",
"p. c #56098C",
"a. c #4C1B83",
"s. c #461787",
"d. c #581B86",
"f. c #4C0893",
"g. c #55059C",
"h. c #591B9C",
"j. c #4B1895",
"k. c #69198B",
"l. c #6B169A",
"z. c #4E2385",
"x. c #572689",
"c. c #593587",
"v. c #5A2A98",
"b. c #67258C",
"n. c #683A88",
"m. c #7A368C",
"M. c #773587",
"N. c #682B95",
"B. c #752B99",
"V. c #663698",
"C. c #7E3992",
"Z. c #712A8D",
"A. c #5604A6",
"S. c #591DA5",
"D. c #5A15B1",
"F. c #4C10A9",
"G. c #6306A7",
"H. c #761DA9",
"J. c #6503BA",
"K. c #700EB0",
"L. c #5924A2",
"P. c #6629A8",
"I. c #6B34A9",
"U. c #743AA8",
"Y. c #7724BD",
"T. c #7530B1",
"R. c #5F4381",
"E. c #714B91",
"W. c #2A05C7",
"Q. c #3708CE",
"!. c #4F08C4",
"~. c #6C03C4",
"^. c #6905C8",
"/. c #7307CB",
"(. c #7610CB",
"). c #7404E0",
"_. c #833C95",
"`. c #8739A4",
"'. c #8629B7",
"]. c #9626B7",
"[. c #8633B4",
"{. c #8D40A4",
"}. c #9445AB",
"|. c #984CA8",
" X c #9B50B1",
".X c #A758BC",
"XX c #A24EBE",
"oX c #9861B7",
"OX c #A060A5",
"+X c #8C4A9C",
"@X c #830CDA",
"#X c #8F14D2",
"$X c #972AC8",
"%X c #8B33C3",
"&X c #983AC8",
"*X c #9A26D7",
"=X c #A238C8",
"-X c #A73AD8",
";X c #8705EA",
":X c #9610F5",
">X c #9C26F2",
",X c #BE35E4",
"<X c #A525F8",
"1X c #AB32F8",
"2X c #B32BEE",
"3X c #C03EE1",
"4X c #AA52C5",
"5X c #B358CB",
"6X c #B654D1",
"7X c #AA45CC",
"8X c #BB67C8",
"9X c #BD74CB",
"0X c #B646FB",
"qX c #BB4FF2",
"wX c #CD5FD7",
"eX c #CC70D9",
"rX c #CF53E6",
"tX c #D979E8",
"yX c #D06EEE",
"uX c #E17EEC",
"iX c #EC7EF9",
"pX c #E353F6",
"aX c #C782DA",
"sX c #DB86E7",
"dX c #DD9AFC",
"fX c #D28AEE",
"gX c #E48CEE",
"hX c #EB88F3",
"jX c #EA96F2",
"kX c #DEA4FA",
"lX c #F8ACFA",
"zX c #E8BAFC",
"xX c #EEADF3",
"cX c #F8DAFD",
"vX c #F9C6FA",
"bX c #FDEBFC",
"nX c #FAE3FC",
"mX c #FDF3FD",
"MX c #FDFDFD",
/* pixels */
"                                                                                                                                            ",
"                                                                                                                                            ",
"                                                                                                                                            ",
"                                                                                                                                            ",
"                                                                                                                                            ",
"                                                            Y =.  6.  Y Y                                                                   ",
"                                                          -.,.=.R =.R &.;.6.                                                                ",
"                                                      T ;.6.R.:.0.w.F.(.Y.T.V.f E                                                           ",
"                                                      f D @.0.9._ 9.!.^./.*X*XS.&.                                                          ",
"                                                  -.*.#.S.D.9.r 2 e _ _ _ i.+.j.S.:.E &                                                     ",
"                                                T n.&X@Xg.J q - # q ) / ! ! 2 5 _ T.c.&.                                                    ",
"                                                -.[.%X#.V B z 0 7 m W W b z > # y s.P.c.Y                                                   ",
"                                            T 6. X%XI g L v b W W c c h h j : - , 5 J s.=.                                                  ",
"                                            T   7X:.a g L W ) W W c h 9 : - - - ; ; % s.P.;.                                                ",
"                                            E..X`.d 5 a G ! b h h 9 - - - 7 k c b e 2 d v.V.                                                ",
"                                            oX4XS 5 2 B b 8 8 9 : : : : j Q y.r.Q 7 O + ( T.                                                ",
"                                            .XB.4 % q r > > 7 7 > : : h 8.t.r.c - . . X s S.c.                                              ",
"                                            %Xx.p 2 0 # # > > ; - : h 8.t.Q.W.Q @ . . . + @.L.                                              ",
"                                          +X&Xx.p 2 ; + ; > - - > 9 8 h W 8.q.r.8.e X . X I L.=.                                            ",
"                                          8X&X' 4 u 1 # > # # - : : : : : : 7 h W Q z O X 3 x.,.                                            ",
"                                        -.XXb.d 5 i * ; # # - > ; > > > > ; - # - : m z + + ` =.R                                           ",
"                                        7.5Xb.u % % + # @ - ; > 0 0 0 3 , ; ; > > @ - > 2 + ( v.=.                                          ",
"                                        >.`.Z * + X @ # - - > 2 0 d Z a q 5 # , ; 7 : @ @ # s a.V.                                          ",
"                                        M.k.% o O X O @ # > , q a C Z B V C q 1 1 < 7 : O O 3 z.E.                                          ",
"                                      R B.d., o X O @ @ # ; q d V K ~ K L C d g i i * # - O # c.E.                                          ",
"                                      Y v.d.$ X X @ - @ # 3 d L K +.u.O.+.K ' N u % % o O + , z.v.                                          ",
"                                      ] x.@.+ X . - > - % u Z $.p.G.G.l.p.+.^ K a % O o X o # @.`                                           ",
"                                      7.N.@.1 X . @ 0 > % a V O.G./.@X#XK.p.K K K q % + X . X L @.E                                         ",
"                                        P.@.5 X . X 2 2 , a H u.^.:X1X1X#XG.$.V H r , ; o X + I v.R                                         ",
"                                        P.( % o . X % % , a ~ A.@X0XdXyX<X/.i.V V z % 2 # X o N L.F                                         ",
"                                      ..S.( % X . X X + 2 a ^ J.>XkXcXzX0X).g.~ G m ; , ; O o r L.=.                                        ",
"                                      6.P.X.+ X . X O # 3 B _ ~.1XzXmXcXrX/.f.~ H G 2 + - + o s I.E.                                        ",
"                                      R P.a.+ X X X + % u a O.).<XkXnXvX0X^.i.~ H G > O # + o s h.,.                                        ",
"                                      T L.s., X . X + , u a ^ ^.:XyXkXyX>X^.i.~ H z > # # + + S P.                                          ",
"                                      R c._ 4 X X X O , u a L g.).<X0X1X;XG.O./ G r w < # # O S d.                                          ",
"                                      ;.E.@.s o X O % % 3 a V O.^.;X:X;XJ.f._ ! B w D 6 $ + + F P.                                          ",
"                                        c.x.P O o * 6 w 4 s F @.A.^.^.^.A.u.~ ! a y y , $ + & X.x.                                          ",
"                                        ,.V.I + $ = = f D S U $.i.A.A.g.p.$.V V y 2 , ; ; + < @.x.                                          ",
"                                        E.U.` # < < = & w l J J ~ O.O.u.$.' U a 2 > > 7 < o f V.I.                                          ",
"                                        6.v.j.w 5 0 < $ $ 2 C I ~ _ 9.~ V U F w 0 , y 0 $ * D T.                                            ",
"                                        A >.Y.N w 2 e 2 & + < y B G H C C F D y 7 y e 0 $ & X.S.                                            ",
"                                          X.$XL s r 0 e y 2 < 6 < 3 3 t l P D y > y k < + w I.T.                                            ",
"                                          F ].x.f C v e e e t t w q r l v Y A 6 e k 0 $ < &.%X                                              ",
"                                          =.'.`.A 6 B ) ! n P P l k k l k A A k z k , % 4 V.U.                                              ",
"                                            c.].' i 1 l ) r.w.0.Q W W W n v P M v y & u &.[.[.                                              ",
"                                            U B.l.d f 6 & y n 8.t.W.W.r.W n M M k 1 u N T.6X                                                ",
"                                              >.'.&.E 6 $ y / y.!.Q.r.) n v v l f d N U '.-X                                                ",
"                                                $XI.' p F k.#X@XF.) n M M v M S &.U I x.%X                                                  ",
"                                                &X-Xx.' o.k.p._ ! n n M P J I $.@.$.@.%X-X                                                  ",
"                                                  &X[.U.&.I I J P P P ! _ 9.0.p.#.o.[.rX                                                    ",
"                                                    -X-Xb.o.' ' ( I ` 0.F.D.K.k.k.H.3X                                                      ",
"                                                      wX7XB.>.&.X.:.#.v.(.*X].].].rXwX                                                      ",
"                                                        wXrX=XZ.*.%.k.H.$X2X3XpXuXeX                                                        ",
"                                                          OXeX5X&X=X&X$X3XpXiXeXOX4.                                                        ",
"                                                     .{ {  .E.eXtXgXhXhXjXhXaX_.3.*.}  .[                                                   ",
"                                               .1.<.2.M._. X.XeXtXsXxXlXxXjXtX.X`.m.M.5.| [                                                 ",
"                                             .2.M.C.}.wXgXvXcXbXbXbXmXmXmXmXnXxXtX6X`._.1.[                                                 ",
"                                            | 3.C._.4XuXxXbXMXMXMXMXMXMXMXMXbXlXiXyX6X`.3. .                                                ",
"                                             .| 5.M._.4XgXvXMXMXMXmXmXmXbXbXcXlXjXiX5X{.3.|                                                 ",
"                                              [  .*.3.m.|.8XaXjXjXsXgXjXgXtXtXeX5X}.m.4.1.|                                                 ",
"                                                    | | | 5.M._.m._.{.}.}.{.m.4.<.|  .                                                      ",
"                                                          [  .} } | <.4.5.1. .]                                                             ",
"                                                                                                                                            ",
"                                                                                                                                            ",
"                                                                                                                                            ",
"                                                                                                                                            ",
"                                                                                                                                            ",
"                                                                                                                                            ",
"                                                                                                                                            ",
"                                                                                                                                            "
};
