/* XPM */
static char *_s1709288151[] = {
/* columns rows colors chars-per-pixel */
"80 45 168 2 ",
"   c None",
".  c #481B44",
"X  c #481C44",
"o  c #491C45",
"O  c #4A1C45",
"+  c #4A1D45",
"@  c #491F45",
"#  c #4A1E45",
"$  c #4B1E45",
"%  c #4B1F45",
"&  c #491C46",
"*  c #4A1D46",
"=  c #4A1E46",
"-  c #4B1E46",
";  c #4A1F46",
":  c #4B1F46",
">  c #4B1E47",
",  c #4A1F47",
"<  c #4B1F47",
"1  c #4C1F46",
"2  c #4C1F47",
"3  c #4B1F48",
"4  c #4C1F48",
"5  c #4A2045",
"6  c #4B2045",
"7  c #4B2145",
"8  c #4B2046",
"9  c #4B2146",
"0  c #4B2047",
"q  c #4B2147",
"w  c #4C2145",
"e  c #4C2344",
"r  c #4C2046",
"t  c #4C2146",
"y  c #4D2146",
"u  c #4C2047",
"i  c #4D2047",
"p  c #4C2147",
"a  c #4D2147",
"s  c #4D2247",
"d  c #4E2247",
"f  c #4E2547",
"g  c #4C2048",
"h  c #4D2048",
"j  c #4C2148",
"k  c #4D2148",
"l  c #4D2049",
"z  c #4D2149",
"x  c #4E2048",
"c  c #4E2148",
"v  c #4E2149",
"b  c #4D2248",
"n  c #4D2348",
"m  c #4D2249",
"M  c #4E2248",
"N  c #4F2248",
"B  c #4E2348",
"V  c #4F2348",
"C  c #4E2249",
"Z  c #4F2249",
"A  c #4E2349",
"S  c #4F2349",
"D  c #4E224A",
"F  c #4F224A",
"G  c #4E234A",
"H  c #4F234A",
"J  c #4F234B",
"K  c #4D2448",
"L  c #4F2448",
"P  c #4F2548",
"I  c #4E2449",
"U  c #4F2449",
"Y  c #4F2549",
"T  c #4F2649",
"R  c #4F244A",
"E  c #4F254A",
"W  c #4F244B",
"Q  c #502349",
"!  c #50234A",
"~  c #50234B",
"^  c #502548",
"/  c #502549",
"(  c #512748",
")  c #502749",
"_  c #512749",
"`  c #50244A",
"'  c #50254A",
"]  c #51254A",
"[  c #50244B",
"{  c #51244B",
"}  c #50254B",
"|  c #51254B",
" . c #52254B",
".. c #50264A",
"X. c #51264A",
"o. c #51274A",
"O. c #50264B",
"+. c #51264B",
"@. c #50274B",
"#. c #51274B",
"$. c #52274A",
"%. c #52264B",
"&. c #52274B",
"*. c #53274B",
"=. c #51244C",
"-. c #51254C",
";. c #52254C",
":. c #50264C",
">. c #51264C",
",. c #52264C",
"<. c #52274C",
"1. c #53274C",
"2. c #53264D",
"3. c #52274D",
"4. c #53274D",
"5. c #53274E",
"6. c #54274D",
"7. c #54274E",
"8. c #512849",
"9. c #51284A",
"0. c #51284B",
"q. c #52284B",
"w. c #53284B",
"e. c #52294B",
"r. c #51294C",
"t. c #52284C",
"y. c #53284C",
"u. c #53294C",
"i. c #52284D",
"p. c #53284D",
"a. c #52294D",
"s. c #532A4D",
"d. c #53284E",
"f. c #532A4E",
"g. c #54284D",
"h. c #54294D",
"j. c #55294D",
"k. c #542B4C",
"l. c #542A4D",
"z. c #54284E",
"x. c #54294E",
"c. c #55294E",
"v. c #55294F",
"b. c #56294F",
"n. c #542A4E",
"m. c #552A4E",
"M. c #542B4E",
"N. c #552B4E",
"B. c #552A4F",
"V. c #562B4E",
"C. c #562A4F",
"Z. c #562B4F",
"A. c #552C4D",
"S. c #562C4E",
"D. c #562C4F",
"F. c #572C4F",
"G. c #562D4F",
"H. c #572B50",
"J. c #562C50",
"K. c #572C50",
"L. c #572D50",
"P. c #582D50",
"I. c #582D51",
"U. c #582E50",
"Y. c #582E51",
"T. c #582F51",
"R. c #582E52",
"E. c #582F52",
/* pixels */
"                                                                                                                                                                ",
"                                                                                                                                                                ",
"                                                                                                                                                                ",
"                                                                                                                                                                ",
"                                                                                                                                                                ",
"                                                                                                                                                                ",
"                                                                                                                                                                ",
"                                                        J                                                                                                       ",
"                                                    U J J s.              ' '                                                                                   ",
"                                                d 2 J =.J ' '     '     d J ' '                     E.9.                                                        ",
"                                              M.8 Q ' U J d J : J J ' U J Q J Q J         Q M.' J F.M.'                                                         ",
"                                              M.<.<.        J     M.<.<.  6.Q <.J J     ' U                                           '   '                     ",
"                                                  A.                        ' <.k.' d                                                                           ",
"                        s.  U s.                                              '     U                       d 2 2 J J : d J d J                                 ",
"                        s.s.  U J                           M.                      s.                  ' Q 2 d 2 d Q <.' d 8 d k.                              ",
"                  M.    9.                                *.Q M.M.                    U         : J <.' J 2 2 d 2 2 2 J s.                                      ",
"                                              M.' d     <.M.    M.                              : & 2 2 d 2 2 Q 2 Q J '                                         ",
"                                            <.Q ' '   E.                                      : 4 : & : 2 2 2 Q Q =.2 Q                                         ",
"                                          M.Q <.s.                                            : 2 2 4 2 2 d J Q 6.6.<.2                                         ",
"                                          ' '                                               : & . 2 2 4 : d d     E.H.4                                         ",
"                                                                                  d         : & & O 2 Q J 2         U J 8   f ' 8                               ",
"                '                                                               J :         3 : 2 2 2 Q '                                                       ",
"            M.6.' Q M.  ' U 6.6.Q M.                  d J                 d 4 : : : :     J 4 : 2 2 4 d <.                                    M.M.E.E.F.        ",
"        F.<.M.<.' M.6.M.<.9.<.M.' 6.<.M.          d J d J 2 8             J 2 : J d : : N 2 J 2 d J d J Q                                 d <.6.Q 4 ' b.M.      ",
"                E.            A.    M.    s.J <.J J J J Q J J 2 J         : 3 8 O 2 O 2 2 2 2 J J         s.                            J J =.Q Q J             ",
"                                        E.6.Q <.<.4 =.Q =.Q & 2 2 : : d U 8 2 2 2 2 2 : O 2 2 : :                                       d 2 =.<.J               ",
"                                      M.<.J Q H.<.J J Q 6.Q 4 & J d 2 d : : d : : 2 & & 2 N 2 d :                                     ' Q 8     f               ",
"                                  F.b.4 2 : J H.=.Q 4 Q <.J Q J : 2 J 2 2 : : & & : . & 2                       U J J               <.' <.                      ",
"                                Q J J : : : Q M.J Q ' ' Q Q Q =.Q Q d U   J O O : : & . :                     ' d J Q d '       ' M.9.E.E.          9.          ",
"                              J Q J U U 2 J Q J           ' <.Q Q ' J J       : & : : & X                   ' Q Q Q Q J Q J 8 J d                               ",
"                              '         d Q 2               s.'                   : 3 : : J               J J ' J J d J J                                       ",
"                                          <.J                                       J <.8 '             A.U     J       d                                       ",
"                                                                        ' 9.                            9.      U J                                             ",
"                                                                              s.                              ' '                                               ",
"                                                                                  d                       '                                                     ",
"                                                                                                                                                                ",
"                                                                s.' J '                                                                                         ",
"                                                      ' J U U '   d                                                                                             ",
"                                                    ' M.A.                                                                                                      ",
"                                                                                                                                                                ",
"                                                                                                                                                                ",
"                                                                                                                                                                ",
"                                                                                                                                                                ",
"                                                                                                                                                                ",
"                                                                                                                                                                "
};
