/* XPM */
static char *prtal_4__dragged__removebg_previ1709294832[] = {
/* columns rows colors chars-per-pixel */
"70 70 240 2 ",
"   c None",
".  c #06010B",
"X  c #09010D",
"o  c #060206",
"O  c #070014",
"+  c #0B0114",
"@  c #07001A",
"#  c #0C011B",
"$  c #0E0819",
"%  c #110516",
"&  c #12041D",
"*  c #150A1D",
"=  c #180C1A",
"-  c #1C101D",
";  c #0C0123",
":  c #0B022C",
">  c #070120",
",  c #130324",
"<  c #160923",
"1  c #13042B",
"2  c #1A042C",
"3  c #1C0A2D",
"4  c #180825",
"5  c #1E1127",
"6  c #0D0336",
"7  c #140334",
"8  c #1C0334",
"9  c #150A35",
"0  c #1C0A33",
"q  c #15043A",
"w  c #1B033B",
"e  c #15093B",
"r  c #1B0C3B",
"t  c #200C29",
"y  c #251629",
"u  c #210335",
"i  c #21033B",
"p  c #240B3B",
"a  c #250B38",
"s  c #231335",
"d  c #271739",
"f  c #311D3A",
"g  c #332434",
"h  c #2C213E",
"j  c #401E3C",
"k  c #46213F",
"l  c #0D024A",
"z  c #1B0343",
"x  c #1B0943",
"c  c #14034C",
"v  c #1A0A4B",
"b  c #160647",
"n  c #0E0252",
"m  c #1B0B54",
"M  c #180759",
"N  c #1F1051",
"B  c #1E114A",
"V  c #240343",
"C  c #25024C",
"Z  c #2C024D",
"A  c #290D47",
"S  c #2C1A43",
"D  c #2A1447",
"F  c #35174B",
"G  c #2C0D54",
"H  c #2B035B",
"J  c #280656",
"K  c #32035B",
"L  c #370F56",
"P  c #281355",
"I  c #35145D",
"U  c #371654",
"Y  c #2E2244",
"T  c #312345",
"R  c #372849",
"E  c #3B2856",
"W  c #3D344B",
"Q  c #190868",
"!  c #190577",
"~  c #290765",
"^  c #350667",
"/  c #2A1161",
"(  c #3B1663",
")  c #3B1C63",
"_  c #3B156A",
"`  c #37146A",
"'  c #230A75",
"]  c #380775",
"[  c #3B1777",
"{  c #3C2063",
"}  c #44165D",
"|  c #452141",
" . c #4A2545",
".. c #52274D",
"X. c #432A5E",
"o. c #542653",
"O. c #572953",
"+. c #592956",
"@. c #59295A",
"#. c #473754",
"$. c #622C5F",
"%. c #461E6C",
"&. c #471B67",
"*. c #45027D",
"=. c #450479",
"-. c #481878",
";. c #501472",
":. c #452A63",
">. c #44246A",
",. c #47286A",
"<. c #592966",
"1. c #4B3465",
"2. c #4B3569",
"3. c #563C6C",
"4. c #4A2677",
"5. c #592A76",
"6. c #573876",
"7. c #642D6B",
"8. c #612C63",
"9. c #65316B",
"0. c #662A75",
"q. c #6D317B",
"w. c #6A3075",
"e. c #71347A",
"r. c #5D427B",
"t. c #61507B",
"y. c #1A0587",
"u. c #1F0597",
"i. c #200986",
"p. c #3B0A86",
"a. c #250892",
"s. c #3D1181",
"d. c #2D09A6",
"f. c #4A0487",
"g. c #551988",
"h. c #570399",
"j. c #531D97",
"k. c #4A128E",
"l. c #631799",
"z. c #651B89",
"x. c #4F2682",
"c. c #562887",
"v. c #5B3589",
"b. c #5B2799",
"n. c #672586",
"m. c #673587",
"M. c #793689",
"N. c #682597",
"B. c #77259D",
"V. c #673399",
"C. c #7B3694",
"Z. c #5A05A6",
"A. c #5A19A3",
"S. c #5719B6",
"D. c #500AAE",
"F. c #6806BA",
"G. c #6F16B2",
"H. c #6D35A8",
"J. c #7A33A3",
"K. c #7A29B6",
"L. c #7936B9",
"P. c #6C2AAE",
"I. c #5F4382",
"U. c #664888",
"Y. c #6A4C8E",
"T. c #7A44B0",
"R. c #2B06C4",
"E. c #6C05C4",
"W. c #6E03CD",
"Q. c #7606CC",
"!. c #7508D7",
"~. c #7A2FC1",
"^. c #7F07E5",
"/. c #843C9A",
"(. c #862CAA",
"). c #8A3FA3",
"_. c #8735BD",
"`. c #912AB3",
"'. c #8E17BC",
"]. c #884B93",
"[. c #9143A5",
"{. c #9648AD",
"}. c #9B47B6",
"|. c #925CA6",
" X c #A34DBC",
".X c #A15EBB",
"XX c #AE6ABB",
"oX c #8615D1",
"OX c #840FDC",
"+X c #8426CE",
"@X c #9528C5",
"#X c #9835C6",
"$X c #8934D9",
"%X c #A33CC8",
"&X c #B53BDB",
"*X c #A730DB",
"=X c #8E0DEC",
"-X c #9C24ED",
";X c #A528F8",
":X c #AC36F7",
">X c #9D49C3",
",X c #A748C5",
"<X c #A654C3",
"1X c #B45BC7",
"2X c #B44BD8",
"3X c #BA67C9",
"4X c #B652F8",
"5X c #BE64F9",
"6X c #C956DB",
"7X c #CC73DC",
"8X c #CF5CE4",
"9X c #CE49E9",
"0X c #D16BE4",
"qX c #CD75E2",
"wX c #DB78E8",
"eX c #C771EF",
"rX c #E67AF6",
"tX c #E47CEB",
"yX c #E255F4",
"uX c #D582DC",
"iX c #DB86E8",
"pX c #DB9EFB",
"aX c #D682F9",
"sX c #E688EF",
"dX c #E395EE",
"fX c #EB87F4",
"gX c #EB95F3",
"hX c #F39FF6",
"jX c #E6A5F8",
"kX c #F6A7F8",
"lX c #F9B5FA",
"zX c #E6B9FB",
"xX c #F7C6F9",
"cX c #FCDCFC",
"vX c #FDD6FD",
"bX c #EDCAFB",
"nX c #FDEDFD",
"mX c #F9E3FB",
"MX c #FDF5FD",
"NX c #FDFDFD",
/* pixels */
"                                                                                                                                            ",
"                                                                                                                                            ",
"                                                                                                                                            ",
"                                                                                                                                            ",
"                                                                                                                                            ",
"                                                            h 2.  6.                                                                        ",
"                                                          X.6.6.:.{ E { r.6.R                                                               ",
"                                                      E 1.I.r.,.) [ D.S.P.H.m.d T                                                           ",
"                                                    h f S [ ^ ] ~ ~ D.D.F.+X~.A.,.s                                                         ",
"                                                  1.:.-.b.S.] z 1 1 ~ ~ ~ ] ^ p.b.4.T                                                       ",
"                                                W 6._.Q.Z.~ q @ O 1 ~ ~ H m ; < ` P.5.E d                                                   ",
"                                                1.(.~.-.Z H z ; : b Q ~ v q # @ 1 [ b.4.S                                                   ",
"                                            R #.{._.I u Z J z M n c B h 6 : @ @ # < A _ :.                                                  ",
"                                            W 3.>X4.u u V q c c l e 6 : > @ O @ @ + & ` c.:.R                                               ",
"                                            U..XC.u & u q b b b e : @ > ; : l n n : + 3 c.v.                                                ",
"                                            |.<XU , , 7 7 : : r 0 : ; : l ! u.y.n # X $ U v.                                                ",
"                                            .XV.0 , , : @ # : : : > : n y.a.' 6 @ o o X 1 4.2.                                              ",
"                                            #Xg.u , , + @ : ; @ @ > n y.d.R.d.M # o o o + I 4.T                                             ",
"                                          [.,Xg.t , + X # # + @ > : 6 n Q ! a.d.' 6 X o X G c.1.                                            ",
"                                          XX}.U , & + O # @ @ > ; ; ; > @ > : 6 M Q b + X 3 x.6.                                            ",
"                                        #. XN.a & % X & # @ @ # ; 4 , ; ; # # @ @ > c b + % ` ,.R                                           ",
"                                        r.<Xn.t % % % 4 5 # ; ; 1 s s 2 , # ; ; : @ @ ; ; + I c.:.                                          ",
"                                        <.(.a % O X # * < $ # , 2 a A i 8 2 & # ; 7 : @ + + a 4.v.                                          ",
"                                        n.z.& X O O @ # @ , 2 8 i C C V V w 2 & + @ : : O X 3 4.Y.                                          ",
"                                      T c.g.4 X X O @ @ # , 2 u V H K K Z i u 2 & % + @ ; O & c.Y.                                          ",
"                                      T ,._ & o X @ @ + & , 8 V K =.*.*.=.^ Z i , % + X + O & c.v.                                          ",
"                                      E { ) % o . ; ; + & 2 i K =.h.h.h.h.] ^ Z i , + + X + y 4.`                                           ",
"                                      t.-._ & X . : : # & 8 V =.h.E.Q.E.h.*.^ H J u , @ X X = I [ Y                                         ",
"                                      W -.` * X O : 6 , , i H f.W.=X:X-XQ.h.^ Z C w 2 ; O X + ) V.E                                         ",
"                                      Y c.I # X . @ 1 , 2 i K h.OX8XjXaX-XE.*.Z V 7 ; , # X + G b.D                                         ",
"                                      R x.I ; o . . + # 2 V ^ F.-XpXmXzX4XQ.f.^ C q # & ; + o 8 N.:.                                        ",
"                                      2.b.` $ o . . + # 2 z ] F.:XzXMXbX4XQ.f.~ J z # @ ; + O r H.I.                                        ",
"                                      1.b.%.+ X o X O # 2 i p.W.;XjXmXzX4XW.p.~ C z ; O # # . p j.,.                                        ",
"                                      Y 4.[ * . . X X & 2 i ] W.=X5XpXeX-XF.*.H J w ; + # ; $ D P.                                          ",
"                                      T v.A < X . O X % 2 8 K Z.=X-X:X;XOXZ.=.H C 7 < = - < % D x.                                          ",
"                                      3.Y.[ 3 + o + # # , u Z f.F.=X=X=XF.f.] Z z 1 < < = - & F V.                                          ",
"                                      1.6.4.D $ $ % * < , 2 i } l.F.E.F.Z.=.L Z w 4 1 , & # < >.g.                                          ",
"                                        1.c.D $ % = < < 9 8 A } g.l.S.l.h.^ Z V 0 1 1 ; # $ < %.b.                                          ",
"                                        Y.m.D * * * $ $ 1 e C U ;.;.g.l.g.G V u 4 1 , , & % s V.                                            ",
"                                        3.5.` 3 1 4 $ $ * 3 A J ~ ^ ] -.X.F p 3 1 ; 1 9 < = S H.                                            ",
"                                        S >.b.A 0 1 9 , & y y 2 V J G L U D r 9 , 1 9 9 - y { j.                                            ",
"                                          &.@XF p 0 9 9 3 d t < 4 3 r p F S r , : 9 e 0 y h b.L.                                            ",
"                                          E @Xn.d x v 9 r r r 0 3 0 r p Y r 3 1 9 x 9 < 5 :.L.                                              ",
"                                          E (.`.S s P ' / v e 9 9 9 9 9 9 9 9 b v b < * 0 v.L.                                              ",
"                                            c.`.<.y g W [ a.i.Q Q M M m b x v N v 9 4 t ,._.T.                                              ",
"                                            E N.l.R  .k g S B Q ! i.a.y.Q m M v e 0 t A V.&X                                                ",
"                                              %.K.,.Y d g W A ^ p.d.d.' m m v 9 r s p U K.*X                                                ",
"                                              >.K.P.E y F n.'.oXS.p.G P m N v P G G U c._.                                                  ",
"                                                L.$Xc.U } n.B.k./ m m P m P J I _ ( %._.#X                                                  ",
"                                                  ~.K.m.,.X.,.P P m P / ` ] s.g.;.;.J.2X                                                    ",
"                                                    #X#XN.5.<.} ) ( _ s.k.A.z.z.5.G.&X                                                      ",
"                                                      8X%XC.m.&.%.%.-.j.G.+X'.`.`.9X0X                                                      ",
"                                                        8X8X1X/.5.0.z.B.@X*X*XyXtX3X                                                        ",
"                                                          uXwX6X%X%X%X@X2XyXrX0X|.9. .                                                      ",
"                                                    +.<.    ].7XwXtXfXfXhXsX7X/.w.@.+.+.o.                                                  ",
"                                              o.<.q.M.M./.[.{.1XqXuXkXlXxXhX7X X)./.M.e.8...                                                ",
"                                           .o.w.M.C.).1XuXjXxXcXmXMXMXMXNXMXcXkXeX X).M.7...|                                               ",
"                                           .O.w.w.C. XwXlXMXNXNXNXNXNXNXNXNXMXlXsX2X,X).q.+.|                                               ",
"                                          k  .O.8.q./.,XsXxXnXMXmXvXcXnXMXnXvXkXrX8X X/.w.O.k                                               ",
"                                               .o.7.q./.).XXuXdXdXsXfXgXiXwXwX0X1X[.e.8.O...                                                ",
"                                                  o.@.8.8.7.M./.C./.[.{.[.[.M.e.7.@. .j                                                     ",
"                                                          ....O...+.8.7.w.<.o. . .                                                          ",
"                                                                                                                                            ",
"                                                                                                                                            ",
"                                                                                                                                            ",
"                                                                                                                                            ",
"                                                                                                                                            ",
"                                                                                                                                            ",
"                                                                                                                                            ",
"                                                                                                                                            "
};
