/* XPM */
static char *_s1709288150[] = {
/* columns rows colors chars-per-pixel */
"80 45 148 2 ",
"   c None",
".  c #481B43",
"X  c #481B44",
"o  c #491C44",
"O  c #491D44",
"+  c #491C45",
"@  c #491D45",
"#  c #4A1D44",
"$  c #4A1C45",
"%  c #4A1D45",
"&  c #491E45",
"*  c #4B1F44",
"=  c #4A1E45",
"-  c #4B1E45",
";  c #4B1F45",
":  c #4A1C46",
">  c #4A1D46",
",  c #4B1D46",
"<  c #4B1D47",
"1  c #4A1E46",
"2  c #4B1E46",
"3  c #4A1F46",
"4  c #4B1F46",
"5  c #4B1E47",
"6  c #4B1F47",
"7  c #4C1F46",
"8  c #4C1F47",
"9  c #4D1F47",
"0  c #4B1E48",
"q  c #4C1E48",
"w  c #4C1F48",
"e  c #4D1F48",
"r  c #4B2044",
"t  c #4B2046",
"y  c #4B2047",
"u  c #4C2045",
"i  c #4E2245",
"p  c #4C2046",
"a  c #4D2046",
"s  c #4C2146",
"d  c #4D2146",
"f  c #4C2047",
"g  c #4D2047",
"h  c #4C2147",
"j  c #4D2147",
"k  c #4D2246",
"l  c #4D2247",
"z  c #4E2347",
"x  c #4E2447",
"c  c #4C2048",
"v  c #4D2048",
"b  c #4C2148",
"n  c #4D2148",
"m  c #4D2049",
"M  c #4D2149",
"N  c #4E2148",
"B  c #4E2049",
"V  c #4E2149",
"C  c #4D2248",
"Z  c #4D2349",
"A  c #4E2248",
"S  c #4F2248",
"D  c #4E2348",
"F  c #4F2348",
"G  c #4E2249",
"H  c #4F2249",
"J  c #4E2349",
"K  c #4F2349",
"L  c #4D214A",
"P  c #4E224A",
"I  c #4F224A",
"U  c #4E234A",
"Y  c #4F234A",
"T  c #4F234B",
"R  c #4F2448",
"E  c #4F2548",
"W  c #4E2449",
"Q  c #4F2449",
"!  c #4E2648",
"~  c #4E244A",
"^  c #4F244A",
"/  c #4F254A",
"(  c #502349",
")  c #50234A",
"_  c #502548",
"`  c #502549",
"'  c #512549",
"]  c #512648",
"[  c #502649",
"{  c #50244A",
"}  c #51244A",
"|  c #50254A",
" . c #51254A",
".. c #50244B",
"X. c #50254B",
"o. c #51254B",
"O. c #52254B",
"+. c #50264A",
"@. c #51264A",
"#. c #51264B",
"$. c #51274B",
"%. c #52264B",
"&. c #52274B",
"*. c #51254C",
"=. c #51264C",
"-. c #51274C",
";. c #52264C",
":. c #53264C",
">. c #52274C",
",. c #53274C",
"<. c #52274D",
"1. c #53274D",
"2. c #52284A",
"3. c #52284B",
"4. c #52284C",
"5. c #53284C",
"6. c #53294C",
"7. c #53284D",
"8. c #54284D",
"9. c #542A4C",
"0. c #552A4D",
"q. c #552B4D",
"w. c #54284E",
"e. c #54294E",
"r. c #55294E",
"t. c #542A4E",
"y. c #552A4E",
"u. c #552B4E",
"i. c #552A4F",
"p. c #562B4F",
"a. c #572B4F",
"s. c #552C4D",
"d. c #572D4E",
"f. c #562C4F",
"g. c #572C4F",
"h. c #562D4F",
"j. c #572E4F",
"k. c #582D4F",
"l. c #572B50",
"z. c #572C50",
"x. c #582C50",
"c. c #582D51",
"v. c #592F50",
"b. c #582E51",
"n. c #592E51",
"m. c #5A3052",
"M. c #5B3152",
"N. c #613858",
/* pixels */
"                                                                                                                                                                ",
"                                                                                                                                                                ",
"                                                                                                                                                                ",
"                                                                                                                                                                ",
"                                                                                                                                                                ",
"                                            u.o.( !                                                                                                             ",
"                                                n >.( : j n                                                                                                     ",
"                                                  >.( w : n !               o.8 j                                       ! : y j >.                              ",
"                                                      o.n n n           ( >.n w : x                               : : y : : y                                   ",
"                                                        >.l.n n n n n n ( >.>.  o.: :             d.5.o.    x y : : . # j                                       ",
"                                                              ( n n 8 o.>.u.      ! j y   o.>.2.o.2.      j y : y y y : n                                       ",
"                                                                  n                                   ! : 8 : : : : : j                                         ",
"                        M.                                                                      o.  j : y j : y j : : j                                         ",
"                          M.u.k.M.                                                            j ! 8 : 8 y # : : : : : y                                         ",
"                                                          o.j j                               8 8 : j r : : # : y j : : :                                       ",
"                    !             y y : y : :           ( >.:.u.                            o.j : : 8 j : # : : y : y : j x                                     ",
"                          >.n n n : : O : y X : O : y   ! u.u.                              5.y j : : : y : : : j j j o.o.n 2.                                  ",
"                        ! n n 8 8 : : : : O O : O O O : n >.                                n O : j : y : : y ! (                                               ",
"                              n : : : : : : X : X : : # n j !                               : : # # : : : : : j 8                                               ",
"                                n : y y : : : y : y : y 0 : n                             n : X # y : y y : : :                                                 ",
"                                n 8 : : y y : : : : : : 8 j j n                           j : X : # : j j : : :       5.n   o.5.                                ",
"                    n.      d.  ! 8 j 8 : n y : j : : y : : j y                   n       8 O X # : j : : j w n       d.      2.        u.( ( :.>.              ",
"                  n.l.( o.>.( >.o.8 j n y : : : : : : 8 j # : j n         j       j n   >.8 : # X : y # : j 2.d.5.                    o.n n n (                 ",
"                l.n.>.! n ! o.j 8 (         j y : 8 # j 8 8 y j n !       j : y j : j j j : y 8 # : y j                               ! n ( n 5.                ",
"            n.u.n.n.          o.j j n         j j : : y y : n : : j n     j y j : j j : : : 8 # 8 8 n                                 o.o.                      ",
"            u.                  o.8 j o.        j o.y : n : : j w : n n   n j y y j j # n j j 8 : j n             o.o.                o.u.                      ",
"                                      : o.        n j : : : 0 ( 8 : n : O : : : : y j : : : y n j j (         u.5.n n T               n o.                      ",
"                                        x         o.      y w n : n o.( : O # : : : : : : : j         o.    >.>.! >...w n           o.j >.                      ",
"                                                              n n j n o.! 0 n X X : : 8 : y                   n       >.n n     >.u.(                           ",
"                                                                w n o.n n ! T >.8 n 8 : : o.                            >.u.l.u.n                               ",
"                                                                o.u.          o.o.j : : : j                                                                     ",
"                                                                  N.      5.      z.n j j j                                                                     ",
"                                                                            o.x 2.  o.x j j                     5.                                              ",
"                                                                                      o.                    o.2.                                                ",
"                                                                  d.                                        o.                                                  ",
"                                                                >.d.                                                                                            ",
"                                                  z.5.d.!     z.o.                                                                                              ",
"                                                      z.5.5.                                                                                                    ",
"                                                                                                                                                                ",
"                                                                                                                                                                ",
"                                                                                                                                                                ",
"                                                                                                                                                                ",
"                                                                                                                                                                ",
"                                                                                                                                                                ",
"                                                                                                                                                                "
};
