/* XPM */
static char *prtal_5__dragged__removebg_previ1709294833[] = {
/* columns rows colors chars-per-pixel */
"70 70 239 2 ",
"   c None",
".  c #07000B",
"X  c #09010D",
"o  c #060107",
"O  c #070012",
"+  c #0C0214",
"@  c #07011C",
"#  c #0C021C",
"$  c #0F0819",
"%  c #110216",
"&  c #12041B",
"*  c #13091B",
"=  c #170B1A",
"-  c #1A111D",
";  c #0B0123",
":  c #0D012B",
">  c #070124",
",  c #140323",
"<  c #190525",
"1  c #160A23",
"2  c #190C24",
"3  c #14032B",
"4  c #1B042C",
"5  c #1B0A2B",
"6  c #130B29",
"7  c #1D112A",
"8  c #1D1224",
"9  c #0C0133",
"0  c #0C023A",
"q  c #150435",
"w  c #1C0334",
"e  c #150933",
"r  c #1B0B33",
"t  c #14023B",
"y  c #1C043A",
"u  c #1A0A3D",
"i  c #170A3B",
"p  c #1F1135",
"a  c #240C2D",
"s  c #241628",
"d  c #220334",
"f  c #220A34",
"g  c #22033C",
"h  c #280B3B",
"j  c #271539",
"k  c #391B36",
"l  c #39253D",
"z  c #2B203B",
"x  c #411F3F",
"c  c #0D0243",
"v  c #1A0B44",
"b  c #1B0C4C",
"n  c #170646",
"m  c #180755",
"M  c #1D1251",
"N  c #230443",
"B  c #2A0D42",
"V  c #24034C",
"C  c #2B034C",
"Z  c #230E4B",
"A  c #270946",
"S  c #350F4B",
"D  c #2D1544",
"F  c #2C1C43",
"G  c #2A1648",
"H  c #351B4D",
"J  c #250453",
"K  c #2C0553",
"L  c #240C53",
"P  c #230D5A",
"I  c #2A0659",
"U  c #32035D",
"Y  c #310B56",
"T  c #271456",
"R  c #331354",
"E  c #381758",
"W  c #2E2142",
"Q  c #352548",
"!  c #3C2A54",
"~  c #3B2559",
"^  c #150263",
"/  c #1A0668",
"(  c #2D0462",
")  c #260868",
"_  c #330263",
"`  c #38076A",
"'  c #3D1A64",
"]  c #3A1566",
"[  c #270C77",
"{  c #3C0373",
"}  c #340477",
"|  c #291079",
" . c #3D1273",
".. c #2E1362",
"X. c #3D2063",
"o. c #481F48",
"O. c #41195B",
"+. c #4A2344",
"@. c #492247",
"#. c #52264E",
"$. c #472857",
"%. c #552751",
"&. c #562852",
"*. c #5B2A5B",
"=. c #592A56",
"-. c #48365C",
";. c #411A6D",
":. c #441967",
">. c #44037B",
",. c #440477",
"<. c #431C76",
"1. c #471879",
"2. c #561B78",
"3. c #551172",
"4. c #442B63",
"5. c #43226C",
"6. c #482769",
"7. c #5F2C63",
"8. c #4A3567",
"9. c #53386A",
"0. c #4B2A75",
"q. c #552679",
"w. c #4E3574",
"e. c #563777",
"r. c #632C68",
"t. c #682F73",
"y. c #6A3378",
"u. c #73347E",
"i. c #504158",
"p. c #594271",
"a. c #614B7A",
"s. c #1E0495",
"d. c #1C048E",
"f. c #2B0A95",
"g. c #2C0988",
"h. c #320AAA",
"j. c #4A0486",
"k. c #481687",
"l. c #541B8A",
"z. c #540599",
"x. c #551C99",
"c. c #4E098C",
"v. c #631988",
"b. c #681895",
"n. c #55298A",
"m. c #572A87",
"M. c #5D3A88",
"N. c #5A2897",
"B. c #5F3193",
"V. c #652588",
"C. c #723481",
"Z. c #793788",
"A. c #652999",
"S. c #752499",
"D. c #7C3891",
"F. c #7B3698",
"G. c #6F2C8E",
"H. c #5705A6",
"J. c #4D17A8",
"K. c #5D04B1",
"L. c #5413A4",
"P. c #6703B6",
"I. c #7216B3",
"U. c #5D24A5",
"Y. c #5D21B2",
"T. c #6729A7",
"R. c #7627A7",
"E. c #7334AD",
"W. c #792CB2",
"Q. c #7B32BB",
"!. c #6B30AE",
"~. c #5F4280",
"^. c #6B4A92",
"/. c #3B05C4",
"(. c #6A06C8",
"). c #7506C7",
"_. c #7C09D8",
"`. c #7319C4",
"'. c #782AC4",
"]. c #853C9A",
"[. c #823A96",
"{. c #8210A5",
"}. c #822BA9",
"|. c #8B3FA3",
" X c #892AB7",
".X c #8833BB",
"XX c #9531B7",
"oX c #9747AA",
"OX c #8953A2",
"+X c #9A49B6",
"@X c #9A56B6",
"#X c #8946B2",
"$X c #A24BBB",
"%X c #A653BA",
"&X c #A865B4",
"*X c #8911CE",
"=X c #8635C6",
"-X c #9937C6",
";X c #8F28C5",
":X c #A737D4",
">X c #AD34D2",
",X c #8309E4",
"<X c #9417EA",
"1X c #9625E4",
"2X c #A62BEB",
"3X c #BE3EE1",
"4X c #A638F3",
"5X c #A634ED",
"6X c #9E53C1",
"7X c #BA42D9",
"8X c #B350CF",
"9X c #BC60CA",
"0X c #B052F0",
"qX c #CD5FDD",
"wX c #C669DB",
"eX c #C673D5",
"rX c #D16DD8",
"tX c #C849E4",
"yX c #D64FED",
"uX c #E157F6",
"iX c #D86AE9",
"pX c #CF77ED",
"aX c #E477F1",
"sX c #DB83E6",
"dX c #D697F3",
"fX c #E28EEE",
"gX c #EC89F4",
"hX c #ED98F6",
"jX c #F195F8",
"kX c #DDB4F2",
"lX c #DFADF5",
"zX c #F7A8F9",
"xX c #F2B4F6",
"cX c #F6C4F8",
"vX c #F9D5FA",
"bX c #E7CEF3",
"nX c #FCE8FC",
"mX c #FDFCFD",
"MX c #FDF3FD",
/* pixels */
"                                                                                                                                            ",
"                                                                                                                                            ",
"                                                                                                                                            ",
"                                                                                                                                            ",
"                                                                                                                                            ",
"                                                            W 8.  8.    Q                                                                   ",
"                                                        z ! 9.w.4.~ Q 6.p.8.Q                                                               ",
"                                                      W ~ M.9.4.E  .J.Y.U.!.n.j W                                                           ",
"                                                    j j H 5...K v } H.J.H.'.'.U.0.                                                          ",
"                                                  8.8.<.N.k.Y 3 & y ( J J U ( k.U.B.Q                                                       ",
"                                                l 8.E.`.z.K 3 & & t ) m J m , 3  .!.0.! 8                                                   ",
"                                                8.R.I.;.C J y ; : n / m m t # O 3  .n.0.F                                                   ",
"                                                +XW.R d C K w t m c c 0 0 : @ @ , 3 G  .4.Q                                                 ",
"                                              ~.6X1.d d y , : c 0 9 i 7 ; @ @ @ @ # , ;.m.4.                                                ",
"                                            a.@XF.d , < # 3 0 0 q r 6 6 > 9 m ^ m 9 # f n.e.                                                ",
"                                            OX+XS , , , ; 9 9 9 3 3 : 0 / s.s.s.m @ X + E m.8.                                              ",
"                                            6XG.f , & & # : : : > 9 c ^ s.f.^ : # o o o 4 0.0.                                              ",
"                                            -Xn.d & # O # > > @ > c ^ h./.h.} y * $ o o @ E 0.Q                                             ",
"                                          OX-Xm.d % + O # @ @ @ 9 c m / [ d.g.f.) i X o X R n.8.                                            ",
"                                          &XXXS , + + O # @ # : 9 > > > : : 9 c m [ V + o w n.w.                                            ",
"                                        -.+XS.h & + X @ # ; ; ; > : : , : : ; ; > 9 m n % & 1.5.Q                                           ",
"                                        9.$Xq.a % O O # > > # ; : 3 3 , , & ; : : : @ : 4 =  .B.X.                                          ",
"                                        7.{.h % X X O > # > 3 3 < d y g w 3 , ; 3 9 9 # s s G N.~.                                          ",
"                                        V.v.& % . O # @ > 3 3 4 d N J V g g 3 & # : 3 : 6 - f n.M.                                          ",
"                                      Q q.l.* X X O # # : , 4 g V ( _ U C N d , # + % , 6 1 5 B.M.                                          ",
"                                      Q X.;.& X . @ @ > ; , w V } { >.>.{ U C N < # + & 8 7 5 0.0.                                          ",
"                                      -.5.;.% o . > @ # & 4 N _ j.z.P.K.j.} U C g , + # s s & k.'                                           ",
"                                      a.N.k.& . X : > > & y C ,.z.)._.).H.>.U J V w , # $ X % 1.k.                                          ",
"                                        T. .< . O 9 9 ; , g U j.P.<X5X2X).c._ C n w , 3 # X X 2.A.!                                         ",
"                                        T.E % X . 3 t , , N _ H.*X0XdXpX1XP.>.C N q # , ; O O ] A.F                                         ",
"                                        N.:.& X . @ 3 3 4 N ` P.1XdXbXkX4X).j._ N t # # 3 # O y A.$.                                        ",
"                                      p.T.1.% X . O < a d N { P.4XlXnXbX0X).j.U C y : O # # . Z !.~.                                        ",
"                                      p.!.k.+ X o X & & d g { P.2XdXbXkX0X(.c.I K B : X * > . h N.                                          ",
"                                        m.<.& . o X O & < d { K.<X0XdXpX<XK.j.U C f p $ $ # # S U.                                          ",
"                                      ! e.Y 1 X X . . # < d K z._.<X0X4X,Xz.{ K V 4 j - + > + D l.                                          ",
"                                      9.^.k.f + X + # + , w C ,.P.,X,X,X).z._ V n 6 e * $ # $ E A.                                          ",
"                                      9.e.m.D $ - = $ : , 4 N _ c.K.(.(.I.k.K C w 3 e , & # 1 5.x.                                          ",
"                                      i.9.m.S $ = $ $ , q q g C { j.z.z.>.` A g 4 3 3 ; & # 5 0.N.                                          ",
"                                        ^.M.D 1 & & X $ 3 e A C I { ,.{ { C A d q 3 : , & # j A.                                            ",
"                                        e.6.] 5 2 1 = $ # 3 u L I ( } } ( C h w e 6 3 6 * * D E.                                            ",
"                                        W :.n.B r 5 r 5 * * , e V J J J A N A B e 6 i e = 2 5.U.                                            ",
"                                          ' ;XS h u F F j 7 1 < 1 5 w f v M v F e i v r - Q A.'.                                            ",
"                                          H -XV.D S E H G G u e 4 q u v M W p p v v q * 2 w.=X                                              ",
"                                          ~ }.XXj 6 T | ) M v i i i v v M F i u b n 6 * f M.'.                                              ",
"                                            q.XX:.- 1 v | f.f.| [ / / M M v b M b e 1 a :.Q.6X                                              ",
"                                            $.V.b.j s 2 = v m | f.f.f.| / M P M i r a h A.8X                                                ",
"                                              ' W.5.j 2 2 f f ) g.J.h.| P m b i r f B R .X:X                                                ",
"                                              4.R.R.Q j j 3.{.*XI.U.0.P M b b b S Y E m.=X                                                  ",
"                                                N.'.m.~ E 3.b.c.] P T P L T U O.:.O.;.-X-X                                                  ",
"                                                  T.W.V.6.R Y R P P .. . . .c.c.2.1.}.3X                                                    ",
"                                                    .X:XG.:.O.E ' ] 1.l.x.L.b.v.v.I.7X                                                      ",
"                                                      8X>XS.2.*.q.l.A.R.;X;X XXX>XyX                                                        ",
"                                                        7XyXtX}.G.[.S.{.;X2X3XuXaXeX                                                        ",
"                                                        7.oXiXtX3X>X:X>X7XuXaXrX&X                                                          ",
"                                                  o.o.o.#.*.u.9XiXaXgXjXzXgX9X[.y.7.*.*.=.+.                                                ",
"                                              #.7.u.Z.D.[.].oX%XrXpXxXcXcXzXeX$X|.[.D.C.r.&.+.                                              ",
"                                            #.r.C.F.|.6XwXfXlXcXvXMXmXmXMXMXvXjXwX+X|.D.t.*.+.                                              ",
"                                          +.%.r.t.C.|.rXzXnXMXmXmXmXmXmXmXmXmXxXiX8X+X|.u.*.+.                                              ",
"                                            @.%.*.t.D.$XaXcXnXnXvXcXvXnXnXnXvXzXaX0X+XD.t.%.x                                               ",
"                                              +.&.r.u.D.].%XeXfXgXgXjXjXfXfXpXaX9XoXC.r.#.+.l                                               ",
"                                                  &.*.7.*.r.C.[.].oX+XoX|.].[.u.t.*.@.k k                                                   ",
"                                                        +.&.=.=.&.*.7.r.r.=.%.+.+.+.k                                                       ",
"                                                                                                                                            ",
"                                                                                                                                            ",
"                                                                                                                                            ",
"                                                                                                                                            ",
"                                                                                                                                            ",
"                                                                                                                                            ",
"                                                                                                                                            ",
"                                                                                                                                            "
};
