/* XPM */
static char *_s1709288151[] = {
/* columns rows colors chars-per-pixel */
"80 45 163 2 ",
"   c None",
".  c #471A44",
"X  c #4A1E43",
"o  c #481B44",
"O  c #491B44",
"+  c #481B45",
"@  c #491C44",
"#  c #491C45",
"$  c #491D45",
"%  c #4A1C45",
"&  c #4A1D45",
"*  c #4A1E45",
"=  c #4B1E45",
"-  c #4A1D46",
";  c #4A1E46",
":  c #4B1E46",
">  c #4A1F46",
",  c #4B1F46",
"<  c #4B1E47",
"1  c #4B1F47",
"2  c #4C1F46",
"3  c #4D1F46",
"4  c #4C1E47",
"5  c #4C1F47",
"6  c #4C1F48",
"7  c #4B2144",
"8  c #4B2145",
"9  c #4A2046",
"0  c #4B2046",
"q  c #4B2047",
"w  c #4C2045",
"e  c #4C2046",
"r  c #4C2146",
"t  c #4D2146",
"y  c #4C2047",
"u  c #4D2047",
"i  c #4C2147",
"p  c #4D2147",
"a  c #4E2147",
"s  c #4C2246",
"d  c #4D2246",
"f  c #4C2346",
"g  c #4D2247",
"h  c #4E2547",
"j  c #4F2547",
"k  c #4E2647",
"l  c #4C2048",
"z  c #4D2048",
"x  c #4C2148",
"c  c #4D2148",
"v  c #4D2049",
"b  c #4D2149",
"n  c #4E2148",
"m  c #4E2149",
"M  c #4D2248",
"N  c #4D2349",
"B  c #4E2248",
"V  c #4E2348",
"C  c #4F2348",
"Z  c #4E2249",
"A  c #4F2249",
"S  c #4E2349",
"D  c #4F2349",
"F  c #4E214A",
"G  c #4E224A",
"H  c #4F224A",
"J  c #4F234A",
"K  c #4E2448",
"L  c #4F2448",
"P  c #4E2449",
"I  c #4F2449",
"U  c #4E2549",
"Y  c #4F2549",
"T  c #4F2649",
"R  c #4F244A",
"E  c #4F254A",
"W  c #4F264A",
"Q  c #502349",
"!  c #50234A",
"~  c #50234B",
"^  c #502449",
"/  c #502549",
"(  c #502649",
")  c #50244A",
"_  c #51244A",
"`  c #50254A",
"'  c #51254A",
"]  c #50244B",
"[  c #51244B",
"{  c #50254B",
"}  c #51254B",
"|  c #52254B",
" . c #50264A",
".. c #51264A",
"X. c #51274A",
"o. c #50264B",
"O. c #51264B",
"+. c #51274B",
"@. c #52264B",
"#. c #53264B",
"$. c #52274B",
"%. c #51254C",
"&. c #52254C",
"*. c #52254D",
"=. c #51264C",
"-. c #51274C",
";. c #52264C",
":. c #53264C",
">. c #53274C",
",. c #53264D",
"<. c #53274D",
"1. c #54274D",
"2. c #51284B",
"3. c #52284A",
"4. c #52284B",
"5. c #53284B",
"6. c #53294B",
"7. c #54294B",
"8. c #52284C",
"9. c #53284C",
"0. c #53294C",
"q. c #53284D",
"w. c #53294D",
"e. c #522A4C",
"r. c #53284E",
"t. c #54294C",
"y. c #54284D",
"u. c #55284D",
"i. c #54294D",
"p. c #542A4C",
"a. c #542B4C",
"s. c #542A4D",
"d. c #552A4D",
"f. c #542B4D",
"g. c #54284E",
"h. c #54294E",
"j. c #55294E",
"k. c #55294F",
"l. c #542A4E",
"z. c #552A4E",
"x. c #542B4E",
"c. c #552B4E",
"v. c #552A4F",
"b. c #552B4F",
"n. c #562A4F",
"m. c #562C4E",
"M. c #572C4F",
"N. c #572D4F",
"B. c #562E4F",
"V. c #582D4F",
"C. c #562B50",
"Z. c #572B50",
"A. c #562C50",
"S. c #572D51",
"D. c #582D50",
"F. c #582E51",
"G. c #582E52",
"H. c #592E52",
"J. c #592F53",
"K. c #5A2F52",
"L. c #593051",
"P. c #5A3053",
"I. c #5D3254",
/* pixels */
"                                                                                                                                                                ",
"                                                                                                                                                                ",
"                                                                                                                                                                ",
"                                                                                                                                                                ",
"                                            ;./ / u                                                                                                             ",
"                                            w.n.n.v v ;.;.                                                                                                      ",
"                                                L.Z./ ;.D.n.                n./                                                                                 ",
"                                                    w.;.Z.;.v               Z./ v u                                                                             ",
"                                                      A.n.v E             ;.n.D./ v v /             n.n.B.                                                      ",
"                                                            E v n./ w.v Z.;.w.    Z.w.B.u v 4.    / v ;.                        D.;.h w.                        ",
"                                                              B.w.;.w./                   E 1./ E / E                   / ;.;.Z.B.                              ",
"                      L./       / /                               /                         n.                      4./ E v E x.                                ",
"                        4./   E /                                                                             : = = = = v ;.1.                                  ",
"                          w.h E                                                                         u u v 7 v 6 6 = / ;.                                    ",
"                                                                                                E h : : = u v v Q v Q v v 7.                                    ",
"                  E h                                       I.                                  v v v u u u = : u v / u v                                       ",
"                                                        n./ n.;.4.4.                          h u u v u 6 6 = 6 : : u u = v                                     ",
"                                                n.n.  w.B.x.  B.                              u u u u : 6 = Q v 6 = v / Q /                                     ",
"                                            / v / /                                         u u u u v u = : Q Q 6 v       A.n.                                  ",
"                                              E n.                                          u u u v u u 6 = 6 / ;.                                              ",
"                                                      = v E                                 v u u / = : = 6 v /       ;.V.  / n.                                ",
"              L.P.A.                        : u v 6 v Q / v                       /       7 v v = / Q = = u Q 1.              w.                                ",
"          n.n.n.;.n.A./ / / : : : : : : : : : v 6 6 6 v 6 6 6             u     ;.;.;.  v u Q Q u / Q v Q : v u                                                 ",
"              w.  n./ E 7 E v : o . . . . 7 : v ;.= = 6 = : = 7 7         v v v / / 1.;.v 6 ;.1.v #.Q v Q u 1./                                                 ",
"                            w.    : . o o : u / u / = v Q u : u v v       u E u v 1.Z./ 6 Q ~ 1.v v           B.                                                ",
"                                    : v u : u v Q v = Q u v : : E v v v   E u u = 6 v = v v Q / / :                                                             ",
"                                    / ;.E u 7 / Q v 6 Q v u : : v u u = Q v u v = : v v = Q ;.v / / E                                   / / w.n.                ",
"                                    / E           ;.Q v Q v : : u u u = : = u / v Q v v v / /     / v                                 / v v ;.v Q X             ",
"                                                    / ~ v Q : 6 u u v u u u u v ~ 1.= v 6 E                                     u 4.4.w.w.    n.w.  u           ",
"                                                      ;.v     E u : E v / ;./ v Q ;.Q 6 : ;.                        w.        / E       4.                      ",
"                                                                    E w.        / / / v 6 u                       v v / E ;.D.                                  ",
"                                                                                  u v / v v                     : u v u /                                       ",
"                                                                          w.h         v   E                   7 6 7 v                                           ",
"                                                                              u u                         w./ v                                                 ",
"                                                                                                          w./                                                   ",
"                                                                / n.                                                                                            ",
"                                                      V.      4.E E                                                                                             ",
"                                                    A.n.n.A.                                                                                                    ",
"                                                                                                                                                                ",
"                                                                                                                                                                ",
"                                                                                                                                                                ",
"                                                                                                                                                                ",
"                                                                                                                                                                ",
"                                                                                                                                                                ",
"                                                                                                                                                                "
};
