/* XPM */
static char *prtal_6__dragged__removebg_previ1709294833[] = {
/* columns rows colors chars-per-pixel */
"70 70 241 2 ",
"   c None",
".  c #06010C",
"X  c #0A010D",
"o  c #080107",
"O  c #0C0213",
"+  c #0D021C",
"@  c #0D0811",
"#  c #100315",
"$  c #13041C",
"%  c #14081A",
"&  c #0C0124",
"*  c #0D012B",
"=  c #070029",
"-  c #140323",
";  c #1A0424",
":  c #160924",
">  c #190B24",
",  c #14022C",
"<  c #1B042D",
"1  c #15092E",
"2  c #1B0B2B",
"3  c #1D1127",
"4  c #0D0132",
"5  c #0F023B",
"6  c #140233",
"7  c #1B0333",
"8  c #1A0A35",
"9  c #13033C",
"0  c #1D033B",
"q  c #17093D",
"w  c #1B0A3C",
"e  c #170B34",
"r  c #23072E",
"t  c #24162C",
"y  c #220434",
"u  c #230C34",
"i  c #22023C",
"p  c #230B3B",
"a  c #290A37",
"s  c #2A1339",
"d  c #261836",
"f  c #30113F",
"g  c #3B233F",
"h  c #140343",
"j  c #160942",
"k  c #1B0944",
"l  c #15034A",
"z  c #1D054C",
"x  c #1B0A4B",
"c  c #180847",
"v  c #1D0C53",
"b  c #1B0556",
"n  c #0E0341",
"m  c #240343",
"M  c #2C0B42",
"N  c #24044A",
"B  c #2A034C",
"V  c #220A4D",
"C  c #2B0647",
"Z  c #330E49",
"A  c #2C1B42",
"S  c #281443",
"D  c #331648",
"F  c #2B0253",
"G  c #230C55",
"H  c #24035D",
"J  c #2D045C",
"K  c #250D5A",
"L  c #2A0956",
"P  c #32035C",
"I  c #370C55",
"U  c #281158",
"Y  c #341454",
"T  c #39145A",
"R  c #3A1659",
"E  c #342745",
"W  c #3A2755",
"Q  c #190364",
"!  c #290867",
"~  c #340363",
"^  c #360669",
"/  c #2A1162",
"(  c #3D1664",
")  c #260577",
"_  c #340673",
"`  c #3D0273",
"'  c #360A7A",
"]  c #371274",
"[  c #46185A",
"{  c #42285F",
"}  c #5C2A5C",
"|  c #552656",
" . c #4A2B54",
".. c #42136E",
"X. c #461867",
"o. c #410376",
"O. c #44037B",
"+. c #450B76",
"@. c #4D137D",
"#. c #4A1B7A",
"$. c #471873",
"%. c #541B77",
"&. c #50116F",
"*. c #60127F",
"=. c #49256B",
"-. c #582965",
";. c #4C3766",
":. c #4B2875",
">. c #552779",
",. c #563975",
"<. c #51376F",
"1. c #632C64",
"2. c #652E6B",
"3. c #682E6E",
"4. c #6A2F73",
"5. c #662A76",
"6. c #6C317A",
"7. c #73347F",
"8. c #5B417B",
"9. c #360785",
"0. c #270393",
"q. c #38079B",
"w. c #2B0C88",
"e. c #2E08A9",
"r. c #3D09BA",
"t. c #460383",
"y. c #4C0388",
"u. c #591887",
"i. c #470798",
"p. c #540393",
"a. c #530997",
"s. c #5A1A98",
"d. c #530F88",
"f. c #691B8D",
"g. c #681996",
"h. c #721496",
"j. c #572787",
"k. c #5E2B95",
"l. c #563084",
"z. c #672588",
"x. c #633987",
"c. c #743483",
"v. c #7A378C",
"b. c #652592",
"n. c #632C95",
"m. c #6B2195",
"M. c #76289B",
"N. c #673698",
"B. c #7A3697",
"V. c #71208F",
"C. c #4709AE",
"Z. c #5805A3",
"A. c #5D10B1",
"S. c #6103AA",
"D. c #6C17A6",
"F. c #6805B8",
"G. c #781ABA",
"H. c #7316B0",
"J. c #6B26A4",
"K. c #6B2BAE",
"L. c #6A26A7",
"P. c #732AA7",
"I. c #7131AB",
"U. c #6B29B9",
"Y. c #7A2BB7",
"T. c #7636AB",
"R. c #714C96",
"E. c #4D09C1",
"W. c #6C05C0",
"Q. c #7408C9",
"!. c #7D08D7",
"~. c #843B9C",
"^. c #843D95",
"/. c #831DBD",
"(. c #853FA7",
"). c #8B2AB3",
"_. c #9327BA",
"`. c #8733B9",
"'. c #9836B9",
"]. c #8C29AA",
"[. c #94549D",
"{. c #8F41AA",
"}. c #9647A8",
"|. c #9A47B7",
" X c #9451B5",
".X c #8F4AB1",
"XX c #A14CB7",
"oX c #A753B8",
"OX c #861BC9",
"+X c #860BDC",
"@X c #9018D4",
"#X c #8929C4",
"$X c #8D38C2",
"%X c #9535C5",
"&X c #9425D7",
"*X c #A03BC6",
"=X c #A137D5",
"-X c #B73AD9",
";X c #A129CA",
":X c #9E1EE6",
">X c #9529E4",
",X c #A738E8",
"<X c #BD3FE5",
"1X c #A026E2",
"2X c #AD58C2",
"3X c #B85AD3",
"4X c #AB49C9",
"5X c #BC72CB",
"6X c #AB4EE7",
"7X c #BE68EA",
"8X c #BE78EC",
"9X c #9047C5",
"0X c #C64ADB",
"qX c #C669D6",
"wX c #DA6CDE",
"eX c #C747E7",
"rX c #D551EB",
"tX c #E35AF2",
"yX c #DC69ED",
"uX c #D474E6",
"iX c #E37BEE",
"pX c #EC7CF2",
"aX c #D392E9",
"sX c #E285EB",
"dX c #EA88F2",
"fX c #F497F8",
"gX c #EC91F3",
"hX c #DCAAEB",
"jX c #D7B0EC",
"kX c #F6A7F9",
"lX c #F7BCF9",
"zX c #E7AEEF",
"xX c #DDC3ED",
"cX c #FCCAFB",
"vX c #FBD8FB",
"bX c #E5D0EB",
"nX c #FDEBFD",
"mX c #FCE0FE",
"MX c #FDFCFC",
"NX c #FEF4FD",
"BX c #E8E2ED",
/* pixels */
"                                                                                                                                            ",
"                                                                                                                                            ",
"                                                                                                                                            ",
"                                                                                                                                            ",
"                                                                                                                                            ",
"                                                              ;.  ;.    E                                                                   ",
"                                                          ;.<.<.=.W { :.8.<.                                                                ",
"                                                      E W 8.,.:.:.s.H.U.L.I.k.A                                                             ",
"                                                    A A W :.#.L ! a.F.i.a.Y.#XU.l.                                                          ",
"                                                  ;.<.$.k.X.m ; - P t.F H ~ ` s.U.N.                                                        ",
"                                                  { n.H.d.y - $ , N _ ! J F 7 7 j.$X>.W                                                     ",
"                                                <.m.L.X.C m < , 0 H ! ! H z , , M b.K.l.                                                    ",
"                                                 X`.I r B B i N b b l l l h , , y Z ..k.=.                                                  ",
"                                              7.XX:.< y 7 7 7 l l n n h 4 6 * 4 6 ; i u.n.;.                                                ",
"                                            ,. XB.y ; ; $ 7 c h n 5 4 4 4 l H ^ ~ N 7 M K.j.                                                ",
"                                            R..XI ; - - , V z 5 * * 4 l ) q.C.i._ 0 $ ; ..I.                                                ",
"                                             Xm.a $ $ - 6 k 8 4 5 n Q 0.e.0.Q 9 ; $ # O u J.>.                                              ",
"                                            $Xu.y $ $ - , 8 9 5 n Q q.E.W.p.P 7 ; % X o O @.n.                                              ",
"                                            %X>.< $ O + e d h 5 b ) ) 9.9.9.q.i.` a # X X [ P.,.                                            ",
"                                          oX'.Z ; O O + 1 e 5 h n 5 5 5 h n l b ) ' L # X a J.,.                                            ",
"                                          |.M.a $ O O & * e 9 6 * 9 9 9 6 9 9 9 q l J C $ $ d.j.                                            ",
"                                        <.'.5.; O . + = 4 9 6 6 6 6 7 < , , 6 6 w q 5 h 0 $ %.L.{                                           ",
"                                        5.h.a $ O O & = 4 9 6 7 7 y i 0 7 , - , 3 e * * & ; Z K.x.                                          ",
"                                        z.f.r # . O = 4 4 8 a y m N N m i 7 , , $ + & * * - M K.x.                                          ",
"                                        k.u.; X X + & 4 4 < s i F J P P B m y ; $ + + + & + < I.N.                                          ",
"                                      W { #.- X X + * 4 , ; M F ~ o.O.O.o.P B m - + + + + $ < k.,.                                          ",
"                                      ;.j.u.$ X . + * * $ 7 C P o.p.a.Z.a.O.~ H i - + O O + ; d.$.                                          ",
"                                      <.Y.f.; O O & 4 * $ i B ^ p.F.Q.Q.D.O.P B B , , , + O ; f.>.                                          ",
"                                        '.%.; X O * 4 & - m P y.F.@X,X>XF.p.~ B m , - , , O - b.N.                                          ",
"                                        `.&.; O . 4 9 & , m ^ p.!.7XaX7X&XS.o.B i 7 + - 7 $ $ &.M.                                          ",
"                                        ).%.; X . & 9 , 7 m ` S.=XhXbXjX6XF.t.F 0 7 + + 7 , # I P.                                          ",
"                                        ).u.$ O . + 9 - 6 N ` W.,XhXBXxX6XW.t.~ m 6 & O - : # T T.                                          ",
"                                        `.u.- O . O < - < N ` F.:XaXxXjX6XW.t.J N 6 & + : t % Z L.                                          ",
"                                        U.u.: . o X + 2 < 0 ^ Z.+X7XaXuX>XE.O.P N , , % 3 t : T K.                                          ",
"                                        N.@.2 @ . . @ t < 0 P p.+X:X,X>X!.F.o.F N , d t > 1 % R J.                                          ",
"                                        {.D.u % @ @ O % ; y C O.F.+X+XQ.Q.a.~ N V 1 S d : - $ ( L.                                          ",
"                                        x.K.D % @ @ & : - 7 i P y.S.Z.A.Z.` F m 0 1 A d : - > j.D.                                          ",
"                                        :.k.U % @ @ @ = 6 7 i B ^ O.y.y.t.^ B m < 8 S w & $ r j.K.                                          ",
"                                        R.N.Y % % + @ + 6 e m B P ^ ` o.` ~ m 0 7 j w 2 : $ s I.                                            ",
"                                        ,.j.=.2 1 : % @ + 6 x H ~ ^ _ _ _ F y 0 k q w w : % Y `.                                            ",
"                                          #.s.s y < 7 : @ + 1 q U T J G N m C z c q q 8 % 2 #.U.                                            ",
"                                          =._.[ Z M p e 1 : % : 2 s p y m G G c h j c 1 ; a M.#X                                            ",
"                                          { %Xz.M | $.V k k w 8 8 w q V K U x j q x w 3 > =.%X                                              ",
"                                            B.'.f g -.@._ G x x x l v v v v j q V x > 3 s n.%X                                              ",
"                                            >.'.>.t t Z d.s.a.9.' ) Q / v v x U V 1 > u =.`.9X                                              ",
"                                            E z.m.s t 3 1 U 9.C.E.r.e.w./ v U v w e u M I.4X                                                ",
"                                              ( P.$.s > 3 S H 0.r.r.e.] / v v j w u M [ $X-X                                                ",
"                                              R P.I.D d S &.h.@XG.a.] U v v v V M Y R b.=X                                                  ",
"                                                >.Y.j.D R *.h.f.] / v G / ~ I ( X.X.>.%X*X                                                  ",
"                                                  n.Y.n.X.R Y U U K / ] ] ..d.u.%.%.).eX                                                    ",
"                                                    Y.=Xb.X.[ [ ....d.d.s.h.h.f.h._.eX                                                      ",
"                                                      4X=X].5.*.z.V.M.H.OX_._.;X-XyX                                                        ",
"                                                        4XyX0X'.].].OXOX&X;X<XtXsXqX                                                        ",
"                                                          }.wXtXtXrX<X<XeXtXpXqX[.                                                          ",
"                                                      | | 1.7.3XwXpXdXfXkXgX5X^.3.| 2.                                                      ",
"                                                4.c.c.v.^.v.~.|.qXsXkXlXlXgXqX.X{.{.{.c.4.                                                  ",
"                                              -.5.v.~.}.oXqXaXzXcXnXMXMXMXnXlXdX3X'.{.B.c.2.                                                ",
"                                              | 1.5.~.3XfXcXnXMXMXMXMXMXMXMXNXlXuX4X|.{.v.3.                                                ",
"                                              | | 3.c.|.uXlXmXmXcXcXvXNXNXnXvXfXyX3X|.v.2.                                                  ",
"                                                  5.c.v.^.XXqXsXgXfXkXkXgXsXiXpXuXoXv.2.                                                    ",
"                                                      3.1.4.c.^.}.oXoXXX.X{.^.^.^.7.                                                        ",
"                                                            1.} | 1.2.2.2.                                                                  ",
"                                                                                                                                            ",
"                                                                                                                                            ",
"                                                                                                                                            ",
"                                                                                                                                            ",
"                                                                                                                                            ",
"                                                                                                                                            ",
"                                                                                                                                            ",
"                                                                                                                                            "
};
