/* XPM */
static char *_s1709288151[] = {
/* columns rows colors chars-per-pixel */
"80 45 163 2 ",
"   c None",
".  c #481B44",
"X  c #481C44",
"o  c #491D44",
"O  c #491C45",
"+  c #4A1C45",
"@  c #4A1D45",
"#  c #4A1E44",
"$  c #4A1F44",
"%  c #4A1E45",
"&  c #4B1E45",
"*  c #4A1F45",
"=  c #4B1F45",
"-  c #4A1D46",
";  c #4A1E46",
":  c #4B1E46",
">  c #4B1F46",
",  c #4B1E47",
"<  c #4B1F47",
"1  c #4C1F46",
"2  c #4C1F47",
"3  c #4B1E48",
"4  c #4C1F48",
"5  c #4D1F48",
"6  c #4A2045",
"7  c #4B2045",
"8  c #4B2145",
"9  c #4B2046",
"0  c #4B2146",
"q  c #4C2046",
"w  c #4C2146",
"e  c #4D2146",
"r  c #4C2047",
"t  c #4D2047",
"y  c #4C2147",
"u  c #4D2147",
"i  c #4C2246",
"p  c #4D2246",
"a  c #4C2247",
"s  c #4D2247",
"d  c #4D2347",
"f  c #4E2247",
"g  c #4C2048",
"h  c #4D2048",
"j  c #4D2148",
"k  c #4D2049",
"l  c #4D2149",
"z  c #4E2148",
"x  c #4E2149",
"c  c #4C2248",
"v  c #4D2248",
"b  c #4D2348",
"n  c #4D2249",
"m  c #4E2248",
"M  c #4F2348",
"N  c #4E2249",
"B  c #4F2249",
"V  c #4E2349",
"C  c #4F2349",
"Z  c #4E224A",
"A  c #4F224A",
"S  c #4E234A",
"D  c #4F234A",
"F  c #4E234B",
"G  c #4F2448",
"H  c #4F2548",
"J  c #4F2449",
"K  c #4F2549",
"L  c #4F2649",
"P  c #4F244A",
"I  c #4F244B",
"U  c #502349",
"Y  c #50234A",
"T  c #50234B",
"R  c #502548",
"E  c #502449",
"W  c #502649",
"Q  c #512649",
"!  c #502749",
"~  c #512749",
"^  c #50244A",
"/  c #51244A",
"(  c #50254A",
")  c #51254A",
"_  c #50244B",
"`  c #51244B",
"'  c #50254B",
"]  c #51254B",
"[  c #52254A",
"{  c #50264A",
"}  c #51264A",
"|  c #51274A",
" . c #50264B",
".. c #51264B",
"X. c #51274B",
"o. c #52264A",
"O. c #52274A",
"+. c #52264B",
"@. c #52274B",
"#. c #53274B",
"$. c #51244C",
"%. c #51254C",
"&. c #51264C",
"*. c #51274C",
"=. c #52264C",
"-. c #52274C",
";. c #53274C",
":. c #53264D",
">. c #52274D",
",. c #53274D",
"<. c #54274D",
"1. c #522849",
"2. c #532849",
"3. c #50284A",
"4. c #51284A",
"5. c #51284B",
"6. c #52284A",
"7. c #52284B",
"8. c #53284B",
"9. c #54294B",
"0. c #542A4B",
"q. c #51294D",
"w. c #52284C",
"e. c #53284C",
"r. c #53294C",
"t. c #53284D",
"y. c #53294D",
"u. c #532A4D",
"i. c #52284E",
"p. c #54284C",
"a. c #54294D",
"s. c #542B4C",
"d. c #542A4D",
"f. c #552A4D",
"g. c #54284E",
"h. c #55284E",
"j. c #54294E",
"k. c #54294F",
"l. c #55294F",
"z. c #56294E",
"x. c #56294F",
"c. c #542A4E",
"v. c #552A4E",
"b. c #552B4E",
"n. c #542A4F",
"m. c #552A4F",
"M. c #562B4F",
"N. c #572B4F",
"B. c #552D4D",
"V. c #552C4E",
"C. c #562C4E",
"Z. c #572C4E",
"A. c #562D4E",
"S. c #572D4E",
"D. c #562C4F",
"F. c #572E50",
"G. c #582D50",
"H. c #582E50",
"J. c #582F50",
"K. c #592E51",
"L. c #592F51",
"P. c #5A2F52",
"I. c #5B3053",
/* pixels */
"                                                                                                                                                                ",
"                                                                                                                                                                ",
"                                                                                                                                                                ",
"                                                                                                                                                                ",
"                                                                                                                                                                ",
"                                                                                                                                                                ",
"                                                      f J                                                                                                       ",
"                                          ..U l l ..U 2 f                     ..e.                                                                              ",
"                                        J f X 6 6 :.:.l l l                 l 2 l l                                                                             ",
"                                              4.B.  :.U ..U J     ....  ..l l l h.f                 ..                                                          ",
"                                                      B.    f J ..l ..l J ..J :.h.h.U       ......e.l ..                              l                         ",
"                                                              G.4.F.F.e.            h.      ..:.    f f                                   J f                   ",
"                        4.                                                                ....                                                                  ",
"                      ..J e.  4.e.:.f                                                                                         f f ..e.                          ",
"                                                                                                                      J l f X l                                 ",
"                                                                                                  :.4.      l ..l :.l l l ..                                    ",
"                  h.    e.                              e.e...                                    6 l X 2 5 l 5 2 2 2 l f                                       ",
"                                                  :...  :.J ....                                f X 2 l U f U l 5 X 2 l                                         ",
"                                                ..e.B.      :.4.                              l 2 2 2 2 2 2 l X . 3 l ..                                        ",
"                                              4.:.                                          f l 2 2 # # 2 2 5 f 5 5 5 X       ..                                ",
"          ..2 :.h.4.            4.G J         B.I.                                h.        l X X 2 2 2 2 2 X l f J l 6 f   B.                                  ",
"          ..f :...e.F.        :.B.h.l l                                   6       l       l U 2 U 2 2 U U f f                                                   ",
"          4.    e.h.:.........U :.H.J   J           l                     2 ..:.l f f   f X 2 l 2 z 2 U 5 f                                                     ",
"                B.  h...J   ..h.    4.              l 2 2 l               f f l 2 f ..l X 5 5 X 2 2 2 2 U                                                       ",
"                                                l X 2 5 2 2 . X f         l l e.U f U l 2 2 l 2 X l l X l J                                                     ",
"                                              f U 2 X 5 X l l U f X X X J f X U U 2 5 f 2 X 5 5 U ..                                    B.                      ",
"                                          l f X U U l X . 5 l l U l l 2 U l 5 X l 2 l 2 2 2 l 2 2 f                                   I.:...                    ",
"                                    # 2 2 2 f 2 l l 2 5 . 2 5 5 l U f 2 X X 5 X 3 U U 5 U f       f                                   I.h.l                     ",
"                              6 X X 2 2 2 f 2 f f l 2 X 2 X X X X 2 2 l 5 5 3 X X 5 :.l U 6                           ..        h.B.e.h.F.:.e.      I.4.e.      ",
"                          B.G f 2 2 2 l f l 5 2 l       2 2 X . 5 2 2 ..U     X f 2 T l 5 f                           l :.J   ..e.e.h.h.h.B...                  ",
"                                    ..l 2 l 2             e.l 6 l ..J l :.        l l e.I J                         F l U ..l l         h.:.:.                  ",
"                                      l 2 f                 I.:...                  :.:.J :.                      h.e...:.  f             h.B.                  ",
"                                        l                     s.        B.H.          J                         ..    :...                B.                    ",
"                                                                            :.B.                          ..4.        ..h.                G.                    ",
"                                                                                4.                                                        h.                    ",
"                                                                                                                                                                ",
"                                                                ....                                                                                            ",
"                                                        h...G J ....                                                                                            ",
"                                                      J ..                                                                                                      ",
"                                                                                                                                                                ",
"                                                                                                                                                                ",
"                                                                                                                                                                ",
"                                                                                                                                                                ",
"                                                                                                                                                                ",
"                                                                                                                                                                "
};
