/* XPM */
static char *prtal_7__dragged__removebg_previ1709294833[] = {
/* columns rows colors chars-per-pixel */
"70 70 237 2 ",
"   c None",
".  c #07000F",
"X  c #0A010D",
"o  c #0D0114",
"O  c #0D011B",
"+  c #070010",
"@  c #110315",
"#  c #14031C",
"$  c #140A1C",
"%  c #18061A",
"&  c #1C101D",
"*  c #0E0224",
"=  c #0E032B",
"-  c #130223",
";  c #1A0424",
":  c #150A23",
">  c #1A0A24",
",  c #14022C",
"<  c #1B042B",
"1  c #1B0C2B",
"2  c #150B2A",
"3  c #1D1229",
"4  c #0F0237",
"5  c #140431",
"6  c #1C0333",
"7  c #1D0C32",
"8  c #14023B",
"9  c #1B043B",
"0  c #1C0A3C",
"q  c #170D30",
"w  c #1E103C",
"e  c #22052C",
"r  c #220B2E",
"t  c #240C27",
"y  c #25142A",
"u  c #230435",
"i  c #230D34",
"p  c #23043B",
"a  c #2A043C",
"s  c #220B3B",
"d  c #2C0D3A",
"f  c #2A0A35",
"g  c #251439",
"h  c #33143B",
"j  c #30063A",
"k  c #160344",
"l  c #1B0442",
"z  c #1C034B",
"x  c #1C0A4C",
"c  c #1E0B43",
"v  c #1C0650",
"b  c #240343",
"n  c #2B0343",
"m  c #25044B",
"M  c #2A054C",
"N  c #230C4C",
"B  c #2B0C4B",
"V  c #260B44",
"C  c #360A48",
"Z  c #281546",
"A  c #34134A",
"S  c #351749",
"D  c #230454",
"F  c #2B0454",
"G  c #230B54",
"H  c #25055A",
"J  c #2A045A",
"K  c #250A5A",
"L  c #2B0D5B",
"P  c #2E0957",
"I  c #3D0D54",
"U  c #34045D",
"Y  c #330B5D",
"T  c #350653",
"R  c #281156",
"E  c #3A1657",
"W  c #39274D",
"Q  c #1D0B61",
"!  c #2D0B63",
"~  c #2B0367",
"^  c #330464",
"/  c #3C056B",
"(  c #360868",
")  c #3A1564",
"_  c #3E0472",
"`  c #3A0676",
"'  c #320E72",
"]  c #460C5D",
"[  c #41145A",
"{  c #52135A",
"}  c #400F4C",
"|  c #433347",
" . c #42285E",
".. c #45325D",
"X. c #450A66",
"o. c #421463",
"O. c #4B1366",
"+. c #42156B",
"@. c #491A6A",
"#. c #410274",
"$. c #44047A",
"%. c #480A79",
"&. c #530A79",
"*. c #491575",
"=. c #571A78",
"-. c #521564",
";. c #62177E",
":. c #482868",
">. c #483360",
",. c #4B2575",
"<. c #592278",
"1. c #583778",
"2. c #503A6E",
"3. c #663575",
"4. c #652674",
"5. c #5C4278",
"6. c #634575",
"7. c #3E0B93",
"8. c #430383",
"9. c #4D0584",
"0. c #4D038C",
"q. c #49068B",
"w. c #570C88",
"e. c #5B1789",
"r. c #4B0797",
"t. c #520494",
"y. c #570598",
"u. c #5B1191",
"i. c #661987",
"p. c #660997",
"a. c #6A1A98",
"s. c #771C9C",
"d. c #6C158A",
"f. c #5D2B88",
"g. c #5D3783",
"h. c #652888",
"j. c #67358B",
"k. c #77368C",
"l. c #733385",
"z. c #632395",
"x. c #6A2896",
"c. c #7B229A",
"v. c #75259B",
"b. c #6B3492",
"n. c #7B339A",
"m. c #7C3793",
"M. c #72208A",
"N. c #5905A5",
"B. c #5B0BB8",
"V. c #6D1BA4",
"C. c #6A04BA",
"Z. c #6605B5",
"A. c #790CBA",
"S. c #710BB1",
"D. c #7223A5",
"F. c #792AA7",
"G. c #7828B6",
"H. c #7730A7",
"J. c #764496",
"K. c #7A458F",
"L. c #6B09C8",
"P. c #770BC6",
"I. c #7C11C8",
"U. c #7C0AD1",
"Y. c #873D9D",
"T. c #8517B5",
"R. c #8429A9",
"E. c #893EA2",
"W. c #8635A7",
"Q. c #913DAB",
"!. c #8727B7",
"~. c #932BBB",
"^. c #8A35B5",
"/. c #9735B8",
"(. c #A33ABB",
"). c #A52FBF",
"_. c #864F9A",
"`. c #8A41A7",
"'. c #9444AB",
"]. c #9748AB",
"[. c #9343B2",
"{. c #9E49BA",
"}. c #9B47B3",
"|. c #A447BC",
" X c #A453B6",
".X c #A861B8",
"XX c #830BD9",
"oX c #8A18D7",
"OX c #8828C4",
"+X c #9527C8",
"@X c #8E22DB",
"#X c #9B35DB",
"$X c #9535C7",
"%X c #AA2DC5",
"&X c #A33CC6",
"*X c #A834CB",
"=X c #AA2ADA",
"-X c #9A2CE1",
";X c #A226E3",
":X c #C23AE1",
">X c #9E52C0",
",X c #A84CC9",
"<X c #AA51C7",
"1X c #B256C9",
"2X c #A848DB",
"3X c #B958D7",
"4X c #B248D0",
"5X c #BA65CD",
"6X c #B871C9",
"7X c #B859E4",
"8X c #AE4AE5",
"9X c #B567E5",
"0X c #C852DD",
"qX c #C364D5",
"wX c #C774D8",
"eX c #D54EF2",
"rX c #E15FEE",
"tX c #DB79E8",
"yX c #CE71E9",
"uX c #E667F3",
"iX c #E57FEE",
"pX c #D89EE8",
"aX c #D08EE7",
"sX c #E489EC",
"dX c #EC8BF3",
"fX c #F197F5",
"gX c #D7AFE7",
"hX c #F7AAF9",
"jX c #F6B5FA",
"kX c #EBA1F2",
"lX c #DFC7E9",
"zX c #FCDBFC",
"xX c #FBD5FC",
"cX c #E6CDEC",
"vX c #FCE2FC",
"bX c #FDF4FC",
"nX c #FDFCFC",
/* pixels */
"                                                                                                                                            ",
"                                                                                                                                            ",
"                                                                                                                                            ",
"                                                                                                                                            ",
"                                                                                                                                            ",
"                                                              ..        W                                                                   ",
"                                                          2.2.1.:.:.,.,.1.5.                                                                ",
"                                                        W 5.1.j.x.OX+X@XG.H.x.                                                              ",
"                                                      S >.j.z./ 8.A.A.y.N.!.*X!.f.                                                          ",
"                                                  >.>.,.x.@.V < 0 9.t.P F ^ 9.!.~.j.                                                        ",
"                                                  :.j.V.w.u - , 8 ^ 8.~ ~ F n C c.&X<.                                                      ",
"                                              | 6.x.F.] a p 6 6 F / ` ~ ~ F u u C s.$Xf.                                                    ",
"                                              W _.^.E u a M M J ^ J D D J D 9 p n T d.T.1.                                                  ",
"                                              3.[.<.< u 6 9 M J D ! ! v z m 9 n n n C R.W.                                                  ",
"                                            5.J.n.d < ; - n D H H H z z z F / &.&.] C ] ~.l.                                                ",
"                                            j.W.] ; ; # 6 H v z k k z J $.y.p.p.&.} j f ;.(.                                                ",
"                                            `.x.a # # , m m 8 4 k D ~ q.N.0.J p u e ; % C /.h.                                              ",
"                                            ^.i.e # # 6 9 4 4 k v ~ N.A.S.w.] C j t % & t i.W.                                              ",
"                                          K.^.=.e # - , = , k k ~ 7.0.9.$.0.y.y.&.} & @ @ { ).1.                                            ",
"                                          {./.A ; # $ 2 , 0 l D z l z z D m D ^ %.w.] % o j R.x.                                            ",
"                                          /.c.d & $ > * = k z z z l l l 9 l 8 k l D X.C % ; d.F.                                            ",
"                                          (.<.y y $ - * 4 z k l b p 6 6 , , , 5 , 8 k b a ; =.R.                                            ",
"                                          R.C t 3 3 2 5 k k l p u p p n b 6 < - , - = , 6 6 I R.1.                                          ",
"                                        b.c.f % O $ 3 c z 9 f C B B M M A a , , , - * = - ; C !.f.                                          ",
"                                        J.z.e @ X O = l 9 < p b M T U U I n 6 , ; - - * - - a ^.b.                                          ",
"                                        h.M.; o X O = V 6 , b b U #._ 7._ U b u ; - = * * # 9 x.h.                                          ",
"                                        W.s.e o + = 8 9 - < n F #.0.N.y.q._ U n , - - * O # , d.<.                                          ",
"                                        |.c.e @ o , 8 , - p M ^ 0.C.L.Z.t.#.F p 6 O * , - o ; M.<.                                          ",
"                                        4Xi.e @ o 5 8 , , n T $.B.U.#X@XC.9.U n u - o , 5 # ; s.n.                                          ",
"                                        ,X-.; @ o , 0 g 6 b / t.I.7XaX9XoXN._ m u , o * 9 - % ;.n.                                          ",
"                                        (.;.e o + = l 5 6 m _ N.@XaXlXgX2XC.$.F 6 6 O o 6 , # X.W.                                          ",
"                                      5.|.M.% @ + O l 6 p m #.C.-XpXcXlX7XC.8.U b , - O , , # O.W.                                          ",
"                                        &XM.< O X + 9 9 d F $.C.-XaXlXgX8XI.q.! F , - O - , # I V.                                          ",
"                                        ~.=.< o + X * 5 d B ` N.oX7XpXyX-XC.w.+.Y < - * - - # O.D.                                          ",
"                                        Q.=.1 @ + + o - g S / N.XX;X#X-XXXN./ ) Y 1 5 , , , % o.D.                                          ",
"                                        [.s.f $ @ o + $ < n Y u.I.XXoXU.C.0.U G m : 8 0 5 1 > @.v.                                          ",
"                                        J.OXS > @ @ o $ 2 < B =.a.Z.N.y.t._ F m 9 ; l 0 5 i i h.D.                                          ",
"                                        g.G.E > $ o o * , 9 V [ X.$.9.0.8./ F m 6 s m 9 s < r h.F.                                          ",
"                                        J.G.) ; $ $ @ $ 5 l m E Y ^ _ ` #./ F p 9 m l 0 u ; S H.                                            ",
"                                        g.D.<.1 3 3 $ @ : c K ! ( / _ ` _ J b n M G 0 V 1 > [ /.                                            ",
"                                          z.z.C f y 7 > : > i B L ! ! P m b M F G N V c : < =.!.                                            ",
"                                          =.^.} } C s 0 g 3 1 1 7 g s p b K J G x N E g $ C F./.                                            ",
"                                          :.>Xh.h { O.F x c s s 0 0 c G K K v x x N Z : r <.$X                                              ",
"                                            J.'.h h { d.%.! K v N D K K ! v v x N N 2 $ h v.&X                                              ",
"                                            :.{.<.t > S i.V.a.w.%.` ' ~ Q v x R R w : i @./.                                                ",
"                                            S h.x.g y 3 0 +.D.A.I.Z.7.' Q v R R Z 3 i A H.2X                                                ",
"                                              E D.:.g : q N ' B.L.B.r.' Q G c w w i d [ ,X<X                                                ",
"                                                v.G.W g A =.F.+XG.w.( L R R R R Z A I x.4X                                                  ",
"                                                ,.G.f.S [ ;.d.i.*.! R R ! ( ) X.O.O.=.&X,X                                                  ",
"                                                  z.!.x.,.+.E L R R ' ' *.+.*.i.i.=.&X3X                                                    ",
"                                                    ^.#Xx.@.[ o.@.) %.a.a.a.d.d.s.&XyX                                                      ",
"                                                      $X4X'.4.4.M.D.!.+X+X~.~.).3XsX                                                        ",
"                                                        5XtX0X*X%X%X=X;X+X=X:XrXsX6X                                                        ",
"                                                          .XtXuXuXuXeXeXeXuXdXtX                                                            ",
"                                                          4.3.1XiXdXfXhXjXdX5XE.                                                            ",
"                                                    k.k.k.k.Y.'.3XtXhXjXjXdX3X{.'.].`.                                                      ",
"                                                  l.m.E.}.1XwXpXcXzXbXnXbXvXjXsX,X[.E.Y.m.                                                  ",
"                                                    Y. XiXjXzXnXnXnXnXnXnXnXbXjXyX,X{.[.E.                                                  ",
"                                                    l.`.qXhXzXzXxXzXbXbXbXbXzXhXuX3X{.`.                                                    ",
"                                                      k.`.].qXsXfXjXjXjXkXdXdXiXtX1X'.                                                      ",
"                                                          3.k.Y. X5X5X1X|.].'.].].                                                          ",
"                                                                                                                                            ",
"                                                                                                                                            ",
"                                                                                                                                            ",
"                                                                                                                                            ",
"                                                                                                                                            ",
"                                                                                                                                            ",
"                                                                                                                                            ",
"                                                                                                                                            ",
"                                                                                                                                            "
};
