/* XPM */
static char *_s1709288151[] = {
/* columns rows colors chars-per-pixel */
"80 45 152 2 ",
"   c None",
".  c #481B44",
"X  c #491C45",
"o  c #4A1D45",
"O  c #4A1E44",
"+  c #4A1E45",
"@  c #4B1E45",
"#  c #4A1D46",
"$  c #4B1E46",
"%  c #4A1F46",
"&  c #4B1F46",
"*  c #4B1E47",
"=  c #4B1F47",
"-  c #4C1F46",
";  c #4C1F47",
":  c #4B1F48",
">  c #4C1F48",
",  c #4B2045",
"<  c #4B2046",
"1  c #4B2146",
"2  c #4C2046",
"3  c #4C2146",
"4  c #4D2146",
"5  c #4C2047",
"6  c #4D2047",
"7  c #4C2147",
"8  c #4D2246",
"9  c #4D2346",
"0  c #4C2247",
"q  c #4E2246",
"w  c #4E2247",
"e  c #4E2347",
"r  c #4F2547",
"t  c #4C2048",
"y  c #4D2048",
"u  c #4C2148",
"i  c #4D2148",
"p  c #4C2049",
"a  c #4D2049",
"s  c #4D2149",
"d  c #4E2148",
"f  c #4E2149",
"g  c #4D2248",
"h  c #4D2348",
"j  c #4D2249",
"k  c #4D2349",
"l  c #4E2248",
"z  c #4F2248",
"x  c #4E2348",
"c  c #4F2348",
"v  c #4E2249",
"b  c #4F2249",
"n  c #4E2349",
"m  c #4F2349",
"M  c #4F224A",
"N  c #4E234A",
"B  c #4F234A",
"V  c #4F224B",
"C  c #4F234B",
"Z  c #4F2448",
"A  c #4F2548",
"S  c #4F2449",
"D  c #4F2549",
"F  c #4F244A",
"G  c #4F264A",
"H  c #502349",
"J  c #50234A",
"K  c #502549",
"L  c #512549",
"P  c #502648",
"I  c #512649",
"U  c #502749",
"Y  c #50244A",
"T  c #51244A",
"R  c #50254A",
"E  c #51254A",
"W  c #50244B",
"Q  c #51244B",
"!  c #50254B",
"~  c #51254B",
"^  c #52254A",
"/  c #52254B",
"(  c #50264A",
")  c #50274A",
"_  c #51274A",
"`  c #50264B",
"'  c #51264B",
"]  c #51274B",
"[  c #52274A",
"{  c #52264B",
"}  c #52274B",
"|  c #53274B",
" . c #51254C",
".. c #52254C",
"X. c #51264C",
"o. c #52264C",
"O. c #53264C",
"+. c #52274C",
"@. c #53274C",
"#. c #53264D",
"$. c #52274D",
"%. c #53274D",
"&. c #54274E",
"*. c #53284A",
"=. c #52284B",
"-. c #53284B",
";. c #52294B",
":. c #52284C",
">. c #53284C",
",. c #53294C",
"<. c #52284D",
"1. c #53284D",
"2. c #53294D",
"3. c #54284C",
"4. c #54294C",
"5. c #54284D",
"6. c #54294D",
"7. c #55294D",
"8. c #542A4C",
"9. c #552A4C",
"0. c #552B4C",
"q. c #552A4D",
"w. c #542B4D",
"e. c #552B4D",
"r. c #55284E",
"t. c #54294E",
"y. c #55294E",
"u. c #55284F",
"i. c #55294F",
"p. c #542A4E",
"a. c #552A4E",
"s. c #542B4E",
"d. c #552A4F",
"f. c #562A4E",
"g. c #562B4E",
"h. c #562B4F",
"j. c #552C4D",
"k. c #572E4D",
"l. c #562C4E",
"z. c #562C4F",
"x. c #572C4F",
"c. c #582D4F",
"v. c #582E4F",
"b. c #572B50",
"n. c #572C50",
"m. c #572D50",
"M. c #592D51",
"N. c #592E50",
"B. c #582E51",
"V. c #592E51",
"C. c #582E52",
"Z. c #5A3053",
/* pixels */
"                                                                                                                                                                ",
"                                                                                                                                                                ",
"                                                                                                                                                                ",
"                                                                                                                                                                ",
"                                                                                                                                                                ",
"                                                                                                                                                                ",
"                                                                                                                                                                ",
"                                                        n                                                                                                       ",
"                                                    #.J n :.              #.J                                                                                   ",
"                                                n # n n n ^ ^     #.    n n ^ G                     n.:.                                                        ",
"                                              n.t n ^ n n J n : n C ^ G n J n n n         n 0.^ G n.z.^                                                         ",
"                                              0.^ #.        n     :.^ ^   &.#.G n n     ^ n                                           :.  ^                     ",
"                                                  z.                        #.#.0.J 2                                                                           ",
"                        0.  n 0.                                              #.    G                                                                           ",
"                        0.;.  G r                           :.                      0.                                                                          ",
"                  0.    :.                                #.#.b.0.                    J           <                                                             ",
"                                              0.G 2     #.0.    z.                              < #                                                             ",
"                                            n J #.^   N.                                        # : n                                                           ",
"                                          0.J #.0.                                            n n - n                                                           ",
"                                          :.^                                                 n # . n #                                                         ",
"                                                                                ^ n         n n : . d > J           ^ G     ;.^ <                               ",
"                #.                                                      n 2   ^ #.<       2 # # > > > J J                                                       ",
"            z.0.#.n 0.  ^ G #.:.J 0.                                    # O # n 2 n < #.&.^ > - n J > n 2 2                                   0.0.N.n.n.        ",
"        N.#.0.:.#.b.b.0.^ ;.#.0.#.0.#.b.              ^ 0.              < 2 2 t : # # 2 ^ > - - > > - d &.&.^                             n ^ #.n n #.0.:.      ",
"                Z.            z.    b.                G J z J           2 ^ n # - . . J J J n n n ^ n J #.^ ^                           n n n J J G             ",
"                                                        - > - n J n n #.n #.^ - . . > > J 0.n ^ ^ 2 #.n     n J                         n > G #.n               ",
"                                                        > J > # n > - - n > n # # n - 2 > J ^ ^     n #     n n ^                     G J #     P               ",
"                                                        n &.n > - > # - > n > n #.- # #.J     ^       n       n n n n               ^ #.#.                      ",
"                                                        2 #.n ^ J > # - J J J ^ 0.> > &.n                     t > - n J #.      ^ 0.:.n.n.          ^           ",
"                                                        < - - J J #.- n z -     G ^ - - n                   ^ n J n > n ^ n < n n                               ",
"                                                        ^ n - J #.J J - n >       2 # # n |               n #.^ J n n - n                                       ",
"                                                        ^ ^ n n - J : G ^ J 0.      2 n - #.            N.^     J       2                                       ",
"                                                        n 0.#.n     2   ^ :.                            ;.      ^ n                                             ",
"                                                        #.#.  N.    n.        ;.                              G ;.                                              ",
"                                                        ^ ^   N.                  r                       ^                                                     ",
"                                                        :.n.                                                                                                    ",
"                                                        :.0.  #.;.#.2 ^                                                                                         ",
"                                                      ^ n n n n   2                                                                                             ",
"                                                    ^ #.n                                                                                                       ",
"                                                      ;.0.                                                                                                      ",
"                                                      :.                                                                                                        ",
"                                                                                                                                                                ",
"                                                                                                                                                                ",
"                                                                                                                                                                ",
"                                                                                                                                                                "
};
