/* XPM */
static char *prtal_8__dragged__removebg_previ1709294833[] = {
/* columns rows colors chars-per-pixel */
"70 70 242 2 ",
"   c None",
".  c #0E030E",
"X  c #0C0315",
"o  c #0B0914",
"O  c #0C011A",
"+  c #0F0A18",
"@  c #120315",
"#  c #14041C",
"$  c #120C1B",
"%  c #17091C",
"&  c #14101D",
"*  c #18111F",
"=  c #200A1F",
"-  c #0E0124",
";  c #0E012A",
":  c #140224",
">  c #1B0423",
",  c #170E21",
"<  c #1B0B23",
"1  c #14022B",
"2  c #1B032B",
"3  c #1B0D2C",
"4  c #160A2C",
"5  c #161020",
"6  c #1B1121",
"7  c #1E1229",
"8  c #140233",
"9  c #1C0333",
"0  c #1C033C",
"q  c #1B0A3A",
"w  c #1A0936",
"e  c #23052C",
"r  c #220A2D",
"t  c #260928",
"y  c #231524",
"u  c #23142B",
"i  c #2A1828",
"p  c #341A2D",
"a  c #3A1A2E",
"s  c #230435",
"d  c #240931",
"f  c #22033D",
"g  c #2C043C",
"h  c #230B3C",
"j  c #2D0E3C",
"k  c #2A0933",
"l  c #261636",
"z  c #351A32",
"x  c #3B1B33",
"c  c #3C1D3A",
"v  c #361A35",
"b  c #33073C",
"n  c #411B2F",
"m  c #401E3A",
"M  c #40203F",
"N  c #1C0344",
"B  c #1E0947",
"V  c #1F0D50",
"C  c #230343",
"Z  c #290443",
"A  c #24034B",
"S  c #2A034C",
"D  c #2A094C",
"F  c #250B47",
"G  c #36084A",
"H  c #2D1744",
"J  c #361547",
"K  c #250352",
"L  c #2C0353",
"P  c #220A54",
"I  c #2C045A",
"U  c #2B0A5B",
"Y  c #290956",
"T  c #310453",
"R  c #34035C",
"E  c #340B5B",
"W  c #390858",
"Q  c #2C125A",
"!  c #281155",
"~  c #3A1656",
"^  c #372649",
"/  c #3D2653",
"(  c #3D2956",
")  c #2F2248",
"_  c #2E0564",
"`  c #340364",
"'  c #3A0564",
"]  c #3C046C",
"[  c #370966",
"{  c #381566",
"}  c #3E0375",
"|  c #3B1373",
" . c #2B1362",
".. c #440C4C",
"X. c #470959",
"o. c #451359",
"O. c #530F5E",
"+. c #442142",
"@. c #4C2344",
"#. c #4C244C",
"$. c #53254C",
"%. c #452657",
"&. c #532654",
"*. c #592959",
"=. c #44315A",
"-. c #46086B",
";. c #540C64",
":. c #481766",
">. c #531768",
",. c #420276",
"<. c #45047C",
"1. c #480A77",
"2. c #540778",
"3. c #4B1577",
"4. c #5A1979",
"5. c #641C7B",
"6. c #482663",
"7. c #5E2A62",
"8. c #53276B",
"9. c #4A3266",
"0. c #55376D",
"q. c #5A287A",
"w. c #573678",
"e. c #4E2870",
"r. c #642D6A",
"t. c #622D65",
"y. c #642579",
"u. c #6C317A",
"i. c #693179",
"p. c #70337B",
"a. c #70447F",
"s. c #3E1081",
"d. c #4D038E",
"f. c #4A0782",
"g. c #550888",
"h. c #591786",
"j. c #560498",
"k. c #560D97",
"l. c #670A88",
"z. c #691A86",
"x. c #660992",
"c. c #661D94",
"v. c #741C96",
"b. c #74128F",
"n. c #5D2586",
"m. c #6B2B8C",
"M. c #652884",
"N. c #74248B",
"B. c #74298B",
"V. c #6A348A",
"C. c #743583",
"Z. c #78388B",
"A. c #6C2896",
"S. c #7A299B",
"D. c #793799",
"F. c #5B03A2",
"G. c #770EA2",
"H. c #7517A5",
"J. c #6404B4",
"K. c #6A06B9",
"L. c #7F14B4",
"P. c #650CA9",
"I. c #6B21A3",
"U. c #7926A6",
"Y. c #7933A4",
"T. c #754694",
"R. c #704587",
"E. c #7609C7",
"W. c #7B0DCB",
"Q. c #843C9D",
"!. c #843996",
"~. c #89229F",
"^. c #851DB8",
"/. c #8829A9",
"(. c #932DAB",
"). c #8737A8",
"_. c #953BAE",
"`. c #8A28B6",
"'. c #9A2EB5",
"]. c #8333B2",
"[. c #8D35B5",
"{. c #9634B9",
"}. c #A33BB9",
"|. c #A12BBB",
" X c #89439F",
".X c #91469D",
"XX c #8B42A7",
"oX c #9342AA",
"OX c #9845B6",
"+X c #9354B1",
"@X c #A349BB",
"#X c #A356B7",
"$X c #9F62B3",
"%X c #8C1CC1",
"&X c #8914D7",
"*X c #9015D9",
"=X c #8A21D3",
"-X c #9C26DE",
";X c #9730CC",
":X c #A62AC9",
">X c #AF3BCC",
",X c #A738DA",
"<X c #AF35D4",
"1X c #B536E6",
"2X c #C039DF",
"3X c #C53BE8",
"4X c #9F41DD",
"5X c #A849C6",
"6X c #AA53C8",
"7X c #B75BCA",
"8X c #B858D4",
"9X c #AA4DDF",
"0X c #BC67D1",
"qX c #B14DE1",
"wX c #B86BE2",
"eX c #C365D8",
"rX c #D176DE",
"tX c #DA56F3",
"yX c #D758EA",
"uX c #D876E5",
"iX c #DE73F2",
"pX c #D072E7",
"aX c #E17BED",
"sX c #E674F3",
"dX c #D257E6",
"fX c #C289E1",
"gX c #DC89E9",
"hX c #D79CE5",
"jX c #EC88F4",
"kX c #F59CF8",
"lX c #E691EF",
"zX c #D1ABE3",
"xX c #D3AFE8",
"cX c #ECA6F4",
"vX c #F6A8F8",
"bX c #F7B8FA",
"nX c #DAC4E7",
"mX c #FCC3FD",
"MX c #EFD1F3",
"NX c #FCE5FC",
"BX c #FDFCFD",
"VX c #FDF5FD",
/* pixels */
"                                                                                                                                            ",
"                                                                                                                                            ",
"                                                                                                                                            ",
"                                                                                                                                            ",
"                                                                                                                                            ",
"                                                              (       H )                                                                   ",
"                                                          =.w.w.e.q.M.q.w.R.                                                                ",
"                                                        ( w.D.U.{.>X,X:X%X{.m.H                                                             ",
"                                                    ^ / q.]./.<.g.%X^.j.F.`.<X|.w.                                                          ",
"                                                  / 9.M./.h.T 0 L x.j._ ` ] l.|.}.M.                                                        ",
"                                                  %.A.H.<.g e 2 C <.j._ ` ' ....(.5Xq.)                                                     ",
"                                                0.U.U.X.g s f f R ,.} ] ' W g g X.(.@XM.(                                                   ",
"                                                XX[.W s s S T R W T S I ` T Z G ..;.~.'.*.                                                  ",
"                                              0.[.q.2 2 9 f S T T ' ` I L L S ..G G X.|.!./                                                 ",
"                                            0.Y.S.j > > : C K _ ] _ K K T R -.2.2.;...;.}.i.                                                ",
"                                            w./.W > > X 9 L I I K A K R 2.l.l.2.2.O...b N._.H                                               ",
"                                            T.A.s # # 2 L K N N C S -.g.x.2.` T G g e % ..}.V.                                              ",
"                                          J S.c.e @ : S C 8 N N K ,.x.G.G.2.2.;.X.b @ @ e N.oX                                              ",
"                                          8.`.q.e : 9 9 : 8 N N _ 1.2.2.2.g.x.b.b.O.t . @ >.}.0.                                            ",
"                                          !.'.~ > : 1 - - 8 N K I L L K L L I ' 2.l.O.# . b (.m.                                            ",
"                                        ^ /./.j : : O O ; N A K A A A N 0 N 0 N C I -.X.# > v.).9.                                          ",
"                                        / '.4.> > O O O 8 A A A C C f 9 1 1 ; ; 1 8 0 C g > 4./.=.                                          ",
"                                        8./.G t # O O ; N N 0 f f C Z C f 9 8 1 1 ; ; 8 9 e ../.e.                                          ",
"                                        y.S.d t X O O 0 N N 9 f C g S C f f 9 1 1 1 ; ; 1 2 G `.q.                                          ",
"                                        q.c.k = @ X - C 0 1 9 C C T R L C f 9 1 - : 1 ; ; : Z _.D.                                          ",
"                                      =.m.v.k @ X O 8 N 8 2 f A R ] } } ` Z 9 9 : - 1 1 1 : d ~.Z.                                          ",
"                                      ^  X!.e @ O : 9 0 : 9 C L } d.F.d.<.R Z f 1 : 1 1 - : e N.V.                                          ",
"                                      =.$X~.e @ X 1 9 ; : f S ` j.J.E.J.j.,.L f 2 O - 9 : # e N.B.                                          ",
"                                      ^ #XB.k @ X 1 9 ; 1 C K <.K.W.4X=XK.d.] C 0 # X 8 f t k N.!.^                                         ",
"                                        #Xy.e @ X 1 9 8 9 C R d.W.9XfXwX%XF.} A s : X - f d k 5.Q.                                          ",
"                                      =.#Xy.d @ X : 0 8 9 A ] F.W.zXnXzX,XK.,.A 9 2 O O 9 0 > ;.).                                          ",
"                                      0.$XC.e # . : 0 8 0 S } J.-XzXMXxX9XK.<.L f 1 O : 2 9 > >._.                                          ",
"                                      ( OXB.e = @ O 0 0 0 A <.L.4XhXnXzX9XE.s.K S 1 : : 8 2 > X.H.                                          ",
"                                        _.5.e % @ + 2 0 0 P } K.*XwXhXpX-XJ.f.R R > : 9 9 1 # :.I.                                          ",
"                                        oX4.e > + @ # 8 0 D [ j.W.-XqX1X&XF.} ] ' 2 2 0 9 2 # :.I.                                          ",
"                                      ( +XS.d % # + X # 1 N I d.E.E.*X&XK.d.] I L : 9 0 0 2 > >.A.                                          ",
"                                        ).[.J > % % X + : f D ] j.J.J.j.j.1.] L C > C w 9 3 3 M.A.                                          ",
"                                        T.{.~ 2 : # $ % < 9 f D ] f.1.g.d.,.-.S 9 g D 0 f 2 s z.m.                                          ",
"                                        T.;X:.2 : % : , 3 q Z T L [ -.,.3.3.' Z f Y C 0 f < H D.V.                                          ",
"                                        e.!.q.r < > : % < 3 D E [ ] 1.3.-.E T Q Y U q q s > :.).                                            ",
"                                          V.A.b e 2 2 : < 1 4 F E ' [ E Y D E E U C w q < t h.U.                                            ",
"                                          6.Y.~ J J f q 9 4 1 w w q h F F E R Y P w h h < D D.D.                                            ",
"                                          ( +Xq.k ..;.R A A B 0 q F C P E [ U V N q h < r y.[.                                              ",
"                                          ^ T.).j r O.z.1.[ U P Y U U _ { U P B B h : < F Y.5X                                              ",
"                                            0.+X8.r < o.c.I.c.g.3.1.| { {  .V V P 4 < d >.;XD.                                              ",
"                                            H V.A.H u , j | I.`.L.H.k.|  .! ! V q 4 3 G Y.6X6.                                              ",
"                                            l 6.U.e.l 6 4 P s.I.L.G.f. .U F B q 3 w j o.7XT.3 o o o                                         ",
"                                            - H Y.Y.%.) H 3.S.].H.h.{ ! V V ! H F J J S.6X( + o o o                                         ",
"                                          o + 5 6.Y.n.~ ~ 4.M.4.-.Q ! Q Q { { :.:.:.5.5XD.7 + + o +                                         ",
"                                          $ + $ H h.;XA.e.o.E Q Q Q { | | :.3.5.4.4.5X#X/ & & & $ +                                         ",
"                                          $ & & 3 ( Y.,XA.:.~ o.{ | h.k.c.v.b.z.v.>X0X8.7 5 5 & & &                                         ",
"                                          $ & 5 5 l ~ ].4X~.y.y.N.S.'.-X`.`.(.}.dXgXa.l y 7 6 5 &                                           ",
"                                            * 6 u u v o.OXuX8X>X|.:X3X1X%X:X1XtXrXT.+.z z p y 6 6 6 * * * *                                 ",
"                                            y i i p a m &..XuXsXsXsXtXtXtXtXsX7XZ.*.+.v z p a a p i y * * *                                 ",
"                                          a a a v c +.#.*.t.p.6XaXjXkXkXkXjX7X!.i.r.7.$.+.v z z x n a i y 6 *                               ",
"                                          x n n &.7.u.C.Z.Z.Z.{.eXaXkXvXvXjXeX@XXX).!.u.t.$.+.v p z a i y 6 * *                             ",
"                                        a x m $.*.u.Z.Q._.@XeXgXbXNXBXBXVXNXbXuX6XOX). XC.r.&.M v a a i y y y 6                             ",
"                                    x a c @.M $.*.i.Z.OXrXvXMXVXBXBXBXBXBXBXBXbXpX6X5XOXXXC.t.&.+.a a p y *                                 ",
"                                    x z c @.M $.$.t.u.).7XcXNXNXNXVXBXBXBXBXNXvXiX8X5XXXp.7.+.c v z a p                                     ",
"                                      x c m M $.*.t.i.C.Q.@XeXlXvXmXmXbXcXcXlXjXiX7XXXp.*.M v z a a                                         ",
"                                        x x x M @.$.&.*.r.u.Z.XX6X0X7X#XOXXX X X Xp.r.#.c z a x n                                           ",
"                                            x z a x m @.*.7.r.7.*.7.*.*.#.#.M n M M c v p p p                                               ",
"                                                  p a x m x x x z z x p z v z z z z x x                                                     ",
"                                                                                                                                            ",
"                                                                                                                                            ",
"                                                                                                                                            ",
"                                                                                                                                            ",
"                                                                                                                                            ",
"                                                                                                                                            ",
"                                                                                                                                            "
};
