/* XPM */
static char *prtal_9__dragged__removebg_previ1709294833[] = {
/* columns rows colors chars-per-pixel */
"70 70 238 2 ",
"   c None",
".  c #0A010E",
"X  c #0C0214",
"o  c #0E011B",
"O  c #070018",
"+  c #13031B",
"@  c #19031E",
"#  c #120418",
"$  c #0E0128",
"%  c #140224",
"&  c #1B0424",
"*  c #15022C",
"=  c #1B032B",
"-  c #160A2B",
";  c #1C0B2D",
":  c #190A23",
">  c #191023",
",  c #140234",
"<  c #1B0334",
"1  c #1D0B32",
"2  c #15033B",
"3  c #1B033B",
"4  c #1C093C",
"5  c #23052B",
"6  c #230B2C",
"7  c #240B28",
"8  c #21142A",
"9  c #36192F",
"0  c #230434",
"q  c #290633",
"w  c #250B33",
"e  c #22023C",
"r  c #230B3C",
"t  c #2A0939",
"y  c #30033C",
"u  c #291438",
"i  c #351A34",
"p  c #3B1B34",
"a  c #3C1D3A",
"s  c #34133D",
"d  c #401D3A",
"f  c #40203F",
"g  c #1C0344",
"h  c #1C0845",
"j  c #1E0B56",
"k  c #240343",
"l  c #2B0441",
"z  c #230B43",
"x  c #24044B",
"c  c #2A034C",
"v  c #220B4C",
"b  c #2D0B46",
"n  c #350643",
"m  c #34044E",
"M  c #360D47",
"N  c #2D1344",
"B  c #38154A",
"V  c #260351",
"C  c #2C0453",
"Z  c #240B54",
"A  c #2B0B54",
"S  c #2C045B",
"D  c #2B0B5C",
"F  c #270358",
"G  c #310355",
"H  c #32035C",
"J  c #320B5B",
"K  c #390957",
"L  c #29115A",
"P  c #371457",
"I  c #3A2654",
"U  c #36294E",
"Y  c #2D0462",
"T  c #320B62",
"R  c #3B0F66",
"E  c #3B036A",
"W  c #380665",
"Q  c #39136B",
"!  c #3C0372",
"~  c #3C0A74",
"^  c #461A48",
"/  c #470B5A",
"(  c #48165C",
")  c #4F1157",
"_  c #452143",
"`  c #4D2346",
"'  c #4D244C",
"]  c #53264C",
"[  c #442958",
"{  c #5C295B",
"}  c #562757",
"|  c #463556",
" . c #400C65",
".. c #49066D",
"X. c #450769",
"o. c #491665",
"O. c #561669",
"+. c #420374",
"@. c #480877",
"#. c #560B78",
"$. c #451374",
"%. c #54137D",
"&. c #5B1577",
"*. c #560A66",
"=. c #611E79",
"-. c #620D76",
";. c #482967",
":. c #5D2B63",
">. c #542769",
",. c #553468",
"<. c #4D2373",
"1. c #582779",
"2. c #593675",
"3. c #4E3468",
"4. c #642D6A",
"5. c #632C67",
"6. c #662779",
"7. c #683279",
"8. c #59436F",
"9. c #624271",
"0. c #37118D",
"q. c #4C048B",
"w. c #4A0585",
"e. c #580888",
"r. c #5A1686",
"t. c #550497",
"y. c #5E1996",
"u. c #4D0F8B",
"i. c #690D8D",
"p. c #730E8C",
"a. c #691986",
"s. c #651A9D",
"d. c #711B94",
"f. c #751290",
"g. c #5C2584",
"h. c #5F3B82",
"j. c #582C9A",
"k. c #662789",
"l. c #75278B",
"z. c #653689",
"x. c #743584",
"c. c #7A378B",
"v. c #692597",
"b. c #782898",
"n. c #773996",
"m. c #683392",
"M. c #5B04A7",
"N. c #551CA6",
"B. c #6408AA",
"V. c #6B16A3",
"C. c #7918A5",
"Z. c #6A05BA",
"A. c #781BB5",
"S. c #7928A5",
"D. c #7A33A8",
"F. c #6D2AAB",
"G. c #76459B",
"H. c #6C448B",
"J. c #7809CA",
"K. c #7D11CA",
"L. c #6906C3",
"P. c #7D34C5",
"I. c #880F9E",
"U. c #833A98",
"Y. c #893798",
"T. c #8B15AB",
"R. c #822DA3",
"E. c #8B2CAD",
"W. c #8927AA",
"Q. c #8A3CA1",
"!. c #8538A8",
"~. c #9339AB",
"^. c #8B26B8",
"/. c #9A2CB9",
"(. c #8C38B9",
"). c #9338B6",
"_. c #A337BF",
"`. c #8C429D",
"'. c #8B45A8",
"]. c #9345AB",
"[. c #9A47B5",
"{. c #9956B6",
"}. c #904DB1",
"|. c #A44CBD",
" X c #A845BC",
".X c #A755BF",
"XX c #A264B5",
"oX c #8C16DC",
"OX c #8613D3",
"+X c #8C26C2",
"@X c #9826C8",
"#X c #8C22D8",
"$X c #942ADD",
"%X c #A83BC7",
"&X c #B737D7",
"*X c #A331CC",
"=X c #9B2BE3",
"-X c #AE35E3",
";X c #9012E4",
":X c #9B45C6",
">X c #A94BC8",
",X c #A852C4",
"<X c #B657CC",
"1X c #B84AD7",
"2X c #B858D5",
"3X c #B34DC8",
"4X c #AE66C3",
"5X c #B565C6",
"6X c #B257E3",
"7X c #AB4BE1",
"8X c #BB69E4",
"9X c #C450DB",
"0X c #C868DB",
"qX c #D367DF",
"wX c #CC4BE8",
"eX c #DB55F0",
"rX c #E15DF6",
"tX c #DC72EC",
"yX c #D366E5",
"uX c #E66AF3",
"iX c #E777F5",
"pX c #C68AE5",
"aX c #D494E6",
"sX c #E496EE",
"dX c #EB99F4",
"fX c #F294F5",
"gX c #EB87F3",
"hX c #D5AEE7",
"jX c #F0A7F7",
"kX c #EBB5F4",
"lX c #F9BAFD",
"zX c #EAA9F1",
"xX c #DEC4E8",
"cX c #F9C7FB",
"vX c #E9D5EF",
"bX c #FDEDFD",
"nX c #FDFCFC",
"mX c #FDF2FD",
/* pixels */
"                                                                                                                                            ",
"                                                                                                                                            ",
"                                                                                                                                            ",
"                                                                                                                                            ",
"                                                                                                                                            ",
"                                                                    U                                                                       ",
"                                                          I 8.2.1.1.1.1.2.H.                                                                ",
"                                                        [ m.).*X&X9X%X#X+X(.z.                                                              ",
"                                                    | ,.k./.^.i.I./.C.t.B.+X%X).2.                                                          ",
"                                                  | ,.l.^.f.m e E B.e.E +.@.a._.|.z.                                                        ",
"                                                  9.].C...y 0 < H e.q.W W G / / ~.,X3.                                                      ",
"                                                9.Q.E.K 0 q 0 c E @.E W G m y y / ~.,Xz.                                                    ",
"                                                ].>X( 5 5 c C G G m c G H c e n n  .W.].;.                                                  ",
"                                              2.).l.w & 0 e l e k C Y S S c m m m n / ).G.|                                                 ",
"                                            8.m.S.^ 7 : + 0 c F Y S V G G K ..#.O.) / *.>Xx.                                                ",
"                                            2.D./ & @ # < c c F F F C G ..#.-.%.#.*.^ y l.{.                                                ",
"                                            n.v.t + X = C k 3 x c c K @.#.@...+.X.c 5 @ ^  XG.                                              ",
"                                            v.v.5 # % e e * k g c X.e.f.p.i.i.p.-.n X # & l.}.                                              ",
"                                          >.E.g.5 + e = % 2 3 g H ..@.#.i.e.p.I.I.*.@ . @ O.|.2.                                            ",
"                                          l.%Xo.& = % o % , g C H S H J K G S W e.p.) + # s ~.n.                                            ",
"                                          W.W.b & % o O $ 3 c S C V x g g g 2 g g F ..K @ 7 l.D.8.                                          ",
"                                        [ /.=.; & + X O 2 x V C c k k 3 , < 2 2 2 , 2 c l @ O.S.;.                                          ",
"                                        ,.E.K @ + X O $ g g k k k e e e 3 < 2 2 g , $ , 0 = n R.3.                                          ",
"                                        2.R.q @ # . O 3 k g 3 e e e k k e 3 < * , 2 2 $ % = n E.1.                                          ",
"                                        7.v.q + X X : x 3 , e e k c S C c e < = % < , , * & y E.G.                                          ",
"                                      | c.Y.q + # X 1 x , < e k S E ! E H c e < * * - , 4 & q R.!.                                          ",
"                                        }.`.q @ + o < g * e k Y ! t.t.t.+.W c < * % * * % % 0 R.Y.                                          ",
"                                        .XY.q # o o = , % e k ! M.Z.L.Z.t.+.Y c < o $ , $ : 5 =.b.                                          ",
"                                        4Xl.7 # o o * * = e C w.L.K.=X$XZ.q.! C k % o , e & 5 6.Y.I                                         ",
"                                        4X=.5 # o % = < < l H q.K.6XpX8X#XB.+.k e < o * k q 5 =.'.                                          ",
"                                        .X6.q # + % = 4 b b E M.#XpXxXhX7XZ.+.c < % o * t N 7 O.~.                                          ",
"                                        4Xx.q 7 # % z h B B +.M.#XhXvXxX6XJ.w.C 3 % % = r w & O.).2.                                        ",
"                                        4Xl.q + X o r v P m +.B.$XpXvXhX6XK.u.S c % + < r = @ / s.                                          ",
"                                        |.r.0 @ . X * v A F E B.;X8XaXaX-XL.q.H C & % < < % @ o.v.                                          ",
"                                        {.&.6 & o . + h Z C Y t.J.=X7X-X;XB.@.H C % % 3 < & @ o.v.                                          ",
"                                        {.b.t 6 * X X - h C Y q.L.J.;X;XK.V.@.C c & = 3 = = & o.v.                                          ",
"                                        }.(.M 7 6 & + > ; x S +.M.L.K.A.V.a.$.C e = l 4 = = : g.g.                                          ",
"                                        n.(.o.8 w 1 ; 8 : < k S +.t.s.v.r.@.R C r x G < < & ; r.g.                                          ",
"                                        G.:X1.i w 1 ; > # % r c J $.%.%.$. .H c k C x 3 0 & s n.g.                                          ",
"                                          n.1.w 8 8 ; ; : + = z A (  . . .J J c C F 4 3 w & o.D.                                            ",
"                                          z.z.t q u u N 1 , = < z m A P R P D C F x * 1 - 7 r.v.                                            ",
"                                          3.m.B s M N b 4 4 < 3 4 z x A P P T S Z 2 < ; : b D.z.                                            ",
"                                          | G.<.7 ^ &.K A v x z x v x J Q R L Z g 1 - : w &.(.                                              ",
"                                            H.D.s t { l.%.E S D D S T T T L Q h 4 1 : > M D.}.                                              ",
"                                            3.D.>.8 w ( b.S.y.j.$.~ W T Y j v v 4 - > i 6.:XG.                                              ",
"                                            U m.k.N ; + b y.F.+XF.y.$.T Z j j z 1 > ; B (.:X                                                ",
"                                              ;.S.;.u > - j 0.N.N.r.E D Z v 4 - - 1 w o.2X'.                                                ",
"                                              P F.D.[ N v Q j.m.y.@.D Z h h h z z N M D.,X                                                  ",
"                                                <.(.k.A ( o.1.$.Q L Z j Z Z L P o.( r.1X!.                                                  ",
"                                                  k./.v.$.P L A Z L L Q Q ~ %.-.O.&.>X>X                                                    ",
"                                                  ;.(.*Xv.;.P P Q $.r.y.s.V.f.=.d.%X0X                                                      ",
"                                                    2.+X&XR.6.=.a.S.@X@XA.W.W./.wXtX].                                                      ",
"                                                      :. XeX9X%X/.*X&X-X+X@X&XeXqXU.f                                                       ",
"                                                    p a { Q.qXuXuXuXrXrXwXeXrX9XU.{ ` a i                                                   ",
"                                              p a d ` ] { 5.l.3XiXgXfXfXfXiX<XU.7.4.{ ` a i                                                 ",
"                                          d 9 d ' :.7.x.c.c.U.|.0XiXdXsXjXfX0X X].Q.c.4.{ ' f a                                             ",
"                                          p d d { 7.n.Q.]..X5XgXcXbXnXnXmXmXcXgX2X[.'.U.x.5.] _ a                                           ",
"                                        f ` ` ` { 7.n.[.0XdXcXbXnXnXnXnXnXnXnXlXtX2X,X,X].c.7.} _                                           ",
"                                          ] ` ] ] 5.x.U.2XjXbXbXmXnXnXnXnXnXbXlXiX2X,X[.n.5.' i i                                           ",
"                                            ` ] { 5.4.c.Q.,X0XsXlXcXlXkXkXkXzXgXyX>X'.x.{ ^ i 9                                             ",
"                                              ] ] ] ] { 4.x.U.].<X5X.X[.'.'.U.c.H.c.4.} _ i i                                               ",
"                                                    d ] } 5.4.5.5.:.} } ] ' _ d a a d p i i                                                 ",
"                                                        a d d a i p p i i i p i i 9 p                                                       ",
"                                                                                                                                            ",
"                                                                                                                                            ",
"                                                                                                                                            ",
"                                                                                                                                            ",
"                                                                                                                                            ",
"                                                                                                                                            ",
"                                                                                                                                            "
};
