/* XPM */
static char *_c6520fa37064e74e8660353b8311f0eC3ghJ38z6KoTa9el[] = {
/* columns rows colors chars-per-pixel */
"60 60 238 2 ",
"   c None",
".  c #481F32",
"X  c #521B2B",
"o  c #671B28",
"O  c #4B2238",
"+  c #572438",
"@  c #7B2527",
"#  c #7A3A3B",
"$  c #732C30",
"%  c #78443B",
"&  c #2E2847",
"*  c #2F2948",
"=  c #312945",
"-  c #322B4B",
";  c #3A2E4C",
":  c #3B304E",
">  c #3B3453",
",  c #3C355A",
"<  c #393558",
"1  c #352D50",
"2  c #3E3B63",
"3  c #422A47",
"4  c #47304E",
"5  c #5D3648",
"6  c #433454",
"7  c #4C3454",
"8  c #4D3955",
"9  c #443B5D",
"0  c #4C3D5B",
"q  c #49375A",
"w  c #523654",
"e  c #563C56",
"r  c #593D56",
"t  c #533D5B",
"y  c #5A3E5B",
"u  c #503758",
"i  c #402E52",
"p  c #673946",
"a  c #753245",
"s  c #793345",
"d  c #773A4A",
"f  c #693E55",
"g  c #7B3C54",
"h  c #793D57",
"j  c #612B41",
"k  c #423E64",
"l  c #473E67",
"z  c #573D62",
"x  c #554156",
"c  c #53435E",
"v  c #5B425B",
"b  c #584757",
"n  c #564756",
"m  c #694446",
"M  c #774847",
"N  c #73534B",
"B  c #7B5548",
"V  c #62445E",
"C  c #6B485A",
"Z  c #784656",
"A  c #6B565A",
"S  c #755859",
"D  c #695049",
"F  c #4B4465",
"G  c #45426B",
"H  c #4B4769",
"J  c #534363",
"K  c #5C4363",
"L  c #5D4965",
"P  c #5D4469",
"I  c #544D6C",
"U  c #5D4B6A",
"Y  c #564968",
"T  c #56526E",
"R  c #4C4976",
"E  c #5A4D74",
"W  c #555473",
"Q  c #5B5B7B",
"!  c #575778",
"~  c #4D5175",
"^  c #624563",
"/  c #644965",
"(  c #6B4B65",
")  c #624669",
"_  c #644A6A",
"`  c #6B4C6B",
"'  c #6A4662",
"]  c #734D67",
"[  c #6C516C",
"{  c #6A5763",
"}  c #73526D",
"|  c #795569",
" . c #6E4E72",
".. c #654E72",
"X. c #6C5472",
"o. c #6E5976",
"O. c #66587A",
"+. c #745574",
"@. c #7A5673",
"#. c #745974",
"$. c #7B5B76",
"%. c #745379",
"&. c #735A7B",
"*. c #7C5C7B",
"=. c #7B567D",
"-. c #714F73",
";. c #5C657C",
":. c #67626A",
">. c #68677B",
",. c #7D617A",
"<. c #78677A",
"1. c #6B757E",
"2. c #777678",
"3. c #7B6369",
"4. c #822E1B",
"5. c #8B3819",
"6. c #953C1A",
"7. c #9B3B1D",
"8. c #96341E",
"9. c #A23C1E",
"0. c #8E2528",
"q. c #872726",
"w. c #922529",
"e. c #95292B",
"r. c #9C2D2D",
"t. c #952C26",
"y. c #9D3B22",
"u. c #983527",
"i. c #862C34",
"p. c #972E32",
"a. c #85323B",
"s. c #8D333C",
"d. c #83393A",
"f. c #863C36",
"g. c #94333C",
"h. c #9A3637",
"j. c #86332B",
"k. c #AB2E2F",
"l. c #A52E2E",
"z. c #A3342B",
"x. c #AC322E",
"c. c #A43724",
"v. c #A42E32",
"b. c #AA2E31",
"n. c #A53133",
"m. c #AB3331",
"M. c #9D421B",
"N. c #96411C",
"B. c #A2441A",
"V. c #A14216",
"C. c #974528",
"Z. c #874938",
"A. c #934834",
"S. c #8A513A",
"D. c #925032",
"F. c #8E3642",
"G. c #8A3A47",
"H. c #933645",
"J. c #884447",
"K. c #835546",
"L. c #874354",
"P. c #87545A",
"I. c #915A5A",
"U. c #82586C",
"Y. c #835A73",
"T. c #825D7B",
"R. c #8C5F7E",
"E. c #84617D",
"W. c #8B627C",
"Q. c #8B6476",
"!. c #94687A",
"~. c #916D73",
"^. c #4A5683",
"/. c #595683",
"(. c #5C5C84",
"). c #585A86",
"_. c #745D83",
"`. c #7B5E82",
"'. c #6F5A82",
"]. c #5C6287",
"[. c #5E6C8A",
"{. c #5C6688",
"}. c #5E738C",
"|. c #626B82",
" X c #636C8D",
".X c #656588",
"XX c #7A6186",
"oX c #7D6986",
"OX c #7A648A",
"+X c #746A8D",
"@X c #796A8D",
"#X c #736487",
"$X c #6A7383",
"%X c #63728C",
"&X c #697988",
"*X c #796D91",
"=X c #667D91",
"-X c #7A7494",
";X c #7C7797",
":X c #6A738A",
">X c #865F82",
",X c #856384",
"<X c #8C6583",
"1X c #896B8B",
"2X c #8A6C89",
"3X c #916685",
"4X c #946986",
"5X c #946C8A",
"6X c #9B6E8A",
"7X c #9A6C87",
"8X c #8B748B",
"9X c #9A728D",
"0X c #95718B",
"qX c #8B7592",
"wX c #887695",
"eX c #9B7591",
"rX c #9D7B93",
"tX c #9A7B95",
"yX c #9B6F90",
"uX c #A1738E",
"iX c #A37C95",
"pX c #A47C99",
"aX c #A57997",
"sX c #A06F8C",
"dX c #758489",
"fX c #6C8493",
"gX c #768A95",
"hX c #67808F",
"jX c #A28299",
"kX c #A5859C",
"lX c #AB839E",
"zX c #A2839A",
"xX c #B0849F",
"cX c #AB8BA3",
"vX c #AC86A0",
"bX c #B58BA6",
"nX c #B392AA",
"mX c #9F8197",
/* pixels */
"                                                                                                                        ",
"                                                          bXbXbX                                                        ",
"                                                      bXlXaXpXlXxXbX                                                    ",
"                                                  lXaXuX6X6X6X6XsXuXaX                                                  ",
"                                              nXlX9X9X6X6X6X6XsX6X6X7XuXlX                                              ",
"                                          nXnXcXlXrX9X9X9X6X6XsX6X6X6XiXkXkXcX                                          ",
"                                        cXkXzXjXiXrX9X9X9X6X6X9X9X6X9XzXjXjXjXkX                                        ",
"                                    cXcXjXmXjXrXrXrX9X9X9X6X7X6X9X9XjXjXjXjXrXrXjXvX                                    ",
"                                jXcXkXjXrXrXrXrXrXrX9X7X3X!.!.!.7XrXjXiXrXrXrXrXrXrXkXbX                                ",
"                              pXnXjXrXrXrXrXrXeX9X9X!.Q.Y.Y.U.U.Q.4X9XrXrXrXrXrX9X9X9XiXvX                              ",
"                            eXeXjXrXrXeXeXeXeX9X3XQ.U.( v v v v / | Q.!.0X9X9X9X9X9X9X9X9XpX                            ",
"                        W.aX9X3X3XeXeX9X9X0X4XQ.U.( v x v v v v x x V | Y.W.7X9X9X6X6X4X4X9XpXlX                        ",
"                      3XaX6X4X4X<X4X9X9X7XQ.U.( v e v ( T.E.E.T.[ v x x V | Y.W.4X5X7X5X5X5X6XpXlX                      ",
"                    5XeX5X4X4X4X4X<X4X4XY.] v e e V $.4X7X5X5X5X4X$./ x x v V ] Y.4X5X0X5X5X5X6XaXpX                    ",
"                  5X9X5X5X5X4X4X3X3XY.| V r e v +.<X5X4X4X4X4X4X4X5X<X@.v v v v ( | W.5X5X5X5X5X5XeXpXeX                ",
"              Y.rXpX4X5X4X5X4X3XR.@.' v e v ( E.3X3X4X4X4X4X4X4X4X4X4X3XE.` v x v V ] @.<X5X5X5X5X5XaXpXyX              ",
"            T.rXpX0X5X4X5X5X3XY.] V r e V @.<X3X3X3X3X3X4X4X4X4X4X4X3X<X<X<X$.^ e e v ^ } W.5X5X5X5X5XyXpX9X            ",
"          Y.rXpX5X5X5X5X5XW.@.' y e e ' T.<X<X<X3X<X<XW.T.*.T.E.E.<X<X<X<X<X<XE.` y e e v ( Y.5X5X5X5X5X6XpXeX          ",
"        $.rXpX0X5X5X5X5X<X} V r r v +.<X<X<X,X*.X.L c 6 : : : 6 q J L X.*.,X<X<X<X@.V e e y ( @.<X5X5X5X3X5XpXeX        ",
"      @.tXtX0X5X0X0X3XT.` v e e ^ T.<X<X$._ 0 6 > > > * & & & - 1 > > > > 6 P +.<X<XT.( v e v V } E.5X2X<X<X5XpXeX      ",
"      } #.[ ( ( } } } V r e x ` E.<X$.K : ; > > > > > - & & - 1 < > > > 1 * & ; t #.<X<X} v e e v V } } ( ' ' } $.      ",
"    K v y v } #.#.#.} v e v } E.T./ ; = ; ; > > > > > - - - 1 > < > > > - & - - = ; J T.<XT.^ r r [ $.$.#.+.^ y v v     ",
"  v v v v v $.E.,.,.$.v V $.<X*.8 = = = ; - > , 2 , k k k G R k k k 2 , < - * * - * = q +.<XT.' r #.E.E.*.*.` v v v ^   ",
"    K K v v $.,.,.,.$.V ` <X*.6 = = = - < k l k , > i 9 R R R R 6 i , , k G 2 < - * - & : +.,X$.r #.E.,.$.$./ c         ",
"            #.,.*.*.$.V ' T.) = & - , 2 k , 3 . . O o 5 ! ! /.E + o O X . 3 9 G 2 < - - = ^ <X$.r } ,.$.$.$.^           ",
"            +.T.T.T.@.f ' E._ 1 < l l 6 3 o @ t.@ a e.p ! /.(.E i.i.a q.q.@ X 3 > G k 1 ; ) ,X+.r } T.T.T.*.^           ",
"            +.,X<X<X*.V ' E._ 9 G 9 O + # l.x.m.i.s n.L././..XU g.g.a 0.v.v.i.j o 3 k G , ) T.} r +.<X>X<X>X^           ",
"            +.,X,X<X*.V / T.` H G O q.G.H.k.k.m.i.d n.L././.Q P g.g.a 0.v.m.g.h p.o . H 9 ) >X+.r +.<X<X<X,X^           ",
"            #.2X2X2X,XK / T.` G G i.b.H.H.k.k.x.i.d n.L././.Q U g.g.a 0.v.m.g.h n.e.o F 9 _ T.} r +.2X2X2X,XK           ",
"            +.1X1X1X,XK ^ *.` H I s.b.H.H.k.b.k.i.s n.L././.(...g.g.s 0.x.m.g.g v.e.$ I k _ *.} e #.1X1X1X,XK           ",
"            X.qXqXqX2XK y +._ H I s.k.H.G.b.b.k.i.d v.L.(./..XO.H.g.a w.m.x.g.g v.w.i.I F ` T.+.e &.8X8XqXoXK           ",
"            [ qXqXqX1XK v +._ F I s.b.H.G.b.b.k.p.d v.L.(.(..XO.g.g.a w.m.x.g.g v.w.i.W F ` T.} e ,.qXwXwXoXJ           ",
"            _ oXoXoX<.y v +._ F I s.b.H.G.l.b.k.p.d v.G.(.]..XO.g.g.a e.x.x.s.h r.w.a.I 9 ` *.` e +.oXoXoX&.y           ",
"            K o.o.o.X.e y +._ F I a.k.F.s e.b.k.p.d n.G.(.]. XO.g.s.a e.x.x.F.h r.w.a.I 9 ` *.` w [ #.o.X._ t           ",
"            c o.o.o.X.y y +./ H W a.b.F.a w.v.k.p.d n.L.(.]. XO.H.F.a e.x.x.F.g r.0.a.! 9 ` *.` w [ #.o.X._ t           ",
"            v o.o.o.X.y v +._ F W a.k.F.a 0.v.k.p.d h.L.(.]. XO.H.H.a r.k.k.F.g t.0.a.! 6 / @.` e [ #.o.X.U             ",
"            K &.&.*.*.K ^ =.` F W a.l.F.a q.r.x.p.d h.L.].]. XO.H.F.a r.n.l.F.g 0.0.a.! q ` *.` e X.*.*.&.U             ",
"            z &.*.*.*.^ ^ =.-.J Q S I.U.] P.P.I.P.] P.} ].]. XO.Z ] V Z L.Z C ^ h f C ! 0  .=.` e +.`.`.`.P             ",
"            t &.`.`.*.^ z %. .J ! C S { / A S S C L C ( ].{. XO.C V y f f f y t 5 p r H 0  .=.` e +.`.`.`.P             ",
"            t &.`.`.`.K y %. .Y Q a.r.G.p @ t.r.p.d p.J..X{. XO.h.G.# r.z.r.G.d q.t.# Y 0 ` %.^ w +.`.`.`.J             ",
"            t o.XX`.`.P z %. .Y Q a.z.d.d q.t.c.r.Z h.J..X{. X>.h.f.# z.z.z.J.M q.t.d.Y 0  .%./ w %.`.`.`.J             ",
"            t o.XXXX`.) z %. .U Q a.c.f.M q.t.z.r.Z h.J.;.Q  X>.h.J.s z.z.z.J.d q.t.# I 0 X.%./ w %.`.`._.J             ",
"            u O.XXXXXX) t X. .Y ! d.z.d.L.u.t.z.p.M h.J.! !  X>.h.J.G.z.z.r.J.d q.t.# F 0 X.%.^ w &.XXXX_.l             ",
"            7 .._._._.K w _ ) Y {.Q.~.~.8X~.Q.~.Q.<.Q.3.;.;. X.X| #.#.| | | #.X.C C v I t ` -.K 7 o._._.'.l             ",
"            7 ..XXXXXX^ w ` _ Y %XgXgXgX&XgXfX=X=X%X%X%X[.{. X[.{.{.{.).^.^.^.~ ^.^.R W t _ ` y w _.#X#X_.z             ",
"            6 _ OXXXXX^ w ` _ Y %XdX&X$X$X$X$X$X>.! ;.>.%X[.%X[.Q W ~ ! I H H G H F H T t _ ` y w _.OXOX_.z             ",
"            6 U OXOXOXL w _ _ Y |.M f.% m f.$ f.m c m M %X[.}.>.# v x # j.@ 5 p $ @ # T t / ` y w _.OXOX_.z             ",
"            6 U OXOXOXL w _ _ J ! f.9.A.J.y.8.y.u.m f.Z.:X}.}.>.C.M % y.c.8.M M 4.y.M T t / _ e 7 _.OXOX'.z             ",
"            6 Y @X@X@XL 7 _ ) c ;.Z.9.A.Z y.8.y.y.M C.Z.$X}.}.1.C.J.Z.9.c.8.m M 4.y.M ;.8 ^ ) e w #X@X@XO.q             ",
"              J @X@X*XU 7 ) _ c |.Z.9.A.Z y.7.7.y.M C.A.&X}.=X2.C.J.Z.9.c.7.M % 4.y.M ;.7 ) _ e 7 #X*X*XO.              ",
"              J +X@X+XU 7 ) / c |.J.9.A.B y.y.7.y.M C.A.&X=X=X2.C.K.Z.9.c.7.M M 4.8.M ;.8 ) ) u 7 #X@X*XO.              ",
"              l +X+X+XU 7 P K c |.M 7.A.B y.7.7.6.M C.D.&X=X=X2.C.K.Z.9.9.9.B Z.5.6.M |.8 P P u 7 #X*X+X..              ",
"              9 +X+X-XT 7 P K J |.S D.K.S S.S.S.Z.A K.K.&XhX=X2.S.N M Z.Z.Z.C N % # A ;.8 P P u 7 +X*X*XE               ",
"              9 +X-X-XT 7 P P c {.:.S S b N N N D n A A hXfXhX1.m b x m m m x b m 5 n ;.8 P P u 7 +X-X-XE               ",
"              9 +X-X-XE 7 P P c $X% 6.C.N C.M.N.5.N A.D.dXfXfX2.C.B % N.N.N.N S.M.5.N |.0 P P u 8 +X-X-XE               ",
"              6 #X;X;X..7 P P c $XS.B.C.B C.B.B.6.B D.D.dXfXfX2.M.K.Z.M.B.M.B S.B.6.N |.0 P P 7 8 +X;X-XE               ",
"              > #X;X;XO.4 K P c $XS.B.C.B C.B.B.N.B D.D.dXgXfX2.M.B Z.V.B.M.B S.B.6.N |.0 P P 7 t -X;X;XI               ",
"              > #X;X;XO.4 K P c >.B M.C.B C.B.B.N.B D.D.dXgXgX2.C.B Z.M.B.C.N S.M.C.D ;.8 K K 7 t -X;X;XJ               ",
"              i #X;X;XO.4 K P J $X:.S S :.A S S A :.{ :.&XgXdX1.A :.A S S A :.:.A 3.2.1.8 v K 7 y wX;X-XL               ",
"                                                                                                                        "
};
