/* XPM */
static char *aface_copy1709130526[] = {
/* columns rows colors chars-per-pixel */
"60 60 222 2 ",
"   c None",
".  c #151414",
"X  c #191515",
"o  c #1B1916",
"O  c #16161A",
"+  c #1A171A",
"@  c #14191C",
"#  c #1B1B1B",
"$  c #151817",
"%  c #111010",
"&  c #241A14",
"*  c #2A1C14",
"=  c #231D1B",
"-  c #291616",
";  c #331A19",
":  c #3C1C1B",
">  c #291A0F",
",  c #1F211F",
"<  c #2E2216",
"1  c #24221D",
"2  c #2A221C",
"3  c #35271C",
"4  c #141C23",
"5  c #1C1E21",
"6  c #141E2A",
"7  c #151721",
"8  c #211F21",
"9  c #152025",
"0  c #1D2125",
"q  c #15212A",
"w  c #19232C",
"e  c #1E292D",
"r  c #152532",
"t  c #1C2731",
"y  c #1E2934",
"u  c #172937",
"i  c #232325",
"p  c #2B2623",
"a  c #242529",
"s  c #29272C",
"d  c #25292D",
"f  c #2B2A2D",
"g  c #2B2926",
"h  c #332C24",
"j  c #342E2A",
"k  c #382924",
"l  c #3D362B",
"z  c #383229",
"x  c #222B33",
"c  c #2C2E32",
"v  c #252B3A",
"b  c #312F34",
"n  c #2E3136",
"m  c #2F3239",
"M  c #28343B",
"N  c #323235",
"B  c #3C3532",
"V  c #32353B",
"C  c #3B3A3D",
"Z  c #373939",
"A  c #432516",
"S  c #562425",
"D  c #443B2C",
"F  c #473727",
"G  c #573A26",
"H  c #443C33",
"J  c #493D38",
"K  c #5C363A",
"L  c #55292B",
"P  c #6D3332",
"I  c #3F403C",
"U  c #5F422B",
"Y  c #4D4234",
"T  c #48433C",
"R  c #564938",
"E  c #78522E",
"W  c #664B33",
"Q  c #795332",
"!  c #6D4631",
"~  c #173043",
"^  c #293646",
"/  c #343741",
"(  c #363943",
")  c #3B3D44",
"_  c #3C3E48",
"`  c #2F3E54",
"'  c #303F50",
"]  c #403F42",
"[  c #3E414B",
"{  c #3D4547",
"}  c #3D4B5F",
"|  c #394659",
" . c #344768",
".. c #3B586E",
"X. c #3A5871",
"o. c #444344",
"O. c #42434C",
"+. c #4B4A4B",
"@. c #484647",
"#. c #564E45",
"$. c #5C5142",
"%. c #52514F",
"&. c #444652",
"*. c #474956",
"=. c #484A56",
"-. c #474A59",
";. c #4A4C59",
":. c #484755",
">. c #4B5255",
",. c #4E515C",
"<. c #53535C",
"1. c #5B5B5D",
"2. c #575457",
"3. c #564E4F",
"4. c #764E4D",
"5. c #695944",
"6. c #675744",
"7. c #75634C",
"8. c #756652",
"9. c #6F6653",
"0. c #545562",
"q. c #5A5A64",
"w. c #585A66",
"e. c #495A7A",
"r. c #615F6D",
"t. c #59606A",
"y. c #5E6972",
"u. c #646363",
"i. c #63636C",
"p. c #6B6A6E",
"a. c #686861",
"s. c #786E6C",
"d. c #656571",
"f. c #646975",
"g. c #6A6A74",
"h. c #6B6A76",
"j. c #68747B",
"k. c #747372",
"l. c #77777D",
"z. c #706F77",
"x. c #892F2D",
"c. c #9D3F42",
"v. c #915050",
"b. c #A35E5C",
"n. c #84735B",
"m. c #8D7B5D",
"M. c #827154",
"N. c #887558",
"B. c #996867",
"V. c #8A7A63",
"C. c #997A77",
"Z. c #917E61",
"A. c #A97471",
"S. c #C27476",
"D. c #7F807E",
"F. c #998465",
"G. c #A28B6C",
"H. c #AA946D",
"J. c #A7926F",
"K. c #AB9775",
"L. c #B29A73",
"P. c #B59C7A",
"I. c #B99D78",
"U. c #AB9470",
"Y. c #BDA57B",
"T. c #C5AB7E",
"R. c #5D6D8A",
"E. c #4E6182",
"W. c #626F8C",
"Q. c #6C7C85",
"!. c #757C85",
"~. c #667592",
"^. c #727E97",
"/. c #7C8C96",
"(. c #768696",
"). c #758088",
"_. c #7786A1",
"`. c #8C8A89",
"'. c #959594",
"]. c #898D8F",
"[. c #8A9EA7",
"{. c #8A9DAB",
"}. c #8696A7",
"|. c #9A9FA7",
" X c #848EA0",
".X c #9AA2AB",
"XX c #98A5B6",
"oX c #8BA0AB",
"OX c #A6A5A5",
"+X c #A3ACB6",
"@X c #B3B3B5",
"#X c #BEBDBB",
"$X c #ADB0B2",
"%X c #D49290",
"&X c #CBAD83",
"*X c #C6AB81",
"=X c #CEB489",
"-X c #CCB085",
";X c #D5BA8C",
":X c #D4B789",
">X c #C8A59C",
",X c #DABBB1",
"<X c #E3C593",
"1X c #EBCA96",
"2X c #F1CD99",
"3X c #F4D29A",
"4X c #FCD69D",
"5X c #FDD99C",
"6X c #E9C991",
"7X c #FCD6A1",
"8X c #FEDAA2",
"9X c #F7D2A0",
"0X c #BABDC1",
"qX c #B7BEC4",
"wX c #A9B5C6",
"eX c #BFC2C3",
"rX c #C9C9CB",
"tX c #D7D5D4",
"yX c #C7CCD4",
"uX c #E3E2DF",
"iX c #D3DAE4",
"pX c #E5E3E2",
/* pixels */
"                                                                                                                        ",
"                                                                                                                        ",
"                                                                                                                        ",
"                                                                                                                        ",
"                                                                                                                        ",
"                                                                                                                        ",
"                                                    w 4 4 @ 4 q                                                         ",
"                                            w # # 0 f N C ) C f # 4                                                     ",
"                                      e 5 @ . i Z O.<.0.q.d.d.h.1.N # w                                                 ",
"                                  w 9 @ $ . . + # # 8 s Z O.=.;.q.r.) # w                                               ",
"                                      x 0 . . X # + # # + # c ) :.;.<.Z @ 0 4 # # @ + 7 q                               ",
"                                  w 7 # a C +.<.1.1.<.<.:.O.N c ( &.=.=.s # a N ) O.@.Z a 4 q                           ",
"                              r @ i C q.g.d.r.w.0.,.;.;.;.;.;.=.&.*.*.-.&.O.*.;.<.w.r.h.d.@.= 4                         ",
"                            6 # C q.i.w.;.=.=.*.*.*.=.-.=.*.*.*.=.=.*.*.-.=.:.-.] _ [ *.w.h.<.5 q                       ",
"                          @ 0 &.q.<.=.*.*.*.*.*.=.=.=.*.*.=.=.*.-.=.=.=.:.=.-.-.] Z d a b &.i.o.7                       ",
"                        4 # +.,.*.&.&.;.0.0.;.*.=.*.=.=.=.=.=.=.-.=.=.=.=.=.-.-.;.:.&./ 8 # c @.# t                     ",
"                      5 + b ) b c ) w.i.w.;.;.-.=.*.*.*.-.=.=.=.=.=.*.=.=.=.=.-.=.=.=.=.O.c X # X t                     ",
"                    r @ X o O i %.g.w.=.*.=.=.=.=.*.*.&.&.*.*.*.=.=.*.*.-.*.-.=.=.*.-.=.=.:.N 7 . x                     ",
"                    7 O + . c i.h.,.-.*.*.-.-.*.*.[ ( ( &.-.*.O.{ _ ) ) V ( [ =.:.*.-.=.=.=.:.) # w                     ",
"                  r 6 y + f i.d.=.-.-.*.*.=.&.{ V m m ) [ ) ( m c a i # # # c _ *.*.*.*.=.=.=.;.C +                     ",
"                      q 8 i.p.;.=.;.*.=.-.&.( V c n V V V m s 5 $ # o X . . # c ) *.*._ &.*.*.=.0.p 4                   ",
"                      O +.h.;.-.-.-.-.=.O.V m c c m m n a # X f >.l.].`.u.T = # N _ -./ / &.*.*.0.O.@                   ",
"                    9 a p.w.*.*.-.*.*.[ V n c d n m d 5 $ p 1.'.,XtXuXuXtXOXu.X a / &./ m [ -.,.0.q.i 6                 ",
"                    @ o.d.=.*.=.*.=.&./ m n e c n a $ . . o N %.p.`.OX#XrX@X'.C X c ( V b / *.0.l.h.Z @                 ",
"                    # q.0.*.=.*.*.*.( n m a s c , o o.a.u.t.#.Z p # # i Z @.<.@.. a V n c V *.,.l.!.@.@                 ",
"                  w 8 q.O._ =.=.*.[ V V s # d # O o.k.k.C.j.u.+.N # % . % . % % . # c c a m &.;.h.g.2.@                 ",
"                  4 f ;.s [ -.-.*./ n n # # + . . # o o o < 2 h l H T R R $.Y J h O c a 5 m [ ;.d.] O.#                 ",
"                  4 s c 8 -.=.-.&.V n a # . . o j $.8.Z.F.H.L.Y.Y.*X-X=XL.Z.6.#.l X a # # m O.-.d.C 8 +                 ",
"                  9 # X a *.*.;._ M s # . 2 j = o Y m.<X2X3X3X4X4X3XL.W 3 < k J R = @ O # c O.-.i.C . .                 ",
"                  9 X . a =.*.*./ m f # g V.J.J.F.Y k ;X5X5X5X5X5X1XY l n.T.;XP.G.g X & + n O.-.i.C X O                 ",
"                  4 @ @ i *.*.&./ N a . 2 H J 7.J.-X&X2X5X5X5X5X5X9X-X=XK.8.$.D l o H J . n &.=.i.N O @                 ",
"                  6 w 0 # O.-.*.V n # p g.} ' ^ c l H.5X4X5X5X5X5X5XY.G N M ` | f.N $.#.X n &.=.q.s 5 q                 ",
"                  u   r # ) -.&.V c # D.}.e.^  .^.h.D <X5X5X5X5X5X2XR 1. XW.|  .(.].g l o V -.;.<.# w                   ",
"                        O c *.&.V s g @X_.+Xs v W.@Xg T.5X5X7X5X5X:X3 OX}.$Xg w e.qXZ o o ( -.;.o.7                     ",
"                        4 # O.*.Z a g rX~.y.Z ~ ~.0Xj I.5X5X5X5X5X=Xh $X_. .n M E.rXo.. # O.-.=.a 4                     ",
"                          $ n *.) a # OXXXW..Xe.XXOXk -X5X5X5X4X5X<XF `.wXe..XR.}.0Xf . 5 O.=.C @                       ",
"                          9 5 ) _ a . @.@X}.(.{.0X@.5.3X5X5X4X4X5X5Xs.B @X.X(.}.@X2.j p a &._ 5 4                       ",
"                            7 i _ a . j j J o.T l R ;X5X5X5X4X5X5X5X1XW z T T I z Y 8.< d O.i 4                         ",
"                              @ a 8 X D n.K.H.L.T.1X8X5X5X3X6X2X5X5X5X2XT.L.H.L.Y.V.h . d a @                           ",
"                                O X O O p 6.J.=X1X3X4X8X8X2X<X6X5X8X8X5X3X<XT.F.Y # X X + @                             ",
"                                  @ O y w @ . 1 F R 5.M.m.F.F.C.Z.m.8.6.Y j = $ 4   w O @                               ",
"                                    @   r @ X . X - ; - . X . % . = ; - X $ o $ r   q w                                 ",
"                                      6 @ { Z . X : P v.C.K W V.! A.C.; . X f C 7 u ~                                   ",
"                                      $ I ).d o X X k v.>Xx.b.,Xb.4.H X X . 5 j.C @                                     ",
"                                    @ d ).j.$ o.O.O . = H S K 3.s X & L : % X w.Q.0 6                                   ",
"                                  w 0 ].+X>.@ y.Q.>.8 . $ o 0 d b + : x.S X X _ XXl.5                                   ",
"                                  @ c eXiXo.e /.}./.Q.c % @ @.D.'.Z - x.x.; . Z yX.X8 6                                 ",
"                                  @ $ d 1.a I }.[.{.{.=., e @ n k.@.- b.%XJ . # I p # @                                 ",
"                                @ z 9.R p . ,.[.[.{.[.>.t } M 9 # # = B.S.$.X X 1 5.V.z @                               ",
"                                o G.*X*X9.. y.{.}.{.[.>.y ^ %.x d . # B.%X4.. X D I.:XF.@                               ",
"                              q # P.4X<X7.o Q.{.[.{.(.{ e M a.M x # o P c.S . . h ;X5XM.@                               ",
"                                @ D Y.1X5., (.oXoX/.Z f y } {  .M $ O ; : - s 8 1 K.M.= 6                               ",
"                                  @ 1 Y 1 5 w.j.!.{ . X y ..X.X.M = f p 8 ( %.a X 1 @ 6                                 ",
"                                  q . X X $ $ # # X & . # t e e # # a = + + + 7 4 w                                     ",
"                                    q 4 4 4 @ 3 U E Q G < O 5 @ < F G G U 3 @                                           ",
"                                            4 < G Q E W 3 @   4 < W E E U < 4                                           ",
"                                            r @ & & > & . 4   6 . o > > & . q                                           ",
"                                              @ * A A * O       @ & A A < @                                             ",
"                                              4 X & & @ 6       6 @ o & X @                                             ",
"                                                6 4 4               4 @ 6                                               "
};
