/* XPM */
static char *e98885abe5de40979ad577cb3903d9abf1C7rEjI7K7mrqDp[] = {
/* columns rows colors chars-per-pixel */
"60 60 137 2 ",
"   c #0A0D0E",
".  c #0D0F13",
"X  c #0E1215",
"o  c #0F1719",
"O  c #111417",
"+  c #12161A",
"@  c #141A1D",
"#  c #191D1F",
"$  c #17201F",
"%  c #161D21",
"&  c #191E22",
"*  c #1B1F28",
"=  c #172123",
"-  c #1A2225",
";  c #1D252A",
":  c #1F292C",
">  c #1F2931",
",  c #20262C",
"<  c #212A2E",
"1  c #242D33",
"2  c #282F35",
"3  c #262F38",
"4  c #282F39",
"5  c #263136",
"6  c #263136",
"7  c #283033",
"8  c #283335",
"9  c #293335",
"0  c #283136",
"q  c #2A3137",
"w  c #293237",
"e  c #283337",
"r  c #293436",
"t  c #2A3436",
"y  c #2A3537",
"u  c #283236",
"i  c #243139",
"p  c #263039",
"a  c #273039",
"s  c #253238",
"d  c #273238",
"f  c #263339",
"g  c #27313A",
"h  c #25323A",
"j  c #27343A",
"k  c #27343C",
"l  c #273239",
"z  c #283138",
"x  c #293239",
"c  c #283339",
"v  c #2A3338",
"b  c #28323B",
"n  c #29323B",
"m  c #2A333A",
"M  c #293438",
"N  c #2B3439",
"B  c #2A3539",
"V  c #2B3638",
"C  c #29343A",
"Z  c #28353B",
"A  c #2B343B",
"S  c #2A353B",
"D  c #2B363A",
"F  c #2C3739",
"G  c #2C353A",
"H  c #2D363B",
"J  c #2C373B",
"K  c #29333C",
"L  c #29333D",
"P  c #2A333C",
"I  c #28353D",
"U  c #2A343D",
"Y  c #29363C",
"T  c #2B363C",
"R  c #2A373D",
"E  c #28353E",
"W  c #2B353E",
"Q  c #29363E",
"!  c #28373E",
"~  c #29363F",
"^  c #2A373F",
"/  c #2C353C",
"(  c #2D363D",
")  c #2C373D",
"_  c #2E373C",
"`  c #2C353E",
"'  c #2C363F",
"]  c #2E373E",
"[  c #2A343B",
"{  c #29383D",
"}  c #2B383E",
"|  c #2D383C",
" . c #2F383D",
".. c #2E393D",
"X. c #2D383E",
"o. c #2C393F",
"O. c #2E393F",
"+. c #2F3A3E",
"@. c #2D383E",
"#. c #30393E",
"$. c #313A3F",
"%. c #2A3740",
"&. c #2C3640",
"*. c #2D3740",
"=. c #2D3741",
"-. c #2E3740",
";. c #2C3740",
":. c #2B3840",
">. c #2B3841",
",. c #2C3941",
"<. c #2E3841",
"1. c #2D3A40",
"2. c #2F3A40",
"3. c #2F3942",
"4. c #2D3A42",
"5. c #2C3B42",
"6. c #2E3B43",
"7. c #2E3B44",
"8. c #2F3C44",
"9. c #2F3C45",
"0. c #2D3A42",
"q. c #303B41",
"w. c #303A43",
"e. c #313C42",
"r. c #353E43",
"t. c #303D45",
"y. c #313E46",
"u. c #313C43",
"i. c #323F48",
"p. c #323F48",
"a. c #324047",
"s. c #344149",
"d. c #34414A",
"f. c #36434B",
"g. c #37454E",
"h. c #34424A",
"j. c #39454D",
/* pixels */
"C 5 1 5 1 1 1 e 5 e @ 1 r.1 5 T X.w.T y } 1 ,.C } >.,.,.,.w.w.X.*.1 @ ,.X.T ` - ; T a T a a a 1 1 1 c C 5 e # 1 X.,.X.C ",
"5 5 5 5 5 a a C a e @ ; X.T 5 e #.,.a ` >.- 7.X.C ` X.*.,.` X.c 5 ; @ 8.,.*.*.- ; T e J c 5 1 5 5 1 C C e C @ < T X.T C ",
"a 5 1 a a a 5 e a 2 @ % : 1 1 1 e C C e 1 + T y.` T *.X.X.` X.e J & + c T k C @ ; 5 C ` C 1 5 5 a a C C T ,.@ , ` ` T a ",
"5 5 5 1 1 a 1 3 7 e @ + @ @ & - - - - % & & - 1 5 5 : 1 7 1 < 1 : + X O + + + X < e 5 *.T c a a 1 1 1 C T T @ < ,.,.*.c ",
"5 5 5 1 1 3 1 1 1 1 @ - - & + o @ @ + @ @ + + O + + @ + + @ @ @ @ O : ,.T 1 - + < C 3 c *.` 5 5 7 5 5 ` ,.5 @ < C T T C ",
"5 1 1 1 1 1 1 1 1 ; @ c e e ; - y.T 1 - < 1 1 < 1 e C C 1 < : 1 5 + u.d.>.,.X.& % c c 5 C J a 3 5 a >.,.X.1 + < c T *.C ",
"1 5 1 1 1 1 1 1 1 ; + 1 c 5 ; - d.T ` e e ` c C T X.J C J ,.c 1 1 & i.%.T 5 T ; X < 1 1 C *.P c a T ,.>.C y + ; a C ,.j ",
"C X.a 1 1 1 1 1 < ; @ 1 1 1 ; % ` a e 5 2 7 e a C ` T T T T c 1 1 @ } } ` e 5 - X 1 T 1 a T %.T ` ,.,.P a C @ : 2 c T C ",
"X.c e e 7 5 5 1 < - @ : : 5 - = C C e e 5 5 5 5 y T T } } T C 1 : @ J ` X.` e - X - C a ` T T T *.} T T ,.c o : 5 1 5 5 ",
"C c y 5 1 5 c 1 : ; & 1 5 1 + & 5 e 5 5 5 a c c c y >.,.} C c 5 < & e T X.C P - X % 5 T T P C a j c T T c % O # : : 1 1 ",
"- ; , ; - ; - - % + + = % @ O & 1 5 5 1 5 C P P C T ` ,.,.X.P C 1 % e c 1 T C @ X o ; C c c c 5 5 : & @ @ @ @ + + % @ & ",
"; = % & & @ # O % ; < 1 - # X ; 1 1 1 1 5 c a a a C c C X.8.d.C : & < C 1 < @ O     + & & & @ + + + < ; % 1 1 1 e 1 < 1 ",
"` P 5 5 1 ; + + < 1 1 5 5 : + - 5 5 1 1 1 1 C a a 5 c e C ,.g.T : < + % @ @ % & : : : : - 1 5 1 < % < - # 1 1 C 5 c C ` ",
"P C e 1 1 5 # - 1 1 < 1 < 1 & - c 5 1 1 1 e a c 1 5 e C C T ,.T : - - : < 1 1 c w.5 5 1 ` ,.X.T c < # O + < c 1 T ` C C ",
"5 C ` c 1 < # , c 1 < < : 1 - & c c 1 1 1 1 5 1 c e c C c >.y.T & - 1 C e a 1 e 1 1 5 a c a 5 e 7 5 5 ; @ ; c c T C 5 5 ",
"1 1 e 5 1 = @ 1 C 5 1 1 1 1 = - 5 ` X.C e e c c ` T C c ,.8.i.1 @ 1 1 1 1 ; e X.2 1 1 5 5 5 a 1 5 5 1 5 + - c c ` 5 c 5 ",
"1 1 e C e - & e T 5 5 5 1 1 ; @ 5 a ` c a a 5 c e C P ` T >.y.= % 1 1 ` : 1 X.` c 5 1 1 5 c c c 5 1 < < % % 5 c e 1 1 1 ",
"1 1 e c 7 - & C 7 1 1 1 1 1 < X @ = ; ; ; ; ; ; < < < 1 : < - + @ 1 8.a : e ` j 5 1 1 1 1 5 1 1 1 1 1 - 1 % : c 1 1 < 1 ",
"1 1 5 C c - - ` 1 1 < 1 1 < , @ O   . o o + O X + + @ @ + O @ - + 1 *.1 1 X.` 5 1 1 5 1 1 1 1 1 1 1 1 - % + < 1 1 1 1 1 ",
"1 1 ` 5 1 , - ` 1 < 1 < 1 1 < + % ; - & & & @ O % ; 1 C C , % + % 1 5 < 1 ` X.c 1 5 1 1 1 1 1 1 1 < 1 < + @ 1 C 1 1 1 1 ",
"1 c X.e 5 ; & 5 1 1 1 1 1 1 c @ : C 5 e 1 - + + - 1 c ,.X.J e & @ 1 5 1 1 c c 5 1 1 1 1 1 5 1 1 1 < 1 1 % & ; C c 1 1 1 ",
"5 T X.1 1 ; - 5 5 5 1 1 1 1 1 ; C 1 e C c e - & 1 1 1 5 e ` X.1 + < 3 1 1 1 1 1 1 1 a 1 1 1 1 < < 1 y 1 + & ; ` 1 1 1 1 ",
"a *.` 5 c ; ; C 5 5 : < 1 1 1 = a C X.,.` T ; @ 1 a P *.X.X.X.` @ : 5 1 < < 1 1 1 1 ; 1 < < < < 1 e 5 ; O + - C e e 1 1 ",
"P *.X.1 c , - T 5 5 1 1 1 1 1 - T } T T T *.< + 1 P ` j e c P X.& - 5 1 1 < 1 < < : < 7 : < 1 1 1 1 1 % . % = 1 C C e e ",
"C T c 1 T ; < y.,.C f 5 P c < , ,.X.C T >.%.< + 1 ` C 5 1 5 C r.; ; : 5 1 1 1 < 1 < 1 : ; 1 1 1 5 1 - % O % & 1 J J C C ",
"C T a T C & : h.,.T a C a T , < 6.w.T T 6.X.< % 1 w.X.C c J C X.< 1 ; 5 5 1 1 1 < > 1 < 1 < 1 1 5 : ; ; + % % 5 c ` C C ",
"J ` e 2 1 @ - d.,.T f 5 T c = < y.T X.u.s.,.1 @ : ,.X.` J J J ,.- , 1 5 C 5 5 c 1 : 1 1 1 1 1 5 a 1 : : @ & - 1 e e e C ",
"a 5 5 c : O % { ,.T c e T ; % % ` T T X.,.C < % @ e J C J J C T % ; C T ,.T 5 1 - 7 e C e 5 5 5 c 1 1 : # ; 1 C a C C T ",
"c e 1 - = % @ - < e 5 2 & @ & @ , ` >.T } 1 & - ; % y X.X.` w.< @ = 1 C T 5 ; ; ; e w.r.X.C e ` X.1 1 1 & = : 1 - & ; ; ",
"+ % @ = 5 - + - - - - @ + + & @ & & - - = % @ ; 1 o - < ; < & + - + @ & & - ; ; ; , c C X.C C ` 1 - 1 1 @ % @ # @ % & & ",
"1 : ; = + + 1 j c P T 5 5 C , 7 C ` T c 5 1 - + + + + + & & , , ; - - ; & @ + @ + + & % - ; = - & % % + # ; - = ; ; : : ",
"y ` ` 1 % % C ` c 5 C C C c c c j T ,.T ,.C C & @ - - e C a.u.C J C X.u.X.e : e ; 1 c e + - % ; T C e ; @ - = < 5 c J ` ",
"C a c T % % C ` C c >.X.T ` e C X.,.6.u.,.c X.< + % 1 ` y.#.5 e X.c C C e 1 5 J 1 5 c C 1 X O 5 ` c ` e @ = 5 ` e 5 C ` ",
"} C 1 X.; & e C 1 5 C T c c 5 a ` T >.T >.` X.< & ; < X.w.J 1 1 5 a c a 3 5 7 1 5 1 e y J 1 @ C c 5 1 e # - 1 e C X.X.X.",
",.T c C < & 1 c 5 5 c a 5 5 1 1 a a T c C J ` , % : C #.X.1 1 1 5 c a P a a 5 5 1 5 e C P P & e 1 1 1 5 & - 7 C X.X.J C ",
"X.X.T a 5 & 1 1 1 1 1 5 5 5 5 C a P k k } 6.,.1 @ e X.J e 5 1 5 5 c c 5 5 5 a 5 5 1 1 a ,.1 = C 1 1 1 c & - C C w.X.C e ",
"e #.` T c - ` e 5 a 5 C ` C 5 1 a ` T ` J ,.T ; ; 8.J C 1 e c 5 5 5 c P T 5 5 1 1 5 1 1 c - - 5 1 5 1 1 % - e C X.X.c 5 ",
"C X.J y 5 # T ` c T J C C X.} C C X.>.>.T c a ; 1 w.c c 1 e T c 5 a a e 5 5 1 1 1 1 1 < < & : 5 1 e 1 1 @ - 1 C 8.,.C C ",
"5 C X.C 1 o 5 u.N N c C ,.X.,.a.,.X.%.%.>.,.,.- c w.c 1 5 1 5 5 5 5 1 5 c c 1 1 1 1 1 5 : + : 5 e e 1 < @ - 1 T 8.` c c ",
"a C X.X.e + : C X.u.,.C < ; 1 1 a c T y.8.,.1 @ ,.,.N 1 1 1 e ` C C C ` *.` e e c 1 < 1 1 O - 1 1 < < 1 + ; 1 T X.c 5 5 ",
"5 ` 7.` / # = & 1 i : & + & = + @ ; 1 5 1 % X + ` y.a 1 1 1 5 e c c c c 1 1 1 1 1 < : 1 - X % < : ; 1 , X - 1 c J c c a ",
"1 C T C 1 ; e ; & + + + - + o O + + + X . o = @ < f.*.` 3 a e > ; > 1 1 C 5 1 1 1 1 e < = @ + 1 5 1 1 - @ & 1 1 C e 5 5 ",
"7 C ` a - C w.C C X.: @ + - 1 ; ; 1 , % % - ; # & : ; - & - - - * : - = < 1 1 e c ` e % < % + @ & % & @ # @ 1 C C 5 5 5 ",
"c y 1 5 ; ,.T 5 5 } C % - 1 u.c ; ` c < ; - 5 5 c C 5 5 c 5 1 : @ ; - X X + & - - ; - , ; - ; - @ X + @ O - 1 J ` c 1 C ",
"c C T c - e ` T C C 1 - 1 C 1 X.< 1 ,., @ ; 1 a T T j C C a 5 a ; % @ + ; : 1 1 1 1 a ` ` ` *.J ` C c > + % 5 5 w.w.e 5 ",
"5 C c C - 1 e 5 T 7.< ; >.C e c c : 1 1 a c 5 a 5 1 1 5 e J e a a 1 $ + 1 c 1 1 1 e c e e { j C k T w.y.; @ 5 C w.u.C 5 ",
"C C 5 e : 1 5 1 e ,.1 1 C C ` 3 1 : - c a c a > < 1 < 1 5 1 5 5 a 5 & @ 1 5 c 5 1 1 1 1 7 1 1 c e P c ,.C @ T X.X.C 5 c ",
"P ,.C T : 1 C C a ,., a w.X.C e 5 - = 5 1 | 1 : < 1 1 1 1 1 5 C j C ; @ e 5 e 1 < 1 1 1 1 1 1 5 a k a C C & C ` C 5 5 c ",
"c J C ,.; 1 C c 5 ` ; a u.y 7 5 1 @ ; C J J 1 < < 1 < 1 1 1 1 5 C e 1 % c 7 1 < < 1 1 5 e 5 1 5 c C k T X.= C C ` c C e ",
"C u.} ,.; 5 c 5 1 X.= 1 J C c 5 1 @ - T T 5 < < 1 1 1 1 3 5 1 5 c e < = 5 c 1 1 < 1 C ` ` ` c c c C C T T ; X.T T X.,.T ",
"J w.y.u.: 5 X.C a ,.; < X.T J y < ; % c c e 1 < 5 1 1 1 1 1 1 c c a > % 1 1 e 1 1 c T 5 C X.C c e T c T C - u.,.C X.8.,.",
"` y.,.,.< C T j 7 ` < = c X.C e < # @ < C T i 1 5 5 C C 5 C C C 5 1 1 + < 7 c 1 1 c a a a 5 e e C T >.X.e - s.u.T ,.8.,.",
">.y.T ,.< e T C 2 C 1 = - < 5 C ; , 2 X @ C T 4 e C C T T C 5 5 1 1 - X 1 c j 1 1 1 1 5 a T T P c c ` ` 1 - g.u.u.X.,.y.",
",.T 5 T 1 5 j T e 5 2 ; - - 1 1 - e a % + % 1 1 1 a C T C c 5 c 1 ; % + 1 C ` 1 1 1 1 1 5 c c C T C ` T 1 - s.y.y.,.,.y.",
"P j C 8.e C C c J C c - + # - ; , , % % & + + - ; - - = % - - - - X % % % 1 ` ` ,.X.J e 1 a ` X.X.} C 7 = @ y.j.u.,.,.,.",
"u.a.6.8., : c 1 5 C - @ 1 c 1 c C C P c - @ 1 T T C e 1 1 1 5 1 C < . + % % & ; ; - ; , ; - , ; : , - - - @ ; X.g.s.y.8.",
": : ; : 1 : < < : & O ; w.C a a C C a ` : & C a c 5 e 5 1 1 5 1 C 1 X 1 c < < %   # < < < 5 T ,.8.7.>.P T C - - ; ; , 1 ",
"; : y C >.,.k >.,.1 + 1 ` 5 a T X.X.T ` 1 ; X.5 5 C X.X.C c 1 1 5 1 X C 1 < c ; + < < 1 1 C C ` ,.,.T 5 1 ` ; J w.1 c C ",
"C C e 5 3 5 1 5 C C + 1 T C P c C T C C < ; ,.a C ` w.` C X.T 5 e 1 X C 5 1 c ; % ; - 1 1 1 5 T X.X.X.C 1 c - 5 ,.T X.5 ",
"5 5 5 5 c e 1 1 1 C @ 1 X.c c 5 e C f C < - T a >.,.,.T T C ` J C e @ e a 5 a ; @ ; 1 e C 5 1 1 1 a T ,.5 5 ; 5 T C c c "
};
