/* XPM */
static char *dd4344449f72460098220b03471df551ZvxlH3hNuWKD1t8y[] = {
/* columns rows colors chars-per-pixel */
"60 60 230 2 ",
"   c None",
".  c #0C0B0C",
"X  c #0E0D0D",
"o  c #101010",
"O  c #1F1913",
"+  c #1B1918",
"@  c #1B1919",
"#  c #1A1A18",
"$  c #1A1A19",
"%  c #271F19",
"&  c #29221C",
"*  c #31251B",
"=  c #342518",
"-  c #37271A",
";  c #36271B",
":  c #3A2D1F",
">  c #312821",
",  c #41301F",
"<  c #473423",
"1  c #423224",
"2  c #4E3823",
"3  c #493927",
"4  c #4D3A24",
"5  c #433529",
"6  c #47392B",
"7  c #4A3C2A",
"8  c #4A3E2B",
"9  c #4A3F2D",
"0  c #483D2F",
"q  c #4F3F2D",
"w  c #563D23",
"e  c #533B25",
"r  c #563E25",
"t  c #543E27",
"y  c #5A3F26",
"u  c #503D2B",
"i  c #503F2A",
"p  c #503D2C",
"a  c #564127",
"s  c #584027",
"d  c #51402B",
"f  c #544129",
"g  c #57412A",
"h  c #53412F",
"j  c #56422D",
"k  c #54412E",
"l  c #56422E",
"z  c #58412A",
"x  c #5D452A",
"c  c #5E452A",
"v  c #5F462A",
"b  c #59432E",
"n  c #5B452C",
"m  c #5A442D",
"M  c #5A452D",
"N  c #58452F",
"B  c #59472F",
"V  c #5F462C",
"C  c #5E472F",
"Z  c #4F4230",
"A  c #514231",
"S  c #594631",
"D  c #5B4831",
"F  c #594934",
"G  c #5B4934",
"H  c #594A35",
"J  c #5D4A34",
"K  c #5C4B35",
"L  c #5F4F36",
"P  c #604426",
"I  c #624426",
"U  c #664626",
"Y  c #674626",
"T  c #654A2B",
"R  c #60492D",
"E  c #614A2D",
"W  c #624A2D",
"Q  c #60492F",
"!  c #604B2F",
"~  c #614B2F",
"^  c #64492D",
"/  c #654A2D",
"(  c #674E2D",
")  c #664C2F",
"_  c #684B29",
"`  c #684C2B",
"'  c #6E4C2B",
"]  c #6B4E2E",
"[  c #714F2A",
"{  c #6C502F",
"}  c #71512C",
"|  c #70502D",
" . c #71502D",
".. c #71532F",
"X. c #77562F",
"o. c #7D552C",
"O. c #7F572E",
"+. c #614B31",
"@. c #614A32",
"#. c #604C33",
"$. c #614C33",
"%. c #634C33",
"&. c #634D33",
"*. c #644C30",
"=. c #654D30",
"-. c #664C30",
";. c #644E31",
":. c #664F32",
">. c #604C34",
",. c #604E37",
"<. c #664F34",
"1. c #684E31",
"2. c #684E32",
"3. c #645134",
"4. c #675035",
"5. c #6A5030",
"6. c #695332",
"7. c #6E5130",
"8. c #6F5130",
"9. c #6E5230",
"0. c #6F5230",
"q. c #6F5231",
"w. c #6F5331",
"e. c #6E5134",
"r. c #6C5334",
"t. c #6A5437",
"y. c #6E5734",
"u. c #6D5536",
"i. c #6E5636",
"p. c #63513A",
"a. c #63513B",
"s. c #665138",
"d. c #67543A",
"f. c #64543D",
"g. c #65553E",
"h. c #6C5539",
"j. c #6C583E",
"k. c #6E583E",
"l. c #715231",
"z. c #715431",
"x. c #735531",
"c. c #715432",
"v. c #705733",
"b. c #765733",
"n. c #715635",
"m. c #735735",
"M. c #725636",
"N. c #785530",
"B. c #785633",
"V. c #765831",
"C. c #725834",
"Z. c #755836",
"A. c #755936",
"S. c #745937",
"D. c #785833",
"F. c #795933",
"G. c #785A33",
"H. c #7A5E34",
"J. c #7B5C37",
"K. c #7E5D36",
"L. c #715939",
"P. c #735A38",
"I. c #70583A",
"U. c #715A3B",
"Y. c #755A39",
"T. c #755D3B",
"R. c #765C3A",
"E. c #775E3B",
"W. c #745B3C",
"Q. c #775F3C",
"!. c #7E6139",
"~. c #7E643D",
"^. c #645740",
"/. c #725B40",
"(. c #715D40",
"). c #795F41",
"_. c #756142",
"`. c #776345",
"'. c #766246",
"]. c #8B5E2E",
"[. c #845D32",
"{. c #845F32",
"}. c #825D34",
"|. c #805E34",
" X c #815F34",
".X c #825E34",
"XX c #826035",
"oX c #856337",
"OX c #8C6433",
"+X c #836238",
"@X c #80633A",
"#X c #83653D",
"$X c #83663C",
"%X c #81643E",
"&X c #84653F",
"*X c #84683D",
"=X c #8F6838",
"-X c #8D6B3B",
";X c #89683C",
":X c #8B6B3D",
">X c #8D6A3C",
",X c #8D6C3F",
"<X c #926A36",
"1X c #916C3B",
"2X c #9C723D",
"3X c #806742",
"4X c #836941",
"5X c #806845",
"6X c #886B42",
"7X c #896C41",
"8X c #8E6D41",
"9X c #886A44",
"0X c #816D4D",
"qX c #897147",
"wX c #8F7247",
"eX c #8C714B",
"rX c #957647",
"tX c #92774E",
"yX c #93794C",
"uX c #957A4E",
"iX c #917850",
"pX c #9A7F50",
"aX c #A07B46",
"sX c #A07F4A",
"dX c #A78348",
"fX c #B28645",
"gX c #A38A5A",
"hX c #AA8A59",
"jX c #B09969",
"kX c #B8A06F",
/* pixels */
"                                                                                                                        ",
"                                                                                                                        ",
"                                                                                                                        ",
"                                                                                                                        ",
"                                                                                                                        ",
"                                                                                                                        ",
"                                                                                                                        ",
"                                                                                                                        ",
"                                                                                                                        ",
"                                                                                                                        ",
"                                                                                                                        ",
"                                                                                                                        ",
"                                                                                                                        ",
"                                                                                                                        ",
"                                                                                                                        ",
"                                                                                                                        ",
"                                                                                                                        ",
"                                                                        rX                                              ",
"                                                                  :X,X1X<XfXaX                                          ",
"                                                      >X-X X-X@X9.oX~  XOX].2XhX                                        ",
"                                                    *.[.T B C.( x tX  W.X. .z.uX                                        ",
"                                                    ] [.&X  I.A. .@X$.<.I.    z.gX                                      ",
"                                                    B.e.A.9X    ~ *.    i 0X  9.eX                                      ",
"                                                  @.B B V 9.yXI.4.^.    p M.D.^ 6XkX                                    ",
"                                                  z *.      T.'.L G   g.f _ b.z.9.7XjX                                  ",
"                                                  2.D.~.*X  s.t.D p.j V $./.    $.a wX                                  ",
"                                                    Y.$X6.(._.3 B J *.).iXsXqXpXj.~ $X                                  ",
"                                                    b h.T.A.d.7 >.6 i i.T.i.( i.*.9.I.                                  ",
"                                                          5 1 ( $.Z Q.p.    @.B q 4.                                    ",
"                                                        1 e D.:X~ g.M.j.>.3X  9 9                                       ",
"                                                        ; y 8XdXJ.'.j J ~ 4X5Xf A                                       ",
"                                                        * w  XO.`     G G h j d                                         ",
"                                                        , 9.B.P r                                                       ",
"                                                      7 4 s x                                                           ",
"                                                      ~ 6.9.                                                            ",
"                                                    S r { M.                                                            ",
"                                                    < V.!.                                                              ",
"                                                  > 2 XX$X                                                              ",
"                                                  : z.K.                                                                ",
"                                            $ $ % x J.e.                                                                ",
"                                              . ;  .l.                                                                  ",
"                                        $   o O P  X2.                                                                  ",
"                                          $ X ; [  .                                                                    ",
"                                            & Y O.^                                                                     ",
"                                              Y '                                                                       ",
"                                                                                                                        ",
"                                                                                                                        ",
"                                                                                                                        ",
"                                                                                                                        ",
"                                                                                                                        ",
"                                                                                                                        ",
"                                                                                                                        ",
"                                                                                                                        ",
"                                                                                                                        ",
"                                                                                                                        ",
"                                                                                                                        ",
"                                                                                                                        ",
"                                                                                                                        ",
"                                                                                                                        ",
"                                                                                                                        "
};
