/* XPM */
static char *left__1_1709130527[] = {
/* columns rows colors chars-per-pixel */
"60 60 208 2 ",
"   c None",
".  c #161515",
"X  c #1A1514",
"o  c #161816",
"O  c #1C1916",
"+  c #151619",
"@  c #18171A",
"#  c #14191C",
"$  c #1B1B1C",
"%  c #0F1A1B",
"&  c #231A15",
"*  c #2C1C14",
"=  c #231E1B",
"-  c #251717",
";  c #321F19",
":  c #2D1C0C",
">  c #1F201F",
",  c #24211B",
"<  c #2A241C",
"1  c #292516",
"2  c #3C2315",
"3  c #30241B",
"4  c #342A1C",
"5  c #362919",
"6  c #141C23",
"7  c #1C1D22",
"8  c #131E2A",
"9  c #151620",
"0  c #201F23",
"q  c #1D2024",
"w  c #15222C",
"e  c #19242B",
"r  c #1B292F",
"t  c #192426",
"y  c #152533",
"u  c #192532",
"i  c #1D2A32",
"p  c #10293B",
"a  c #232324",
"s  c #282624",
"d  c #252629",
"f  c #29262A",
"g  c #25282B",
"h  c #2A2A2D",
"j  c #2E2923",
"k  c #332623",
"l  c #332C24",
"z  c #352C2A",
"x  c #3A2F25",
"c  c #3D332A",
"v  c #3C3426",
"b  c #272930",
"n  c #2C2D32",
"m  c #2D2F39",
"M  c #2F3136",
"N  c #2F323A",
"B  c #313236",
"V  c #31333A",
"C  c #3A373A",
"Z  c #35393D",
"A  c #3C3A3B",
"S  c #3B3533",
"D  c #441B1E",
"F  c #4A2916",
"G  c #412718",
"H  c #4A361A",
"J  c #462826",
"K  c #552525",
"L  c #43352B",
"P  c #443B2D",
"I  c #483D2D",
"U  c #4B3527",
"Y  c #563D28",
"T  c #443C31",
"R  c #473B37",
"E  c #4E412C",
"W  c #4C4234",
"Q  c #4B433A",
"!  c #544A3A",
"~  c #5B4E3D",
"^  c #524736",
"/  c #5B503F",
"(  c #64543F",
")  c #112D43",
"_  c #343740",
"`  c #363943",
"'  c #3B3C44",
"]  c #3B3E49",
"[  c #303E57",
"{  c #3B4245",
"}  c #3E414C",
"|  c #324562",
" . c #434344",
".. c #41434D",
"X. c #4B4A4B",
"o. c #4B4946",
"O. c #564E44",
"+. c #51534C",
"@. c #444651",
"#. c #474956",
"$. c #484A57",
"%. c #474A58",
"&. c #494A58",
"*. c #484756",
"=. c #524E55",
"-. c #4C535B",
";. c #4C5557",
":. c #5E5C5D",
">. c #55565A",
",. c #665945",
"<. c #6C5448",
"1. c #6D6049",
"2. c #73634C",
"3. c #7A694F",
"4. c #64605F",
"5. c #7C6D54",
"6. c #716553",
"7. c #43516B",
"8. c #555A64",
"9. c #5C5B64",
"0. c #5D5E6A",
"q. c #5A5660",
"w. c #615D66",
"e. c #615E68",
"r. c #5B646D",
"t. c #4F607D",
"y. c #5B667C",
"u. c #62626B",
"i. c #6F6D6B",
"p. c #626C72",
"a. c #6A6C77",
"s. c #677379",
"d. c #767577",
"f. c #8F692B",
"g. c #8D454A",
"h. c #85735D",
"j. c #89765D",
"k. c #897556",
"l. c #937E5F",
"z. c #8F7B60",
"x. c #807F7C",
"c. c #94777A",
"v. c #AF8335",
"b. c #91805C",
"n. c #958164",
"m. c #9B8668",
"M. c #A28A6B",
"N. c #A58C69",
"B. c #A6916E",
"V. c #AD9575",
"C. c #BA9F7A",
"Z. c #B49B75",
"A. c #BCA27B",
"S. c #B9A37A",
"D. c #C2A67B",
"F. c #C3AA7D",
"G. c #CAAC7F",
"H. c #CBB07F",
"J. c #495D82",
"K. c #4E6385",
"L. c #516586",
"P. c #6A7782",
"I. c #717E84",
"U. c #7D7F83",
"Y. c #7B868B",
"T. c #6E839F",
"R. c #7D8B98",
"E. c #7F929A",
"W. c #878887",
"Q. c #85929A",
"!. c #939595",
"~. c #898D95",
"^. c #BD8486",
"/. c #A3A29F",
"(. c #8A9DAB",
"). c #8999B0",
"_. c #8BA1AC",
"`. c #99A3AE",
"'. c #A6A7A8",
"]. c #BDBBB9",
"[. c #ACB1BA",
"{. c #C08684",
"}. c #CCB185",
"|. c #CBB58D",
" X c #D5B88B",
".X c #DCBC8C",
"XX c #D4B686",
"oX c #C9AC81",
"OX c #E2BE8D",
"+X c #DEC28B",
"@X c #E5C48F",
"#X c #E4C493",
"$X c #EACB95",
"%X c #E9CA98",
"&X c #F1CE98",
"*X c #F3D39B",
"=X c #FDD79E",
"-X c #FED99D",
";X c #F2D697",
":X c #FEDAA1",
">X c #F7D6A0",
",X c #BAC5CD",
"<X c #D2D2CD",
"1X c #D0D1D0",
"2X c #CCCAC8",
"3X c #DFE0DD",
"4X c #CCD9E1",
"5X c #E7E7E2",
/* pixels */
"                                                                                                                        ",
"                                                                                                                        ",
"                                                                                                                        ",
"                                                                                                                        ",
"                                                                                                                        ",
"                                                                                                                        ",
"                                                                  e w                                                   ",
"                                                      y w 8 9 $ , a g a $ 9                                             ",
"                                              t # # 9 $ $ $ @ @ h ..9.u.:.C @ e                                         ",
"                                          6 # f A =.q.w.w.9.>.X.C f f ..u.a.X.- w                                       ",
"                                      8 $ B =.e.u.0.9.9.8.8.0.e.r.e.$.V _ -.a.X.$ u                                     ",
"                                    6 = B ' C n b n m _ ] *.*.*.%.&.>.>.@...&.u. .# 8 u                                 ",
"                                w 9 X @ $ o @ a n _ { @.*.#.*.%.#.#.#.%.$.$.#.%.0.' f d a 7 $ $ 6 u                     ",
"                              6 o + X X q N ' @.$.*.%.$.%.%.$.$.%.$.%.%.$.#.#.%.&.9.9.w.0.u.9.$.A a 6                   ",
"                            6 o o o a V @.*.*.*.$.%.%.&.#.$.$.%.$.#.$.#.$.%.$.$.#.%.*.%.%.&.0.u.a.u.h 6                 ",
"                        y 8 $ o $ M ..%.$.$.&.$.#.&.&.*.*.$.$.$.$.$.$.$.$.%.$.$.$.&.%.%.@.N n Z #.u.w.0 q               ",
"                      )     8 9 _ #.$.#.$.$.$.#.#.@.....} @.$.*.#.$.$.$.$.$.#.%.#.#.$.&.%.@.M $ $ n $.A #               ",
"                          w O Z #.%.%.*.$.#.@.{ ` V V B V ' #.*.&.$.#.&.%.$.$.$.$.&.$.$.%.%.$.A = o & a #               ",
"                          o n #.#.$.%.$.@.] N N n g a a h V @.*.&.$.$.#.$.&.$.$.&.*.$.$.%.%.$.#.` 7 X X o 7             ",
"                        t $ } $.$.$.#.} V g q # + $ f $ 7 N } $.$.#.#.&.$.$.$.%.&.*.*.$.$.#.#.$.*.C # q e 8             ",
"                        + B #.#.#.#.` d $ @ N :.W.'.].>.+ n _ #.#.#.#.*.$.$.$.%.&.$.#.%.#.#.#.#.*.*.b #                 ",
"                      w $ } #.$...n @ X X O @.n./.].<XW.O d V .._ #.#.%.$.%.$.$.$.&.$.$.%.#.@._ ..%.] 9 u               ",
"                      # d *.*.' a $ +.d.4. .f @ O f A Q o a V _ N } $.$.%.$.$.$.$.$.%.$.*.&.@.V V ] @.h 6               ",
"                      + V *.V $ X A i.i.:.o.h O . X . X O @ M V N ] $.$.$.$.$.$.$.$.$.$.&.&.@.V N B ' V @               ",
"                      # ` V O o $ > 1 3 l c T ^ ~ ,.2.5.T o n N b ` @.*.&.*.$.$.*.*.$.%.&.*.@.V N n f N @ i             ",
"                    y # h O X R l.m.m.h.,.Q W ^ 2.N.}.A.2.X b n a Z @.*.&.&.$.$.&.*.$.#.&.*.] N N M a a @ i             ",
"                    y + + $ # 2..XM.Q , j ~ b.A.XX$X*XG.h.$ d d 7 V @.&.*.&.&.$.$.%.$.$.%.*.] V V M 7 $ O r             ",
"                      + 9   % 2.%XE c b.}.#X%X%X=X-X=XXXn.= 0 0 7 N @.*.&.*.&.$.$.....#.%.#._ N N B a o o i             ",
"                      6     % ,.*XA.S.j.~ P P I k.%X-X.XM.< @ @ $ N } *.$.#.#.%.#.] Z @.#.} V N N B a o o u             ",
"                            % W &X}.v _ | | P.~.c 3.*X@XB.l o X $ N } #.*...} #...V N ] #.` N N M V a o + i             ",
"                            6 x +Xk.A y.7.T.K.,X'.l F.%XZ.c . X $ B } #.@.V ` @.` N N _ ] V N V B V q X +               ",
"                            w s }.1.+.| n ~.J.).3XR n.$XZ.T l s $ M } } ` V _ ] _ V N N N N B V M m $ o $               ",
"                            y > F.2.$.%.+ 0.J.).5Xo.k.$XC.( 6.l 7 V V V V N V N M N V N N V M M V n o i u               ",
"                            w 1 }.n.T R.[ K.K.,X2Xz V.*XD.M.n., 7 B N N M V N n n N N V V N n q M f @                   ",
"                            6 z #XXXx Y.`.Q.[.1X:.E @X=XXXC.j.$ d V V N N N M d M N N B B B a @ h 9 8                   ",
"                            6 c $X:Xb.l o.+.o.R I F.-X-X$XA.2.X d V N V N N a d V N V N N g @ @ = @                     ",
"                            w < XX-X*XF.N.m.M.Z.@X=X:X=X&XC.W @ m V N V V d $ M N V V N h O X @ @ e                     ",
"                              o 5.;X-X-X-X:X-X-X-X-X=X:X#XB.l $ M N N N d @ g V N B M f $ 6 # + w                       ",
"                              w $ 2..X-X-X-X-X-X=X-X-X&XG.5.$ a V B n a @ 0 B V N n q o w   6 7                         ",
"                                w o x 2.S. X$X&X*X$X.XF.V.W O n m d $ X $ n m s q + #       y                           ",
"                                    9 @ = j P ! ~ ~ ! ! Q $ @ a @ o o @ = $ $ @ o w                                     ",
"                                            6 + X z = X . . X o . o . X o o O 5 5 t                                     ",
"                                              6 R c.J - O n g o ..>.a + $ @ & f.v.v                                     ",
"                                              % R R X X ;.p.h g R.R.;.# A h @ 5 H ,                                     ",
"                                              @ & X . V Y.s.t #._.E.s.g f B o S B w                                     ",
"                                              X K D @ p._.r.# p.(.Q.s.Z o o X 0 s                                       ",
"                                            8 3 g.D @ P._.-.# I.(.E.Y.;.o g B X #                                       ",
"                                            # R {.L . { E. .n ,X4X,X`.W.> o.A o >                                       ",
"                                            # <.^.k 7 # _ n s !.[.'.U.:.$ 0 O X 6                                       ",
"                                            % K g.- X.d.h o X > a > = = o o $ o e                                       ",
"                                            + X * O 0 d.!.M 4 j.j.j.l.h., g >.# i                                       ",
"                                            9 b $ M Z 9 n > c  X@X@X@X|.l ` Y.7 e                                       ",
"                                            # N 7 8.Q.p.{ s = B.>X:X$Xj.O ` >.7 w                                       ",
"                                          y 6 # o d Z { { n X < ,.1.I O O O % 6 p                                       ",
"                                                w + & 1 O X 3 5 3 3 5 4 X o                                             ",
"                                                  6 & & O X c Y Y U U 3 . w                                             ",
"                                                  8 & 2 2 X X : : : * X #                                               ",
"                                                  6 X 2 2 & & G F F G O 6                                               ",
"                                                    # X O X X * 2 * - +                                                 ",
"                                                        6 t 9 + . + #                                                   "
};
