/* XPM */
static char *mback_copy1709130845[] = {
/* columns rows colors chars-per-pixel */
"60 60 103 2 ",
"   c None",
".  c #0E1A1E",
"X  c #151515",
"o  c #1A1515",
"O  c #1C1916",
"+  c #14161B",
"@  c #1A161B",
"#  c #13191D",
"$  c #1C191C",
"%  c #22171C",
"&  c #221D1D",
"*  c #24211E",
"=  c #0E1A23",
"-  c #121720",
";  c #1D1720",
":  c #121A23",
">  c #1D1A21",
",  c #131F2A",
"<  c #201722",
"1  c #221C24",
"2  c #291E25",
"3  c #261E29",
"4  c #291E2C",
"5  c #291F31",
"6  c #15222C",
"7  c #242225",
"8  c #2A2523",
"9  c #2D2925",
"0  c #26212C",
"q  c #2A222D",
"w  c #2F2B2A",
"e  c #312A24",
"r  c #332D2A",
"t  c #35302D",
"y  c #3B322E",
"u  c #2D2432",
"i  c #2F2835",
"p  c #312635",
"a  c #322936",
"s  c #32253A",
"d  c #352B3B",
"f  c #392E3F",
"g  c #333332",
"h  c #3D3532",
"j  c #3D3935",
"k  c #3B303F",
"l  c #3A3B39",
"z  c #433B34",
"x  c #443D3B",
"c  c #3F403C",
"v  c #4A403B",
"b  c #372D41",
"n  c #3A2E42",
"m  c #3D3144",
"M  c #3E334A",
"N  c #402F42",
"B  c #413545",
"V  c #43354C",
"C  c #45394D",
"Z  c #463652",
"A  c #483654",
"S  c #463952",
"D  c #4A3B55",
"F  c #4C3B5B",
"G  c #503D5C",
"H  c #4E3B60",
"J  c #513D61",
"K  c #4A4340",
"L  c #504B44",
"P  c #59544D",
"I  c #4D4156",
"U  c #4F405C",
"Y  c #52425C",
"T  c #676159",
"R  c #6E655B",
"E  c #544363",
"W  c #574863",
"Q  c #5A4966",
"!  c #574568",
"~  c #5A466B",
"^  c #5D4A6D",
"/  c #5D4770",
"(  c #5F4A71",
")  c #604A6D",
"_  c #614A72",
"`  c #675175",
"'  c #6A547C",
"]  c #746D63",
"[  c #7B736B",
"{  c #948C7E",
"}  c #705580",
"|  c #735983",
" . c #988D80",
".. c #9E968C",
"X. c #A3998E",
"o. c #A49B90",
"O. c #ADA499",
"+. c #C7B5A6",
"@. c #CEBDAA",
"#. c #C7BEB1",
"$. c #DBCDBD",
"%. c #E3D6C4",
"&. c #E9DAC9",
/* pixels */
"                                                                                                                        ",
"                                                                                                                        ",
"                                                                                                                        ",
"                                                                                                                        ",
"                                                                                                                        ",
"                                                                                                                        ",
"                                                                                                                        ",
"                                                  6 , : - # # - - ,                                                     ",
"                                              # # 1 s m C D D C m p 7 - -                                               ",
"                                          : > a I ^ _ ' ' | | | | _ Q S u > -                                           ",
"                                      = # a Y ( ) _ _ / _ _ _ _ _ / / _ ^ S 2 + ,                                       ",
"                                    # > M ^ ( ! m ^ _ _ _ _ ) _ _ ( _ ( ( ^ D f > #                                     ",
"                                  + 1 V ^ ( ( Y 1 I _ _ _ ( ( ( ( ( ( _ _ / H F M 1 +                                   ",
"                                # 8 V F / ( ^ E 1 q E _ _ _ _ ( _ / _ ^ / ~ H G F V 3 +                                 ",
"                              # 1 Z F H ^ ( / / B $ 0 D ^ ) ( ( ( ( ( ( / ! G F F F C 7 +                               ",
"                            # > V F F F ! ( ( / ^ Z 1 % q V ~ ( ( ( ^ ( ! F F F F F F V 1 #                             ",
"                          = @ B F F F F F ~ ( ( / ( W S m S ! ( ( / ( ^ H F F F F F F F m @ =                           ",
"                          + s D F F F F F H ! ( ( ( / ( ( ( ( ( ( _ _ ~ F F F A F F F F F d +                           ",
"                        # 1 D F F F F F F F G ! ( / _ ( ( ( ( ( _ / _ ! F F F F F F F F F Z 1 #                         ",
"                      = $ m F F D F F F F F F J ! ( ( ( ( _ / ( / _ ~ J F F F F F D F H F F M >                         ",
"                      . 0 F F F F F F F F Z Z G F ! ^ ( ( ( ( ( / ~ J F F Z V F F F F F F M Z u #                       ",
"                    , $ m A D F F F F F F Z s Z F F J ! ~ ^ ^ ! ! G F F Z s A F F F F F H M F M $ -                     ",
"                    # 0 m V F F F F F F F F s d D F F F F F F F F F F S u b F H F F F F F M F Z u +                     ",
"                    + f Z S F F F F F F F F n 1 A F F F F F F F F F D s 3 Z F F F D F F F F Z M d o                     ",
"                  , $ Z F D F F F F F F F F M ; M F F F F F F F F F S 1 s F F G F F F F F F Z V V $ ,                   ",
"                  : 1 D F F F F F F F F F F V < i F F F F F F F F F f $ n F F F F F F F F F F F F 1 -                   ",
"                  # q D F F F F F F F F F F A 2 3 Z F F F F F F F F 0 < V F F F F F F F F F D F F 0 +                   ",
"                  # p D F F F F F F F F F G F s @ b F F F F F F G V $ 3 D F F F F F F F F F F F F u +                   ",
"                  - p F F F F F F F F F F F F V $ < V F F F F F F m X u F H F F F F F F F F F F F s +                   ",
"                  # u F F F F F F F F F F F F F p o q S F H F F F f o p F F F F F F F F F F F F D u +                   ",
"                  # 0 F F F F H F F F F A A F G C 2 o q S F F F F d X i F F F F F F F F F F F F F u +                   ",
"                  # 3 F F F F F F F F F Z V F F F V 1 o 6 m A F F u + d F F F F F F F F F F S C D 0 #                   ",
"                  , < S Z s s V D F F F D S F F F F V 0 + O q f s < @ N G F F F F F F F V u 4 b C ; ,                   ",
"                    @ B F m 1 1 m F F F Z M D F F F F D d 1 o X X @ u F F F F F F F V p @ 3 m F n o                     ",
"                    # q F F M 1 > V F F S V A F F F F F D C n u s m S F F D F F F B 3 @ p S F F u o                     ",
"                    - # n F F m $ 0 F F F A F F F F F F F F F F D F F F F F F F M < $ f F F F k #                       ",
"                      # % n F F i @ M H F F F F F F F F F F F F F F F F F F F C 1 < n F F F m % #                       ",
"                        + > d A S 0 0 M F F F F F F F F F F F F F F F F F F D 4 1 m F H A d $ #                         ",
"                          . + 1 d 3 % 1 f A G F F F H F F F F F F F F F D D B 1 V F F N q + =                           ",
"                              # X O t t & q V C m Z F F F F F F F F F G F F n B V n 4 $ +                               ",
"                                  $ & r h 8 1 1 $ q B C A D F Z Z A Z V m f q 7 $ # +                                   ",
"                                      $ 9 t $ 7 l 0 $ > 7 > 7 7 > ; @ o X X + >                                         ",
"                                        + $ $ l v 6 & @ X 7 0 q u i p 8 @ + X 6                                         ",
"                                      + X $ g l * * z h 7 1 i f m d s n m < o X ,                                       ",
"                                    - 7 8 & t 7 O r v v z @ o @ $ 0 m D F a o 8 -                                       ",
"                                  - < I G 6 X O e e e h t o n a + 1 s V n q @ V a #                                     ",
"                                  @ k V C 1 & % * 9 * y & % Y d X @ @ O @ o 8 C B 1 .                                   ",
"                                # o k S u o d V q O e * O p D < o $ 7 X $ @ ; m D 1 X                                   ",
"                              # 6 y O 1 2 $ A Q U b > O @ m d o o o @ > $ o $ 0 $ 7 w #                                 ",
"                              $ [ O.[ x $ 1 Y Z ! ( D O 7 C 7 X X $ d I d O X 7 P  .o.j #                               ",
"                            # 9 @.$.+.X.9 0 W b D ( ^ u @ 7 # @ u M D d $ $ O K O.@.%.[ X                               ",
"                              * ..&.&.O.* a ~ V u ! ( E a O O d B r > X 8 z y & R %.$.P X                               ",
"                              # 8 R { T O k ~ W q M ( ( E b 1 $ $ O O O r z v t 8 ] L O                                 ",
"                                  X X + o C ^ ^ D u F ( ~ ^ I u o $ @ $ r r h x * X #                                   ",
"                                      6 $ D _ _ ^ D s E ( ( ( ~ d $ @ @ 0 e e y 9 #                                     ",
"                                        o s E _ / ^ E E ( ( ^ Y n V Y B 1 $ & % $                                       ",
"                                          # 1 m E ^ ^ ) ( _ ( E E ^ ~ D 8 X +                                           ",
"                                            X O < u n C D F I F V d 0 $ o +                                             ",
"                                            # X X + o @ > $ ; $ + X o X o                                               ",
"                                                - -                 # +                                                 "
};
