/* XPM */
static char *mface_copy1709130845[] = {
/* columns rows colors chars-per-pixel */
"60 60 175 2 ",
"   c None",
".  c #15120F",
"X  c #0E1416",
"o  c #0E151A",
"O  c #0E191C",
"+  c #161414",
"@  c #191515",
"#  c #1B1916",
"$  c #14161B",
"%  c #1A161B",
"&  c #13191D",
"*  c #1C191C",
"=  c #201916",
"-  c #221C1C",
";  c #24211E",
":  c #2C251F",
">  c #0E1A23",
",  c #0E1E29",
"<  c #111721",
"1  c #1C1720",
"2  c #131B23",
"3  c #1D1A21",
"4  c #141F29",
"5  c #201723",
"6  c #221C24",
"7  c #261F29",
"8  c #291E2B",
"9  c #2A1F32",
"0  c #1A2633",
"q  c #262322",
"w  c #292623",
"e  c #2B2925",
"r  c #27212A",
"t  c #2A222D",
"y  c #2D2C2B",
"u  c #322B26",
"i  c #332E2A",
"p  c #323026",
"a  c #35312D",
"s  c #39342D",
"d  c #39382F",
"f  c #2D2533",
"g  c #2E2933",
"h  c #302534",
"j  c #312934",
"k  c #34263B",
"l  c #342B3B",
"z  c #392D3D",
"x  c #353532",
"c  c #3A3633",
"v  c #3D3934",
"b  c #363738",
"n  c #39313D",
"m  c #3D3D3A",
"M  c #423C36",
"N  c #433D3B",
"B  c #46413A",
"V  c #4B453E",
"C  c #362C41",
"Z  c #3B2E43",
"A  c #3D3244",
"S  c #3E344A",
"D  c #413346",
"F  c #403E40",
"G  c #42354C",
"H  c #45394D",
"J  c #493A4F",
"K  c #453552",
"L  c #483753",
"P  c #463951",
"I  c #4A3B55",
"U  c #4C3B5A",
"Y  c #473C59",
"T  c #503D5D",
"R  c #4E3E61",
"E  c #523F61",
"W  c #454444",
"Q  c #4B4641",
"!  c #4D4A44",
"~  c #4D4C4B",
"^  c #524C45",
"/  c #594F47",
"(  c #544F4A",
")  c #584F48",
"_  c #4F504F",
"`  c #585047",
"'  c #52514E",
"]  c #5A554D",
"[  c #5B584F",
"{  c #4F425A",
"}  c #51425D",
"|  c #535250",
" . c #5C5551",
".. c #5E5A53",
"X. c #605B4F",
"o. c #635D55",
"O. c #675E5A",
"+. c #66615C",
"@. c #6A635C",
"#. c #6E685A",
"$. c #6C6257",
"%. c #70675F",
"&. c #726A5E",
"*. c #4C4061",
"=. c #544463",
"-. c #584665",
";. c #574569",
":. c #59466A",
">. c #574869",
",. c #5C4A6D",
"<. c #5F4A71",
"1. c #614A6D",
"2. c #614A72",
"3. c #675179",
"4. c #6C537C",
"5. c #695375",
"6. c #72597D",
"7. c #6D6963",
"8. c #736C63",
"9. c #786F62",
"0. c #797065",
"q. c #7B746B",
"w. c #77736A",
"e. c #81796E",
"r. c #857E73",
"t. c #8A7F73",
"y. c #878076",
"u. c #8B8377",
"i. c #8B847A",
"p. c #8F8C7F",
"a. c #86827B",
"s. c #928A7D",
"d. c #90837B",
"f. c #755A85",
"g. c #765A88",
"h. c #938D82",
"j. c #9A8E87",
"k. c #979186",
"l. c #9D9185",
"z. c #9D9489",
"x. c #A1968A",
"c. c #A39A8D",
"v. c #A49C91",
"b. c #A99F91",
"n. c #ABA294",
"m. c #AFA799",
"M. c #B1A79A",
"N. c #B4AA9C",
"B. c #B8AC9D",
"V. c #B5ADA0",
"C. c #BAAFA1",
"Z. c #BDB3A4",
"A. c #BEB4A9",
"S. c #C1B5A6",
"D. c #C1B5A8",
"F. c #C5BAAA",
"G. c #CABEAE",
"H. c #C6BFB1",
"J. c #D2C2AF",
"K. c #CDC3B1",
"L. c #D2C5B4",
"P. c #D5CABA",
"I. c #DBCEBC",
"U. c #D8CAB5",
"Y. c #DFD0BD",
"T. c #E1D3BF",
"R. c #DDD3C2",
"E. c #E3D5C2",
"W. c #E6DAC5",
"Q. c #EADBC6",
"!. c #E7D8C8",
"~. c #ECDDC9",
"^. c #E2D6CA",
"/. c #EFE2CC",
"(. c #F1E3CE",
/* pixels */
"                                                                                                                        ",
"                                                                                                                        ",
"                                                                                                                        ",
"                                                                                                                        ",
"                                                                                                                        ",
"                                                                                                                        ",
"                                                                                                                        ",
"                                                      2 2 3 2 & 2 2                                                     ",
"                                              2 & < 6 g l n D n j 6 3 $ >                                               ",
"                                          2 & r D -.5.6.f.f.f.f.f.6.1.J t & <                                           ",
"                                      4 $ r H ,.4.f.g.g.g.f.f.f.g.g.g.4.1.H t & 2                                       ",
"                                    < % C -.2.<.2.2.f.g.g.g.g.g.f.f.f.2.1.,.U k 1 &                                     ",
"                                  < * G ,.<.<.<.<.2.f.f.f.g.g.g.g.f.2.2.,.=.U U G 7 o                                   ",
"                                & 3 S ,.} =.<.<.,.<.3.f.f.f.f.6.4.2.2.} U Y k L U H t $                                 ",
"                              & 6 S *.1.G k >.<.2.2.2.3.4.4.5.2.1.<.,.l H =.7 f I U P t $                               ",
"                            < 3 A U *.,.{ 6 A ,.<.2.<.2.<.<.<.2.2.<.U 6 } 2.{ 6 h I Y K 8 &                             ",
"                          4 % l I U U :.,.j * G ,.2.2.2.<.<.<.<.<.>.j 7 >.2.<.L 7 k I U G 5 <                           ",
"                          & g P G I U E 2.} f % z ;.<.<.<.,.<.<.<.H * S <.2.2.,.=.Z L U L Z * 4                         ",
"                        & 6 H G h I U T ,.1.-.k * t P :.<.,.<.2.*.6 w =.<.2.2.2.<.,.:.R U U 9 %                         ",
"                      2 % Z U l 8 L U T ,.<.<.>.U k h K ,.<.<.=.t 3 P <.<.<.<.<.<.<.<.E U U L 5 O                       ",
"                      $ t U I f h I R E 2.<.<.,.2.,.,.,.<.,.I r % S ,.<.,.<.,.<.<.<.2.;.U U U C $                       ",
"                    4 % A U G 1 Z T U =.2.2.2.<.<.2.:.=.L k 1 7 P <.<.<.2.2.2.<.2.<.,.,.E U U L 6 O                     ",
"                    & t U I t 8 L T U L Z z Z K ;.,.K h 7 t C U ;.<.<.,.=.K A A K =.,.;.U U U U n &                     ",
"                    $ Z E C 6 D U U L k 8 5 @ % 6 G } U I U U T =.,.L h # + & 7 f K -.E U R U U L * O                   ",
"                  4 * P L f Z U U U U L A r + * ; % t S L T U I H j % = q @ # n I U U U U U U I Y r &                   ",
"                  < 7 L L S U U U U L Z * ; ' r.j.@.s # * 6 6 - % w ` i.z.0.a % f P I U U U U I U k $                   ",
"                  & t U U L L K U Y h % @ e +.n.G.F.M.y.o.^ !  .q.b.S.F.N.y.Q @ + r H U U G K U U C $                   ",
"                  & f U U Y I L H f % - w * @ d x.W.E.I.G.Z.C.F.P.E.!.S.( # # q ; @ 5 S U K Y U U A #                   ",
"                  < f U K G L I f + M q.] c & + - s.Q.Q.Q.E.T.E.Q.~.Z.M + + e ~ 8.[ @ 5 G I U U U Z %                   ",
"                  & f U L H I l % e 7.j q y e - % - i.E.Q.Q.Q.Q.Q.Z.v + * r y e w +.V @ f L U U U A &                   ",
"                  & t U U U G 1 + 7.B e ~ | ' ~ N r - #.F.Q.Q.I.u.p * b ! _ _ ' c q q.e % A U U U n $                   ",
"                  > 7 L U U j + c h.q W ' ' ' | | W * r.Y.Q.Q.T.n.e c ' ' _ ' ' ~ ; q.@.+ f I U U j $                   ",
"                  2 5 H U H - + ^ c.q W ' ' ' | | b e F.Q.Q.Q.Q.E.` e ~ ' ' | ' ' ; q.u.+ 3 H L L t <                   ",
"                    & C U C % % N C.u m | | | ! i : t.E.Q.Q.Q.Q.Q.B.s e W ' | | ! ; p.q.+ # Z K H * <                   ",
"                    O t L k 8 t q N.#.- m m y ; M x.^.~.K.q.+.N.Q.~.Z.] q w b N e v A.V % - A U C $                     ",
"                    , % A C S Z % #.H.O.c B ..k.U.~.~.S.B q w e s.Q.~.R.m.8.Q v Q M.z.; f l G G 6 <                     ",
"                      & % C { Y 8 = ! ..7.D.Q.Q.Q.Q.L.B e ~ ( b ; n.Q.Q.U.Y.P.r. . .w 3 S L Y 6 $                       ",
"                        > * k Y Y h 6 5 @ / I./.Q.Q.C.- y g e x # e.Q.W.Z.A.y.= 3 5 9 G U S 7 &                         ",
"                          < & t G L I L f # 0.A.~.Q.R.e.^ o.8.` o.F.~.Q.Y.z.p - H L U H j 2 $                           ",
"                              $ * t Z L A 3 . 0.Q.W.Y.Q.E.W.~.^.Q.Q.E.Q.Y.V + g U G h - $ 2                             ",
"                                  & % 6 t 3 @ h./.B.&.E.Q.I.l.I./.B.$.I.E./ + t 7 % & <                                 ",
"                                      # + # + 7.P.9.s I.(.B.: N.(.n.- b.V.a $ + $                                       ",
"                                      $ * + & # M y a c.S.h.; h.B.y.- c q * % % +                                       ",
"                                    < e n 3 @ @ + . # = - ; # 6 - # % * t t * 7 t &                                     ",
"                                  4 # G G t % e 6 % @ + + + + + @ @ # % 1 * % z H % ,                                   ",
"                                  $ g H l * 5 A D # c ..Q M i i v i @ q j t % k J j &                                   ",
"                                0 + * z n # t A A $ 9.S.D.V.a.o.x.z.- f U A @ j A 1 + 4                                 ",
"                                & p m 6 % % n Z z # h.P.x.^ m ! b.P.d t =.{ * $ - N N #                                 ",
"                              > p z.m.s.M * P Z t w k.&.- # 6 + N c.! 1 { L q w y.m.M.B X                               ",
"                              o ` R.J.A.Q 3 =.Z 6 % : # & % 6 + # - - % H D g w n.U.R.o.o                               ",
"                              > e b.Q.I.v 6 >.U - u %.r.q.V M 8.v.e.B % n S C - N.W.x.w >                               ",
"                                & e 8.q.q f ;.{ % o.^.x.r.P.I.Y.K.I.z.% g K H # ^ ` q >                                 ",
"                                  O + + + l -.I % e 8.+.c @.q.V ` 0.v $ r U { % o o                                     ",
"                                  > * * + j >.J # * + + $ X X X o + # # f =.D &                                         ",
"                                        & % h j @ # +             $ # # r l # O                                         ",
"                                            & + @  .d O         > w X.w + & 2                                           ",
"                                            & i 0.K.y.$         + ^ R.i.Q $                                             ",
"                                            O ! P.K.V o         o w v.R.r.+                                             ",
"                                            O * c d $             & w M ; &                                             ",
"                                                o o                 O o                                                 "
};
