/* XPM */
static char *mleft_copy1709130845[] = {
/* columns rows colors chars-per-pixel */
"60 60 158 2 ",
"   c None",
".  c #17110F",
"X  c #0E1416",
"o  c #0E1917",
"O  c #0D151C",
"+  c #0F191C",
"@  c #151414",
"#  c #191516",
"$  c #1C1916",
"%  c #14161B",
"&  c #1B161B",
"*  c #13181C",
"=  c #1C191C",
"-  c #201B17",
";  c #221D1C",
":  c #25221E",
">  c #2A251F",
",  c #0C1722",
"<  c #0E1B22",
"1  c #0D1E29",
"2  c #131721",
"3  c #1F1722",
"4  c #121A22",
"5  c #1D1A21",
"6  c #101E29",
"7  c #201720",
"8  c #221C23",
"9  c #2A1E25",
"0  c #251E2A",
"q  c #291E2D",
"w  c #1D2325",
"e  c #252323",
"r  c #292523",
"t  c #2B2924",
"y  c #26212A",
"u  c #2A212D",
"i  c #2D2A2A",
"p  c #312C26",
"a  c #332E2B",
"s  c #35322C",
"d  c #39342D",
"f  c #3C382F",
"g  c #2D2432",
"h  c #2F2934",
"j  c #2F2739",
"k  c #322635",
"l  c #332936",
"z  c #322539",
"x  c #352B3B",
"c  c #392D3D",
"v  c #373533",
"b  c #3E3A34",
"n  c #39303D",
"m  c #3D3D3B",
"M  c #413B35",
"N  c #433E39",
"B  c #484037",
"V  c #46413D",
"C  c #4A433D",
"Z  c #372E41",
"A  c #3A2E42",
"S  c #3D2E49",
"D  c #3D3244",
"F  c #3E3249",
"G  c #403446",
"H  c #42344C",
"J  c #44394D",
"K  c #483A4E",
"L  c #453652",
"P  c #493753",
"I  c #463952",
"U  c #4A3A55",
"Y  c #4C3B5B",
"T  c #513D5D",
"R  c #4D3C60",
"E  c #513E62",
"W  c #454443",
"Q  c #4E4942",
"!  c #4C4C4B",
"~  c #524C44",
"^  c #514E4B",
"/  c #545247",
"(  c #52514D",
")  c #5B554B",
"_  c #53435E",
"`  c #525151",
"'  c #5D5952",
"]  c #655D54",
"[  c #676057",
"{  c #66615A",
"}  c #6C655E",
"|  c #70675D",
" . c #736A5F",
".. c #534263",
"X. c #584666",
"o. c #5C4A67",
"O. c #57456A",
"+. c #5A466C",
"@. c #5D4A6D",
"#. c #5E4A71",
"$. c #614B6D",
"%. c #66506F",
"&. c #614C73",
"*. c #644F78",
"=. c #625172",
"-. c #685077",
";. c #6C557C",
":. c #6D587C",
">. c #6E6962",
",. c #706B62",
"<. c #766F68",
"1. c #7B7064",
"2. c #7C746B",
"3. c #7F796D",
"4. c #80796F",
"5. c #837C73",
"6. c #8B8276",
"7. c #8B847A",
"8. c #938A7D",
"9. c #725982",
"0. c #938D83",
"q. c #979083",
"w. c #9B9184",
"e. c #9D9589",
"r. c #A2998C",
"t. c #A49D94",
"y. c #AA9F93",
"u. c #ABA294",
"i. c #AFA598",
"p. c #B1A697",
"a. c #B1A799",
"s. c #B1A99C",
"d. c #BCAD9E",
"f. c #B7ACA2",
"g. c #BAAEA1",
"h. c #BDB3A6",
"j. c #BDB4A9",
"k. c #C2B7A6",
"l. c #C7B9A7",
"z. c #C5BBAB",
"x. c #CBBEAF",
"c. c #CABFB0",
"v. c #CDC2B4",
"b. c #D1C4B5",
"n. c #D4C9B6",
"m. c #D4C7B8",
"M. c #D7CDBC",
"N. c #DBCEBB",
"B. c #DED1BD",
"V. c #E0D4BF",
"C. c #D8CFC1",
"Z. c #DED5C3",
"A. c #E2D5C2",
"S. c #E5D8C3",
"D. c #EADBC5",
"F. c #E6DAC8",
"G. c #EBDDC9",
"H. c #EFE3C8",
/* pixels */
"                                                                                                                        ",
"                                                                                                                        ",
"                                                                                                                        ",
"                                                                                                                        ",
"                                                                                                                        ",
"                                                                                                                        ",
"                                                                                                                        ",
"                                                            + * o +                                                     ",
"                                                    , * = w g x z k u 3 2 * +                                           ",
"                                              1 + 5 h K o.;.9.9.9.9.:.%._ G y 5 2                                       ",
"                                          < % 8 G o.:.9.;.:.:.9.9.9.9.;.-.=.@._ x 2 *                                   ",
"                                        o 8 K &.:.;.&.&.&.#.#.&.&.&.&.&.&.#.#.#.o.U g = *                               ",
"                                    4 = A $.;.*.&.$.+.&.#.+.&.#.#.#.#.#.#.#.#.#.&.+.Y D 8 *                             ",
"                                  * 0 _ *.*.#.#.#.#.&.&.&.#.#.#.#.#.#.+.#.&.#.#.#.+.R Y K y %                           ",
"                                * l @.*.#.#.#.#.#.#.&.+.&.&.&.+.#.#.#.#.#.#.#.#.#.X.Y T Y L u *                         ",
"                              * c $.&.#.#.#.#.#.#.#.#.#.+.+.&.&.&.#.#.#.#.#.#.+.+.T U Y Y Y L 8 *                       ",
"                            * j o.#.#.@.R X.+.#.#.+.+.#.&.#.#.#.#.#.#.+.&.&.#.+.E Y P L Y L I S = +                     ",
"                          + 8 ..#.X.I g q P T T R Y E E +.#.#.#.#.#.#.#.#.#.$.O.E Y G S Y U F I g *                     ",
"                          * F o.H q 5 y G Y Y Y Y Y Y Y R ..O.+.#.&.#.#.#.+.+.T T Y S k Y Y U U F = *                   ",
"                        4 w Y T F c G U Y Y Y Y Y Y Y Y Y Y Y R E O.E E E R Y Y Y Y A g U Y Y Y Y g %                   ",
"                        2 g Y U Y Y Y R Y R Y Y Y Y Y Y Y Y Y Y Y L Y Y Y Y Y Y Y Y Z q U P Y Y Y G 5 <                 ",
"                        2 A P K Y Y Y Y G z g u u j F I Y Y Y Y Y Y Y Y Y Y Y Y Y Y x q K z D Y Y Y g O                 ",
"                      6 5 H L H Y Y K g = & = @ % 5 = q S U Y Y Y Y Y Y Y P P P Y Y u 9 U x 0 I Y Y K 5 %               ",
"                      4 3 U U Y U z & ; C 2.6.Q = 8 Z l q A Y Y Y Y Y Y Y P H P Y G & g Y H & z Y Y Y F 5 *             ",
"                      4 q U Y F y # B 6.a.k.l.a.} ; 0 F I H Y Y Y Y Y Y Y Y P P U g # l Y U 9 9 H Y Y Y G 8 %           ",
"                      * y U S 3 e } u.k.x.h.h.a.f.<.; 0 K Y Y Y Y Y Y Y Y P H L A & & D Y U y = k S H I U S 5 *         ",
"                      * 0 z & s 6.g.x.r./ t : a ] r.| $ g I Y Y Y Y Y Y Y Y L D 5 @ 8 H Y Y u # & 8 9 q 0 5 &           ",
"                      1 * # s 0.k.m.q.r @ m >.[ N | e.~ % x I Y U Y Y Y Y Y H 9 ; & y U Y Y k %   4 * * %               ",
"                        < @ ' z.Z.p.t @ 9 ~ | 0.a.c.r.1.s = F Y P S L Y Y H 0 8 h & x Y Y U g ,                         ",
"                          % ) S.v.C @ = i s t e 5.F.x.r.5.; q H L H q x c 8 8 F g 8 K Y Y U j *                         ",
"                          O b s.) # i W ` ` ` v d x.D.c.s.^ & x L Y K q 8 u K H 7 k Y Y Y U y *                         ",
"                            e 2.p r ! ` ^ ( ` W r d.G.N.h.8.: q L Y Y P K Y Y z 7 K Y Y Y U 8 4                         ",
"                            2 [ ~ : V ( ( ` ` m t v.H.v.8.s.Q & D Y Y Y Y R F 8 x Y Y Y Y F =                           ",
"                            % C h.[ : s W ! ! e ) Z.H.z.C t.5.= k U Y Y Y Y g g I R Y L U x %                           ",
"                            2 a b.A.e.~ r > : B h.D.S.v.p 5.u.s 8 P T Y Y D y F Y Y Y F F 8 2                           ",
"                            O N N.G.D.N.p.7.8.v.n.k.H.u.- 2.t.d & H Y Y I g F Y Y Y I Z 8 *                             ",
"                            % 5.F.D.D.D.G.G.G.F.v.g.v.) $ } m @ & L Y Y S G Y Y Y L z 7 %                               ",
"                          , a x.D.D.D.D.D.D.D.A.e.| b # $ = = y q U Y U P Y Y L z 8 % 4                                 ",
"                          X ~ A.D.D.D.D.D.D.D.6.; . @ % 5 g F J F Y Y U L c g 5 % +                                     ",
"                          O / A.N.N.D.B.m.G.v.d o # $ i Z L L F A x g y 7 & $ = 4                                       ",
"                          O Q B.2.r.H.r.1.H.a.; & # & = 3 = = & & # = 3 # @ r t                                         ",
"                          , r 2.b q.Z.7.) Z.2.@ g u & q z g = # & # h L c 8 & = w                                       ",
"                            < % # a V v r N e & g l G G G g % c F 8 = G Y c % t w                                       ",
"                                      X O % 8 l D x y = & @ 0 X...D = 8 l y # ; 4                                       ",
"                                          % r c 8 3 8 g h & z @.P D y @ $ % : t                                         ",
"                                          , % & 8 n I Y S & F o.S U x & g 5 : e                                         ",
"                                            * = F ..O.#.D = J _ U H Z = l h @ =                                         ",
"                                            O 0 ..#.#.#.D = F I G Z A = h D # *                                         ",
"                                            o k #.X.@.#.Z = j F S x q # u U = *                                         ",
"                                            * A #.F U @.D % ; : ; > p = g _ 0 4                                         ",
"                                            * D @._ z Y x = 3.e.w.r.t.C ; _ u *                                         ",
"                                            & G X.@.Y x u ; u.A.N.B.C./ 3 ..x *                                         ",
"                                            & U @.#.#.o.G & ] m.S.n.7.: g _ D *                                         ",
"                                            = Y $.@.&.#._ q & M / f # 8 J I k %                                         ",
"                                            = y l S F G D x y @ @ @ % ; ; 2 @ *                                         ",
"                                              * % @ @ 9 ; # @ @ @ @ $ & *                                               ",
"                                                * r ,.0.d . p ' N $ = 4                                                 ",
"                                              4 = 4.f.Q - ] h.Z.z.b @                                                   ",
"                                                * e r * = [  .~ V 8 +                                                   ",
"                                                        O X % X O                                                       "
};
