/* XPM */
static char *right__1_1709130527[] = {
/* columns rows colors chars-per-pixel */
"60 60 188 2 ",
"   c None",
".  c #19140F",
"X  c #15110E",
"o  c #0E1314",
"O  c #0E141A",
"+  c #151415",
"@  c #191514",
"#  c #161917",
"$  c #1C1915",
"%  c #141519",
"&  c #1A1619",
"*  c #16191B",
"=  c #1C1B1C",
"-  c #231A15",
";  c #2B1B15",
":  c #221C1A",
">  c #231713",
",  c #321E15",
"<  c #2C2014",
"1  c #25221E",
"2  c #2A231E",
"3  c #33251B",
"4  c #3F2216",
"5  c #1D1D21",
"6  c #221E20",
"7  c #1E2122",
"8  c #1D2529",
"9  c #1F2A32",
"0  c #222125",
"q  c #2A2522",
"w  c #2F2925",
"e  c #24252A",
"r  c #282629",
"t  c #26292C",
"y  c #2A2A2D",
"u  c #262827",
"i  c #342D24",
"p  c #382E29",
"a  c #34312D",
"s  c #3A332B",
"d  c #383425",
"f  c #2C2D32",
"g  c #262D39",
"h  c #302F38",
"j  c #302E31",
"k  c #2E3135",
"l  c #2F3339",
"z  c #26313D",
"x  c #313236",
"c  c #393532",
"v  c #3E3834",
"b  c #31333A",
"n  c #3B3C3D",
"m  c #37383B",
"M  c #4A2814",
"N  c #402616",
"B  c #443A2C",
"V  c #493C2D",
"C  c #473525",
"Z  c #553E2B",
"A  c #493E31",
"S  c #433E3A",
"D  c #433D31",
"F  c #4A402F",
"G  c #4A4435",
"H  c #554A3B",
"J  c #5B4D3A",
"K  c #5C523D",
"L  c #2B3A45",
"P  c #2A3545",
"I  c #343640",
"U  c #363942",
"Y  c #3A3C45",
"T  c #333F4E",
"R  c #3D3F4A",
"E  c #413D43",
"W  c #3B4144",
"Q  c #3E414B",
"!  c #31434F",
"~  c #2E4253",
"^  c #3A465B",
"/  c #434244",
"(  c #4B4644",
")  c #42434D",
"_  c #414A4D",
"`  c #4A474D",
"'  c #5A524F",
"]  c #444652",
"[  c #474956",
"{  c #484A57",
"}  c #474A58",
"|  c #494A59",
" . c #484755",
".. c #4A5154",
"X. c #4D575E",
"o. c #53535D",
"O. c #5B5656",
"+. c #6B5B46",
"@. c #675A4A",
"#. c #615F5E",
"$. c #7A5F5A",
"%. c #77674D",
"&. c #7C6C53",
"*. c #7E7259",
"=. c #4E566B",
"-. c #565C63",
";. c #5A5C63",
":. c #5E5D6A",
">. c #595663",
",. c #4F5D78",
"<. c #545C74",
"1. c #615F6B",
"2. c #605E67",
"3. c #5C666E",
"4. c #5E6567",
"5. c #5C6A72",
"6. c #64646E",
"7. c #66696D",
"8. c #68686A",
"9. c #70726E",
"0. c #6C6B75",
"q. c #626778",
"w. c #677276",
"e. c #6B787F",
"r. c #717377",
"t. c #867454",
"y. c #8E7C5A",
"u. c #8A7661",
"i. c #947F62",
"p. c #928162",
"a. c #97826A",
"s. c #A28B65",
"d. c #A58E6A",
"f. c #A5916E",
"g. c #A8936B",
"h. c #A99574",
"j. c #AE9873",
"k. c #A79274",
"l. c #B49E78",
"z. c #BFA87F",
"x. c #B7A276",
"c. c #465E86",
"v. c #50668B",
"b. c #5F7090",
"n. c #6E7A82",
"m. c #6D7780",
"M. c #787C83",
"N. c #607292",
"B. c #75838C",
"V. c #6E8197",
"C. c #7E8D96",
"Z. c #768595",
"A. c #7888A4",
"S. c #808386",
"D. c #80919B",
"F. c #949898",
"G. c #A6A39C",
"H. c #8596A2",
"J. c #879AA3",
"K. c #8A9CA7",
"L. c #869DA9",
"P. c #899EAB",
"I. c #8AA0AD",
"U. c #9FA0AA",
"Y. c #9EA9B3",
"T. c #A3AAB5",
"R. c #BDBBB3",
"E. c #C5A982",
"W. c #CCB287",
"Q. c #D3B58B",
"!. c #DABB8E",
"~. c #D7B785",
"^. c #D9BD92",
"/. c #DEC192",
"(. c #E0C28C",
"). c #E4C895",
"_. c #E9CC99",
"`. c #F4D39C",
"'. c #FFDA9D",
"]. c #FDDAA2",
"[. c #FED7A1",
"{. c #B9BCC4",
"}. c #B9C1CD",
"|. c #C5C9CD",
" X c #C0CED8",
".X c #C9D2D9",
"XX c gray84",
"oX c #DDE1E2",
/* pixels */
"                                                                                                                        ",
"                                                                                                                        ",
"                                                                                                                        ",
"                                                                                                                        ",
"                                                                                                                        ",
"                                                                                                                        ",
"                                                    + X + + + o                                                         ",
"                                                % = r m U m j q : @ #                                                   ",
"                                            % @ x 2.0.6.6.1.:.>.) r @ @ @ +                                             ",
"                                          + @ E 0.6.| ] E Y h f r 0 6 = * # % +                                         ",
"                                          @ n 0.>.] R Y Y R E  .] ] ] ) R I f 6 & + +                                   ",
"                                      + + x 6.X.R E ]  .| } } } { { { } } | { ] U y = O O                               ",
"                            + + @ = 1 r f ;.>.]  .[ | [ }  .{ | [ } [ { { [ [ { { { E r # %                             ",
"                        @ @ u / o.2.1.:.>.o. .[ } [  .[ | } { [ [ | { { | { } { { { { [ b = +                           ",
"                      @ $ ` 0.0.4.o.| { [ [ [ { [ [ { [ { { { { { { { { { { [ { { { [ } } Y = @                         ",
"                    % = o.r.>.) Y ) [ { { { { [ | { { [ | { [ | { [ | { { { { { { { [ { } | U = #                       ",
"                    @ ) 1.E y f R  .} } { { { { [ | [ { { | [ { | [ { { | [ { | [ { { { {  .| b # o                     ",
"                  # = / r 5 h ] | } } } [ | { { { { | { { { { { { { { { { { { [ { [ [ { [ { } x @ O                     ",
"                  + & & # h  .| | [ [ [ { { { { { { { { [ { | [ [ { [ | { { { { { [ { [ [ { U = @ O                     ",
"                  @ # @ f  .{ } [ { { { { [ | { [ | { [ [ { { { | { { } | [ { { | [ { [ } ) 7 = e @                     ",
"                  * % 0 Q } | [ { { { { { { [ { { { { { { | { [ [ [ {  .[ [ } [ { { } { ) e @ 0 m & +                   ",
"                  % @ b } [ | } { { { { [ { | { { { [ { { [ ] [ { { { | [ [ [ [ [ } } ] e : y = U 0 %                   ",
"                  % 5 ) } [ { } { { { { | { [ { { [ [ { } R I ] }  .} } ] I ] [ [ { ) r & #.9.@ x e %                   ",
"                  @ y [ )  .| [ { { { { { { | [ [ | [ [ R l l ] { |  .] f f  .[ { ) e % & y 0 @ f f @                   ",
"                  @ b U b | [ [ [ { { { { { [ | { [ { Q l l l ) } [ ] b = b | | R 0 $ i V H V # k f +                   ",
"                  & b 0 b { }  .[ [ { { { { { [ [ [ ) b b b l Y [ ] U e # f f f 5 @ J k.E.Q.p.$ 0 5 #                   ",
"                  & 7 5 I { [ ) ] { { { { { } | [  .I l l f b U [ Q x = = f 0 + 2 1 1 H j.`.j.$ @ @ %                   ",
"                  + @ = I [ ] I Q { [ [ [ {  .} [ R l l h f h I Q b f # # 5 $ A a.l.p.B < j.f.. + @                     ",
"                  @ @ 5 b ] W l U  .[ [ Q ] } } ] I l l k t b b m l t * @ @ $ s G @.i.x.a.!.p.X o %                     ",
"                  @ @ 5 l Q b l b ) { Q b U  .} Q b l b f e k b l l 7 $ w : O.M.^ P g s s.].%.+                         ",
"                  # + = k b l l l U ] Y l l U ] Y l l b f 0 f b l x 5 2 s ' XXA.v.A.,.>.V /.J +                         ",
"                  # @ # k l l l k l U b h l l I I l l b k 5 f b l x = 1 0 G..Xc.,.r.P 5.d z.B +                         ",
"                  @ % @ u b f b b l l l b b l l l l l b x = t b b k = 1 q R.|.c.<.1 e q.s l.i O                         ",
"                      @ 6 x 0 y b l l l l l l l l b l l f 5 5 l b k = w 2 F.oXb.b.T =.7.F W.i O                         ",
"                      @ & t = 5 f b l b l b k l l l l b x 0 # f b k = p H S |.}.V.Z.Y.n t._.F %                         ",
"                        @ = = @ e l b l b l k k l l l k h e # e b b 5 q k.J D #.8.7.` B !.`.H +                         ",
"                          @ @ % & e l l l l y e x b b b b f & = y x e $ d.).d.t.%.%.y.Q.'.).B +                         ",
"                          % % @ @ # 0 k b l k 5 0 k x b b h 5 # 5 f y % +.`.'.'.'.'.'.'.'.g.$ O                         ",
"                            o O   % @ 5 f l b y * = y x b b f & @ 5 f 5 2 E.].'.'.].]._.f.i o                           ",
"                              O       + @ 5 t j e * & 0 f f k 7 @ @ $ 7 # J ).'._.~.d.K : O                             ",
"                                        % + # & 7 = @ $ & 0 f y 5 @ % & @ + H K B 2 @ o o                               ",
"                                              + # @ @ # @ + # 5 5 % @ & 2 = + X o +                                     ",
"                                              O % = $ # m ..5 @ @ % @ : $.' + +                                         ",
"                                              + 5 { = f m.J...# n [ 5 @ p ' $ %                                         ",
"                                              + W -.# ..B.P.n.= _ C.[ = = * +                                           ",
"                                            @ # -.Q 7 4.Z.L.C.f l J.B.8 L 8 +                                           ",
"                                            # = w.l t w.C.L.J.n e C.J.W g L +                                           ",
"                                          @ + t e.8 ..F.T.}..X0.= B.I.3.5 ~ = +                                         ",
"                                          + + m e.= / B.U.|.{.4.* n.P.Z.8 ! 8 %                                         ",
"                                        + w = Q n.= # : : 1 : @ 7 B.P.H.b z z %                                         ",
"                                        + q $ X.3.+ @.u.&.&.t.B 7 Z.L.P...9 L #                                         ",
"                                        # 1 # 3.4.@ k.(.~.!./.@.= B.P.P.5.8 ! * O                                       ",
"                                        q c @ ] ..@ %._.].].^.C y C.K.K.n.7 L 5 +                                       ",
"                                      % c v : * $ + @ A &.t.A . t _ W Y k @ * # %                                       ",
"                                      @ E G s i + . : 3 < ; < 3 $ @ : : # o                                             ",
"                                      % v S k 5 o + > C C V Z Z 1 $ - : +                                               ",
"                                        5 2 $     % @ > ; ; ; > . ; 4 > @                                               ",
"                                                    @ < M M M , . 3 N > %                                               ",
"                                                    # . , , , > @ @ > +                                                 ",
"                                                      # @ @ + % O O %                                                   "
};
