/* XPM */
static char *_ff35921f2a60e798b488025c05d524c[] = {
/* columns rows colors chars-per-pixel */
"60 60 186 2 ",
"   c #0C111F",
".  c #1D1614",
"X  c #1F1A17",
"o  c #151419",
"O  c #1A151C",
"+  c #1B1A1D",
"@  c #221D1D",
"#  c #1E1D23",
"$  c #221E22",
"%  c #242125",
"&  c #2A2627",
"*  c #24242A",
"=  c #2A262C",
"-  c #27282E",
";  c #2C2A2D",
":  c #322D2E",
">  c #32302F",
",  c #39332F",
"<  c #262730",
"1  c #2B2731",
"2  c #262931",
"3  c #2C2C32",
"4  c #242A39",
"5  c #322E34",
"6  c #322F39",
"7  c #2F3137",
"8  c #2D313B",
"9  c #343235",
"0  c #393535",
"q  c #35343A",
"w  c #3A353B",
"e  c #3C3A3D",
"r  c #403A36",
"t  c #423C3D",
"y  c #2C3240",
"u  c #333641",
"i  c #3C3741",
"p  c #353842",
"a  c #3D3C42",
"s  c #3D3E49",
"d  c #423E43",
"f  c #443F48",
"g  c #3F4043",
"h  c #3D414C",
"j  c #444146",
"k  c #494446",
"l  c #494846",
"z  c #45444A",
"x  c #4A454B",
"c  c #46484F",
"v  c #4C494D",
"b  c #504645",
"n  c #514C4D",
"m  c #56514E",
"M  c #5A504F",
"N  c #464651",
"B  c #464951",
"V  c #4D4C52",
"C  c #524E53",
"Z  c #4F5156",
"A  c #4E5159",
"S  c #545155",
"D  c #5B5555",
"F  c #5E5956",
"G  c #55545A",
"H  c #5A565B",
"J  c #56585D",
"K  c #5C5A5D",
"L  c #615C5E",
"P  c #695D58",
"I  c #565660",
"U  c #5C5660",
"Y  c #575961",
"T  c #5D5C62",
"R  c #5E5F69",
"E  c #615E63",
"W  c #645F69",
"Q  c #5F6062",
"!  c #5F616A",
"~  c #646165",
"^  c #696365",
"/  c #6D6866",
"(  c #656469",
")  c #6A666B",
"_  c #67686D",
"`  c #6C696D",
"'  c #716766",
"]  c #726A66",
"[  c #726C6C",
"{  c #786F6C",
"}  c #74706E",
"|  c #7A716F",
" . c #6B6670",
".. c #6E6B71",
"X. c #726E73",
"o. c #786F72",
"O. c #756F79",
"+. c #6F7072",
"@. c #747175",
"#. c #7A7475",
"$. c #7C7976",
"%. c #757479",
"&. c #7A767B",
"*. c #77787A",
"=. c #7C797C",
"-. c #837A76",
";. c #847975",
":. c #827C7C",
">. c #897D7B",
",. c #84827E",
"<. c #8B827E",
"1. c #7D7781",
"2. c #7E7C81",
"3. c #827E82",
"4. c #897E83",
"5. c #847F89",
"6. c #7F8084",
"7. c #848184",
"8. c #8A8484",
"9. c #8C8A85",
"0. c #868489",
"q. c #8A868B",
"w. c #87888A",
"e. c #8D8A8D",
"r. c #918685",
"t. c #948A85",
"y. c #9C8C84",
"u. c #908788",
"i. c #938C8C",
"p. c #918D8E",
"a. c #998E8B",
"s. c #94918C",
"d. c #9C918D",
"f. c #8D8791",
"g. c #8E8B91",
"h. c #928E92",
"j. c #988D93",
"k. c #958F99",
"l. c #969293",
"z. c #949194",
"x. c #9B9391",
"c. c #9B9494",
"v. c #9E9A96",
"b. c #969499",
"n. c #9A959B",
"m. c #9C9A9D",
"M. c #A1938D",
"N. c #A39693",
"B. c #A39996",
"V. c #A99B95",
"C. c #A1969C",
"Z. c #A39C9B",
"A. c #A19C9D",
"S. c #AC9E9C",
"D. c #A4A19B",
"F. c #ACA09E",
"G. c #B3A49A",
"H. c #9E9BA1",
"J. c #A29EA2",
"K. c #A4A1A5",
"L. c #ACA4A3",
"P. c #A6A3A9",
"I. c #AAA5AA",
"U. c #ACA9AA",
"Y. c #B3A6A3",
"T. c #B4A9A3",
"R. c #B9ACA6",
"E. c #B2AAAA",
"W. c #B9AFAC",
"Q. c #BEB0A5",
"!. c #B4B4AB",
"~. c #BCB1AD",
"^. c #ADACB0",
"/. c #B5B1B4",
"(. c #BAB3B4",
"). c #B6B5BA",
"_. c #BEB7BC",
"`. c #BFBDBE",
"'. c #C0AFAB",
"]. c #C0B2AF",
"[. c #C4BBB7",
"{. c #C8B9B6",
"}. c #C2B9BB",
"|. c #BDB7C1",
" X c #CCCBC5",
".X c #D1CBC5",
/* pixels */
"C V x ~ E S Z a K 8.<.-.>.t.8.,.>.F e @.p.A.m.l.7.7.8.8.8.^ ~ l.q.9.p.p.=.#.#.D e 8.$.@.3.~ / E #.C e ~ ^ H H 3.X.x S 3.",
"G S a K ( T c 7 J 7.#.:.>.#.{ $.:.v & @.:.q.8.3.3.7.3.3.8.K C p.3.#.7.l.:.[ @.S e e.^ #.$./ X.E #.v e 7.=.H x K ..J e V ",
"G B - 9 v j 2 2 c ` ~ [ 8.] #.@.@.x 9 $.@.#.#.$.=.=.$.&.$.K j @.k H X.#.K E [ v 9 L n @.~ L K G G q a 3.@.X.x d W q * s ",
"8 3 X.p.p.#.J - + d C n D K S S v 9 % v [ #.$.:.:.&.#.@.X.E t S j 0 & 9 t v v & $ : 0 e & j w ; d 9 a X.E E G J c j ( z ",
"Z q x.R.T.Y.E.k D x.a.N.[ x z z x ; & 0 0 j S L ( L S v S 0 @ t ; H ~ E L n v k 0 D 7.$.~ #.:.:.@.T * B V C c ; i q.U.t.",
"%.d >.N.G.y.a.D | Y.M.N.9.e * % % w m.E.h.e 0 k t 5 e H 7.7.q.E d z.U.A.J.l.7.$.v $.9.8.p.A.L.a.c.q.< 3 ( 9.&.C j E { ' ",
"T C @.<.t.>.>.F ] >.t.#.#.x L $.& h.U.l.A.L n j [ J.h.n.h.3.7.[ n =.=.$.9.7.$.$.k K ( $.7.7.p.3.q.( w ..Z.L.8.3.K j X./ ",
"G j K / / >.:.n >.#.#.$.( C 9.Z.F :.7.7.3.@.w j (.h.&.&.#.:.E K C 3.8.$.3.7.$.^ E K @.=.$.$.7.q.#.j d 8.<.<.>.:.E z ~ ~ ",
"B 2 c J K K ~ w v K v K J a @.#.F L 8.$.&.3.S D q.=.X.X.=.=.X.E k X.q.q.e.@.( ( E ^ &.:.3.#.&.&.` z d :.8.;.>.t.T s G G ",
"8 - p c g ; v X.~ L n v G 9 @.:.^ D &./ #.7.H n ` ` ` ..X.X...` j ` 3.7.X.K / ( E / =.=.&.( %...G d x =./ / >.8.W q 8 p ",
"s a S J 3 e ] B.c.d.x.c.p.v ^ [ ~ n L ~ X.:.H v ~ ~ ~ ~ ~ ~ ~ ~ C #.&.X.S K ( E ^ v H S d w d w j 3 d =.X.` ~ ( Y p A B ",
"J p V c 3 h.W.;.P -.-.] @.C ~ ~ S e x #.` #.K H K E E E E E E E w H / ( ( ^ H E L $ 5 9 e S ( #.( ( x V C x d C q 2 s ; ",
"p - z 3 e A.a.F.V.{ L ~ @.c G ( S w j ~ X.) e x S C C v x f d d = 5 k S x w j w ; O w C X.8.l.x.:.n.~ % % d D b ; L #.b ",
"s 2.A p c :.8.;.t.Z.@.e w + C v n 9 w e t e e 5 q q q q q q q q x v e & j ( &.E H & v ` &.3.:.3.a.9.x c h.(.[.E.8.B.E.F.",
"V G S z G @.| { #.B.7.% m ] k 0 e 5 x e $ E n.7.g...6 3.f.q.f.n.7.p.` ; &.J.h.q.e.d H 3.=.=.&.e.p.E C l.c.x.c.u.p.Z.:.8.",
"` S G w E X.8.#.^ / S 8..X[.E.8.n k &.X.$ e.P.q.3...e 5.n.n.3.W T W ~ S h.=.7.` ` S C K K V H T C ; ^ c.:.8.8.8.#.#.#.:.",
"~ V T C S X.&.E / L S E.D.d.c.m.c.:.E C S K ( X...) d ) 1.1.%.X.&...` ; ( 0...2.3.E 9 w j J v x ~ E j ~ p.8.:.:.^ ^ ^ ^ ",
"..T z H S ` S S ( j K L.s.9.9.9.&.h.#.e ..H H ..X.E i i C X.W T T J V w z V H G G 9 V 7.b.=.7.7.) ` e K 3.7.=.8.~ ~ ~ ~ ",
"W G f H E ~ K E ) q } D.9.9.9.7.#.&.) S d d d d d d i E U i w C j H G %.C d G V a 5 z.0.@.2.2...) %.C C ( &...) ~ ~ ~ ~ ",
"z z j G S K ..W G d =.p.9.p.e.7.&.X.~ H v = X.C 0.H.h.k.n.h.X.w W %.` ~ ~ H.e.0.&.d %.z.%.3.%...) X.z q ~ %.) E K K K K ",
"w i = j q x V z 9 C %.[ 9.8.8.7.@.` ( ` ( V C ) I.f.5.f.f.0. .( b.3.0.0.7.2...T T a ( z.2.2.%.~ ` ~ V * 9 v w w z z j a ",
"7.m.%.z H &.( w * ( X.E 7.=.,.7.` ` ( ( ..x w J.&.X.&.3.X.W ..2.%.2.%.` %.( ....` q ~ g.%.` ( ) E ( x a ` ` G ; * j ~ %.",
"v.p.=.v 8.e.w.X.6 W ` ~ ` ` #.#.#.X.X.X.` $ q q.W O...O.X.%...i S ~ ~ T ~ ( ~ @.) 3 V X.( T S c J ..e ~ ^.H.H.( 9 3.P.P.",
"8.=.@.w H :.$.S w V ~ E S C E ( ( T G C d $ O f H x U ) U C d i ~ S c q i j a a e * V G S G J c V 9 9 7.&.q.=.( e %.0.3.",
"x c z * s ( 0.W * 3 e a s c C G i e w e f C E ) ( G d q 1 ..h.g.0.2.H e 2.X.* z j * * a j a j q q * v =.%...@.` = 5 e z ",
"@.` j G ) w q z 2.3.&.` ( H p # x  .0.g.n.I.J.e.g.5.e.X.q &.2.( ..( C a e.~ ( ).K.g.V o G @.V C ..@.G ( #.` %.T d g.m.X.",
"!. X#.7.`.` O ( L.D.s.e.c.z.~ 5 2.|.P.n.k.=.2.X.X...) E d ..X.W W c i e c T H.q.z.e.0.a V 2.2.%.=.X.x K X.( ( d ( U.J.J.",
",.D./ S 7.S 2 2.:.,.,.$.$.,.X.G 3.5.q.g.q.2.X.) ) ( T E G ) W H S V ( ..* ` 3...=.T ( ..a V S c e = q i ; 5 a 1 ~ 0.m.g.",
"8.9.G ~ &.i q 3.` #.$.@.#.=.` G 5.3.2.&.%.X.X.......3.&.C 2.( H V V 7.G z 0.2.0...( ......* z 2.V 2.H.g.%.5 H G H ..0.g.",
"` %.H G ( q q T &.#.@.` ( K j = E E E E E E E E H H ~ C 5 H C V ; q J e %.q.0.0.%.( ` S ..z ( ( @.I.h.q.g...T a T ( X.=.",
"~ X.H V V = j = e j v v v c x z x w w x x w w x x V x x x x 9 j ( @.c S 2.7.w.0...( ( ` ( G q S g...7.&.2.) ..s G T ) %.",
"~ ( W i C h.n.7.e S #.e.n.H.K.I.I.&.+ 9 %.%.%.) =.2.3.J.J.H.T %.I.z.2.T ) ~ ` =.2.( ( ( ( c 3 7.2.=.%...( T J G J J T W ",
"%.%.G d g.b.7.m.c ..2.2.b.m.m.m.e.z.d S h.3.q.k.b.&.X.X.X.=.v X.7...&.J ( W ` 2.~ ~ ( ~ ~ z x 0.&.%.&.` G J Y G A J T ~ ",
") @.i S e.2.7.%.C T %.2.h.b.b.z.h.h.C E 3.%.3.3.h.0.=.#.#.` d E 7.` %.V E @.=.` T T T T H z q ~ ~ ! Y Y T T Y G A J ~ X.",
"d q * j =.0.) ..) S &.q.e.z.h.h.h.e.v G %.X.` X.3.=.%.&.3.X.v S #.` ..B J ..%.S J J J J S c 3 s p p h p p c c q 2 q p j ",
"n.%.1 z X.( V X.2.c &.g.g.g.g.q.q.0.x i W E H E ( E W ) ) H w q W _ R B G G J H H H H H S j * V G J ! ..@.@.%.2.0.g.g.h.",
"g.n.e j ) %.2.%.&.E =.0.0.0.0.3.=.=.f % f i d d q w d x 5 1 5 i 1 V p u Y B T  .J J J J J j z J.K.J.J.K.J.c.c.B.n.h.h.h.",
"( G 5 G X.......=.T W =.&.&.&.&.&.3.H x 2.` ` &.&.%.%.( & S n.I.q.2.q - j j 9 G p i i i j 9 ~ h.l.x.a.8.8.a.c.x./ ` @.$.",
"..T q G X.S ( ( #.~ v ` ) ..X.X.=.( w x n.n.m.n.k.q.3.X.q X.E.K.A./.=.j n.c.%.q T %.@.T 3 % 7.h.c.h.:.7.x.a.p.B.3.7.7.7.",
"..) s J 2.V E ) ..%.c H ~ ( ` ) E H 5 S h.h.h.7.3.=.#.` v ) n.u.d.B.3.D <.Z.%.g z.m.P.^.@.3 ` w.7.#.#.3.8.7.7.9.9.7.=.%.",
"X.T s V &.( ....( W j T ) E i d C T 6 H e.7.&.=.=.) E ~ C E p.#.p.p.<.F ] -.l z T g.7.m.2.9 K K ` =.=.7.w.q.7.=.w.7.=.( ",
"T B u s 1.) T W T s 9 (  ...G V ) W w E =.%.( #.3.` T K H S q.#.{ -.$.F { :.z g ( 6.7.0.c e K e 7.=.6.e.z.n.e._ =.=.=.( ",
"T z u y ! I B x p 9 # p Y G G H ) v 6 H ) X.` X.X.~ E ( E C q.$.$.$./ ; > l 7 z Z %.%.( # x ~ w Q ..*.w.7.0.z.*.*.@.%.` ",
"R s 4   3 q d d v ) &.T 5 q V w e 5 % d v x f C C x x x e 9 #.3.@.~ 0 s.Z.L & q Z J K v e S J T z G %.=.+.+.=.+.@.+.@.( ",
"N h y a 8.S.S.Y.Y.S.F.L.C q ~ w #.X.E E ) ~ ) ` S H j = w 9 6 v j % <.R.Q.R.L n 6.` j a V ; ~ +.T g ( _ ..%.T Z Q ( ( Z ",
"h p p ) L.{.'.S.M.y.N.d.#.&._.( X.h.n.n.J.J.J.K.h.b.q.G E K 1 i 9 K Q.G.y.G.>.v J ` S d a a e c G z V G J S j q z g g q ",
"p 2 s %.[ #.N.N.a.>.a.r.[ L p.c.E q.m.H.J.H.q.q.&.&.3.z a ~ j ; ; } r.V.d.>.:.S + 9 a c 9 ~ c ; * % + * * ; q * a a v v ",
"%.T g %.3.:.8.N.x.p.9.:.$.H 4.$.3.=.4.e.3.h.%.X.%.%.q.c v K.m.~ 9 ~ 8.8.>.:.{ K ; #.P.P.=.@.J @.G V e.2.6.z...j ~ 7.m.z.",
"%. .a T =.=.3.8.8.$.:.$.:.C X.3.4.X.&.&.X.X.4.7.&.%.&.v ` /.b.q.K v @.,.} } #.D q ..2.7.@.&.T ~ J b.K.m.e.n.b.T ( b.0.=.",
"..` V S %...@.` X.^ #.3.=.C x C t 5 f C C f v v c w q ; ( K.0.=.H > ` ,.,.:.,.D d ` ~ 2.%.X.x J @.K.1.( @.=.&.` z %.e.2.",
"( ( K z @.` X.~ ~ X.#.%.%.v = ) 4.3.H L L 8.o.` E J S q c &.%.@.K 9 l ~ ^ ~ ~ z q H S ~ W ..C T ..K.2.%.g.2.) ..V a g.%.",
"Q ~ ~ e @...@.( ( =.%.X.=.C x n.j.C.j.3.E.J.c.n.=.=.0.J e X.@.( K > e ~ x k ~ v 5 j d i q 5 5 = =.b...~ ` _ ~ ~ G c T 2.",
"Q S S e S ~ ` ( ( ~ ) X.=.C ( e.X.#.%.) 4.:.:.$...W @.G 5 ` ` K ~ t #.c.=.7.8.e.7.3.%.&.( q H d &.0.) ( ` X.` J J c c T ",
"S V ` a d x e T ( ) X.` #.x ( :.q.3.) X.H 3.4.#.&.` #.~ w K K L ^ 0 / $.#.#.K ` ) 3.&.%.) f 1.x ( =.) ( J G V V G a a G ",
"S S G ; * a j e x H S d k = 0 H C f H  .E C E E E H S x & ; t 0 t X t L / ] @.X.` ~ T T C = G i q z d V z i w z c 9 9 c ",
"3 q # g T j S q j k k t r r : d f w 3 1 e w w t d j w : @ : } ^ @ . , r t 0 z j d w j e d z ( E ( d = z V V d a = G G = ",
"~ _ z g.g.7.%.e K e.h.l.8.t.s.c.A.X.$ _ J.L.E.E.E.L.E.E.#.n 9.{ / { -.>.>.F & $ w m.K.( g.q.k.q.e.( o %.K.g.=.=.K z C E ",
"~ _ z 0.g.2.X.e #.K.L.L.c.B.F.L.(.7.w g.}.~.Y.S.F.F.Z.Z.L.^ t c.~.T.B.d.t./ $.@.x n.7./ P.7.=.q.&.H = =.z.g.0.%.q.v T g.",
"! ! j 2.0.%.` w [ A.Z.Z.t.p.d.N.L.c.z E B.S.R.].S.N.a.u.x.M b L.t.t.t.t.>./ 8.#.k q.&.X.K.3.&.%...C q 2.q.g.e.@.@.S ) =.",
"T Y s %.7.@.~ 9 [ m.Z.v.8.<.r.t.d.>.j 3.8.a.S.R.V.d.8.:.8.' D a.t.t.a.d.{ #.{ ^ t $.:.#.h.3.3.~ @.G 5 =.g.g.0.%.%.c ( 3."
};
