/* XPM */
static char *back__1_1709130526[] = {
/* columns rows colors chars-per-pixel */
"60 60 179 2 ",
"   c None",
".  c #1F180E",
"X  c #161514",
"o  c #191616",
"O  c #1D1916",
"+  c #16171A",
"@  c #191719",
"#  c #14191D",
"$  c #1B1B1C",
"%  c #151815",
"&  c #201617",
"*  c #251B14",
"=  c #2A1D14",
"-  c #221D1D",
";  c #2A1A19",
":  c #2C1719",
">  c #371F17",
",  c #30181B",
"<  c #391E14",
"1  c #2B2115",
"2  c #24221B",
"3  c #2B231B",
"4  c #2D2B1F",
"5  c #332215",
"6  c #34261B",
"7  c #3C2A1B",
"8  c #0F1D21",
"9  c #181720",
"0  c #141C23",
"q  c #1C1E22",
"w  c #141E29",
"e  c #181E28",
"r  c #201F23",
"t  c #0F212A",
"y  c #142125",
"u  c #1F2123",
"i  c #14222C",
"p  c #1B242B",
"a  c #152631",
"s  c #1B2731",
"d  c #1B2A33",
"f  c #1B2A39",
"g  c #232323",
"h  c #292524",
"j  c #2C2925",
"k  c #242529",
"l  c #28272A",
"z  c #26292B",
"x  c #2B2B2D",
"c  c #272825",
"v  c #322D2A",
"b  c #392921",
"n  c #34302D",
"m  c #2C2E33",
"M  c #2D2F39",
"N  c #302E31",
"B  c #2E3136",
"V  c #2F3239",
"C  c #333335",
"Z  c #3C3534",
"A  c #393A37",
"S  c #31333A",
"D  c #353A3C",
"F  c #3D3B3E",
"G  c #45331B",
"H  c #433B2B",
"J  c #403935",
"K  c #453D3C",
"L  c #493F38",
"P  c #4A3F37",
"I  c #722D2B",
"U  c #5A421B",
"Y  c #70541F",
"T  c #49423C",
"R  c #624D29",
"E  c #714F2F",
"W  c #6F522F",
"Q  c #60513F",
"!  c #7E5833",
"~  c #343641",
"^  c #363942",
"/  c #3A3C43",
"(  c #3B3E49",
")  c #3E4344",
"_  c #3E414B",
"`  c #424244",
"'  c #4C4443",
"]  c #41444E",
"[  c #444A4E",
"{  c #494A4C",
"}  c #554B45",
"|  c #444652",
" . c #4A4750",
".. c #474956",
"X. c #484A57",
"o. c #474A58",
"O. c #4A4B59",
"+. c #514951",
"@. c #4C515B",
"#. c #4F585C",
"$. c #52525C",
"%. c #595559",
"&. c #545A5E",
"*. c #5D5B5E",
"=. c #565456",
"-. c #605240",
";. c #685B5A",
":. c #7B5651",
">. c #65625D",
",. c #7C6957",
"<. c #716552",
"1. c #4F5960",
"2. c #4F5261",
"3. c #545461",
"4. c #585762",
"5. c #535C63",
"6. c #5A5C63",
"7. c #5B5B69",
"8. c #5A626A",
"9. c #576367",
"0. c #5D6870",
"q. c #616365",
"w. c #64646C",
"e. c #69666D",
"r. c #6E696F",
"t. c #666672",
"y. c #646C73",
"u. c #6A6972",
"i. c #6E6E79",
"p. c #706D76",
"a. c #716F7A",
"s. c #6D777E",
"d. c #72727D",
"f. c #71767A",
"g. c #885F35",
"h. c #8A6928",
"j. c #9C7425",
"k. c #8B6237",
"l. c #896338",
"z. c #936435",
"x. c #9E7833",
"c. c #85745B",
"v. c #827E7A",
"b. c #D39C34",
"n. c #988263",
"m. c #A28E6E",
"M. c #A79270",
"N. c #AF9973",
"B. c #B29B75",
"V. c #BDA47D",
"C. c #C4AB7F",
"Z. c #6F7F85",
"A. c #7C7E82",
"S. c #727D87",
"D. c #7F8286",
"F. c #77858D",
"G. c #7B8A93",
"H. c #828486",
"J. c #85898D",
"K. c #918784",
"L. c #889298",
"P. c #95989A",
"I. c #B7A683",
"U. c #879EAE",
"Y. c #8A9DAA",
"T. c #889BA6",
"R. c #8AA0AD",
"E. c #94A4AD",
"W. c #9DA0A3",
"Q. c #A3A9AD",
"!. c #A9AFB3",
"~. c #B4B9BA",
"^. c #D8BC8B",
"/. c #FEDDA3",
"(. c #BFC2C9",
"). c #C4CACD",
"_. c #C7CCD4",
"`. c #C9D0D8",
"'. c #DAE3ED",
/* pixels */
"                                                                                                                        ",
"                                                                                                                        ",
"                                                                                                                        ",
"                                                                                                                        ",
"                                                                                                                        ",
"                                                                                                                        ",
"                                                            w w w w w                                                   ",
"                                                    w # # u g x v x k u 9 # 0 i                                         ",
"                                                i # r J %.e.p.a.d.a.i.e.6. .C r # 0                                     ",
"                                        w w w 0 + / w.S.a.t.7.3.$.3.3.7.w.u.p.w.{ l # w                                 ",
"                                    0 9 k m N m  .a.w.3.X.X.o.o.X...o.| ..o.O.6.u.t. .g #                               ",
"                                w 0 l =.t.u.t.t.w.$.| ( | X.o.o...o.X.o.....o.....3.t.q.S # t                           ",
"                              0 # ` p.w.O.X.X.| _ ~ ~ _ ..X.X.X.X.X.X.o.X.X.X.X.....X.&.w.` + w                         ",
"                            0 r %.i.7.o..._ ^ ^ ^ ( | o.X.X.X.X.X.X.X.X.X.X.X.X.o.X.X...X.6.` $ w                       ",
"                          0 g *.i.@.o...X.| ....o.o.X.X.X...X.X.X.X.o.O.X.X.X.X.X.| ( ~ / ( O.D #                       ",
"                        t q *.u.O.......X.X.X.X.o.X.....X.X.X.X.X.X.o.X.X.X.X.X.X.X. .~ k $ g x q #                     ",
"                        # +.i.O.o...X.X.o.o.X.X.X.X.X.X.X.X.X.X.o.X.o.X.X.X.X.X.X.o.X.X.] N $ o o X y                   ",
"                      0 N u.@.X.X...X.X.o.O.X.X.X.X.X.X.X.X.X.X.O.X.X.X.X.X.X.o.X.X...X.X.o.~ $ X 0 # i                 ",
"                    t $ 4.4.X.X.X.o.X.X.X.X.X.X.X.X.X.o.X.X.X.X.X.X.X.X.X.X.X.o.X.X.X.X.X.X.X.~ $ w                     ",
"                    0 Z 7.X.X.X.o.X.X.X.X.X.X.X.X.o.X.X.X.X.X.X.X.X.X.o.X.X.X.O.X.X.X.X.X.X.X.| B X                     ",
"                    # X.O.X.X.....X.X.X.X.X.X.X.X.X.X.X.X.X.X.X.X.X.O.X.X.X.X.X.X.X.X.X.X.X.X.X.] g #                   ",
"                  i g $.......X.X.X.X.X.X.X.X.X.X.X.X.X.X.X.X.X.X.X.X.X.X.X.X.X.X.X.X.X.X.X.X.o.o.D #                   ",
"                  0 v O...| X.o.X.X.X.X.O.X.X.X.X.X.X.X.X.X.X.O.X.X.X.X.X.X.X.X.X.X.X.X.X.o...| X.] q 0                 ",
"                  # N ] B ] X...o.X.| X.X.X.X.X.X.X.X.X.X.o.o.o.X.X.X.X.X.X.X.X.X.o.| X.X.X.X.| ( ..m #                 ",
"                  # m z k ..o.o.o.X.X.X.o.o.o.X.X.X.X.X.X.X.X.X.X.X.X.X.X.....| o.X.X.o.o.X...| g _ D +                 ",
"                  9 q + z ..o._ X.o.X.X.o.o.X.o.X.X.| X.X.X.X.X.X.X.X.X.X.| ....X.| X.X.o.o...( g g S @                 ",
"                  9 o X k _ | S ] X.X.| | X.o.X.X.o.X.X.X.X.X.X.X.X...X.X.X...X.o.X.| ( X.| ] S k + g @                 ",
"                  e X X g S ^ V S ] X.| ~ ( X.X.X.o.| | X.X.X.X.X.X.X.X...^ _ X.X.] ~ ^ X.] ~ V z X o +                 ",
"                  i w + g V V N S S ] ( V S ^ | X...( ~ | X.X.| o.| X.| / S ( | ( ~ M ~ ^ S S S m X X @                 ",
"                      $ - V V S S M S S S M S S ( | ~ V ~ | X.X.o.X.| ~ V S S S S S V S V V V S x @ o #                 ",
"                      0 $ m S S V V V S V V V V S D S S V ~ ] | | ( S V V V V V M V S S V S V V z o p w                 ",
"                      a + x S V S V V S S S V S S S S V V S S ^ ~ S V S B S V S S S V S S V V V k +   d                 ",
"                        0 g C V V V V V V V S S S V V V V S V V V V S V S V S S B S V S V m S V q 0                     ",
"                        i + x V V S S S S S V V V V S S S V V C V V C V S V V V V V V V S S V x $ i                     ",
"                          0 $ m V S V B m S V B V V V S V S S S S S V V S V S S S V V V S S m $ 0                       ",
"                            # $ V V V k z S V V V V V V S S V V V V S V S M S S m z V S S m q #                         ",
"                              + $ x x $ $ l S V V S V V S V V S S V V S V V S m q k C S m $ # a                         ",
"                                0 + O c X $ k B C V V B V V S S V V V V B S x $ X g B g # 9                             ",
"                                  0 A v.' @ % u z B V V S S V V S V V S N k # X X $ $ + i                               ",
"                                  f k %.K.>.2 % O $ z B S S S V S C B z q o $ o X # w                                   ",
"                                      u K f.>.. Y h.* + g k x m k r O X X X O # w                                       ",
"                                        u j c U b.j.3 - X + @ @ - - : , O X % y                                         ",
"                                        9 X G x.h.1 Z ' v @ X * ;.:.I I b o x g e                                       ",
"                                      $ k - R l.5 c T } K @ x g r 3 : : & X D 9.q p                                     ",
"                                    i p s.[ . 1 - C Z T v $ P.q.X o @ S { A q F.&.# f                                   ",
"                                    q f.E.) # B q v A n O F ~.) + N O D y.5.X 9.E.{ q                                   ",
"                                  w j ).`.A C y.g X 4 c o w.H.$ $ j o + x 9.$ *.'.L.% s                                 ",
"                                  O o F q.q u u 2 $.) X k H.` X X C D.A.$ C x C 9.j $ #                                 ",
"                                9 H ,.T o % g &.Q._.D.O N ) $ l 6.W.P.{ O - - X 4 Q ,.4 y                               ",
"                                $ M.^.M.3 F !.).W.{ $ g O X ) D.f.) $ O Z Z - X <.V.^.,.$                               ",
"                                - B./.C.1 X.J.` $ p #.F.8.k g A O O X v ' } T v b C./.c.%                               ",
"                                # H N.I.j O $ B 5.G.Y.U.T.S.D % $ h X n J ' } } h -.n.b y                               ",
"                                  0 q j O g 9.G.T.U.Y.Y.Y.U.T.1.k $ @ v J J K } K o + y                                 ",
"                                      z 0 $ z C / [ @.#.9.9.7.9.) l q @ h n Z J L 2 d                                   ",
"                                          p X 1 7 5 1 * X X 9 o O ; 6 6 3 * r h c 0                                     ",
"                                            # G k.k.k.E 1 0   9 3 W k.z.! 6 + e p                                       ",
"                                            w o 3 6 7 = X p   p o = 7 7 1 o e                                           ",
"                                            i o < < 5 . +       # * > 5 = X p                                           ",
"                                              0 o = = o w       e o = = O #                                             ",
"                                                e 9 # p           i 9 $ w                                               "
};
