/* XPM */
static char *_cf9412ba98648f5a883e08a168dde91[] = {
/* columns rows colors chars-per-pixel */
"60 60 233 2 ",
"   c None",
".  c #030203",
"X  c #0B0200",
"o  c #0B0904",
"O  c #02040C",
"+  c #0A040D",
"@  c #070909",
"#  c #120201",
"$  c #1B0201",
"%  c #160B08",
"&  c #14130C",
"*  c #1A110A",
"=  c #1A1006",
"-  c #090811",
";  c #150E16",
":  c #1A1614",
">  c #0A1011",
",  c #230001",
"<  c #2B0704",
"1  c #320001",
"2  c #3B0104",
"3  c #261309",
"4  c #380B10",
"5  c #241B1A",
"6  c #251615",
"7  c #341A17",
"8  c #331E0B",
"9  c #2D231C",
"0  c #24241A",
"q  c #34241B",
"w  c #3D2C1C",
"e  c #392A17",
"r  c #3C321D",
"t  c #37311B",
"y  c #362B0B",
"u  c #1A1D22",
"i  c #251F22",
"p  c #262424",
"a  c #2C2825",
"s  c #322525",
"d  c #332A23",
"f  c #3C2D23",
"g  c #352A28",
"h  c #3D3322",
"j  c #35322B",
"k  c #3C332B",
"l  c #39372A",
"z  c #372E31",
"x  c #3B3533",
"c  c #3B3936",
"v  c #2A2F2F",
"b  c #1B2422",
"n  c #581716",
"m  c #4C1110",
"M  c #740A0C",
"N  c #78070E",
"B  c #65120F",
"V  c #680D13",
"C  c #7C0E16",
"Z  c #681416",
"A  c #781319",
"S  c #6C0D0E",
"D  c #422E1D",
"F  c #4B2C1C",
"G  c #422916",
"H  c #5D251B",
"J  c #522C1E",
"K  c #43311E",
"L  c #443517",
"P  c #5D1D25",
"I  c #691B24",
"U  c #791B23",
"Y  c #422E21",
"T  c #4C2C22",
"R  c #472D2B",
"E  c #552527",
"W  c #433223",
"Q  c #4A3424",
"!  c #42342B",
"~  c #4B342C",
"^  c #4C3B2D",
"/  c #453928",
"(  c #533C2C",
")  c #55382A",
"_  c #443B34",
"`  c #4D3B34",
"'  c #453D3C",
"]  c #473937",
"[  c #573C38",
"{  c #76242D",
"}  c #663D2A",
"|  c #782734",
" . c #65393A",
".. c #6F2A32",
"X. c #3F403B",
"o. c #56412C",
"O. c #44423C",
"+. c #4C4237",
"@. c #5C4434",
"#. c #54443B",
"$. c #5E453B",
"%. c #5E4A3C",
"&. c #574838",
"*. c #65422E",
"=. c #69432B",
"-. c #644534",
";. c #6A4534",
":. c #644935",
">. c #6B4936",
",. c #634639",
"<. c #6A463A",
"1. c #644B3B",
"2. c #6B4B3A",
"3. c #724635",
"4. c #734A35",
"5. c #724C3B",
"6. c #7A4E3A",
"7. c #794B37",
"8. c #6B503D",
"9. c #69503B",
"0. c #7A513C",
"q. c #76432E",
"w. c #463E41",
"e. c #583D42",
"r. c #653E43",
"t. c #4B4543",
"y. c #4D4B49",
"u. c #494744",
"i. c #5E4C42",
"p. c #554948",
"a. c #5C524C",
"s. c #57534A",
"d. c #5B5453",
"f. c #5A5657",
"g. c #514C4D",
"h. c #634D42",
"j. c #6B4C42",
"k. c #674A4A",
"l. c #6B5244",
"z. c #6C534A",
"x. c #67574A",
"c. c #785547",
"v. c #635C5C",
"b. c #6A5C5C",
"n. c #665656",
"m. c #745A5A",
"M. c #684C54",
"N. c #6B625C",
"B. c #64625B",
"V. c #76645B",
"C. c #585965",
"Z. c #685B63",
"A. c #7F5C66",
"S. c #6B6665",
"D. c #796A65",
"F. c #75736D",
"G. c #756D75",
"H. c #777378",
"J. c #810B0E",
"K. c #9B0C0D",
"L. c #940E0D",
"P. c #9D110F",
"I. c #8A0D13",
"U. c #840E17",
"Y. c #950E13",
"T. c #9A0D12",
"R. c #910F19",
"E. c #831114",
"W. c #82131B",
"Q. c #8B1319",
"!. c #941114",
"~. c #961219",
"^. c #A10A0F",
"/. c #861824",
"(. c #911821",
"). c #812B38",
"_. c #82503B",
"`. c #802F40",
"'. c #835543",
"]. c #855C4B",
"[. c #8C5D4C",
"{. c #885945",
"}. c #925D49",
"|. c #8B624E",
" X c #85604D",
".X c #94624D",
"XX c #99624D",
"oX c #8E6454",
"OX c #966552",
"+X c #9A6452",
"@X c #9A6D5A",
"#X c #986C57",
"$X c #805863",
"%X c #896A65",
"&X c #88726B",
"*X c #987567",
"=X c #897675",
"-X c #947977",
";X c #986C6A",
":X c #A47F77",
">X c #9A847B",
",X c #AE867E",
"<X c #797985",
"1X c #867C84",
"2X c #987984",
"3X c #A07682",
"4X c #7F828E",
"5X c #8A8584",
"6X c #9A8783",
"7X c #848693",
"8X c #A38882",
"9X c #B09891",
"0X c #BEAA9F",
"qX c #B9BAB9",
"wX c #A2A4B3",
"eX c #C39C92",
"rX c #C8A699",
"tX c #D2AB9C",
"yX c #D8AEA4",
"uX c #CAB4AA",
"iX c #D6B5A9",
"pX c #CBB7AF",
"aX c #E2BAAE",
"sX c #CBC2BC",
"dX c #F4C8BB",
"fX c #C2BED1",
"gX c #C8C4C5",
"hX c #D3D3CF",
"jX c #C8CAD6",
"kX c #D4CED4",
"lX c #FDD6C8",
"zX c #F0DDD7",
"xX c #E0E0E9",
/* pixels */
"                                                                                                                        ",
"                                                                                                                        ",
"                                                                                                                        ",
"                                                                                                                        ",
"                                                                                                                        ",
"                                              f f d d d q f k d j a                                                     ",
"                                              W W Y W W Y ~ ` k s d t.                                                  ",
"                                    k _ ! ^ W 1.%.@.1.1.$.h.i.[ X * X # X X o o X & . u.                                ",
"                                  ! d h f w ( %.1.:.1.-.l.1.h.` # # # X X X X X X . X x hX                              ",
"                              _ #.+.i.&.1.@.@.-.-.-.2.2.-.F ) ( [ #.#.#.#.#.#.+.#.#.#.x 5 5 i 5 & S.                    ",
"                            f q Y 1.%.@.8.:.:.>.>.-.>.:.-.G G Q 1.h.h.h.1.h.h.h.h.h.i.` X # # X X y.                    ",
"                    j   b.D.#.$.,.2.-.2.>.*.>.2.>.>.-.-.8.-.-.@.1.,.,.2.2.-.-.1.1.1.%.i.` [ ] ] ' x t.a S.              ",
"                : . . +.n.#.h.l.-.;.;.5.*.;.>.-.-.2.>.;.2.>.2.2.2.<.2.2.;.;.>.;.-.-.j.1.h.k.n.n.F.9 . . u.              ",
"                x 5 9 9 q 3 ,.[ 5.[.].c.;.5.>.5.>.>.-.;.2.-.-.,.2.2.2.-.} 5.].'.c.>.2.<.1.h.` 9 * O.5XF.                ",
"                t._ ! # # $ @.2.;.[.@X|.3.} } >.2.,.-.2.2.2.5.2.;.;.>.*.} 6..X.X{.4.} <.l.z.f # X p.                    ",
"                p.s ! f 7 7 c.c.'.}.#X#X{.0.'.>.;.>.>.2.;.;.2.*.5.;.6.{.0._..X+X[.'.c.c.-.j.( 3 = s.                    ",
"                i.q Y z.z.j.oX@X+X+X+X.XOX#X[.7.;.3.;.;.4.>.;.;.5.} 7.#XOX#XXXXX+X#X@X].5.-.@.W w D.                    ",
"              9X#.` Q @.2.>.].].{.XX+XXX.XOX{.7.7.6.6.0.0.;.*.5.7.3.'.{._.}.XXXX+X[.[.c.} c.) ~ f N.                    ",
"          O.: d ^ x.:.-.-.} =.4.q.}.+XOXOX@X@XoX@X#X#X#X|.5.;.5.@X#XOX7.} _..X@X'.} ;.5.) c.,.z.x.+.9 6 S.              ",
"          y.0 l +.l.@.*.5.>.=.=.3.[.}.{.[.|.|.|.|.].]. X'.>.;.>. X|.].*.;.6.{.{.{.3.;.5.1.1.@.^ +.+.k g F.              ",
"          b . . &.i.%.:.>.4.=.4.} 4.3.} ;.;.*.>.;.;.;.>.>.;.;.;.;.;.5.*.5.5.3.3.5.;.<.,.j.j.~ # X * ! p S.              ",
"          v . . _ &.%.h.@.-.*.5.;.3.;.;.5.>.;.5.>.>.5.>.;.;.2.>.2.>.2.;.;.;.;.5.5.-.j.,.@.z.w X = # _ 5 S.              ",
"          p . o a x k i.h.j.j.<.2.2.2.2.>.;.;.;.,.,.>.>.*.;.>.;.>.,.>.2.;.2.;.2.<.) j.j.$.z.` W h * * X d.              ",
"          g . % s _ s i.k.$.k.j.<.2.2.<.;.>.2.;.2.,.;.>.;.>.2.-.2.>.;.2.-.2.;.,.2.2.1.1.@.h.&.w w d X X t.              ",
"          b.' p.* * # ! R R [ j.<.<.2.2.2.2.2.,.2.>.;.;.;.;.;.;.2.:.>.>.-.:.;.>.,.,.1.1.$.h.( Y W q X X g S.f.          ",
"            n.n.$ $ # 7 ~ w h.l.,.2.2.<.,.<.2.2.<.2.>.>.;.>.;.>.-.-.2.>.>.2.2.2.2.-.,.1.1.l.@.Q Q 3 # X s S.w.=X        ",
"          x 6 6 D.8X-X@.e D o.L Q ,.j.,.1.2.<.<.<.,.<.2.2.2.2.>.>.:.2.:.:.:.-.:.:.@.:.@.Q Q Q Y w 1.-X6Xp.6 % S.        ",
"          s X # 9XrXiX) G L y y K @.h.h.l.1.-.1.1.1.2.2.2.2.2.2.2.:.>.:.:.9.:.2.1.:.l.@.D G Q Q e V.uXhXF.X . f.        ",
"          s % $ >XuX9X) G L L L K ( ( ( ( ( ) 1.-.,.,.,.1.1.1.1.:.-.-.@.:.@.Q Q ( Q ( Q w D Q D D x.0XuXN.X o Z.        ",
"          5 X X 9XuXiXQ D e e L K D w w D D Q ,.2.2.j.j.2.9.9.2.8.8.8.1.9.@.D e W w W w D W W D 8 z.pXsXD.X X g.        ",
"            d.n.N.V.V.#.^ ( w Q D D w K K D Q ( ( ( ( ( ( ( ( ( ( ( ( ( o.^ w w W w W w W w W o.o.%.z.V.x.v.v.5X        ",
"                % X X p.x.x.~ D r r r K w w D D D D D D D D D D K L D e D W w W W r h w W w ^ z.z.w $ X p.              ",
"                d.' ' ' g _ ! w W t r r W W W w Y W W W W Y D D K W w W Q W W h t r t w W W ~ f _ _ t.' F.              ",
"                      & X X 9 h t r W W w W Q W W h h h h W K K r h w W W w W h h t / / q f 6 # X w.  qX                ",
"                      z : a j f t r w W w W w w h h h h h t t t h h t h f w w w W h t q k _ 9 d & S.                    ",
"                        gXgXy.d ! W w f W W W W W W W h h h h h t r h W W W W Q w ! ! k k 0 N.hXhXgX                    ",
"                          pXx d f W W d h f W W Y Y Y D K K r r K K K W Y W f W ! f k l a 0 S.hXqX                      ",
"                          gX: X % 9 k d h ! W Y T T F F F F F F J J F D D W Y W h f k a . . c hXsX                      ",
"                        gXgX: X o g j k d ! Y T E E H H H H H H n n H J T ) W Y h k j p . @ x xXqXgX                    ",
"                      c : p x w.x g.O._ % $ , n n n B B B B B B Z B Z n m m < $ 6 +.y.X.c y.g 5 & d.                    ",
"                      & . . y.u.y.w.t.p.$ , 2 n B S M M M N N N N N S B n m 1 , 3 k.t.O.g.u.g X X t.                    ",
"                O.O.j s.y.d.s.f.v.p.w.e.4 n n Z A E.U.I.I.I.I.I.R.R.E.M Z Z n m m e.' g.f.v.d.a.p.] ! g D.              ",
"                % X X s.N.n.N.S.Z.p.e. .P I V C Q.R.!.Y.Y.Y.Y.!.Y.Y.I.J.E.A V Z P k.e.f.B.B.S.n.D.! # # p.              ",
"            F.=XD.&XV.>X6X>XD.b.Z.s 7 m I U W.I.R.Y.T.T.T.T.T.T.K.T.!.!.R.E.C A I 4 7 j S.B.D.>X8X*Xm.&X%X=X=X          ",
"          m.k.[ eXyXrXrXtXuXV.m.b.# $ 1 I C (.~.T.T.K.K.K.T.T.T.T.T.K.L.Y.R.R./.I 1 # : F.a.>XiXrXrXrXiX8X~ [ =X        ",
"          A.k. .rXyXaXtXyXiXj.m.N.X , 2 { E.~.T.K.K.K.K.K.K.K.T.K.K.K.L.K.Y.R./.Z 1 $ & B.x.%XaXiXtXaXaX:Xj.[ =X        ",
"          M.r. .dXlXlXlXlXlXz.h.s.o $ 1 A Q.Y.T.K.K.K.K.K.K.^.^.K.K.K.P.P.L.I.W.Z 1 # 0 a.#.;XlXlXdXlXlX,X .h.&X        ",
"              %X  tXrXrXrXrX@.! l & 7 m Z W.J.!.Y.K.Y.Y.Y.Y.T.T.Y.Y.Y.L.!.I.W.U P 4 6 5 ! R c.yXeXrXyX                  ",
"                        ~ [ # X . O.#.[ n n V W.W.U.U.U.U.W.C C W./.W.A /.A m n E [ M.z X # 3 ) [ ,.                    ",
"                          b.* X @ y.d.k.R E ....| | | ).| { { | | `...| I .. .E e.M.g.w.. . s &X                        ",
"                            o @ O H.4X<X1X2X1X2X2X2X2X3X;X$Xm.$X2X2X-X8X-X=X6X=X1X<X7XC.O @ y.                          ",
"                            : . O <X7X<X7X7XH.<XH.G.H.H.G.Z.v.Z.G.G.G.H.F.5X1X<X<X4X4XC.- . c                           ",
"                            : . ; fXfXjXjXjXjX- O O O - + + + - ; ; + + . v xXjXjXjXjXwXO + t.                          ",
"                            > . + kXkXgXkXkXqX> . . . . . . . . . . . . + a kXjXkXjXxX7X. .                             ",
"                                  ; u a p p p                               @ v u v b                                   ",
"                                  @ . . . . o                                                                           ",
"                                                                                                                        ",
"                                                                                                                        ",
"                                                                                                                        ",
"                                                                                                                        "
};
