/* XPM */
static char *_fc05d1bc8d04eaf8417ca9aeb1676358qSrJpKxjrom1HoO[] = {
/* columns rows colors chars-per-pixel */
"60 60 249 2 ",
"   c None",
".  c #120B00",
"X  c #261300",
"o  c #251800",
"O  c #301C00",
"+  c #2B2600",
"@  c #3B2800",
"#  c #4C3300",
"$  c #4B3607",
"%  c #514513",
"&  c #735001",
"*  c #7F6304",
"=  c #6A542F",
"-  c #75654C",
";  c #9D4E00",
":  c #A55400",
">  c #A95500",
",  c #AD5C00",
"<  c #B45E01",
"1  c #A54C00",
"2  c #886D18",
"3  c #8E7111",
"4  c #BB6500",
"5  c #B86801",
"6  c #BC7500",
"7  c #B87500",
"8  c #AA7511",
"9  c #9B7B28",
"0  c #8D7532",
"q  c #C26D05",
"w  c #C26C0B",
"e  c #C26607",
"r  c #C37501",
"t  c #CB7502",
"y  c #C37B00",
"u  c #CB7B03",
"i  c #C5790A",
"p  c #D27C07",
"a  c #C77D14",
"s  c #CA7917",
"d  c #D47D16",
"f  c #C66D15",
"g  c #A27E44",
"h  c #BE8202",
"j  c #A9871D",
"k  c #B88D1F",
"l  c #9D8026",
"z  c #A88B28",
"x  c #BA9526",
"c  c #B48E2F",
"v  c #BEA23F",
"b  c #CC8403",
"n  c #CE8A04",
"m  c #CD8A09",
"M  c #C88107",
"N  c #D28403",
"B  c #D28C03",
"V  c #DB8C05",
"C  c #D4840B",
"Z  c #DB860C",
"A  c #D58C0B",
"S  c #DC8B0D",
"D  c #DA8607",
"F  c #CD950A",
"G  c #DC9B05",
"H  c #D5930D",
"J  c #DC950C",
"K  c #DD9A0C",
"L  c #D89604",
"P  c #CD8B13",
"I  c #D58313",
"U  c #DB8512",
"Y  c #D38C13",
"T  c #DC8B13",
"R  c #DD851B",
"E  c #DD8B1B",
"W  c #D48C19",
"Q  c #D49112",
"!  c #DB9313",
"~  c #DD9B12",
"^  c #DC941A",
"/  c #DC9B19",
"(  c #D69419",
")  c #CE9514",
"_  c #E28A0C",
"`  c #E3860D",
"'  c #E29905",
"]  c #E4950C",
"[  c #EB950D",
"{  c #E49B0C",
"}  c #EA9A0C",
"|  c #E69705",
" . c #E28C12",
".. c #E28C1A",
"X. c #E28715",
"o. c #E49413",
"O. c #EA9513",
"+. c #E59B12",
"@. c #EA9A13",
"#. c #E5931A",
"$. c #EB951B",
"%. c #E49C1B",
"&. c #EB9C1C",
"*. c #F29D14",
"=. c #F19C1A",
"-. c #F19516",
";. c #F0990B",
":. c #DCA30B",
">. c #DFA305",
",. c #DDA213",
"<. c #DDA11B",
"1. c #E3A20C",
"2. c #E9A40E",
"3. c #E2A708",
"4. c #E5A313",
"5. c #EBA313",
"6. c #E5A21B",
"7. c #EBA31B",
"8. c #E5AA1C",
"9. c #EBAB1C",
"0. c #EAAA14",
"q. c #F3A515",
"w. c #F2A51B",
"e. c #F1AC1B",
"r. c #F7A819",
"t. c #ECB41D",
"y. c #EBBA1A",
"u. c #E8B617",
"i. c #F3B31D",
"p. c #F3BB1C",
"a. c #FCBB1C",
"s. c #F6B817",
"d. c #EFB80D",
"f. c #C59832",
"g. c #DB9A31",
"h. c #D99029",
"j. c #E08524",
"k. c #E38B23",
"l. c #E68A2B",
"z. c #EB9524",
"x. c #E49B24",
"c. c #EA9A24",
"v. c #E79527",
"b. c #F39E25",
"n. c #ED9836",
"m. c #DCA323",
"M. c #DDA52C",
"N. c #DAA539",
"B. c #D9B836",
"V. c #DFB926",
"C. c #ECA423",
"Z. c #ECAB23",
"A. c #ECAD2B",
"S. c #E7A62A",
"D. c #F3AD23",
"F. c #FAAB23",
"G. c #F3AD2C",
"H. c #F8A626",
"J. c #EDB323",
"K. c #EDBB23",
"L. c #EBB22A",
"P. c #E7BC28",
"I. c #F5B323",
"U. c #FCB426",
"Y. c #F3BC23",
"T. c #FBBC25",
"R. c #F4B52C",
"E. c #FCB42A",
"W. c #F5BB2C",
"Q. c #FCBC2C",
"!. c #E3A433",
"~. c #EAAC34",
"^. c #E7A839",
"/. c #F3AA33",
"(. c #EBB634",
"). c #ECB23B",
"_. c #E8BC34",
"`. c #F5B433",
"'. c #FCB433",
"]. c #F4BC34",
"[. c #FCBC33",
"{. c #FDBB39",
"}. c #F6BB3B",
"|. c #EEC31D",
" X c #E7C01A",
".X c #F6C11C",
"XX c #FBC11D",
"oX c #F1C413",
"OX c #F3C00F",
"+X c #EDC32B",
"@X c #EEC321",
"#X c #F5C324",
"$X c #FBC224",
"%X c #F5C32A",
"&X c #FCC32C",
"*X c #F5C92D",
"=X c #FCC92C",
"-X c #F9C927",
";X c #EDC539",
":X c #F3C433",
">X c #FEC333",
",X c #FECA34",
"<X c #F2C43C",
"1X c #FEC43B",
"2X c #FFCA3B",
"3X c #F3CB38",
"4X c #B28E4D",
"5X c #BCAB50",
"6X c #BFA660",
"7X c #C1944E",
"8X c #C29156",
"9X c #C5AB4C",
"0X c #DCA946",
"qX c #C7A555",
"wX c #DBA654",
"eX c #D6B84A",
"rX c #E7AA46",
"tX c #E6B846",
"yX c #FFBE42",
"uX c #FDB848",
"iX c #EBB75C",
"pX c #EBAF5A",
"aX c #DEB470",
"sX c #EBC647",
"dX c #F5C443",
"fX c #FFC443",
"gX c #F4CC44",
"hX c #FDCB43",
"jX c #F2C94C",
"kX c #FDCB4B",
"lX c #FFC44B",
"zX c #FED44C",
"xX c #FAD549",
"cX c #F3CE5C",
"vX c #FFCA53",
"bX c #FFD454",
"nX c #FFD953",
"mX c #F7D55A",
"MX c #EBCB56",
"NX c #FFE157",
"BX c #F6D87A",
"VX c #F2CF68",
"CX c #FBE160",
"ZX c #CAC26D",
"AX c #FFE382",
"SX c #EFDECA",
"DX c #F1E2CF",
"FX c #E8E0CB",
"GX c #FFFCF0",
/* pixels */
"                                                                                                                        ",
"                                                                                                                        ",
"                                                  . + o o X O X X X X                                                   ",
"                                              o % ZX5X5X9X9XqXqXqXqX6X# @ @ . -                                         ",
"                                        9 v c k x sXB.3XxX;XdXdX<XzXsXx j z 4X0 @ %                                     ",
"                                      3 B.kX}.2X2XK.#X.Xu..Xp.Y.p.3.Y.,X:XgXjXeX3 0 %                                   ",
"                                  2 cXgX%Xp.a.T.W.J.%XY.y.-XY.Y..X.X.Xp.y.p.u.+X<XMX2 0                                 ",
"                                * cXP.u.oXOXp.Y.].1X1X2X=X&X>X,X=X=X=X-X$XXXXX.X#X+XjX* #                               ",
"                            2 VXjX_.*X X|.@X+X<XdXmXkXkXzX2X2X2X2XzX1XL.Z.Z.i.T.XXp.+XjXAX0 =                           ",
"                          9 cX(.W.%X@X%Xy.3XNXzXnXkXm.) / ~ ,.,./ F h h M y H Q.s.a.#XzXtXBX0 $                         ",
"                        c sXJ.T.Q.L.(.nXnXzX:XF ,.,.J +.7.+.+.J &.%.~ %.%.m y M b >X,X:XsXeXBX6X@                       ",
"                        sX3Xy.XXW.].nXvX).m.<.,.G 1.{ } ] ] @.@.O.$.o.] +.%.! Y M m ].<X<XjXMXBX  @                     ",
"                      sXP..X.Xp.+XkXbX(.m./ K { ' ' | } +.#.c.#.$.-.=.@.@.o.%.c.E i ( ~.bXnXNXCXeX4X$                   ",
"                    sX:Xu..Xp.%XzXnXL.<.! +.+.@.q.} ] ] ] o.%.#.$.O.O.] ] ] +.&.c.E r W fXCXxXsXsXVX                    ",
"                    L.0.p.Y.:XbXkX}.F G 2.@.$.$.#.o.+.{ { { +.@.+.{ { { { 2.} | O.O.X.u W lXkX_._.sX  0                 ",
"                  M.I.t.Y.:XzXvX)./ 4.' } } $.z.c.#.~ K ' 1.] ] G G K 1.{ ' } } [ *.=.Z r W !.lXhXnXcX  #               ",
"                rXx.C.W.P.zXbX).Q / +.+.O.O.$.#.o.7.6.%.~ J +.5.1.4.{ { ] @.[ -.} @.] K Q y I uXbXzXP.mX&               ",
"                !.7.C.,.<XNX).P ( A o.&.$.#.T r B >X{.fXH 7 +.>X,XT.1.{ @.@.O.-.[ @.{ :.%.A p R vX(.*XV.cX              ",
"              N.G.7.7.1XzXS.Y E T T ....C p u r B &XR.fXQ 7 4.&X&XY.:.L { @.@.o.O.@.{ G +.+.U u Y }.t.*X_.              ",
"              ~.~ I.>X1X<.H T Z N T E d d v./.{.T.&X>X].].J.Q.$XY.,X&XY.0.J +.=.O.@.{ K { @.$.T r m i.=XP.sX            ",
"            x.G.7.4.1XZ.n ! Z ` _  .U 4 < n.uX{.&Xp.,X].1X>X&X&X&X&X#X=X#X:.K +.o.o.+.{ { ] @.O. .N T.s.#X+XB.          ",
"            #.7.i.Q.1XH Q !  .` _ S R 4 1 n.vX{.&X#X%X>X].Q.&X&X>X[.%X%X=X&XJ.K &.o.] @.} ] } @.O.t V T..Xy.gXz         ",
"          /.H.@.9.hXS.Q ^ u X.X._ Z ..s > d h.S.,X$XY.Y.J.J.I.D.&.Z.2X#X@X%Xt.K @.@.] ] } } } } ] V r i.$XK.<Xc         ",
"          S.C.7.Z.1XP Y Y E Z X.Z  ...k.s < ; i >X$X=X:.G K +.S u r Z.%X=X-Xt.{ ] @.@.] ] } ] ] } @.u F.U.>XgXz         ",
"          ~.C.7.L.hXP Y ^ Y U T S S T R k.w : a 1XY.&X3.1.+.+.$.v.t y J.#X-Xp.G ] @.@.@.+.] +.+.@.] y D.E.R.kXc         ",
"        0XS.C.'.fX{.! T S S T T S S S T k.w : s fXT.&X>.G { $.z.k.d 6 &X&X#Xs.' } O.@.@.+.+.+.+.+.%.b 6 7.W._.cX        ",
"        rXA.C.G.{.J S S D  .T T S S S T E w : s yXQ.&X3.G { &.z.v.d y I.&X=Xs.L } } } +.+.+.%.%./ %.%.y 5.&Xu.gX5X      ",
"        ^.C.7.E.'.N _ _ S _ S Z T S S T E 6 > s fX[.&X3.G G ! T q u '.&X&X$Xe.5.} } @.+.+.+.+.%.%.! 7.b 5.$X#X+X9X      ",
"        !.D.+.E.[.S _ _ V S  .S T T T T ..q > s yXW.&Xp.p.T.E.'.'.C.2XY.$Xp.5.] } @.] ] { { %.+.%.%.+.y q.a.XX3Xv       ",
"        ^.4.+.Q.E.S D D V S  . .T T T T ..q > a fX>X&X&X&X&X&X[.[.>X&X&XY.4.{ @.O.O.+.] { { +.+.%.+.&.u q.a.d.:X9X      ",
"        ).7.9.I.[.! T T A Q T T T T T T ..w > a 1X&X&X*X%X=X=X=X&X,X#X%Xt.G J &.$.@.+.{ { { ] { ] J $.u q.Q.T.hXqX      ",
"        !.7.4.E.{.m A T A ! I ..T T T T k.w > a 1X>X%X@Xy.K.K.t.t.t.&X$X,XY.+.+.+.+.+.] { { ] { ' 5.#.u w.Q.T.}.qX      ",
"        !.5.*.F.{.m ! A  .S T T T T S Z k.q : a fX>X&X:.G :.K H y y D.>X&X&Xi.1.+.+.@.@.@.] ] ] @.+.c.6 9.$XY.dX        ",
"        ).{ r.F.{.Q b N _  .T T T S Z T k.w > a fX>X&X:.:.4.%.#.z.u y R.&X&X&XT.K +.@.@.O.@.] ] ] o.%.m 0.Y.Y.dX        ",
"        N.7.w.F.fX}.~ V `  .T Y T S T X.j.w > s uX{.Q.4.{ +.] &.#.c.y b 8.>X2Xt.K +.+.@.@.+.+.{ { w.u 7 4.Y.K.jX        ",
"          G.7.7.`.1X! S D ` T T S  . .X.j.f > s uX{.[.4.{ +.] O.z.x.M 6 R.].W.[.K +.+.+.+.+.+.+.L } b &.Q.,X:Xx         ",
"          ~.C.6.L.].m S  . .S ! S  .U R j.f : a yX{.>X4.K @.} [ #.z.M 7 A.1X>XI.K { +.+.+.+.+.+.+.+.u E.T.Y.3X          ",
"          ~.%.9.L.hXA.! Z  .S S S  .E E s 5 : i 1X&X&X,.K +.] ] +.N 6 %.R.[.>XI.K { ] ] } +.+.+.o.D r H.T.t.<X          ",
"          ).%.7.8.>XfX/ C T  .S T ....d < w M ( ,X#X%Xu.8.9.0.e.4.K L >X1X>XQ.I.{ { } } } ] +.+.x.r S U.a.Y.            ",
"            /.7.7.8.1X<.! A D S T T I 5 ; n.kX>X=X|.*X*X,X>XQ.&X&X,X,XY.>X>X~ K { { } } } } +.#.W C E.a.XXK.            ",
"            rXC.w.w.[.1XC.A T T T R R 4 , v.yX[.=X|.*X:X].].>X&X&X$X&X>X].4.n J @.] ] } @.@.o.S y m a.a.p.gX            ",
"              !.+.r.w.Q.1X6.( Y z.U k.4 : v.uX{.>X%X%X:X1X1X[.&X&X&X&X>X4.n H J S O.$.O.O.$._ r b Q.s.XXP.              ",
"              iXS.@.q.5.Q.1XS.P I U ..R e < 5 , y fX{.1X^ y +.>XQ.>XF H A A T C C #.$.&.$.Z u B T.XXs.y.                ",
"                rXC.@.U.0.>XfXS.C T ..X.j.j.e : 5 lX{.fXW 5 &.1X{.1XA A ! T ^ T ..R ..c.T t D U.a.d.|.xX                ",
"                iX!.'.7.i.4.1XfXG.C o.Z d l.d s I c.c.c.Y C S &.%./ ! ! C C T U ..I T I y A U.T.s.-X_.                  ",
"                  iX!.Z.4.2.Q.>X{.C.A ! ..I j.v.E T T S S T S S T C S S  . .T ..U E C r A I.T.a.p.+X                    ",
"                    rX~.7.a.s.Y.1XzX,.B J S ..I T S N V T T  .Z Z #. .D _ _ p O.Z U u B I.T.d..X%X                      ",
"                      N.].T.d.3.8.].2X4.n ! T T A S J V S  .C ..T T Z  .D O._ D Z r N E.T.s.a.%X                        ",
"                        tXS.0.2.9.8.>X1X%./ ( Y T D ] V S D ....U  . .Z Z  ._ D t N O.E.D.9.Q.                          ",
"                          tXA.7.4.7.6.2XfX{./.W W ! A S o.S U U S S Z T ..Z t t p F.F.6.`.M.                            ",
"                            wXg.C.w.e.{ 4.>XfX}.fXyXY m A A A A B B b u t t U H.*.@.+.m.M.                              ",
"                              aXrXx.%.D.4.9.D.A.`.fX[.[.{.1X{.R.Q.[.G.c.z.z.z.b.@.G.m.tX                                ",
"                                  wX^.S.Z.4.5.7.w.H.'.E.D.e.I.I.I.E.U.C.H.H.b.b./.g.pX&                                 ",
"                                    wXrX~.6.7.@.H.O.=.7.7.4.4.4.4.5.5.+.+.%.S.^.rXwX                                    ",
"                                        f.tX~.`.G.H.&.&.7.7.0.4.7.6.Z.R.L.(.N.f.                                        ",
"                                          9 8 8 k rX^.^.!.^.~.^.rXrXN.k 8 j l                                           ",
"                                                  4Xg 4X4X7X7X7X8X4X4X                                                  ",
"                                                                      SX                                                ",
"                                                      FXDXDXDX                                                          ",
"                                                        GXGX                                                            "
};
