/* XPM */
static char *_e207b914be04fdcf721698b418d3f79U4qcLiYgVDZZBdqa[] = {
/* columns rows colors chars-per-pixel */
"60 60 207 2 ",
"   c None",
".  c #010101",
"X  c #07060A",
"o  c #0C0C0C",
"O  c #080807",
"+  c #0B0A12",
"@  c #0F0C19",
"#  c #110E1A",
"$  c #121212",
"%  c #12101D",
"&  c #1A1A1A",
"*  c #201F1F",
"=  c #1F201F",
"-  c #1B1626",
";  c #1D1929",
":  c #181425",
">  c #201F21",
",  c #231B2C",
"<  c #221D34",
"1  c #232323",
"2  c #272628",
"3  c #2C2C2C",
"4  c #282827",
"5  c #302F2F",
"6  c #2A2235",
"7  c #2B243B",
"8  c #262038",
"9  c #312337",
"0  c #32253B",
"q  c #34283D",
"w  c #392A3F",
"e  c #2F3030",
"r  c #343434",
"t  c #3A3A3A",
"y  c #373738",
"u  c #2D2643",
"i  c #2E2946",
"p  c #2F2948",
"a  c #312945",
"s  c #3D2D44",
"d  c #332C4A",
"f  c #3A2E4B",
"g  c #36304E",
"h  c #3D304E",
"j  c #3F3842",
"k  c #342F50",
"l  c #373252",
"z  c #3B3453",
"x  c #422F4C",
"c  c #413246",
"v  c #45334B",
"b  c #49344D",
"n  c #473B49",
"m  c #433453",
"M  c #4C3553",
"N  c #4C3B55",
"B  c #4D375A",
"V  c #443A5C",
"C  c #4D3C5B",
"Z  c #473956",
"A  c #523654",
"S  c #563C56",
"D  c #593D56",
"F  c #543C5B",
"G  c #5A3E5B",
"H  c #503758",
"J  c #603F5C",
"K  c #4E3D62",
"L  c #533C63",
"P  c #5C3E62",
"I  c #414141",
"U  c #494949",
"Y  c #474748",
"T  c #4E4156",
"R  c #574057",
"E  c #594257",
"W  c #504F53",
"Q  c #55435B",
"!  c #5B425B",
"~  c #525353",
"^  c #5C5C5C",
"/  c #58575B",
"(  c #62445E",
")  c #68475F",
"_  c #544263",
"`  c #5C4363",
"'  c #5E4865",
"]  c #5D4469",
"[  c #5E4B6A",
"{  c #554A6C",
"}  c #5D5769",
"|  c #5A4D73",
" . c #5E5077",
".. c #624563",
"X. c #6A4662",
"o. c #634964",
"O. c #6B4B65",
"+. c #624669",
"@. c #654A6A",
"#. c #6A4C6B",
"$. c #714E65",
"%. c #724E6C",
"&. c #784F68",
"*. c #6C516C",
"=. c #73526D",
"-. c #7A526D",
";. c #77586A",
":. c #654E72",
">. c #6E4E71",
",. c #704E74",
"<. c #615374",
"1. c #6C5472",
"2. c #6E5976",
"3. c #6D567B",
"4. c #6A5B7C",
"5. c #665879",
"6. c #745574",
"7. c #7A5673",
"8. c #755974",
"9. c #7B5B76",
"0. c #745379",
"q. c #7B567D",
"w. c #735A7B",
"e. c #7C5C7B",
"r. c #656565",
"t. c #6E6E6E",
"y. c #676669",
"u. c #6F706F",
"i. c #6C6A70",
"p. c #7D617A",
"a. c #79617A",
"s. c #717071",
"d. c #79797A",
"f. c #84576E",
"g. c #81586D",
"h. c #835A73",
"j. c #825D7B",
"k. c #8C5F7E",
"l. c #8D6276",
"z. c #84617D",
"x. c #8B627C",
"c. c #94647C",
"v. c #94697E",
"b. c #98687F",
"n. c #6F5A82",
"m. c #745D83",
"M. c #7B5E82",
"N. c #6F6788",
"B. c #726184",
"V. c #7A6186",
"C. c #7D6986",
"Z. c #74648A",
"A. c #7A648A",
"S. c #746A8D",
"D. c #796A8D",
"F. c #726881",
"G. c #766D90",
"H. c #7B6D91",
"J. c #7A7494",
"K. c #7C7798",
"L. c #7E799A",
"P. c #7A7594",
"I. c #855F81",
"U. c #895F83",
"Y. c #856384",
"T. c #8C6583",
"R. c #8F6A87",
"E. c #896B8B",
"W. c #846D8B",
"Q. c #916685",
"!. c #946986",
"~. c #9A6C87",
"^. c #946C8A",
"/. c #9B6E8A",
"(. c #89728F",
"). c #95708B",
"_. c #9A728D",
"`. c #987187",
"'. c #9B6F90",
"]. c #8B7592",
"[. c #8C7895",
"{. c #817295",
"}. c #9B7591",
"|. c #9D7B93",
" X c #9A7B95",
".X c #A06F8C",
"XX c #A1738E",
"oX c #A17695",
"OX c #A37C95",
"+X c #A47C99",
"@X c #A97D9A",
"#X c #A97C97",
"$X c #848383",
"%X c #9F8197",
"&X c #A18097",
"*X c #A28299",
"=X c #A5859C",
"-X c #AB839E",
";X c #A6899F",
":X c #B0849F",
">X c #AB8BA3",
",X c #AC86A0",
"<X c #B387A2",
"1X c #B48CA6",
"2X c #B98EA9",
"3X c #B493AB",
"4X c #B090A7",
/* pixels */
"                                                                                                                        ",
"                                                          1X2X2X                                                        ",
"                                                      <X-X#X#X-X:X<X                                                    ",
"                                                  -X#XXX/./././..XXX#X                                                  ",
"                                              3X-X_._././././..X/./.~.XX-X                                              ",
"                                          3X4X>X-X|._._._././././././.OX;X;X>X                                          ",
"                                        >X;X=X*XOX|._._._././._._./._.*X*X*X*X;X                                        ",
"                                    >X>X*X%X&X|.|.|._._._./.~./._._.*X*X&X*X|.|.*X,X                                    ",
"                                *X>X=X*X%X|.|.|.|.|._.~.Q.b.c.b.!.|.*XOX|.|.|.|.|.|.=X1X                                ",
"                              +X4X*X|.|.|.|.|.}._._.v.l.f.f.f.f.l.!._.|.|.|.|.|._._._.OX,X                              ",
"                            }.}.*X|.|.}.}.}.}._.Q.l.g.O.! ! ! ! o.;.l.v.`._._._._._._._._.+X                            ",
"                        x.oX_.Q.R.}.}._._.).!.l.g.O.! R ! ! ! ! R E ( ;.h.c.~._._././.!.!._.#X-X                        ",
"                      Q.oX/.!.!.R.!._._.~.l.g.O.! S ! O.j.z.z.j.*.! R E ) -.h.x.!.^.~.^.^.^./.+X-X                      ",
"                    ^.}.^.!.!.!.!.R.!.!.h.$.! S S ( 9.!.^.^.^.^.!.9.o.R R ! ) &.h.!.^.).^.^.^./.oX@X                    ",
"                  ^._.^.^.^.!.!.Q.Q.h.-.) D S ! 6.T.^.!.!.!.!.!.!.^.R.7.! ! E ! O.-.x.^.^.^.^.^.^.}.+X}.                ",
"              h.|.+X!.^.!.^.!.Q.k.-.X.! S ! O.z.Q.Q.!.!.!.!.!.!.!.!.!.Q.z.#.! R ! ( $.7.T.^.^.^.^.^.oX@X'.              ",
"            j.|.+X).^.!.^.^.Q.h.%.( D S ( 7.T.Q.Q.Q.Q.Q.!.!.!.!.!.!.Q.T.R.T.9...S S ! o.=.x.^.^.^.^.^.'.+X_.            ",
"          h.|.+X^.^.^.^.^.x.7.X.D S S O.j.T.T.R.Q.T.T.x.j.e.j.z.z.T.T.R.R.T.T.z.#.D S S ! O.h.^.^.^.^.^./.+X}.          ",
"        9.|.+X).^.^.^.^.T.=.( D D ! 6.T.T.R.Y.e.1.' Q m h f h m Z _ ' 1.e.Y.R.R.T.7.( S S D O.7.R.^.^.^.Q.^.+X}.        ",
"      7.}.%X).^.^.^.R.j.#.! S S ..j.R.T.9.@.C m z z z p i i i d g z z z z m ` 6.T.R.j.O.! S ! ) %.z.^.R.R.R.^.+X}.      ",
"      =.8.*.O.O.=.=.=.) D S D O.z.R.9.` h d z z z z z d p a a z z z z z l p i f F 6.T.T.=.! S S ! ( =.=.O.O.X.%.9.      ",
"    ` ! D ! =.8.8.8.;.! S ! =.z.j.o.f a g d z z z g d 7 < < 8 7 i d l z k p a a a d _ j.R.j.o.D D *.9.9.8.6.o.D ! !     ",
"  ! ! ! ! ! 9.z.p.p.9.! ( 9.T.e.N a a a d a 8 ; % + X . . . . . O X + % - < u p a p a m 0.T.j.O.D 8.z.z.e.e.O.! ! ! ..  ",
"    ` ` ! ! 8.p.p.p.9.( #.T.9.m a a u , # X . . . . . . . . . . . . . . . . X % < i a i h 6.Y.9.D 8.z.p.9.9.o.Q         ",
"            8.p.e.e.9.( O.j.o.a i < + . . . . . . . . . . . . . . . . . . . . . . @ < a a ..T.9.D ;.p.9.9.9...          ",
"            6.j.j.j.7.J O.z.#.d : . . . . . . . . . . . . . . . . . . . . . . . . . O - d +.Y.6.D =.j.j.j.e...          ",
"            6.Y.T.T.e.( O.z.#.; . . . . . . . . . . . . . . . . . . . . . . . . . . . . 6 @.j.=.D 6.T.U.Y.I...          ",
"            6.Y.Y.Y.e.( o.j.#.- . . . . . . . . . . . . . . . . . . . . . . . . . . . . 6 @.I.6.D 6.Y.Y.Y.Y...          ",
"            8.E.E.E.Y.` o.j.#.- . . . . . . . . . . . . . . . . . . . . . . . . . . . . 6 #.j.=.D 6.E.E.E.Y.`           ",
"            6.E.E.E.Y.` ..e.#.; . . . . . . . . . . . . . . . . . . . . . . . . . . . . 7 #.e.=.S 8.E.E.E.Y.`           ",
"            1.].].].W.` G 6.@., . . . . . . . . . . . . . . . . . . . . . . . . . . . . 7 #.j.=.S w.(.(.].C._           ",
"            *.].[.[.W.` ! 6.@., . . . . . . . . . . . . . . . . . . . . . . . . . . . . q >.j.=.S a.[.[.[.C._           ",
"            @.C.C.C.a.G ! 6.@., . . . . . . . . . . . . . . . . . . . . . . . . . . . . q >.e.*.S 6.C.C.C.w.G           ",
"            _ 2.2.2.1.S G 6.@., . . . . . . . . . . . . . . . . . . . . . . . . . . . . q >.e.#.A *.8.2.1.@.F           ",
"            Q 2.2.2.1.G G 6.@., . . . . . . . . . . . . . . . . . . . . . . . . . . . . 0 #.e.#.A *.8.2.1.@.F           ",
"            ! 2.2.2.1.G ! 6.@., . . . . . . . . . . . . . . . . . . . . . . . . . . . . 7 #.q.#.S *.8.2.1.[             ",
"            _ w.w.e.e.` ..q.>., . . . . . . . . . . . . . . . . . . . . . . . . . . . O 9 #.e.#.S 1.M.e.w.[             ",
"            L w.e.e.e.....q.6.6 . . . . . . . . . . . . . . . . . . . . . . . . . . . O s ,.q.#.S 6.M.M.M.]             ",
"            F w.M.M.e...P 0.6.9 . . . . . . . . . . . . . . . . . . . . . . . . . . . O s ,.q.#.S 6.M.M.M.`             ",
"            F w.M.M.M.` G 0.>.9 . . . . . . . . . . . . . . . . . . . . . . . . . . . O s >.6...A 6.M.M.M._             ",
"            F 3.V.M.M.] P 0.,.9 . . . . . . . . . . . . . . . . . . . . . . . . . . . O c >.0...A 0.M.M.M._             ",
"            F 3.V.V.M.] P 0.6.q . . . . . . . . . . . . . . . . . . . . . . . . . . . X c 1.0...A 0.M.M.m._             ",
"            B 3.V.V.V.+.F 1.>.w . . . . . . . . . . . . . O . . . O . O O O O O . O O o v 1.0...A w.V.V.m.K             ",
"            M :.m.m.m.` A @.@.w O O O O O O O O O O O O O O O O O O O O O O O o o o O o v #.>.` M 3.m.m.n.K             ",
"            M :.V.V.V...A #.#.s o o o o o o o o o o o o o o o o o o o o o o o o o o o $ b @.#.G A m.Z.Z.m.L             ",
"            m @.A.V.V...A #.#.s $ $ $ $ $ $ $ $ $ $ $ $ $ $ $ $ $ $ $ $ $ $ $ $ $ $ $ & b @.#.G A m.A.A.m.L             ",
"            m [ A.A.A.' A @.@.c & & & & & & & & & & & & & & & & & & & & & & & & & & & > b @.#.D A m.A.A.m.L             ",
"            m { A.A.A.' A @.@.c > & & & & & & = = * 1 1 1 1 1 1 1 1 1 1 1 1 1 1 1 1 1 2 M o.@.S A m.A.A.n.L             ",
"            m _ D.D.D.' M @.@.c 2 2 2 2 2 4 4 4 2 2 2 2 2 2 4 4 4 4 4 4 4 4 4 4 4 4 4 3 b +.+.S A B.D.D.4.B             ",
"              _ D.D.H.[ M +.@.v 3 3 3 3 5 r 3 5 3 3 3 3 3 3 5 e r r r 3 r r r r r r r r b +.@.S M B.H.H.4.              ",
"              _ S.D.S.[ M +.+.n y y y y y y y y y y y y y y y y y y y y y y y y y y y t b +.+.H M B.D.H.5.              ",
"              K S.S.S.[ M ] ` N t t t t t t n I I I I I I I I I I I I I I I I I I I I I M ] ] H M Z.G.S.<.              ",
"              C S.S.G.[ M ] ` N Y Y Y Y Y Y Y Y Y Y Y Y Y Y Y Y Y Y Y Y Y Y Y Y Y Y Y U M ] ] B M S.H.G. .              ",
"              V S.P.G.[ M ] ] T W ~ ~ ~ ~ ~ ~ ~ ~ ~ ~ ~ ~ ~ ~ ~ ~ ~ ~ ~ ~ ~ ~ ~ ~ ~ ~ ~ N ] ] B M S.J.J. .              ",
"              V S.P.J.<.M ] ] Q / ^ ^ ^ ^ ^ ^ ^ ^ ^ ^ ^ ^ ^ ^ ^ ^ ^ ^ ^ ^ ^ ^ ^ ^ ^ ^ / N ] ] B N S.J.J.|               ",
"              m S.K.K.<.M ` ] Q r.r.r.r.r.r.r.r.r.r.r.r.r.r.r.r.r.r.r.r.r.r.r.r.r.r.y.} C ] ] M N S.K.J.|               ",
"              z N.K.K.5.b ` ] Q y.t.t.t.t.t.t.t.t.t.t.t.t.u.s.s.s.s.s.s.s.s.s.s.s.s.s.y.C ] ] M F P.K.K.{               ",
"              z N.K.L.4.v _ ] Q s.d.d.d.d.d.d.d.d.d.d.d.d.d.d.d.d.d.d.d.d.d.d.d.d.d.d.i.N ` ` M F J.K.K._               ",
"              x F.K.L.4.v P ] Q d.$X$X$X$X$X$X$X$X$X$X$X$X$X$X$X$X$X$X$X$X$X$X$X$X$X$Xs.N ! ` M G {.K.J.'               ",
"                                                                                                                        "
};
