/* XPM */
static char *b434c2c201e04d82d1b4492b33b57f68vLcxtia7siBSzLyB[] = {
/* columns rows colors chars-per-pixel */
"60 60 256 2 ",
"   c #47704C",
".  c #4B393F",
"X  c #413539",
"o  c #767771",
"O  c #534645",
"+  c #3B383C",
"@  c #544541",
"#  c #3D393F",
"$  c #594241",
"%  c #271B27",
"&  c #5F3F40",
"*  c #D6CEBC",
"=  c #291C27",
"-  c #503135",
";  c #44232E",
":  c #45292F",
">  c #6F5F54",
",  c #2D1B28",
"<  c #DAD5BC",
"1  c #D6D5C0",
"2  c #281726",
"3  c #442D32",
"4  c #3D2A2F",
"5  c #2F1E28",
"6  c None",
"7  c #806C62",
"8  c #401B2A",
"9  c #532B34",
"0  c #3C242C",
"q  c #2B1B28",
"w  c #472F32",
"e  c #E0E0CC",
"r  c #D8D3B9",
"t  c #384F6A",
"y  c #4A3938",
"u  c #3D2930",
"i  c #5D2C34",
"p  c #37272D",
"a  c #4B3734",
"s  c #736258",
"d  c #532530",
"f  c #33202B",
"g  c #3B2B2E",
"h  c #502A32",
"j  c #311A27",
"k  c #503C39",
"l  c #3F222C",
"z  c #2D1F2B",
"x  c #8F7166",
"c  c #271724",
"v  c #BA8D77",
"b  c #2C1E28",
"n  c #4E3C39",
"m  c #321B27",
"M  c #574440",
"N  c #945048",
"B  c #503638",
"V  c #2E2029",
"C  c #2E222B",
"Z  c #463338",
"A  c #412E31",
"S  c #25242D",
"D  c #654C43",
"F  c #D2CCB4",
"G  c #80766D",
"H  c #DBD8C0",
"J  c #D2CCB0",
"K  c #443435",
"L  c #9D5B53",
"P  c #3D2E30",
"I  c #582330",
"U  c #612C34",
"Y  c #753A3B",
"T  c #58212E",
"R  c #BFB792",
"E  c #BA6C5C",
"W  c #906A5C",
"Q  c #CECAA9",
"!  c #311F28",
"~  c #574A46",
"^  c #1F1221",
"/  c #52212E",
"(  c #BAD5D0",
")  c #E0E1D0",
"_  c #281925",
"`  c #4B192A",
"'  c #D68E73",
"]  c #745C50",
"[  c #602933",
"{  c #8D867D",
"}  c #673C3D",
"|  c #604C44",
" . c #251A26",
".. c #6D5950",
"X. c #96715F",
"o. c #241724",
"O. c #713D3F",
"+. c #39272C",
"@. c #E4EAD8",
"#. c #AD6E5C",
"$. c #4C1D2D",
"%. c #603138",
"&. c #BFB997",
"*. c #3E2A2E",
"=. c #987460",
"-. c #36212B",
";. c #E1C7A8",
":. c #451C29",
">. c #543C3A",
",. c #5B2832",
"<. c #482F30",
"1. c #635149",
"2. c #593838",
"3. c #562B30",
"4. c #796F65",
"5. c #B3AE8D",
"6. c #766961",
"7. c #4B3B39",
"8. c #AFA585",
"9. c #B0A281",
"0. c #8C7C66",
"q. c #493835",
"w. c #DCDCC8",
"e. c #813D3D",
"r. c #622C34",
"t. c #BAB08A",
"y. c #97534B",
"u. c #8B4844",
"i. c #BF7965",
"p. c #3D2E32",
"a. c #351326",
"s. c #655148",
"d. c #A45E53",
"f. c #401628",
"g. c #B4AF92",
"h. c #453234",
"j. c #5F4C46",
"k. c #1B1826",
"l. c #7B3739",
"z. c #DF9F85",
"x. c #BD7565",
"c. c #45212C",
"v. c #8A4442",
"b. c #50252F",
"n. c #DE9C7F",
"m. c #9A4B47",
"M. c #0D0E1E",
"N. c #482B30",
"B. c #826A56",
"V. c #8C7D65",
"C. c #8D755D",
"Z. c #B68873",
"A. c #69443E",
"S. c #D3D3AE",
"D. c #5F373B",
"F. c #8F4846",
"G. c #663A3A",
"H. c #56222F",
"J. c #77604F",
"K. c #837265",
"L. c #C3BF9D",
"P. c #403032",
"I. c #8D6153",
"U. c #D2CFA5",
"Y. c #9A4D47",
"T. c #68554E",
"R. c #5F433E",
"E. c #DEDDB2",
"W. c #5A453E",
"Q. c #876353",
"!. c #AD5E55",
"~. c #896F5B",
"^. c #49262E",
"/. c #664E42",
"(. c #563E3C",
"). c #2C363E",
"_. c #776153",
"`. c #836C58",
"'. c #917B64",
"]. c #7C3F40",
"[. c #180E1F",
"{. c #39292E",
"}. c #38252B",
"|. c #632330",
" X c #251824",
".X c #523B35",
"XX c #493432",
"oX c #453230",
"OX c #3F2B2D",
"+X c #34232A",
"@X c #583D38",
"#X c #81393C",
"$X c #1E1422",
"%X c #433030",
"&X c #4C1C2A",
"*X c #5E3F39",
"=X c #772E36",
"-X c #2A1B26",
";X c #412E30",
":X c #5C4740",
">X c #2E2028",
",X c #57403B",
"<X c #712D35",
"1X c #3E1E2A",
"2X c #7A3338",
"3X c #67483E",
"4X c #4A282D",
"5X c #521E2C",
"6X c #9F4F49",
"7X c #391325",
"8X c #80584D",
"9X c #723C3C",
"0X c #883B3C",
"qX c #954642",
"wX c #582F33",
"eX c #250E21",
"rX c #211523",
"tX c #3F272C",
"yX c #55262F",
"uX c #6A3839",
"iX c #31242B",
"pX c #8D4040",
"aX c #A8574E",
"sX c #736254",
"dX c #A3544C",
"fX c #59433D",
"gX c #E0987B",
"hX c #561E2C",
"jX c #672D35",
"kX c #5D3737",
"lX c #BAB28E",
"zX c #9A584F",
"xX c #211422",
"cX c #A59376",
"vX c #635147",
"bX c #B7AA86",
"nX c #916554",
"mX c #847262",
"MX c #563435",
"NX c #8B4742",
"BX c #AB6053",
"VX c #6A433C",
"CX c #914E4B",
"ZX c #6D5247",
"AX c #B1A27D",
"SX c #4A1727",
"DX c #AF9F82",
"FX c #714646",
"GX c #AE7F69",
"HX c #C17760",
"JX c #CA7C65",
"KX c #714F42",
"LX c #E59D80",
"PX c #503737",
"IX c #C8C49B",
"UX c #4F292E",
/* pixels */
"                                                                                                                        ",
"                                                                                                                        ",
"                                                                                                                        ",
"                                                                                                                        ",
"                                                                                                                        ",
"                                                                                                                        ",
"                    (           o                                                                                       ",
"                v '.`.X.x # V.=.B.M 7                                                                                   ",
"          x O 1...@XZX~.T.~ C.sX,X*.3 . $                                                                               ",
"        7 K.> M 4 q 8 w ,X:X,X! o.^ z + j.@                                                                             ",
"        > | & _..X= & 2.zXzX3.m ; 2 z > y -                                                                             ",
"        o B (.D w , O.].CX#X5X8 ; q -.n h.C                                                                             ",
"          . 0 g b . S 3.6X#X&Xc   0 5 = :                                                                               ",
"              #   X ).{.#X<X7XM.S   #                                                                                   ",
"                  S 4 {.9XhX7X$Xk.                                                                                      ",
"              * ;.Z.#.BXdXpX2XyXu X.v (                                                                                 ",
"            v z.n.' LXgX' HXnXMX9XE i.L #                                                                               ",
"          t x.E BXJXgXgXGXnX8XzXaXaX6Xe.}                                                                               ",
"          o m.0X=XdX#.8X*XuXNXdXqX<X|.|.0                                                                               ",
"          @.F.=X|.jXkXkXCX6XpX=X|.6 hXT -                                                                               ",
"          W I.NXjX1XwXqX0XjX#X=X6 7X|.<XY .                                                                             ",
"          =.8X@X-.:.2X0X#X2X=X|.6 :.|.#Xl.h                                                                             ",
"          !.aX9Xl } Y.qX0X2X<X|.H.h / =X<Xi                                                                             ",
"      o Q.N 2X,.X { N qX6XpX#X|.B   $.` hX%.X                                                                           ",
"      1.D 3XkX^.  & ] VXuXwXUXwX>.C Z d MXw V .                                                                         ",
"      Z A {.iX .. } /..X3XZXfX}.f , P.*.{.>Xo.+                                                                         ",
"      $ n ;X-X%   R.3X*XKXVX3XtX_ , . 5 {.}.z                                                                           ",
"      @ k XXq C 7 W.3X@X.X@XPX>X+X%   0 w {.V #                                                                         ",
"      $ a XXV # ) &.lXsX+X}.+X{.:Xs   Z A {.z                                                                           ",
"      : <.OX+.  ;.E.lXfX%X}.+X}.XXJ.@.X p >Xc                                                                           ",
"      X >..X2.: S.U.mX@XXXOX;X}.}.D > - A {.b                                                                           ",
"      O A.<.%.9 Q IX8X@XXXOXoX4X1X*XG.D.N.4 +.                                                                          ",
"        v.[ m . L.lXFX*XoXOX%X4XyXwX,.9 c.[ ;                                                                           ",
"        : $.9 * &.bX9X*X%X}.%X4X&X1Xb.- ; ; .                                                                           ",
"              1 R DXuX*XoXtXoX4X5X1X1XU o                                                                               ",
"              g.R cXyX@XoXOXoXtXSX5X5Xd &                                                                               ",
"              5.t.mXeX.XXXOXXX}.eX7X&X5XU o                                                                             ",
"              8.bXsX[.%X,X.X.X-X[.eX2 d I $                                                                             ",
"              9.AXvX[.rXOX.X>X[.[.rX2 / T i                                                                             ",
"            + 0.cX:X[.xX+XoX-X[.[.rX_ 5 &Xl     x W 7                                                                   ",
"            X p ,XiX[.-X4 q.f rX[.[.^ c f.8 .   L N $                                                                   ",
"            @ k +XxX$X{.g M P >X[.$X-Xl 8 ` i   d.u.9                                                                   ",
"            > ~ 4 -X X;XK X a +XxX X! - 3 &XI O.y.Y O                                                                   ",
"              : q  X5 y B X 7.K 2 rX=   X j a.&Xr.&                                                                     ",
"              O u -X%   O # O .  . X%     + , % h t                                                                     ",
"              $ n iX=         X p }.b                                                                                   ",
"              @ P  X%         O u -Xz o                                                                                 ",
"              @ k f ,         t y %Xg #                                                                                 ",
"              s.vXXXp.  * * * { | :Xa @                                                                                 ",
"        ) e H ..:X;X6.J r r r J ] fX;X4.H < 1                                                                           ",
"        1 e w.s 3 m G Q F < < F s 3 = G < e 1                                                                           ",
"              (                           o (                                                                           ",
"                                                                                                                        ",
"                                                                                                                        ",
"                                                                                                                        ",
"                                                                                                                        ",
"                                                                                                                        ",
"                                                                                                                        ",
"                                                                                                                        ",
"                                                                                                                        "
};
