/* XPM */
static char *_208434cfbde4bf2fc02cc5645b1068eLATiHdSUbJFQoPY4[] = {
/* columns rows colors chars-per-pixel */
"60 60 253 2 ",
"   c #050807",
".  c #180A04",
"X  c #1A130A",
"o  c #171506",
"O  c #100816",
"+  c #081416",
"@  c #181A17",
"#  c #090D12",
"$  c #270904",
"%  c #360D06",
"&  c #2C140B",
"*  c #271609",
"=  c #37150A",
"-  c #271716",
";  c #361A16",
":  c #220F19",
">  c #182118",
",  c #28230C",
"<  c #2B2519",
"1  c #38271A",
"2  c #362A0F",
"3  c #180D22",
"4  c #171824",
"5  c #071321",
"6  c #2E1924",
"7  c #1C2423",
"8  c #2A2726",
"9  c #372926",
"0  c #373129",
"q  c #383735",
"w  c #2F2E35",
"e  c #431D0D",
"r  c #481607",
"t  c #571A07",
"y  c #471A16",
"u  c #501610",
"i  c #45230E",
"p  c #482619",
"a  c #5B2B1A",
"s  c #572417",
"d  c #41311F",
"f  c #582B14",
"g  c #69291B",
"h  c #752C1A",
"j  c #69331E",
"k  c #722D12",
"l  c #621D22",
"z  c #442B23",
"x  c #492A24",
"c  c #582C25",
"v  c #473529",
"b  c #5A3529",
"n  c #493C34",
"m  c #583C33",
"M  c #572F30",
"N  c #662C25",
"B  c #752D27",
"V  c #6B3123",
"C  c #673829",
"Z  c #7C3B2D",
"A  c #773726",
"S  c #6A3D31",
"D  c #673935",
"F  c #773A34",
"G  c #3E403F",
"H  c #56452E",
"J  c #47413A",
"K  c #594234",
"L  c #494426",
"P  c #6D442C",
"I  c #78452B",
"U  c #674738",
"Y  c #774737",
"T  c #715333",
"R  c #463849",
"E  c #394344",
"W  c #404145",
"Q  c #535453",
"!  c #7A4642",
"~  c #685448",
"^  c #7B584B",
"/  c #6B524F",
"(  c #5D6258",
")  c #7E6758",
"_  c #79604C",
"`  c #606261",
"'  c #5E5B66",
"]  c #842C15",
"[  c #89351C",
"{  c #973719",
"}  c #942712",
"|  c #A73719",
" . c #B43A19",
".. c #863C2C",
"X. c #893926",
"o. c #993B26",
"O. c #863D35",
"+. c #913C30",
"@. c #862C26",
"#. c #A73A25",
"$. c #B23B2E",
"%. c #931B00",
"&. c #CA3F18",
"*. c #B4421C",
"=. c #BD431B",
"-. c #AA431B",
";. c #884327",
":. c #994529",
">. c #884A39",
",. c #984836",
"<. c #895439",
"1. c #985431",
"2. c #A84227",
"3. c #B44A2D",
"4. c #B94526",
"5. c #B95329",
"6. c #AC4534",
"7. c #A74B38",
"8. c #B64C32",
"9. c #B74A34",
"0. c #A9593C",
"q. c #BC5234",
"w. c #B85538",
"e. c #A85227",
"r. c #916438",
"t. c #BC603B",
"y. c #C94417",
"u. c #D54918",
"i. c #D9551B",
"p. c #D74D0E",
"a. c #EF4C1E",
"s. c #C74A25",
"d. c #D84A21",
"f. c #C8542D",
"g. c #D95429",
"h. c #C74D36",
"j. c #C55538",
"k. c #D55B39",
"l. c #E45525",
"z. c #E65C39",
"x. c #F35636",
"c. c #EA4D27",
"v. c #C8633C",
"b. c #DC6539",
"n. c #D86228",
"m. c #E6653B",
"M. c #E36028",
"N. c #EA601F",
"B. c #854943",
"V. c #954A45",
"C. c #845243",
"Z. c #895849",
"A. c #995847",
"S. c #995E52",
"D. c #8E5F55",
"F. c #AA5A45",
"G. c #B95A44",
"H. c #B4564E",
"J. c #866457",
"K. c #976556",
"L. c #916648",
"P. c #B66649",
"I. c #B96658",
"U. c #AC6A52",
"Y. c #876B65",
"T. c #9F6C64",
"R. c #91766B",
"E. c #B67766",
"W. c #AC7876",
"Q. c #CA5B44",
"!. c #D25C46",
"~. c #C54949",
"^. c #CA6746",
"/. c #DB6B4B",
"(. c #D66648",
"). c #D8734E",
"_. c #C76A54",
"`. c #DA6D54",
"'. c #D86752",
"]. c #CB765B",
"[. c #D87857",
"{. c #E66847",
"}. c #E4744A",
"|. c #E96B55",
" X c #E37355",
".X c #E77758",
"XX c #F6795E",
"oX c #F46B4F",
"OX c #D67B63",
"+X c #CB736C",
"@X c #F77A67",
"#X c #E37769",
"$X c #B78B79",
"%X c #A58368",
"&X c #E48353",
"*X c #D88A75",
"=X c #D5916F",
"-X c #E68265",
";X c #ED8572",
":X c #DAB274",
">X c #FBB877",
",X c #EBB26C",
"<X c #FFC97A",
"1X c #748282",
"2X c #959898",
"3X c #8B8C89",
"4X c #B99C96",
"5X c #AB938C",
"6X c #A8ABAB",
"7X c #B4AFB1",
"8X c #9CA38E",
"9X c #CC9488",
"0X c #D4978B",
"qX c #F38B8C",
"wX c #D7A795",
"eX c #CBA794",
"rX c #E8A79B",
"tX c #D5B4A6",
"yX c #D1B3AE",
"uX c #E9AEA3",
"iX c #FCCB85",
"pX c #C9C6BD",
"aX c #E5C7B3",
"sX c #C8C5C5",
"dX c #D2D2C5",
"fX c #D1D0D2",
"gX c #E9D7CA",
"hX c #FBDDD4",
"jX c #EDD3CE",
"kX c #F8E4D9",
"lX c #E9E7D0",
"zX c #DDFAEF",
"xX c #E9E7E5",
"cX c #FBEEEC",
"vX c #F8EAE5",
"bX c #EDFAE9",
"nX c #F8F8EC",
"mX c #FCEFF9",
"MX c #EDFCFC",
"NX c #ECFAF7",
"BX c #F4F4F4",
"VX c #FCF5F3",
"CX c #F3FDF5",
"ZX c #FCFBF5",
"AX c #F4F6FB",
"SX c #FEF5FE",
"DX c #F5FDFC",
"FX c white",
"GX c #FFFEFF",
"HX c #FEFEFE",
"JX c #FEFFFF",
"KX c #ECEEF2",
"LX c #DDEAD0",
/* pixels */
"FXFXFXFXFXFXFXFXFXFXFXFXFXFXFXFXDXDXHXHXFXSXFXFXnXZXHXFXFXFXFXHXFXSXSXSXDXDXHXSXFXFXFXFXFXFXFXFXFXFXFXFXFXFXFXFXFXFXFXFX",
"FXFXFXFXFXFXFXFXFXFXFXFXFXFXFXFXDXFXFXSXZXFXFXAXFXSXSXHXFXFXDXCXDXHXFXSXSXSXHXDXFXFXFXFXFXFXFXFXFXFXFXFXFXFXFXFXFXFXFXFX",
"FXFXFXFXFXFXFXFXFXFXFXFXFXFXFXFXHXSXFXFXFXHXFXFXDXHXVXjX9X$X9XuXgXnXDXFXSXmXZXCXFXFXFXFXFXFXFXFXFXFXFXFXFXFXFXFXFXFXFXFX",
"FXFXFXFXFXFXFXFXFXFXFXFXFXFXFXFXHXFXFXHXHXHXFXFXhXeXI.w.f.g.g.g.OX0XaXnXHXFXSXFXFXFXFXFXFXFXFXFXFXFXFXFXFXFXFXFXFXFXFXFX",
"FXFXFXFXFXFXFXFXFXFXFXFXFXFXFXFXVXFXHXMXDXHXvXyX(.f.u.p.p.p.i.n.u.g.`.wXlXHXFXSXFXFXFXFXFXFXFXFXFXFXFXFXFXFXFXFXFXFXFXFX",
"FXFXFXFXFXFXFXFXFXFXFXFXFXFXFXFXZXHXDXDXHXkXwXU.f.s.s.g.g.d.s.s.i.a.c.z.*XgXAXDXFXFXFXFXFXFXFXFXFXFXFXFXFXFXFXFXFXFXFXFX",
"FXFXFXFXFXFXFXFXFXFXFXFXFXFXFXFXFXAXDXFXkX9XG.4.5.5.5.s.s.d.d.d.i.l.a.a.k.*XjXHXFXFXFXFXFXFXFXFXFXFXFXFXFXFXFXFXFXFXFXFX",
"FXFXFXFXFXFXFXFXFXFXFXFXFXFXFXFXZXFXFXcXwXF.4.c.y.u.y.y.y.u.p.p.g.i.i.N.i.f.*XhXFXFXFXFXFXFXFXFXFXFXFXFXFXFXFXFXFXFXFXFX",
"FXFXFXFXFXFXFXFXFXFXFXFXFXFXFXFXFXAXSXtX0.f.4.h.&.y.y.y.y.u.i.l.d.g.n.g.l.g.`.=XzXSXmXHXNXZXFXHXFXFXFXFXFXFXFXFXFXFXFXFX",
"FXFXFXFXFXFXFXFXFXFXFXFXFXFXFXFXHXFXkXW.w.*.s.4.4.=.=.y.y.y.y.u.x.l.g.l.x.x.{.[.dXVXSXHXDXFXHXHXFXFXFXFXFXFXFXFXFXFXFXFX",
"FXFXFXFXFXFXFXFXFXFXFXFXFXFXFXFXMXFXeXA.q. .s.*.*.*.=.y.u.d.g.g.x.z.z.z.x.x.z.}.0XkXDXMXFXFXCXFXFXFXFXFXFXFXFXFXFXFXFXFX",
"FXFXFXFXFXFXFXFXFXFXFXFXFXFXFXFXDXVXW.F.4.s.=.*.=.=.y.&.u.u.u.g.l.M.m.m.m.z.b.}.;XaXDXNXSXFXDXFXFXFXFXFXFXFXFXFXFXFXFXFX",
"FXFXFXFXFXFXFXFXFXFXFXFXFXFXFXFXHXyXS.G.$.s. .*.y.y.y.y.u.u.d.l.l.M.g.M.m.m.m.}.@XeXbXFXSXHXHXFXFXFXFXFXFXFXFXFXFXFXFXFX",
"FXFXFXFXFXFXFXFXFXFXFXFXFXFXFXFXBX5XF.8.4.4.4.4.=.*.*.2.2.2.3.j.k.m.m.m.oX{.{.oX;X=XgXFXFXDXFXZXFXFXFXFXFXFXFXFXFXFXFXFX",
"FXFXFXFXFXFXFXFXFXFXFXFXFXFXFXFXsXT.P.3.9.2.3.2.2.X.g a p e e s A ,.G.(.{.{.{.oX&XOXuXVXHXHXFXDXFXFXFXFXFXFXFXFXFXFXFXFX",
"FXFXFXFXFXFXFXFXFXFXFXFXFXFXFXFX5XT.0.3.6.6.2.{ N y * + + + + @   - a :.v.}.}.{.&X;X0XkXMXHXFXFXFXFXFXFXFXFXFXFXFXFXFXFX",
"FXFXFXFXFXFXFXFXHXHXFXFXHXHXHXpXK.I.7.6.#.,.V s : : 7 8 X 8 4 5 3 @ O - C P..Xm..XXX-XwXZXFXAXFXFXFXFXFXFXFXFXFXFXFXFXFX",
"FXFXFXFXFXFXFXFXFXHXFXFXHXHXvX5XK.U.,.,.+.A r = o , 2 * < - : v , 2 , . . C P. X X-X-X*XjXFXHXSXFXFXFXFXFXFXFXFXFXFXFXFX",
"FXFXFXFXFXFXFXFXFXFXHXHXHXBXdXK.Z.K.<.>.I a % 1 %X>X,X<.1 7 > 2 =X,X=XI % y O.'.{..X.X#XrXnXDXSXFXFXFXFXFXFXFXFXFXFXFXFX",
"FXFXFXFXFXFXFXFXSXFXZXDXHXVX4XS.B.D.C.Y C i & n :X<X>X=X1 7 1 L.,X<X<Xr.- @ x 0.'.[.[.@X*XlXDXSXFXFXFXFXFXFXFXFXFXFXFXFX",
"FXFXFXFXFXFXFXFXSXFXZXDXHXZXY.S.F B.C.P c = & v :X<X>X=X9 4 1 <.iXiX>X<.- O & ;.'.].[.XXOXpXMXSXFXFXFXFXFXFXFXFXFXFXFXFX",
"FXFXFXFXFXFXFXFXFXFXHXFXHXSXY.D.N F B.Y c % & 1 A U.P.j 8 7 > 1 A.0.1.s $ X = ;._.OX[.'.*XgXDXSXFXFXFXFXFXFXFXFXFXFXFXFX",
"FXFXFXFXFXFXFXFXFXFXHXFXFXFX4XY.D c Y ! D % & < X < 1 * 0 6 - x & < , o o . * S I.]._.I.uXcXHXFXFXFXFXFXFXFXFXFXFXFXFXFX",
"FXFXFXFXFXFXFXFXHXZXZXFXFXFXxX%X~ x S ! D % & - 6 6 8 8 X < - @ - 8 @ @ & $ y ! E._.G.E.hXFXHXHXFXFXFXFXFXFXFXFXFXFXFXFX",
"FXFXFXFXFXFXFXFXFXFXDXDXFXZXFXxX5Xn 1 ~ ! l y & - ; 9 9 6 - ; 6 > @ @ X . % N A.r.+.W.xXnXVXHXFXFXFXFXFXFXFXFXFXFXFXFXFX",
"FXFXFXFXFXFXFXFXFXFXDXDXHXZXSXFXBXsX~ ; Y Y c = < < @ @ > > > @ - - X . $ s Z >.,.eXZXSXHXHXZXDXFXFXFXFXFXFXFXFXFXFXFXFX",
"FXFXFXFXFXFXFXFXFXFXFXKXFXFXBXHXDXFX3Xx p p P Z.c p ; ; & & * $ $ $ % x C F O.,.qXvXMXAXKXFXZXHXFXFXFXFXFXFXFXFXFXFXFXFX",
"FXFXFXFXFXFXFXFXDXFXFXSXFXHXCXHXZX4XD p 1 2 p r O.>.B.F F B B B ! D b S S V ;.F.I.9XnXDXSXBXDXZXFXFXFXFXFXFXFXFXFXFXFXFX",
"FXFXFXFXFXFXFXFXHXZXSXSXHXBXFXHX5XS a s * X * % * & = = e p s s % p b C S >.;.X.^.'.*XkXVXHXDXSXFXFXFXFXFXFXFXFXFXFXFXFX",
"FXFXFXFXFXFXFXFXDXFXSXFXHXHXVXeXY s N e ; v 9 z < < , , z K U C U U U U Y <.:.] e.(.XX*XlXBXSXDXFXFXFXFXFXFXFXFXFXFXFXFX",
"FXFXFXFXFXFXFXFXDXFXSXAXDXZXtXF g V b = = c p p v z 1 1 v U U D x b U Z.U.P.:.%.#.q.s.k.wXVXSXDXFXFXFXFXFXFXFXFXFXFXFXFX",
"FXFXFXFXFXFXFXFXHXSXFXHXDXdXJ.@.B u ; ; u B F f y p z d v K U K 1 U ^ ^ A.P.3.%.@.o.^.).|.tXCXHXFXFXFXFXFXFXFXFXFXFXFXFX",
"FXFXFXFXFXFXFXFXZXFXDXAXcXT.A h a s e r u B Z g a a i , H U U D ; U ) R.^ J.C.Z B | s.'.|. XaXMXFXFXFXFXFXFXHXFXFXFXFXFX",
"FXFXFXFXFXFXFXFXHXAXFXFX4X>.X.] V a r r g O.Z g N g N Y e 1 1 v ~ ~ ~ ~ ~ ^ Z.C.F { -.8.`./.=XcXFXFXFXFXFXFXFXFXFXFXFXFX",
"FXFXFXFXFXFXFXFXFXAXFXhX<.k o.] A h r r B +.X.h A h A.A.B.p d , ; 1 m ) J.J.^ ^ S k -.t.). X`.qXFXFXFXFXFXFXHXFXFXFXFXFX",
"FXFXFXFXFXFXFXFXHXFXVX$X;.{ { X.X.A t r h X.X...I A.>.<.A.Z.U H c a N F F Y >.C.P k 2.j.v..X.X|.xXFXFXFXFXFXHXFXFXFXFXFX",
"FXFXFXFXFXFXFXFXDXFXVXY ..;.[ +...A t r h +.;.1.j <.T T T Z.>.A.F.F.P.].OX].F.] r h } $.(.[.].[.sXZXHXZXFXHXFXFXFXFXFXFX",
"FXFXFXFXFXFXFXFXHXFXcXm a f V C F g r r F >.<.<.I f T T T A 7.6.w.Q.'.(. X X(.4.t g @.6.7.>.Y I 7XHXFXFXFXHXFXFXFXFXFXFX",
"FXFXFXFXFXFXFXFXHXFX7Xn 1 ; z 9 a e % i S >.>.Y L.P j Y h 7.8.j.j.!. X(././.{.f.] u b A g ~ ` U 3XBXFXFXFXHXFXHXFXFXFXFX",
"FXFXFXFXFXFXFXFXnXHX( q 0 9 9 9 = $ & d b S P P P <.>.X.7.8.8.5.j.j.^.^.[.).{.s.2.~ ( L n ' W v Q fXHXHXFXFXFXHXFXFXFXFX",
"FXFXFXFXFXFXFXFXHXfXq 0 0 8 8 8 < * 1 v n v U Y L e O.6.q.5.q.G.j.j.^.`. X.X/.f.s.5XE q J H m q ` 2XHXFXFXFXSXFXFXFXFXFX",
"FXFXFXFXFXFXFXFXFXsXw 0 0 9 q < - - z H n 1 p C p i g 7.3.f.q.G.j.j.Q.'.`. X/.k.f.) E R 0 0 z W G 3XHXFXFXFXZXFXFXFXFXFX",
"FXFXFXFXFXFXFXFXFXfXQ E w 8 8     < v m z p y s s N s ,.q.h.k.j.q.q.j.(.`..X}.k.| $XKX7Xw 1 J Q ` 6XFXFXHXFXFXFXFXFXFXFX",
"FXFXFXFXFXFXFXFXAXHXfX2X( w @ @ 8 n v x p b a j @.Z j h w.h.(.j.j.8.q.Q.(..X.X(.j.U.vXFX2Xq J 1XsXxXFXFXFXFXFXFXFXFXFXFX",
"FXFXFXFXFXFXFXFXAXFXHXAXDX7X8 @ E n p N V F V ..#.+.A k :.j.(.j.j.8.3.q.^. X.X/./.+XyXHXAXxXHXDXFXFXFXFXFXFXSXSXFXFXFXFX",
"FXFXFXFXFXFXFXFXFXHXHXHXHX6X@ 7   v P Z Z >.+.X.o.2.[ X.X.G.^.(.(.j.3.8.j.'. X{.}.;XtXNXFXBXHXDXFXFXZXFXFXFXZXFXFXFXFXFX",
"FXFXFXFXFXFXFXFXFXBXAXFXHX6Xq @ 8 m C.,.X.+.,.X.o.2.| 7.B Z G.(./.Q.q.8.3.j./.}.b.@XwXDXFXSXHXCXAXFXZXFXFXFXFXFXFXFXFXFX",
"FXFXFXFXFXFXFXFXFXFXFXFXHXDXHXKXyXJ...:.7.[ o.:.:.2. .6.j % F.(.`.(.Q.8.#.8.(.}.}.XX9XbXAXSXFXHXFXFXDXFXBXFXFXFXFXFXFXFX",
"FXFXFXFXFXFXFXFXHXFXZXVXFXHXZXFXpXJ...:.;.X.X.o.:. . .,.X   = Q.^. X/.h.4.2.8.)./.oX-XlXMXSXSXbXFXFXFXFXFXFXFXFXFXFXFXFX",
"FXFXFXFXFXFXFXFXCXFXFXFXFXDXAXSX5XV.o.#.o.,.:.2.| #.o.y   + X i `.`.`._.P.o.o.Q.[.|.[.eXDXSXFXCXFXFXFXFXFXFXFXFXFXFXFXFX",
"FXFXFXFXFXFXFXFXHXFXVXFXFXFXFXcXT.V.6.#.{ o.:.2.~.X.i   # 3 +   g F.OX`.G.w.6.$.Q.|.|.*XhXSXAXBXFXFXFXFXFXFXFXFXFXFXFXFX",
"FXFXFXFXFXFXFXFXDXFXZXFXHXDXHX7XK.<.:.{ { o.#.#.B e o   O 3 O   . c H.@X@X!.2.o.2.(.{..XrXHXDXFXFXFXFXFXFXFXFXFXFXFXFXFX",
"FXFXFXFXFXFXFXFXCXFXFXFXAXFXZX5XP.:.{ { 2.7.:.[ s i . @   O   X   X g G.XXXXv.2.[ e.v..X*XLXMXHXFXFXFXFXFXFXFXFXFXFXFXFX",
"FXFXFXFXFXFXFXFXHXFXSXHXHXHXxXR.$.#.#.o.X.B s f N s ; Y.3X2X3X2X8 - $ r I I.OX(.6.] 6.!.#XtXVXSXFXFXFXFXFXFXFXFXFXFXFXFX",
"FXFXFXFXFXFXFXFXHXZXFXFXHXHXpX) V.V.S.C.S M z v m M / sXDXDXDXHX( 9 - 8 1 d >.I.+XV.B.H.+X0XvXSXFXFXFXFXFXFXFXFXFXFXFXFX",
"FXFXFXFXFXFXFXFXHXZXFXFXCXHXZXvXbXnXnXbXZXSXAXSXVXHXAXFXFXVXFXSXZXnXZXFXAXBXSXZXkXZXxXZXZXVXDXzXFXFXFXFXFXFXFXFXFXFXFXFX",
"FXFXFXFXFXFXFXFXFXFXFXFXFXFXFXFXFXFXFXFXFXFXFXFXFXFXFXFXFXFXFXFXFXFXFXFXFXFXFXFXFXFXFXFXFXFXFXFXFXFXFXFXFXFXFXFXFXFXFXFX",
"FXFXFXFXFXFXFXFXFXFXFXFXFXFXFXFXFXFXFXFXFXFXFXFXFXFXFXFXFXFXFXFXFXFXFXFXFXFXFXFXFXFXFXFXFXFXFXFXFXFXFXFXFXFXFXFXFXFXFXFX",
"FXFXFXFXFXFXFXFXFXFXFXFXFXFXFXFXFXFXFXFXFXFXFXFXFXFXFXFXFXFXFXFXFXFXFXFXFXFXFXFXFXFXFXFXFXFXFXFXFXFXFXFXFXFXFXFXFXFXFXFX",
"FXFXFXFXFXFXFXFXFXFXFXFXFXFXFXFXFXFXFXFXFXFXFXFXFXFXFXFXFXFXFXFXFXFXFXFXFXFXFXFXFXFXFXFXFXFXFXFXFXFXFXFXFXFXFXFXFXFXFXFX"
};
