/* XPM */
static char *_9e9f06a51ac4330fea98deb96141018kCHkKmehRzv95dc4[] = {
/* columns rows colors chars-per-pixel */
"60 60 245 2 ",
"   c None",
".  c #030102",
"X  c #0C0201",
"o  c #060709",
"O  c #130202",
"+  c #1C0201",
"@  c #1C0D0B",
"#  c #130909",
"$  c #1A110D",
"%  c #1C1414",
"&  c #191718",
"*  c #0B1218",
"=  c #260503",
"-  c #340205",
";  c #28160C",
":  c #271816",
">  c #341915",
",  c #36110F",
"<  c #3A221B",
"1  c #33231B",
"2  c #332414",
"3  c #151C28",
"4  c #3A1D22",
"5  c #1B242A",
"6  c #192833",
"7  c #0E2022",
"8  c #2B2626",
"9  c #362928",
"0  c #2A353B",
"q  c #3A3637",
"w  c #312C31",
"e  c #451D07",
"r  c #441B14",
"t  c #551215",
"y  c #7B0A06",
"u  c #7A160D",
"i  c #661619",
"p  c #76181A",
"a  c #740B10",
"s  c #482518",
"d  c #522D16",
"f  c #551B24",
"g  c #741C22",
"h  c #472827",
"j  c #572A25",
"k  c #43342C",
"l  c #493629",
"z  c #57372A",
"x  c #4B3C39",
"c  c #473835",
"v  c #563A37",
"b  c #512A33",
"n  c #67272A",
"m  c #75272E",
"M  c #683B29",
"N  c #77392C",
"B  c #66393A",
"V  c #763636",
"C  c #6E2B33",
"Z  c #71211A",
"A  c #3F413E",
"S  c #48413B",
"D  c #5D4333",
"F  c #5C443C",
"G  c #5D493C",
"H  c #554439",
"J  c #5E4429",
"K  c #65442D",
"L  c #6B432D",
"P  c #69472A",
"I  c #70482B",
"U  c #654434",
"Y  c #6B4432",
"T  c #644835",
"R  c #6B4A35",
"E  c #63463B",
"W  c #6B453A",
"Q  c #654B3C",
"!  c #6B4A3B",
"~  c #724433",
"^  c #734C34",
"/  c #744C3C",
"(  c #764839",
")  c #6C5137",
"_  c #77523C",
"`  c #373948",
"'  c #2F3C44",
"]  c #583C47",
"[  c #723D45",
"{  c #394144",
"}  c #494446",
"|  c #5C4A44",
" . c #584847",
".. c #595657",
"X. c #534E4F",
"o. c #644C42",
"O. c #6C4D43",
"+. c #674A49",
"@. c #764847",
"#. c #655244",
"$. c #6B534B",
"%. c #6A5448",
"&. c #785647",
"*. c #635452",
"=. c #695956",
"-. c #795957",
";. c #634E52",
":. c #65615A",
">. c #76645B",
",. c #565A6D",
"<. c #655D63",
"1. c #795B63",
"2. c #596667",
"3. c #686769",
"4. c #766767",
"5. c #77726C",
"6. c #697376",
"7. c #757377",
"8. c #706E74",
"9. c #5E6158",
"0. c #82090A",
"q. c #841716",
"w. c #8A0F13",
"e. c #86261A",
"r. c #842824",
"t. c #873937",
"y. c #973B39",
"u. c #8F2F2A",
"i. c #821E20",
"p. c #84563B",
"a. c #81413F",
"s. c #844245",
"d. c #8A5B46",
"f. c #845D4C",
"g. c #865946",
"h. c #915E4B",
"j. c #895C54",
"k. c #945250",
"l. c #A75250",
"z. c #8B614E",
"x. c #95644C",
"c. c #896557",
"v. c #936554",
"b. c #996A55",
"n. c #976859",
"m. c #9D785E",
"M. c #8C5A63",
"N. c #866A67",
"B. c #976C63",
"V. c #867267",
"C. c #9A7569",
"Z. c #857776",
"A. c #9B7877",
"S. c #A97965",
"D. c #A27059",
"F. c #C57D6E",
"G. c #8E867B",
"H. c #A48578",
"J. c #B88A77",
"K. c #B28C72",
"L. c #C5957E",
"P. c #D6967E",
"I. c #CAA17F",
"U. c #576684",
"Y. c #727E82",
"T. c #6C7889",
"R. c #807A84",
"E. c #798388",
"W. c #778A8F",
"Q. c #7B80A0",
"!. c #878589",
"~. c #95908E",
"^. c #989395",
"/. c #8B8A8D",
"(. c #A78B86",
"). c #AB9487",
"_. c #BC9389",
"`. c #A69B97",
"'. c #B49891",
"]. c #AAA29D",
"[. c #BCA593",
"{. c #9D9CA3",
"}. c #A9A5A6",
"|. c #B7ADAB",
" X c #B3B1AE",
".X c #B5ACB3",
"XX c #BAB6B6",
"oX c #ACAEB8",
"OX c #9C9FA9",
"+X c #C79B8A",
"@X c #CB988E",
"#X c #E79987",
"$X c #CBA489",
"%X c #D6A589",
"&X c #C8A798",
"*X c #D4A894",
"=X c #D7B49B",
"-X c #E4A78C",
";X c #C7B3AA",
":X c #D8B6A7",
">X c #C4BBBC",
",X c #D7B7B1",
"<X c #CFAAA3",
"1X c #E8BBA8",
"2X c #E1BBB2",
"3X c #BFC0BB",
"4X c #C6C5BB",
"5X c #DBC5B2",
"6X c #E6C5AB",
"7X c #F5C9AB",
"8X c #EDCAB5",
"9X c #EACAB8",
"0X c #F7CCB6",
"qX c #EDD3BC",
"wX c #EBD3B6",
"eX c #F4D3BB",
"rX c #FDD2BD",
"tX c #F7D5B8",
"yX c #FED0AF",
"uX c #ACBBC2",
"iX c #B4BBC2",
"pX c #ABB9D3",
"aX c #C3BFC2",
"sX c #B4C1CA",
"dX c #C4C2C4",
"fX c #CBC7C8",
"gX c #D7CBCB",
"hX c #D7D3CB",
"jX c #CBCAD5",
"kX c #D5CDD3",
"lX c #D9D7D8",
"zX c #EACCC1",
"xX c #EAD7C7",
"cX c #FAD8C6",
"vX c #E6D6D3",
"bX c #F4DCD9",
"nX c #F1CFC8",
"mX c #F7E2D7",
"MX c #F3E6D3",
"NX c #D5DEE2",
"BX c #CCD6E8",
"VX c #DCEBEE",
"CX c #F6F6F6",
"ZX c #E7EBF0",
"AX c #ECDBE1",
/* pixels */
"                                                                                                                        ",
"                                                                                                                        ",
"                                                                                                                        ",
"                                                            *.                                                          ",
"                                                      q 8 1 > 9 < < 1 k                                                 ",
"                                                8.3.8.8 : k v v v H v G                                                 ",
"                                        } . . . . X . X X F $.F o.O.o.G ; 2 2 ;                                         ",
"                                        X.# : : : : @ ; ; l E Q o.F o.H H l l k                                         ",
"                                X . X X k =.| F o.o.#.#.%.h s z o.o.E Q Q T Q T l ;                                     ",
"                                % X # + k O.E O.W z Q T G z s v o.Q Q Q U M / W j s                                     ",
"                            # $ } X.x | $.E &.f.z.R R U D Q D o.%.E E W W / v.v.&.U E =.x .                             ",
"                            . . ..*.| | W z f.B.&.L L R T ! T T E T W Y ~ Y h.n.( W ! $.c X                             ",
"                            }.~.: ; | F -.c.&.z.v.g.f./ Y Y U R W / / / z.d.v.n.h.f.z , ; x ..                          ",
"                              >XX X v G c.C.B.B.B.v.v.L M Y M R ~ Y M ~ b.b.b.h.v.S.z O < $.=.                          ",
"                            >XXX1 2 H o.z h z j z c.z.g.g.d.p.( L ( g.p.( p.x.v.g.f.z > l o.#.5.                        ",
"                            kXfXk 9 | =.> + + + = C.c.m.b.x.D.d.M p.b.v.L L x.b.^ M W &.O.F | 1 8                       ",
"                          >X^.~.x k c c 1 > , > < o.E &.d.g.d.^ M ^ z.&.L _ _ d./ Y ( W ! Q H 8 8                       ",
"                          ].: 9 | *.@ O 9 =.$.O.c O + z ^ L / Y ^ L Y W U K I K ( ( ( U Q #.x . . }.                    ",
"                           X9 9  . .% # 9 Q T ! D + , E O.D D O.R K W ! W R R / W W W ! Q G S X o  X                    ",
"                        gX`.9 9 X . x G Q R _ v.f.W W Q E O.G D R Y W ! W K K Y Y W W ! Q #. .X X  X                    ",
"                        hX^.9 q # X G T P I p.x.d.~ ( ! W ! ) J P R Y W R K ^ ^ R W Y W T G H O X  X                    ",
"                        fX`.# # c F T P p.x.p.x.x.h.v.f.c.Q ) R P m.8X1X+XJ.^ L Y Y R T T Q F O O  XfX                  ",
"                        vX].X @ *.$.Y L p.b.x.b.b.v.v.B.C./ z I d m.cX8X+X$XI P K T Q D Q $.v O X }.kX                  ",
"                      ^.Z.=.# @ ; , / d.h.n.g.M V n.j.j r H.*X$XJ.=X8XrX1X1XK.H.&.D G #.v ; 4 c c XXfX                  ",
"                      ~.X.x O X O O &.B.B.C.@.r j B.n.+ + &XcXcXrXrXeX0XcX0X$X=Xc.G o.%.k X X <.<.>XaX                  ",
"                      !.8 k  .*.O + -.c.j.@.B j j &.! &.>.,XqXeX8XtXrXcX0XrX*X$Xz.z G l x *.X.9 8 XXfX                  ",
"                      5.. 9 >X|.$ X -.A.W r j r s e e cXmXxXqX8X0X7XrX0XyXyXI.%Xg.M z 2 &.,X`.O # .XdX                  ",
"                      7.X 9 |.`.: # v -.z s M M I ^ ) 6X9X9XcXeX0X0XcXrX7X7X%X-Xh.~ M e / :X(.X # .X                    ",
"                      5.X q ;X`.k k O O r s _ :X:XcXcXqXqXcX8XrXeXcXeX8XL.$XyXyXx.N M e &.=X(.O X dX                    ",
"                      G.. 9 |.`.c k ; + > s &.&X[.5XzXxXqX8XeXeXxX9XnXzX&X&X1XrXb.M ~ s / [.).X # }.                    ",
"                          ~.@ : H *.% X V.;X'.`./.` q fXmX9XcXqXmX}.& } `.).xXcX<X@XB.E v + 9 >XaXdX                    ",
"                          `.. X  .*.% O >.;X`.~.T.6 ` jXvXcX8XzXAX{.3 ` ^.~.gXbX,X,XA.+.h X & jX                        ",
"                          XX]./.: $ c b ).nXgXlXpXU.U.jXvXqX8XqXvXoX,.T.BXNXhXxXA.-.v = l ].{.jX                        ",
"                            fXdXX . ] +._.cXMXCXBX,.T.jXvXqXeXwXMX.X,.Q.CXCXxXxXN.v > O k vXdX                          ",
"                              3X5.5.=.v J.1X6XMXkXOXXXvXxXwXeXeXxX4X.X.XAXxX=X1Xj.@.-.4.G.4X                            ",
"                              XXhXhXN.v J.*X=XeXnXmXvXzXqXtXtXwXxXxXAXbXnXeX%X%Xj.B (.hXhX                              ",
"                                XX>X;.v c.K.I.7X6XqXqX8XtX7X6X6XwXqX9XnX2X1XJ.K.@.h Z.fXXX                              ",
"                                fXlX9 O s z v.$X=X8XcX0XyX%XL.6XwXtXcX8X*X@XM Y ; X 8.lX4X                              ",
"                              dX`. Xw # x o.V.)._.8X1X7X7X%XP.1X7X6X0X1XJ._.W O.: X ..iXoXdX                            ",
"                              XX$ . q } }  .> + - @.N #XP.#X-XP.*XS.N M - = v  .S X.5 . } jX                            ",
"                          dXkXXX# . q } X.} h = r s.t.#X#X#X#X#X#XF.N N - - ] ] } X.8 . { NXXX                          ",
"                          ^.$ 9 *. .3.<...} v h n m p u.e.e.u e.u.r.Z n f f ] ] ..:.:.9.q & q fX                        ",
"                          ].X O =.>.=.3... .v j t i p a u y y y q.u p i n b ] X.=.=.=.>.k X @ gXhX                      ",
"                        4.V.G.N.(.'.4.>.9 : h &.a.y.y.q.q.0.0.0.w.e.y.t.s.[ : : ..:.V.).H.V.C.N.Z.XX                    ",
"                        c -.;X&X@X<Xc.5.9 X > B.n.k.l.q.0.0.y w.q.u.l.l.k.-.+ X  .>.H.=X*X$X+Xv x XX                    ",
"                        F c.<X:X:X2X-.#.1 + r @.t.t.y.i.q.a 0.w.q.r.y.t.a.@.= O  .o.H.1X*X6X*XO.$.                      ",
"                        l -.cXcXcXcXV.#.< + r f i g p p p a u p g g g i i j = =  .] '.mXrXtX9Xz H                       ",
"                        $.C.,X<X,X;X#.x 1 + h B V C V m m g i p m C C V n B , ; h x A.,X:X6X[.>.                        ",
"                            k | F H ; X 9  . .4.-.1.M.-.M.C t [ M.-.-.N.=.=. .} @ X < o.D v $.                          ",
"                            ;.*.=. .: X 8 } ..<.3...4.4.1.b 4 +.1.4.<.=.7.3.} X.% X x >.o.o.-.                          ",
"                                >XgX9 . X.^.7.E.E.Y.E.E.7.<.<.3.7.7.R.8.E.Y.6.E.5 . 4.                                  ",
"                                  gXw . ..!.6.Y.T.W.W.E.W.6.2.Y.R.!.E./.6.Y.Y.W.6 . 3.                                  ",
"                                  fXw o 7.dXiXsXOX6 6 6 0 7 7 5 5 6 5 ' uXuXoXuX0 o 3.                                  ",
"                                    8 . !.CXNXZXuX. o o . . o . o . . 7 VXNXVXVX0 .                                     ",
"                                      7.3.3...3.<.7.7.3.7.8.8.7.8.8.6.3.2.....3.7.3.                                    ",
"                                        A . . . &                       . . . .                                         ",
"                                          q X.} ..                      S S } x                                         ",
"                                                                                                                        ",
"                                                                                                                        ",
"                                                                                                                        "
};
