/* XPM */
static char *_22629ff42094d1ddbb516fd7cfb2abcC0u6r1915AJAp0KO[] = {
/* columns rows colors chars-per-pixel */
"60 60 165 2 ",
"   c #002700",
".  c #032D00",
"X  c #0A2F00",
"o  c #053300",
"O  c #0B3500",
"+  c #0E3A01",
"@  c #103700",
"#  c #1B3706",
"$  c #133D01",
"%  c #193E01",
"&  c #143F0A",
"*  c #183D09",
"=  c #154201",
"-  c #1A4502",
";  c #174904",
":  c #1D4A03",
">  c #16420A",
",  c #1B460A",
"<  c #1D4A0A",
"1  c #1C5106",
"2  c #1A4713",
"3  c #1E4B13",
"4  c #224501",
"5  c #224C04",
"6  c #294E02",
"7  c #21460D",
"8  c #234D0B",
"9  c #294E0A",
"0  c #255105",
"q  c #2A5306",
"w  c #25520C",
"e  c #2B540C",
"r  c #2D590D",
"t  c #31560B",
"y  c #325B0D",
"u  c #3A5D0D",
"i  c #345C04",
"p  c #224D12",
"a  c #2C4C16",
"s  c #254D18",
"d  c #255212",
"f  c #2B5513",
"g  c #275816",
"h  c #2D5A13",
"j  c #265118",
"k  c #2C551A",
"l  c #2D5A1A",
"z  c #315611",
"x  c #335C14",
"c  c #395E13",
"v  c #335D1A",
"b  c #3A5E1B",
"n  c #36610F",
"m  c #39620E",
"M  c #356115",
"N  c #3B6315",
"B  c #3E6816",
"V  c #35611B",
"C  c #3F601B",
"Z  c #3C611B",
"A  c #3B6418",
"S  c #39651A",
"D  c #3C6519",
"F  c #3F6518",
"G  c #3D6618",
"H  c #3E671B",
"J  c #3A621C",
"K  c #3A631D",
"L  c #39601F",
"P  c #39641D",
"I  c #39671F",
"U  c #3D671D",
"Y  c #3F641E",
"T  c #3B641B",
"R  c #336818",
"E  c #3E681E",
"W  c #3E691C",
"Q  c #345721",
"!  c #335D23",
"~  c #385E21",
"^  c #346120",
"/  c #366223",
"(  c #396220",
")  c #3C6521",
"_  c #3C6522",
"`  c #3F6921",
"'  c #3E6A22",
"]  c #37622A",
"[  c #3D6629",
"{  c #3E6A2A",
"}  c #3F7021",
"|  c #416516",
" . c #436A17",
".. c #476A16",
"X. c #406718",
"o. c #40651F",
"O. c #41661B",
"+. c #416819",
"@. c #436A19",
"#. c #43691C",
"$. c #416A1C",
"%. c #416A1E",
"&. c #446A1D",
"*. c #476E1D",
"=. c #436B1D",
"-. c #486F1E",
";. c #496E1E",
":. c #46721C",
">. c #4B721E",
",. c #416623",
"<. c #426622",
"1. c #416920",
"2. c #406A20",
"3. c #436C20",
"4. c #406F21",
"5. c #446D21",
"6. c #466F21",
"7. c #406925",
"8. c #406B24",
"9. c #446924",
"0. c #456A25",
"q. c #466B26",
"w. c #436C23",
"e. c #486C24",
"r. c #486E25",
"t. c #496E23",
"y. c #436E29",
"u. c #456E2B",
"i. c #496F2A",
"p. c #467124",
"a. c #4D7423",
"s. c #4B7126",
"d. c #4B7325",
"f. c #4E7926",
"g. c #477129",
"h. c #46712A",
"j. c #49702F",
"k. c #4B752D",
"l. c #4C742E",
"z. c #4D772F",
"x. c #4B742C",
"c. c #4E782B",
"v. c #537727",
"b. c #517827",
"n. c #52762C",
"m. c #51762B",
"M. c #50792D",
"N. c #527B2D",
"B. c #527A2C",
"V. c #587F2E",
"C. c #466E30",
"Z. c #4C7432",
"A. c #4F7A33",
"S. c #517630",
"D. c #507A30",
"F. c #517A32",
"G. c #5A7E32",
"H. c #507839",
"J. c #537C3A",
"K. c #578032",
"L. c #578134",
"P. c #5C8237",
"I. c #5A8235",
"U. c #568038",
"Y. c #59833B",
/* pixels */
"N - 6.r x - O s - f 8 f z e A b P P _ O $ H.L @ x o.A x x e w x d + , g w w f < J r + g.x h = b R - w = I w z N m  .b.O.",
"3.y K.r x f $ X 8 - 9 b q.q.z 4 h e b 9 5 b v v x x 9 e - - - h = , 3 , : h h = h = h l.x.e 6 6 3.w < I w = e F.=.@.@.@.",
"y 0 N.5 : d f p l.O z b $ v j.x y z T ` x 4 : e v 8 $ v 8 f : f $ $ + = w f w 8 z q.T 0 t d.y &.%.G w 8.- = - = F F A %.",
"%.0 6.5 : : d d G e x f 8 f f v x 1.%.x N 9 5 + d $ $ ^ h d < w - % X $ f e - s <.% e r.e O.t ;.y n.o.h $ o L y.y y 0 x ",
"N.e G e E V h - A e e v 8 d v % w A x 4 N J I : d + d V v : w f e v > O e V 8 - b - x y P.G 6 a.4 r.x P ( - e 8.1.x 6 r ",
"N x %.0 3.g.8.d 0 x.: + p < 6 h - e G t s.J h d - O 8 f x.b x - d.j.f 5 x x 8 < b 8 x 9 4 3.3.x J j.$ % 8 V e h P P x x ",
"6 6.N.5 x x x d = h v 8 < f x q < 5 0.O.G.z $ , - = - - w.0.x - f.6.x x T z 8 k = w O f - h + w + v v 8 - 8.p.y % e V w ",
"% G c.0 3.x w - ; w l = d Z.A t g - T t m.e O 3 [ Z.) 5 r O.6.s.i O.A z c A b v < h w h < f g : d + l = = 5 6.0 - f _ e ",
"z r 6.y %.y T 9 h T e x - J p.x.V h h x x b $ e e %.G.x r 0.b e w I 5 e = I l $ d w x y r $ p 3 h d - ] O < < v - r.z O.",
"1.G G y G A T b 9 1.w.z = - z r e w - w e - 4 I A t y 6.d.1.I e 5 h 5 r = h d < + f ` 3.G 9 d d - < - [ k ^ : : q B.N a.",
"1.1.G 6.=.G 0 6 9 J l.V e = x r + V h e b x g.P B.s.M N e x F.J h e w x - w $ = 8 e : N g._ w , v O = 8 J.: - w y a.N a.",
"J x 0 y M A x 0.r e V A ` h _ v h f h L _ - 5 5 d.d.d.G 0 A N.e P w w M w l + o w x : 3.E r = v v -   f u.z 4 L.4 t e n ",
"e y G p.d.N r r w e : r r P v 8 f f v O = h e $ c.4 q N y M M r w < < w w v < + z 0.e 0.M z 4 1.f _ h x 3.J e g.e x T 0.",
"l.1.d.G y 5 e 5 - V 5 e $ ) v % v + - - 8 h 8 v p.= w x 0 w 0 V = 8 : < - 8 l < q.Z.6 r e 3.G 6.b %.I.e I.- 9 r v 8 8 e ",
"r e A d.y N x 5 < I w M = x d & : 8 f d - d 8 $ 4 r 0.w.h 8 8 < = f - w : - ^ 8 A e.e M 0 x @.B.y N y B =.r 4 P l.r e 4 ",
"r 6 e d.5 p.d.x h h : A : : $ + = 8 w u.f 8 v f 9 I b V h 8 h : > k = l V 8 ' 8 o.5 - z.F.=.y u B a.B m G J 5 , M 5 A G ",
"l h : x.=.B >.u y - z ( - v % X - - h x 3.M M r c x c y q 0 x.: 4 s.o.&.c - r G r G N a.u =.6.- w M 0 y B.=.y h x x x d ",
"8 h 5 G n M a.;.%.t 6._ % f $ d = = h - Y.r e 5 Z c q t 0 : E e G l.x F.1.r M l.M A y ;.N O.%.r L h - t @.M A h r x.e w ",
"9 x e =.a.=.d.;.A x 0.P - b 8 j.1.` 6 + J h h l.b i.r.I.c.G N 6 V 1.6 w.h w 0 x 1.1.y d.O.t e x v e 4 0.0.y x $ = N.r T ",
"b z : F V.;.u u p.z.x.x r e 4 0 M p.x 4 : 5 9 ' 4 J e J G p.p.x.e V 5 e 5 w < - ) w.J d.6.x 0 w.v f - 1.Z.J u.x n d.0 = ",
"u.T 6 q d.6.N t 5 %.A 0 6.r 3.y 0 y z.e e - x - 8.1.- : - : 5 A v 8 = = d d h ; % d 5 h x z e x.d x % x j.r r z N r N.d.",
"h _ I 6 x E T w e 3.E r 0.4 %.z M x E z w b w.8 6.y : b _ e 5 ' Z.$ O $ V < d < $ 8 - : : w - 8.4 x 8 f [ 5 $ 5 O.% s.c ",
"$ : v - : w f - 0 0 r x T e x i.r h 5 J e w.h : I.A e w v < : f Z.% - f ( > < p k k l h w e - _ c h h 8 w h x G.e 4 B.d.",
"d = d < 8 - l l S - e ` x f O v V e 0 5 ` x e e :.n r $ 8 w w = 7 $ d ] d % % < * % d V h e - b J e _ f = w 0 @.f <.6.@.",
"6 A M - w x e x ; I 3.6.I.d.r r h h < - ' $ < d M - : I x 8 d = 2 + ' 6 x O ! O b h w d f l + d x e d < l h w.4 A 5 M 6.",
"=.N.E = h f e 5 h f 5 0 - E 3.x = < V : v f h = r 0 0.1.9 + ^ g + < V e J b k O e P w % - ^ h l M h = o = 8 8 F.I 5 y p.",
"d.s.x : ` 8 v 8 + ) : 6 N U.e e v 8 e f h % h w : J J 9 8 % - - d [ 0.q q x % % e e 9 $ % v - v 5 - w g o < - v p.w e E ",
"@.G 0 x 8.- p p - d 8 b z F.T 5 f v - $ - $ 0.V A I h y.- v f $ = - s.&.v.=.z P <.z i.e e j.$ v e h L v   < k < f - : M ",
"y p.q G e % - + > = < 9 5 x V 9 8 d : % e - 5 V 0 ` - f 8 f - z h $ A | *.6.x e c x.S.b x g.8 - 5 x H.b f [ = % e w e f ",
"- g.x c % d d $ O < < = f e e x u.8 ' I H.8.$ J.1.5 w l d w Z.0.h : y F 6 B.c.p.q F.4 o.T 5 x 5 _ % F.r : Z.- Q - w ) h ",
"% P A t - _ ! > k < f h + r l.G - % e = 9 _ - v T 5 = $ g 8 ` N V ` z.K.@.=.A r M p.$ p.g.= M ` d O d.B.4 l.h : % e ' - ",
"d b q.c z P d O 7 _ v M - E G A 1.J e T h - d - g.r w l , d 1.0 < - 0 e c.q q 0 x M : x x 0 w ' = 8.e | $ N T w 5 P H.5 ",
"r 0 y z T g.e 6 0 V h h w h w V h e : w h e h r p.z.1.5 J $ u.9 h 9 9 _ 9 ` x y 1.r % x p.0 r } h L = g : h z y l.M d.a.",
"q x M 4 z _ g.h e V L 8 d : - - x 5 5 f L L w w A . e Y.P $ u.% I f 8 f - e 0 0 f z 4 x A 0 : e 4 h : 8 : e T G x 4 M *.",
"N.G G T ` % I v w h L $ d = w - f - w g d < + $ - = h j.w - h 6 = + = d w f e 0 d w : x.g.h 5 d.- e w 8 w 9 x e A 5 y *.",
"M y 3.x w + f + < w l + < > v f l < - d j , + O % u.d 5 - e - x l p + + = = w r l f = 8.I r - 6.E I V V b V x z G 0 t *.",
"6.A l.` 8 8 8 > - d f > $ < f d f > . = j 3 2 O k 8 O l 5 P w : O $ $ d L h x e d V - 6 e d.y c g.1.z T r J z 0.3.x r @.",
"x.w h h = = O < - w p d + > - - $ = + & & + > & k O O _ : f h $ p k - h x r h r e x 6 e J Y.&.o.w x x 6.6 z - b d.%.r h ",
"w f f = w ) ( < 8 8 > k + < = = + > ] p $ > O 3 + > > f - = v = X p % T 6.%.F N @.F c x %.3.0 r : y =.s.A o.6 8 M N 4 : ",
"w w < < h.f v O ) d > d $ , > - +   ! > = ] . + o + - l 8 $ u.: a [ % x y M c A ..a.v.y G 6.r r w e F t | n.J 8 M G 0 : ",
"r E y G G h - - b x - _ e - $ 6 + % ,.z b - = + r F >.u t 4 t 4 A P.- *.m y F N - z G q =.0 A O.z 5 u.- 5 : w f 8 h 8 v ",
"5 : p.q r.x.P x h ` + P x J Z.q., - 9 % c _ ] . $ A m N.N.x.n.c 4 d.t y @.G F.E Z._ r - y 6.x M h = v I $ 5 e : - f w 5 ",
"- - %.c 4 c t T = I b _ % - ( ~ l h J t e 5 u.h - g.- M e x 8.=.z h e x V $ $ - $ 8 ) V e g.: r d < d H.h z x e x V J 1.",
"f e 9 x.% - r G 5 - g.8.- v % , < : e %.G 6 w.- = j.e V : - w G x x V P v _ p 3 + = - : : g.: = = p $ v u.e x &.I 5 e l.",
"u.8 r e.O.c l.T A - ` 8.9 f @ 7 = : 4 0 t F I.: % b 3.V v 8 0 d.1.: V - v d > O 8 l h 5 = - < - > d o w I 4 A m.E 5 0 E ",
"V : _ 6.r F.P h E r h P 5 % 9 P w x x z 4 0 m.F b r G 4 f 8 e f.T - O 0.5 u.$ ! v h f x P w f $ - - - Z.e w E x M J %.r ",
": w V p.O 1.- < I x : r 3.0.l.1.f w e I N c t 6 x.c &.c 8.d r y c.e V.5 J 5 f - v 8 J V w = h u.% - f j.: - h = % c 0.: ",
"1 1 : V 5 w f < e M x.A 6.z.x 0 d f w : e c.m.a.t.N u A _ 8 x y e.0 d.d.%.e h _ Z.- w r e e 5 ( h x u.e w $ V f - T F.x ",
"x - < L < < > d 9 e A.E r d.O.y ' x 5 u.<.r.s.O.a.@.x y z 6 5 h h M @.=.F y y N d.G w.e - h - ' < - ~ $ - - f f - f Z.x ",
"6 x V + o f l = x 5 V ' 0 p.@.c = w e h b x.n.4 t | =.=.G M e w 5 r M =.| =.@.%.%.A r u.= f : 5 e - r e T w.0.- e e I w ",
"T d.j.$ = f v 8 0.e : V : G d.@.x x e P z x b h q @.d.%.x M x e w M E d.&.d.%.x x 0.5 A.b x w 5 =.G d.d.q : M M G z N 6 ",
"6 x x.J I h - $ d.A : w : x p.a.r.x 4 d.e - $ _ M p.p.G r M M x w h 6.6.| A x - - ` = w x.w 4 V r e r c.G q y %.y y 3.T ",
"6 O.N.g.J j.P h x 3.h = h r F =.z e y E E h : w r r y E 0 r 0 6 : w l.&.=.c 3.6 : h - - I w 5 x.- 6 $ r I 1.x w.6 6 G 8.",
"0 e x r + h h f : V _ + l e r r b 5 A q L.M w $ h : - I 6 e 6 r 8 5 g.e.&.A F.T v 8 e A - z z g.8 u.P - $ x 8 L f - : e ",
"x : A 0.< - : - : 5 v + < l e 4 ^ - r 0 d.0 - 8 _ w : [ 9 v b q.w : r N 6 y 1.J f = x p.- r J h e z g.e 5 x.h - p + + w ",
"p.5 ' h + + h < h $ d = + ! f - , w f S B G e i.l - = v % f z b P e 5 G % x T T < : w.p.6.x 1.r E - g.M 4 x.T r > o + l ",
"l.- r M + 8 0.0 > p > O { h M r e x = v 0 0 e u.o p.Q 4 0 k x % : x - I g.r I - 4 1.y x 6.r r d.r 6 4 1.e.%.y y $ 8 k d ",
"J %.0 - u.C.5 q $ > = $ C.h f r x z : h r r z P , M 7 5 r k G a e V 5 x V w I w z 1.0 e E 0 q p.1.V 6 x x A A o.I h f < ",
"w A A e ( [ 9 e 8 w - - { > - : G x 8 f I A V 8 l A a t y j G a h b w e 5 5 h h %.%.5 e E 0 5 ` 1._ e z e c 1.T ` 8 8 d ",
"w 4 c.T O 8 _ e V f : - l O + > %.b 8 x =.p.P % < :.Z.@.q p 3.# e h e w - w 5 e 3.G e A g.e - A 8 x r A e x T 9 V O - v "
};
