/* XPM */
static char *_2298d4d6d0e451dcf48ccefd8f869adKlUVHomHpjYCcfMS[] = {
/* columns rows colors chars-per-pixel */
"60 60 242 2 ",
"   c None",
".  c #020101",
"X  c #0B0301",
"o  c #0B0A0B",
"O  c #0A0708",
"+  c #120101",
"@  c #1B0201",
"#  c #150A03",
"$  c #130E0B",
"%  c #1B0C09",
"&  c #180608",
"*  c #17120C",
"=  c #1D1B1C",
"-  c #181612",
";  c #130F0B",
":  c #260505",
">  c #390709",
",  c #281509",
"<  c #37160D",
"1  c #291B16",
"2  c #381B1B",
"3  c #3E0911",
"4  c #1E2015",
"5  c #3C230D",
"6  c #2B231B",
"7  c #25251A",
"8  c #3B2414",
"9  c #32251D",
"0  c #342A1C",
"q  c #3C2C1C",
"w  c #382614",
"e  c #3D311A",
"r  c #1B1E31",
"t  c #2C1E21",
"y  c #232222",
"u  c #2A2727",
"i  c #3C2D23",
"p  c #332E2A",
"a  c #352926",
"s  c #3C3125",
"d  c #3C332A",
"f  c #363328",
"g  c #3C3333",
"h  c #3C3934",
"j  c #38373A",
"k  c #2D2D30",
"l  c #461E1B",
"z  c #501413",
"x  c #6A1819",
"c  c #7A1516",
"v  c #7B0D10",
"b  c #41240F",
"n  c #422D1C",
"m  c #452816",
"M  c #532C19",
"N  c #44311F",
"B  c #4C321C",
"V  c #68251F",
"C  c #681D23",
"Z  c #7B1A21",
"A  c #422E22",
"S  c #4C2E23",
"D  c #452625",
"F  c #582827",
"G  c #433224",
"H  c #4A3423",
"J  c #4B3A25",
"K  c #46352C",
"L  c #4A3B2D",
"P  c #45392B",
"I  c #5B3D2C",
"U  c #563828",
"Y  c #433A33",
"T  c #4C3C35",
"R  c #463938",
"E  c #553D33",
"W  c #573936",
"Q  c #6B2728",
"!  c #752928",
"~  c #643D29",
"^  c #663A26",
"/  c #792B31",
"(  c #633E35",
")  c #663936",
"_  c #753A37",
"`  c #78352D",
"'  c #5D422D",
"]  c #57412A",
"[  c #47473C",
"{  c #574334",
"}  c #5C4534",
"|  c #53443B",
" . c #5D433D",
".. c #5D4938",
"X. c #69422E",
"o. c #66432F",
"O. c #644533",
"+. c #6A4634",
"@. c #654935",
"#. c #6B4935",
"$. c #64453B",
"%. c #6B4639",
"&. c #644A3B",
"*. c #6B4B3B",
"=. c #71443C",
"-. c #744D3C",
";. c #774937",
":. c #6C513B",
">. c #74523D",
",. c #7C543D",
"<. c #784029",
"1. c #313C51",
"2. c #122746",
"3. c #473B46",
"4. c #743641",
"5. c #4A4647",
"6. c #5C4C44",
"7. c #584B46",
"8. c #525348",
"9. c #5B5758",
"0. c #644643",
"q. c #644C43",
"w. c #6B4B42",
"e. c #64474A",
"r. c #784D43",
"t. c #6B5342",
"y. c #6B534C",
"u. c #64524A",
"i. c #7B5242",
"p. c #785648",
"a. c #665958",
"s. c #795D55",
"d. c #6A6358",
"f. c #776A5C",
"g. c #7F604E",
"h. c #635D61",
"j. c #55657E",
"k. c #6C6B6B",
"l. c #676463",
"z. c #796968",
"x. c #7D7365",
"c. c #646679",
"v. c #7D7777",
"b. c #89201C",
"n. c #862427",
"m. c #8D3836",
"M. c #881A19",
"N. c #82493E",
"B. c #81553C",
"V. c #893B45",
"C. c #855846",
"Z. c #965B48",
"A. c #955E53",
"S. c #844E4D",
"D. c #86624A",
"F. c #8B644C",
"G. c #94634D",
"H. c #976248",
"J. c #8C6354",
"K. c #8B6757",
"L. c #936553",
"P. c #9A6457",
"I. c #956B52",
"U. c #9C6559",
"Y. c #936C5A",
"T. c #966959",
"R. c #8B725A",
"E. c #A26855",
"W. c #896966",
"Q. c #946E62",
"!. c #9C746C",
"~. c #997366",
"^. c #897575",
"/. c #917472",
"(. c #A37D7A",
"). c #A38576",
"_. c #BC997B",
"`. c #B08D71",
"'. c #9B8971",
"]. c #CB9978",
"[. c #D69D7D",
"{. c #C49471",
"}. c #CDA17B",
"|. c #D1A678",
" X c #536B8B",
".X c #687B8C",
"XX c #9A7F84",
"oX c #898486",
"OX c #928986",
"+X c #9B9B9B",
"@X c #969293",
"#X c #9A928C",
"$X c #AA968D",
"%X c #B49888",
"&X c #A69B9B",
"*X c #AB8287",
"=X c #BCA497",
"-X c #A4A095",
";X c #8E94A9",
":X c #B9B9B3",
">X c #B4ABA7",
",X c #C59681",
"<X c #D49E81",
"1X c #DA9D81",
"2X c #C89C96",
"3X c #D49D98",
"4X c #D3A484",
"5X c #D7A687",
"6X c #C5A592",
"7X c #C9A896",
"8X c #D5AB93",
"9X c #D6B69C",
"0X c #CFA988",
"qX c #E7B097",
"wX c #D6ABA5",
"eX c #D4B5A5",
"rX c #C9BBB8",
"tX c #CBB3AD",
"yX c #E7BFA6",
"uX c #DBC6BE",
"iX c #DAC6AE",
"pX c #EDCCB6",
"aX c #F2CBB2",
"sX c #EBD5BE",
"dX c #F8D5BB",
"fX c #B8BAC9",
"gX c #CABEC2",
"hX c #D6C6C7",
"jX c #CEC8D0",
"kX c #E7CBC8",
"lX c #EBD6C8",
"zX c #F2D3CC",
"xX c #F7D8C5",
"cX c #E6D6D9",
"vX c #F5D7D4",
"bX c #F0CDC7",
"nX c #FCE7DC",
"mX c #E4E0DF",
"MX c #EADBE4",
"NX c #F9E6E5",
"BX c #ECEAEE",
"VX c #D7E3F1",
/* pixels */
"                                                                                                                        ",
"                                                                                                                        ",
"                                                                                                                        ",
"                                                                                                                        ",
"                                                ^.$ d 6 9 i 0 q q , L                                                   ",
"                                                k.1 9 T K G G H J N {                                                   ",
"                                      5.. . . . . X X 6.q.&.@.*.' t...w q 9 i p                                         ",
"                                      5.o $ * $ % # , E q.*.O.O.*.' I U A L G T                                         ",
"                            k . X X . d u.| 6.6.6.6.q.G m S w.O.+.*.%.@.@.@.&.{ L 0 f.                                  ",
"                            y X % + + n q.q.w.$.q.q.q.H S U *.*.%.+.O.-.#.o.@.@.J w x.                                  ",
"                        . $ 5.7. .$.w.p.T.T.r.( w.*.w.O.%.O.*.*.*.*.+.+.X.,.I.F.' &...7.a.= o j                         ",
"                        X . 5.6.0.=._ S.U.A._ ;.;.( *.*.*.%.%.O.+.%.+.X.~ ,.I.C.>.O.&.6.7.$ . j                         ",
"                            d @ m K.A.P.E.E.Z.E.C.~ +.#.O.+.*.%.+.O.-.J.G.G.T.F.J.K.$.@ % y y                           ",
"                            9 X , ~.Y.T.Z.Z.Z.H.C.^ +.#.O.+.+.O.+.o.-.J.L.L.U.P.C.Q.$.@ + p p 9.                        ",
"                      6.| u.L i i { B p.U.H.H.E.G.C.F.D.D.C.#.#.C.D.C.,.;.C.U.P.S.r.( W | * . h                         ",
"                    w q w 8 8 n q q 8 >.T.G.E.Z.G.I.I.F.Y.D.~ +.D.Y.D.;.X.C.T.A.=.=.( q.u.# X p                         ",
"                  } I O.p.C.>.>.t.I O.U ^ ^ ;.B.;.,.,.-.i.-.O.*.i.>.-.#.#.-.i.i.+.+.%.%.&.K T R R j                     ",
"              1 q O.#.C.L.T.J.~.K.( -.U b M X.X.X.+.+.X.+.+.O.*.O.+.+.O.O.+.+.+.#.*.*.$.w. .u.T . .                     ",
"              1 H p.-.i.T.L.i.i.i.i.K.O.S ( *.%.+.+.#.+.O.#.&.*.O.#.*.+.+.#.#.+.+.+.+.O.&.&.y.R . .                     ",
"              i L Q.Y.T.~.J.r.+.r.!.!.p.p.y.0.0.&.%.#.#.@.@.&.O.#.#.*.+.+.*.#.+.#.+.*.%.w. .y.Y X .                     ",
"              % < K.K.C.-.-.r.%.%.r.w.S S q e.e.0.$.O.@.@.#.&.O.%.+.%.+.+.+.+.+.+.o.#.#.*.} q.K X .                     ",
"            a.X @ W.!.p.< m ( p.( l n : + + y.e.0.q.@.@.#.#.*.%.%.*.*.%.*.*.*.+.*.+.#.O.t.w.y.T X .                     ",
"            a.+ &  .0.$.U E E E W 2 8 J { E W W  .w.O.O.#.+.%.%.%.%.%.*.%.%.+.+.+.O.O.O.&.E { i . .                     ",
"            9.X X + + 1 a.q.T i 1 @ X R.iX7Xb S W q.&.@.*.#.=.=.*.%.%.&.&.&.%.%.*.#.*.:.t.G A 9 . .                     ",
"              u g g Y R Y h f 6 a T q '.9X6XM U U $.} I } O.%.-.O.:.O.O.$.} *.&.} *.] U ..G q a X .                     ",
"                      v.. . ; . g NXnXsXdXaX~ -.~ S n N N B %.+.#.*.&.t.&.&.t.} H 8 n N P i Y 7 X .                     ",
"                      oX- u ; . R vXuXlXsXpX,.C.+.5 N q w J :.' O.' I @.{ { { { H n N q s 0 f 7 y -                     ",
"                            7 X D nXkXlXlXkX7XeXY.< J G e e 5 m m B B N N G q n q G G G 0 # X h                         ",
"                            f + $.zXcXhXcXrX7X=XR.B U w e J U B B m B n n H P n q G G s d $ X p                         ",
"                            d.E K.bXNXc.r 1.@X$X%X7X=X] 5 :.7X8X:.5 B B n q A q P s i 9 h $ . h                         ",
"                          hXz.W K.zXBXc.2.1.;X@X$X7X6XI m >.0X0X#.b U m H q A G q i K Y g - . j                         ",
"                          kXs.I Y.zXMX;X X XVXmXlXpXdXi.^ I.4X}._._.).b n n n G q d 1 X X +X                            ",
"                            s.I s.vXMX;Xj..XBXnXxXdXdXC.^ H.5X{.|.5X_.M B 8 H q 0 d 4 . .                               ",
"                            %X%X6XbXcXjXfXjXcXlXdXaXaX].{.{.|.|.}.5X`.b H A q q P 7 l.:X                                ",
"                            7X7X8XxXvXvXMXNXuXxXdXdXdXqX5X5X[.|.}.9X%Xq i G q s i - k.                                  ",
"                              eX7XY.J.wXzXkXkXxXyX0X5X[.[.1X4X5XF.' &.G d d d Y #X-X>X                                  ",
"                              hX=XH U 2XNXvXnXxXpX0X].5X[.1X<X0X#.q i f h p 7 p rX                                      ",
"                                :X#X=X)././.(.!.T.I.H.].4X5X,X9XH # 1 1 $ a.&XOX                                        ",
"                                  jXhX^.D W ) _ _ ` <.<XqX8X7XeXA X X + + v.                                            ",
"                                    gX&XXX*X4.V./ / Q N.;.i.!.W.d 6 a 2 : ^.                                            ",
"                                    rXkXvXkXV.V.n.! x : : , Y R [ 7.) F 3 *X                                            ",
"                                    hXOXz.W.m.n.n.Z Q 3 @ 2 9.8.[ | ) z C S.^.z.                                        ",
"                                      g X @ Q c v c Q > @ % x.d.8.| _ Q / > + +                                         ",
"                                      5.X < x c M.n.! F F q.f.x.[ i F x C z : X                                         ",
"                                      3.& : C n.b.m.` 3XwX7X6XeXi + > Q Q z @ +                                         ",
"                                      5.& > Q x n.m.N.2X2XwX7XeXD @ > x Q 3 @ %                                         ",
"                                      3.+ : Q V ! _ I bXvXvXzXnXW @ > F ) < + +                                         ",
"                                        & 2 D l ) p.y.>XrXrXrXuXR & 2 F D 2 1 u                                         ",
"                                            1 + R OXv.- X . X X h.oXl.& + v.                                            ",
"                                            X . R @XoX- - $ $ X 9.oXk.o . .X                                            ",
"                                            O O l.              j . k                                                   ",
"                                            . . k.              j . u                                                   ",
"                                                k.O = = y = y = @X                                                      ",
"                                                l.. . . . . . .                                                         ",
"                                                  +X+X+X+X                                                              ",
"                                                                                                                        ",
"                                                                                                                        ",
"                                                                                                                        ",
"                                                                                                                        ",
"                                                                                                                        "
};
