/* XPM */
static char *f4fb914c266140d1a84d9cfbe7fade5d4TKXlY7i4xPUiiah[] = {
/* columns rows colors chars-per-pixel */
"60 60 234 2 ",
"   c #1B171D",
".  c #1B0D13",
"X  c #251419",
"o  c #1E1D25",
"O  c #291C25",
"+  c #331D2A",
"@  c #1A2328",
"#  c #1C2D31",
"$  c #1B383A",
"%  c #22242D",
"&  c #29282C",
"*  c #34232C",
"=  c #392D2E",
"-  c #25312E",
";  c #2C2530",
":  c #282C35",
">  c #322C35",
",  c #342731",
"<  c #2B3137",
"1  c #29343D",
"2  c #233C3C",
"3  c #2B3B3C",
"4  c #263738",
"5  c #333A3C",
"6  c #3A3639",
"7  c #423939",
"8  c #4C303A",
"9  c #19463D",
"0  c #28453C",
"q  c #39413A",
"w  c #29503E",
"e  c #504C3D",
"r  c #2E3C43",
"t  c #293C42",
"y  c #333D44",
"u  c #383A44",
"i  c #3D3B50",
"p  c #583A44",
"a  c #463F46",
"s  c #653846",
"d  c #733C46",
"f  c #763C54",
"g  c #1C4B41",
"h  c #254245",
"j  c #2C4445",
"k  c #2C4945",
"l  c #2D444A",
"z  c #2C4A4A",
"x  c #244A47",
"c  c #334344",
"v  c #3C4444",
"b  c #33444A",
"n  c #3B454C",
"m  c #3C4B4C",
"M  c #354A49",
"N  c #385248",
"B  c #2A4852",
"V  c #3D4B52",
"C  c #304E50",
"Z  c #295A51",
"A  c #3B5352",
"S  c #3B5756",
"D  c #3E6149",
"F  c #3C6D69",
"G  c #484646",
"H  c #5A4642",
"J  c #57444A",
"K  c #47584E",
"L  c #434D54",
"P  c #484953",
"I  c #455355",
"U  c #465259",
"Y  c #4A545C",
"T  c #4C5B5C",
"R  c #4B5557",
"E  c #51575D",
"W  c #505D4C",
"Q  c #684949",
"!  c #684B54",
"~  c #655658",
"^  c #715054",
"/  c #4C665D",
"(  c #55625D",
")  c #58755F",
"_  c #6D675B",
"`  c #64725E",
"'  c #75695A",
"]  c #4D5A62",
"[  c #4D5763",
"{  c #545D64",
"}  c #5A5E65",
"|  c #545E6B",
" . c #555965",
".. c #705467",
"X. c #496967",
"o. c #556166",
"O. c #566269",
"+. c #5A646C",
"@. c #5C6A6D",
"#. c #566766",
"$. c #5D756D",
"%. c #5D6770",
"&. c #5E6972",
"*. c #4F7874",
"=. c #6B6A65",
"-. c #656569",
";. c #6A7C68",
":. c #73786A",
">. c #636C74",
",. c #666E78",
"<. c #676B76",
"1. c #637274",
"2. c #667079",
"3. c #6B747C",
"4. c #657A7B",
"5. c #6D7A7E",
"6. c #697A74",
"7. c #73777C",
"8. c #80566E",
"9. c #867665",
"0. c #5E835A",
"q. c #5C8779",
"w. c #4D9277",
"e. c #768D6A",
"r. c #6A8578",
"t. c #768677",
"y. c #66957C",
"u. c #77997D",
"i. c #6B846F",
"p. c #71A37C",
"a. c #839979",
"s. c #959879",
"d. c #8A856E",
"f. c #91A179",
"g. c #83A67E",
"h. c #6E7780",
"j. c #6E7A81",
"k. c #737682",
"l. c #727B84",
"z. c #757E88",
"x. c #7A7E8A",
"c. c #797D84",
"v. c #76768B",
"b. c #5A978A",
"n. c #51928C",
"m. c #698584",
"M. c #748185",
"N. c #7C8A83",
"B. c #778089",
"V. c #7B848D",
"C. c #7E898D",
"Z. c #788887",
"A. c #659985",
"S. c #7B9384",
"D. c #78998A",
"F. c #7E8790",
"G. c #7F8991",
"H. c #7C8D99",
"J. c #748D92",
"K. c #7C9492",
"L. c #7C9A93",
"P. c #7C929A",
"I. c #779596",
"U. c #5AA585",
"Y. c #6AA589",
"T. c #76A68A",
"R. c #6EA692",
"E. c #74A592",
"W. c #77A898",
"Q. c #77B296",
"!. c #6FA5A5",
"~. c #48ABA6",
"^. c #53CDBE",
"/. c #6FB9C4",
"(. c #6AD1CE",
"). c #59E2D3",
"_. c #67FFFC",
"`. c #7AFFF5",
"'. c #82858C",
"]. c #818B8F",
"[. c #89848C",
"{. c #84968B",
"}. c #838692",
"|. c #838C95",
" X c #898B96",
".X c #868F98",
"XX c #8A8C9B",
"oX c #8D8696",
"OX c #839295",
"+X c #879099",
"@X c #89929B",
"#X c #899895",
"$X c #91929B",
"%X c #8AB18A",
"&X c #86A695",
"*X c #94A99C",
"=X c #89B592",
"-X c #99B697",
";X c #96A988",
":X c #B9AF98",
">X c #B5B896",
",X c #AFB18F",
"<X c #8D97A0",
"1X c #8896A1",
"2X c #9197A2",
"3X c #9BB6A9",
"4X c #99A9A3",
"5X c #B7BEB7",
"6X c #A0BEA2",
"7X c #9DC497",
"8X c #B0C899",
"9X c #9EC5AA",
"0X c #A6C9A9",
"qX c #B7CDA9",
"wX c #B1C8B3",
"eX c #AED1B5",
"rX c #CADABD",
"tX c #D3D9B7",
"yX c #DAE2BD",
"uX c #8ACDCC",
"iX c #B7D9C1",
"pX c #82E6DB",
"aX c #9DF8EE",
"sX c #87FBFE",
"dX c #96FDFC",
"fX c #8AF5E9",
"gX c #A7FFFF",
"hX c #B3FEF9",
"jX c #D8E9C8",
"kX c #C9EAC7",
"lX c #E3F1DB",
"zX c #E4E4C7",
"xX c #D2F7FB",
"cX c #EAF6FE",
/* pixels */
"G.G.G.G.G.G.G.G.G.G.G.G.F.F.F.F.F.F.F.F.G.G.G.G.F.F.F.F.F.F.F.F.G.G.G.G.G.G.G.G.G.G.G.G.G.G.G.G.F.F.F.F.F.F.F.F.V.V.V.V.",
"G.G.G.G.G.G.G.G.G.G.F.G.F.F.F.F.F.F.F.F.G.G.G.G.F.F.F.F.F.F.F.F.G.G.G.G.G.G.G.G.G.G.G.G.G.G.G.G.F.F.F.F.F.F.F.F.C.C.C.C.",
"}.}.}.}.}.}.G.}.G.G.G.G.G.G.G.G.G.G.G.G.G.G.G.G.G.G.G.G.G.G.G.G.G.G.G.G.}.}.}.}.}.}.}.}.}.G.G.G.G.G.G.G.G.G.G.G.C.C.C.C.",
"}.}.}.}.}.}.}.}.}.}.}.}.}.}.}.}.G.G.G.G.G.G.G.G.G.G.G.G.G.G.G.G.G.G.G.G.}.}.}.}.}.}.}.}.G.}.G.G.G.G.G.G.G.G.G.G.C.C.C.C.",
"}.}.}.}.}.}.}.}.}.}.}.}.}.}.}.}.}.}.}.G.G.G.}.}.G.G.G.G.}.}.}.}.}.}.}.}.}.}.}.}.}.}.}.}.}.}.}.}.G.G.G.G.}.}.}.}.}.}.}.}.",
"}.}.}.}.}.}.}.}.|.|.|.|.|.|.|.|.}.}.}.}.}.}.}.}.|.|.|.}.}.}.}.}.}.}.}.}.}.}.}.}.}.}.}.}.}.}.}.}.|.|.|.}.}.}.}.}.}.}.}.}.",
"|.|.|.|.|.|.|.|.|.|.|.|.|.|.|.|.}.}.}.}.}.}.}.}.|.|.}.}.}.}.}.}.|.|.|.|.|.|.}.}.|.|.|.|.|.|.|.|.|.|.}.}.}.}.}.}.}.}.}.}.",
"|.|.|.|.|.|.|.|.|.|.|.|.|.|.|.|.}.}.}.}.}.}.}.}.}.}.}.}.}.}.}.}.|.|.|.|.|.|.}.}.|.|.|.|.|.|.|.|.}.}.}.}.}.}.}.}.}.}.}.}.",
"|.|.|.|..X.X.X.X.X|.|.|.|.|.|.|.|.|.|.|.|.|.|.|.|.|.|.|.|.|.|.|.|.|.|.|..X.X.X|..X.X|.}..X+X.XV.|..X.X.X.X.X.X.X.X|.|.|.",
"|.|.|.|..X.X.X.X.X.X|.|.|.|.|.|.|.|.|.|.|.|.|.|.|.|.|.|.|.|.|.|.|.|.|.|..X.X.X.X.X.X|.}..X.X|.V.|.|..X.X.X.X.X.X.X.X|.|.",
".X.X.X.X.X.X.X.X.X|.|.|..X|.|.|.|.|.|.|.|.|.|.|.|.|.|.|.|.|..X.X|.|.|.|..X.X.X.X.X.X.X|..X|.}.V..X.X.X.X.X.X.X.X.X.X.X.X",
".X.X.X.X.X.X.X.X.X.X|.|..X.X|.|.|.|.|.|.|.|.|.|.|.|.|.|.|..X.X.X|.|.|.|..X.X.X.X.X.X.X.X.X.XG.V..X.X.X.X.X.X.X.X.X.X.X.X",
".X.X.X.X.X.X.X.X.X.X.X.X.X.X|.|.|.|.|.|.|.|.|.|.|.|.|.|..X.X.X.X.X.X.X|..X.X.X.X.X.X+X+X+X.XG.V..X.X.X.X.X.X.X.X.X.X.X.X",
"+X+X.X.X.X.X.X.X.X.X.X.X.X.X|.|.|.|.|.|.|.|.|.|.|.|..X|..X.X.X.X.X.X.X.X.X.X.X.X+X.X+X+X+X|.}.}..X.X.X.X.X.X.X.X.X.X.X.X",
".X.X.X.X.X.X.X.X.X.X.X.X.X.X.X.X|.|.|.|.|.|.|.|..X.X|.|..X.X.X.X.X.X.X.X.X.X.X.X.X.X.X+X+X|.}.|..X.X.X.X.X.X.X.X.X.X.X.X",
".X.X.X.X.X.X.X.X.X.X.X.X.X.X.X.X|.|.|.|.|.|.|.|..X.X|.|..X.X.X.X.X.X.X.X.X.X.X.X.X|..X+X.X}.}..X.X.X.X.X.X.X.X.X.X.X.X.X",
"+X+X+X.X.X.X+X+X+X+X.X.X.X.X.X.X.X|.|.|. XXXXXXX|.G.J.OXC.#XC.P.1XH.H.V.2X.X+XP..X.X.X+X.X@Xh.@X+X+X+X+X+X+X+X+X+X+X+X+X",
"+X+X+X+X.X.X+X+X+X+X+X.X.X.X.X.X+X.X.X|..X|.|.}. X.XH..X}.$X}.1X}.OX1X.X X}. X+X+X@X+X.X.X+XV.|.+X+X+X+X+X+X+X+X+X+X+X+X",
"+X+X+X+X+X+X+X+X+X+X+X.X.X.X.X.X|.|.G.G.G.G.G.G.].H.H.H.'.$XV.|.[.|.G.OX|.$XXX|.G.@X+X|.@X|..X}.+X+X+X+X+X+X+X+X+X+X+X+X",
"+X+X+X+X+X+X+X+X+X+X+X+X.X.X.X.XG.G.G.K.K.L.L.I.#X#XP.#X4X5X*X3X5X4XI.W.m.G.|.$X+X<X+X|.+Xz.<X+X+X+X+X+X+X+X+X+X+X+X+X+X",
"+X+X+X+X+X+X+X+X+X+X+X+X.X.X.X.X.X|.OXL.L.W.W.W.T.E.E.&X0XjXwXiXlXwXW.E.Z A O.V.OX@X@X@X@Xk.@X<X+X+X+X+X@X@X@X@X+X+X+X+X",
"@X@X+X+X+X+X+X+X+X+X+X+X+X.X.X.XXX.XK.D.D.E.E.E.T.Y.Y.T.0XkX0XeXlX0XT.R.9 $ t A +.2.}.2X@X}.@X.X@X@X@X@X@X@X@X@X@X@X@X@X",
"@X@X@X@X+X+X+X+X+X+X+X+X+X.X.X.XXX|.C.S.D.T.R.R.Q.Q.Q.E.9XkX-X0XjX-XD.D.C j z $ j V O.<.<.}.+X.X@X@X@X@X@X@X@X@X@X@X@X@X",
"@X@X@X@X@X+X+X+X+X+X+X+X+X+X.X.XXX X].D.T.T.Q.Q.E.W.W.E.9XkX-XwXtX;XS.r.4 3 A j C j y % O 3..X2X@X@X@X@X@X@X@X@X@X@X@X@X",
"@X@X@X@X@X@X+X+X+X+X+X+X+X.X.X.X XP.+X[.{.p.Y.&XT.R.OXD.qXzX=XwXrX;Xd.9.4 t n w q > 6 ; @ h.<X X@X@X@X@X@X@X@X@X@X@X@X+X",
"@X@X@X@X@X@X+X+X+X@X+X+X+X.X.X.X XP.OX'.#XY.A.Z.=.-...! _ s.T.eXrXf.9.' 3 l n w G ; 6 u 1 j.<X@X@X@X@X@X@X@X@X@X@X@X+X+X",
"@X@X@X@X+X+X+X+X@X@X+X+X+X.X.X.X XG.P.C.&XD.r.=.^  .k.l.-.Q ` 0XtXa.d.H 5 b v j v   ; > o %.|.@X@X+X+X@X@X@X@X+X@X@X@X@X",
"@X@X@X@X+X+X+X+X@X@X+X+X+X.X.X.X X|.OXJ.&Xt.=.Q ..b.(.fXuX~ Q d.tXp.a.G c z y j G   O ; o &.@X<X+X+X+X@X@X@X+X+X@X@X@X@X",
"@X@X@X@X+X@X@X@X+X+X+X+X+X.X.X.X]. X+XJ.L.:.~ s *.pXdXdXdX!.! Q qXY.T.u j x h j 5 o , , ; l.<X.X+X+X+X@X@X@X@X+X+X+X+X+X",
"@X@X@X@X@X@X@X@X+X+X+X+X+X.X.X.X]. XXXI.D.=.Q p ~.hXxXxXgXpX~ Q ;XU.b.y j g 0 k < O * O ; V.<X|.+X+X+X+X+X+X+X+X+X+X+X+X",
"@X@X@X@X+X@X@X@X+X+X+X+X+X.X.X.XK.oXXXI.D.~ J J (.hXcXcXgXfX~ ! d.U.n.u c 9 0 c r ; + O 6  X2X<X+X+X+X+X+X+X+X+X+X+X+X+X",
"@X@X@X@X+X@X@X@X+X+X+X+X+X.X.X.XK.[.oXP.K.~ p G /.aXhXxXfXaX..G 9.U.n.i v 0 0 u % O O O a  X+X.X+X+X+X+X+X+X+X+X+X+X+X+X",
"+X+X+X+X+X+X+X+X+X+X.X.X.X.X.X.X#XH.H.P.Z.=.J p b.sXsXdX_.uX! G u.D.*.B l c 5 q * * O   } |.2X|.+X+X+X+X+X+X+X+X+X+X+X+X",
"+X+X+X+X+X+X+X+X+X.X.X.X.X.X.X.X|.|.H.H.Z.:.~ 8 E ^._._.`.I.s e %XD.X.B l c 6 7 6 6 > G c. X@X|..X.X.X.X.X.X.X.X.X.X.X.X",
"+X+X+X+X+X+X+X+X.X.X.X.X.X.X|.|.'.|.H.G.N.t._ H s F ).).!.J Q 9.7Xu.S h l c 6 7 n v 5 >.+X.X|.|..X.X.X.X.X.X.X.X.X.X.X.X",
".X.X.X.X.X.X.X.X.X.X.X.X|.|.|.|.V.G.H.C.N.t.' ~ Q s P U ~ e e >X8Xe.m t j c 5 u M b 3 5.|.V.G.OX|.|.|.|.|.|.|.|.|.|.|.|.",
".X.X|.|.|.|.|.|.|.|.|.}.}.}.G.}.].V.F.G.N.t.;.;.W d f ^ d Q 0.zX>X:.v j k k k k j k b h.V.V.G.OX}.}.}.}.}.}.}.}.G.G.G.G.",
"}.}.}.}.}.}.}.}.}.}.}.G.V.V.F.V.C.V.F.F.Z.i.i.y.y.t./ K :X,Xe.zX,X' v b z x z z l k ] B.V.G.V.G.F.F.F.F.F.F.F.F.V.V.V.V.",
"V.V.V.V.V.V.V.V.F.F.V.V.V.V.V.V.Z.V.x.V.M.r.y.A.Y.w.w.w.0X>Xf.tX,X` M k z k z k l r 2.V.}.}.B.V.V.V.V.V.V.V.V.V.V.V.V.V.",
"V.V.V.V.V.V.V.V.V.V.V.V.V.V.V.V.M.V.x.z.m.A.A.b.A.b.Y.y.eX8Xf.yX-X) k h j j b y b 1 h.x.'.V.l.G.V.V.V.V.V.V.V.V.V.V.V.V.",
"V.V.V.V.V.V.V.V.V.V.V.V.B.B.B.B.M.M.h.j.G.J.m.m.q.q.*.*.S.:.` d.7.c h x C l S l b o.j.V.M.l.z.V.B.B.B.B.B.B.B.B.z.z.z.z.",
"B.B.B.B.B.B.B.B.z.B.z.z.z.z.z.z.h.l.V.l.2.2.h.m.3.j.4.1.E 6 X . . @ V O.3.>.<.>.>.3.h.l.l.M.z.l.z.z.z.z.z.z.z.z.z.z.z.z.",
"z.z.z.z.z.z.z.z.z.l.l.l.l.l.l.l.x.3.7.l.l.z.z.<.c.,.{ V : % ; *   < c n >.k.c.l.z.z.l.3.5.M.z.3.l.l.l.l.l.l.l.l.l.l.l.l.",
"l.l.l.l.l.l.l.l.l.l.l.l.l.l.l.l.k.3.l.M.h.2.k.x.M.1.@.X.X.C $ @ < r 2 $ T 5.4.T { 2.l.l.3.5.l.5.l.l.l.l.l.l.l.l.h.h.h.h.",
"l.h.l.h.l.l.l.l.l.l.l.h.h.h.h.h.h.4.4.r.r.#.E 3.( K - 0 X.X.A T 5 5 3 4 < R R - y { 3.l.3.2.3.l.h.h.h.h.h.h.h.h.h.h.h.h.",
"3.3.3.3.3.3.3.3.h.h.h.3.3.3.3.3.5.4.r.D.D.#.y u 7 = X & #./ 5 6 7 > > > . + 8 X y L O.2.5.3.3.3.3.3.3.3.3.3.3.3.3.3.3.3.",
"3.3.3.3.3.3.3.3.3.3.3.3.3.3.3.3.@.r.3X9Xr.N 3 & O * X % A S q = q q v P , * * * b j A @.3.3.2.2.3.3.3.3.3.3.3.3.2.2.2.2.",
"2.2.2.2.2.2.2.2.2.2.2.2.2.2.2.2.7.6.*X&XD 0 v o % > > # 9 Z A 5 q.A.q.q.m % @ m 2 2 b O.4.>.>.2.2.2.2.2.2.2.2.2.2.2.2.2.",
"2.2.2.2.2.2.2.2.2.2.2.2.,.,.,.,.1.r.3X$.V U >.G U O.V @ # O.,.L %X=X&X4.&.&.+.>.O.b 1 U >.2.&.&.>.>.,.,.,.,.,.2.,.,.,.,.",
",.,.,.,.,.,.,.,.,.,.,.,.,.,.,.,.1.6.S.N S | 2.-.} @.I # 4 O.2.{ g.%X{.1.O.+.O.>.&.V r V O.&.&.&.>.>.>.>.>.,.,.,.,.,.,.,.",
">.>.>.>.>.>.>.>.>.>.,.,.>.>.>.>.@.6.$.c O.&.O.} { o.L 1 r Y o.Y -X6X*X6.#.+.{ O.O.L b n [ O.+.+.&.&.>.>.>.>.>.>.>.>.>.>.",
">.>.>.>.>.>.>.>.>.>.>.>.>.&.&.&.+.1.#.m &.O.U L U L m c c n V m e.u.t.R m I L I Y U L U  .+.+.O.%.%.&.&.&.>.>.>.>.>.>.>.",
"+.+.+.%.+.+.+.+.%.%.%.%.+.+.+.+.%.#.( I ] [ { T U L L U I V n V ;.i.6.I m T Y { { { { | +.>.&.+.%.%.%.%.%.&.&.&.%.%.%.%.",
"+.+.+.+.+.+.+.+.+.+.+.+.+.+.+.+.%.{ o.#.[ [ >.o.o.[ [ { { Y Y T #.@.#.I I [ Y  .+.%.%.O.O.+.%.+.+.+.+.+.+.+.+.+.+.+.+.+.",
"+.+.+.+.+.+.+.+.+.+.+.+.+.+.+.+.| +.#.>.+.| &.T O.o.{ { { { { o.T T o.T O.&.+.>.+.+.+.O.| O.O.+.+.+.+.+.+.+.+.+.+.+.+.+.",
"+.+.+.+.+.+.+.+.+.+.+.+.+.+.+.+.O.>.E O.+.O.&.o.o.O.O.{ } +.O.{ @.O.+.O.%.%.[ | O.O.+.+.+.+.+.+.+.+.O.O.O.O.O.O.+.+.+.+.",
"O.O.O.O.O.O.O.O.O.O.O.O.O.O.O.O.+.+.+.O.O.O.O.O.O.O.O.O.O.O.O.O.O.O.+.+.O.O.O.O.O.O.O.O.O.O.O.O.O.O.O.O.O.O.O.O.O.O.O.O.",
"O.O.O.O.O.O.O.O.O.O.O.O.O.O.O.O.O.O.O.O.O.O.O.O.O.O.o.o.o.o.O.O.O.O.O.O.O.O.O.O.O.O.O.O.O.O.O.O.O.O.O.O.O.O.O.O.O.O.O.O.",
"o.o.O.O.o.o.o.o.o.o.o.o.o.o.o.o.O.O.o.o.o.o.o.o.o.o.o.o.o.o.o.o.o.o.o.o.o.o.o.o.o.o.o.o.o.o.o.o.o.o.o.o.o.o.o.o.o.o.o.o.",
"o.o.o.o.o.o.o.o.o.o.o.o.o.o.o.o.o.o.o.o.o.{ { { o.o.{ { { { o.o.o.o.o.o.o.o.o.o.o.o.o.o.o.o.o.o.o.o.o.o.o.o.o.o.{ { { { "
};
