/* XPM */
static char *_b586293c0d6454ba011074d2f224ba8kRuYs5snSlmwYfTx[] = {
/* columns rows colors chars-per-pixel */
"60 60 54 1 ",
"  c black",
". c #010101",
"X c #2C3438",
"o c #DECFC0",
"O c #050304",
"+ c #2B1A1D",
"@ c #1F2428",
"# c #0F0C0D",
"$ c #293035",
"% c #090808",
"& c #DCCDBE",
"* c #23282D",
"= c #CFBCAD",
"- c #D4C2B3",
"; c #1E1F21",
": c #231617",
"> c #1A1112",
", c #C7B2A6",
"< c #191922",
"1 c #9A8464",
"2 c #A68E6F",
"3 c #1A1714",
"4 c #E0D1C2",
"5 c #5A4F43",
"6 c #C4B6AA",
"7 c #131219",
"8 c #100E14",
"9 c #34393F",
"0 c #DACABB",
"q c #463B2D",
"w c #8A7969",
"e c #C0AB9F",
"r c #A38D83",
"t c #AD968B",
"y c #79674E",
"u c #504539",
"i c #332A24",
"p c #B59E94",
"a c #A39A90",
"s c #C6AF8A",
"d c #BEA896",
"f c #645A54",
"g c #D7C6B8",
"h c #4C4D55",
"j c #8F7D74",
"k c #4D3E35",
"l c #827061",
"z c #96827A",
"x c #705C46",
"c c #372024",
"v c #CBB695",
"b c #39322C",
"n c #65637D",
"m c #6C6985",
/* pixels */
"                                                            ",
"                                                            ",
"                                                            ",
"                                                            ",
"                                                            ",
"                                                            ",
"                                                            ",
"                                                            ",
"                                                            ",
"                                                            ",
"                                                            ",
"                              .OOOOO                        ",
"                             O:++++:O                       ",
"                            O:+:++:+:O                      ",
"                            %+:>+:8c+O                      ",
"                           .:+>>+>>uk%.                     ",
"                           O:+>:+:i2u%.                     ",
"                           #+:#++kw25%.                     ",
"                           #+:#:+xs2q                       ",
"                           .#>#3c1wc>                       ",
"                            OO3ykwiOO                       ",
"                             Oud2x.                         ",
"                            ;fvss25                         ",
"                         O5leo&=ssswbO                      ",
"                         ugoog0&=v-4=w.                     ",
"                         fo=-d-o&&og0aO                     ",
"                        3e-zrp0o=-&=pzO                     ",
"                        ;-,zzego--&=ef.                     ",
"                        w&pltgo&oo000w.                     ",
"                       i6-f5t&oo&,t=4j.                     ",
"                       f4tifr6g,rjpg=j#                     ",
"                      %r-f ktrrrtp,=e2q                     ",
"                      ;-t3 u=pp-&o&=,2q                     ",
"                     O;,l% 5&,go&&06,2q                     ",
"                     .j=k  5&e-o&&0,,tl>                    ",
"                     Oa-b %z&d,&&&0edd13                    ",
"                     .a6i 36o=e0&&&,=d13                    ",
"                     Orw  %h6&-&ooooaf1q.                   ",
"                     .1y .;$hfa6666a9$xyO                   ",
"                     .123 @X$$X99999X@5yO                   ",
"                     .1vl3@XXX@@XX$*<@u1q                   ",
"                      12ib@XXX;7;*<<@$;15                   ",
"                      qy  @XXX<8%87*XX;2u                   ",
"                      #q .@XX*7O O7*XX*u%                   ",
"                         .@XX*#. .#<$X$%                    ",
"                         %*X$7O   O7*X$#                    ",
"                         3XX@#.   .#<$X;.                   ",
"                         3X$<O     O7*X*.                   ",
"                        .<*<#.     .#;X@.                   ",
"                        %$$<O      .8$X#                    ",
"                        #$X;.      .8$;O                    ",
"                       .@X$%       .8$3                     ",
"                       .@X*O       .8*%                     ",
"                       .@X7        %<@.                     ",
"                       .@97        %**.                     ",
"                       .9n9.       <5y3                     ",
"                       .hmn$       i11y#.                   ",
"                                    OO                      ",
"                                                            ",
"                                                            "
};
