/* XPM */
static char *_e4341cee8ef4e64e6bc5e400f20d121Pg4SNHLKUorVdxnq[] = {
/* columns rows colors chars-per-pixel */
"60 60 171 2 ",
"   c None",
".  c #050504",
"X  c #090706",
"o  c #080608",
"O  c #0C0C0C",
"+  c #130C0D",
"@  c #15070D",
"#  c #15120E",
"$  c #0E0C12",
"%  c #130F14",
"&  c #0F1111",
"*  c #111213",
"=  c #1B1213",
"-  c #1C1916",
";  c #14131C",
":  c #171A1B",
">  c #191D1E",
",  c #211416",
"<  c #241619",
"1  c #251C1B",
"2  c #2C1A1D",
"3  c #2B231F",
"4  c #25221F",
"5  c #161520",
"6  c #1B1C24",
"7  c #1D2224",
"8  c #1F2329",
"9  c #2A2522",
"0  c #22252C",
"q  c #24292D",
"w  c #342D23",
"e  c #392F23",
"r  c #392F2D",
"t  c #352826",
"y  c #373126",
"u  c #3B342D",
"i  c #262D32",
"p  c #282F34",
"a  c #2A3236",
"s  c #2C3439",
"d  c #35383C",
"f  c #402D29",
"g  c #433A2D",
"h  c #493C2C",
"j  c #512F35",
"k  c #443B33",
"l  c #4E3B32",
"z  c #443F3A",
"x  c #4E4335",
"c  c #4C433A",
"v  c #524739",
"b  c #524939",
"n  c #3C4244",
"m  c #4D4741",
"M  c #434749",
"N  c #454A4B",
"B  c #5D5241",
"V  c #56524C",
"C  c #59524C",
"Z  c #624E41",
"A  c #615445",
"S  c #675843",
"D  c #6D5C45",
"F  c #645D4E",
"G  c #715F46",
"H  c #665F57",
"J  c #6F5C58",
"K  c #6B5A55",
"L  c #746147",
"P  c #78614E",
"I  c #7A684E",
"U  c #6C655D",
"Y  c #7B6B56",
"T  c #7F7058",
"R  c #514F64",
"E  c #56556A",
"W  c #6A6A67",
"Q  c #6B6A68",
"!  c #736B63",
"~  c #796A63",
"^  c #787067",
"/  c #79746D",
"(  c #777571",
")  c #88775C",
"_  c #89795F",
"`  c #81725A",
"'  c #836A66",
"]  c #846F69",
"[  c #877967",
"{  c #8D7C74",
"}  c #847B72",
"|  c #907671",
" . c #947A74",
".. c #97805F",
"X. c #98805F",
"o. c #9D8564",
"O. c #9C846C",
"+. c #98866A",
"@. c #8E847A",
"#. c #9B847D",
"$. c #93897F",
"%. c #A38A66",
"&. c #A18B6A",
"*. c #A38C71",
"=. c #A69273",
"-. c #AB9574",
";. c #B69F7B",
":. c #B89E7A",
">. c #B29975",
",. c #BBA37D",
"<. c #6B6885",
"1. c #798082",
"2. c #9F8780",
"3. c #9A9086",
"4. c #8E949E",
"5. c #A38A83",
"6. c #A88D86",
"7. c #AC958C",
"8. c #A9998E",
"9. c #A4988A",
"0. c #A19A91",
"q. c #B49D93",
"w. c #B7A280",
"e. c #BDA683",
"r. c #BEA986",
"t. c #BAA78A",
"y. c #AFA396",
"u. c #B0A497",
"i. c #B8A297",
"p. c #B0A498",
"a. c #BCA59A",
"s. c #BFAA9E",
"d. c #B4A89B",
"f. c #9FA6AF",
"g. c #B6ADA2",
"h. c #BAB0A5",
"j. c #C0A786",
"k. c #C3AB85",
"l. c #C6AF89",
"z. c #C7B08A",
"x. c #CAB38E",
"c. c #C1AA9E",
"v. c #CCB79B",
"b. c #CEB99A",
"n. c #C3ADA1",
"m. c #C4B7AA",
"M. c #CAB5A9",
"N. c #C5B9AC",
"B. c #CEBBAD",
"V. c #CEBAA3",
"C. c #D0BCAF",
"Z. c #D2BFA4",
"A. c #CEBEB1",
"S. c #D0BEB0",
"D. c #D4C3B5",
"F. c #D7C6B8",
"G. c #D8C7B9",
"H. c #D7C8B9",
"J. c #DACABC",
"K. c #D9CABC",
"L. c #DDCEBF",
"P. c #DDCEBE",
"I. c #DCCDBE",
"U. c #DBCCBD",
"Y. c #B2BAC7",
"T. c #DECFC0",
"R. c #DFCFC1",
"E. c #DFCFC0",
"W. c #DFD0C1",
"Q. c #E1D1C2",
"!. c #E3D3C4",
/* pixels */
"                                                                                                                        ",
"                                                                                                                        ",
"                                                                                                                        ",
"                                                                                                                        ",
"                                                                                                                        ",
"                                                                                                                        ",
"                                                                                                                        ",
"                                                                                                                        ",
"                                                                                                                        ",
"                                                                                                                        ",
"                                                                                                                        ",
"                                                                                                                        ",
"                                                                                                                        ",
"                                                                                                                        ",
"                                                                                                                        ",
"                                                      = , = = , =                                                       ",
"                                                    = 2 1 2 2 1 2 =                                                     ",
"                                                  X < 2 % < 2 = < 2 @                                                   ",
"                                                  X g l = = 2 = = 2 ,                                                   ",
"                                                  X x +.3 = 2 < = 2 < X                                                 ",
"                                                  o B O.P l 2 2 + , 2 +                                                 ",
"                                                  . v j.l.Z 2 2 + , 2 +                                                 ",
"                                                    , j *.o.t = O = = X                                                 ",
"                                                    @ @ l X.f A - o X                                                   ",
"                                                          D o.;.k .                                                     ",
"                                                        x o.e.z.t.$./ 4 1                                               ",
"                                                  m C 9.r.l.z.v.U.!.U.N.y.C                                             ",
"                                                V A.T.I.Z.z.b.J.F.M.I.S.M.I.@.                                          ",
"                                                U !.C.G.I.J.D.T.F.q.n.7.#.T.m.z                                         ",
"                                              9 p.A.q.B.I.C.M.T.J.q. .| 2.S.!.}                                         ",
"                                              H J.7.M.J.I.J.J.I.I.C.7.' r ] B.D.!                                       ",
"                                            - u.D.a.U.I.J.T.T.I.I.I.q.' - 1 ] B.D.!                                     ",
"                                            A V.s.#.D.I.n.a.D.T.T.D.q.' 1   1 { S.D.^                                   ",
"                                          u =.:.Y 1 ~ B.c.#.5.7.s.i.6.K       ! !.!.d.-                                 ",
"                                        g =.l.o.g o ~ C.J.H.B.s.5.#.J u     A B.T.q.c                                   ",
"                                      g -.l.%.L   9 s.M.J.I.T.I.C.~ S T y B e.v.8.k                                     ",
"                                g x [ e.j.I h #   4 s.M.J.I.I.I.W.[ G ,.w.e.+.B -                                       ",
"                              Y -.x.r.+.h         y s.M.J.I.I.I.D.i.x &.*.b                                             ",
"                            # ) >._ b =           { c.c.J.I.I.J.c.n.y.u =                                               ",
"                              3 x               o 3.D.D.I.I.I.I.D.J.!.U                                                 ",
"                                                : N g.!.T.T.T.T.!.h.0.V                                                 ",
"                                                : a M ( N.N./ W Q N a a O                                               ",
"                                                7 6 6 a n n i 0 p a s a O                                               ",
"                                              O a q ; 6 p p 6 ; a s s a O                                               ",
"                                              O a s q 5 ; * % ; a s s a O                                               ",
"                                              7 s s a 6 $ . o ; p s s a *                                               ",
"                                            o q s s 0 ; o     O 6 s s s 0                                               ",
"                                              q s a 5 $       o ; i s s q o                                             ",
"                                            * i s q ; o         O 0 s s q o                                             ",
"                                            > s a 5 $           o ; a s q                                               ",
"                                            > s 0 ; o             O 0 i q *                                             ",
"                                            * i p ; o               $ 8 s 6                                             ",
"                                              7 s 5 o               O q s a &                                           ",
"                                              O a q $                 > s a &                                           ",
"                                                > a $                 o q a &                                           ",
"                                                : p $                   q a *                                           ",
"                                                o 8 ;                   * a q                                           ",
"                                                # F d *                 6 R s o                                         ",
"                                                ` ;...w               0 E <.R o                                         ",
"                                          w D G -.%.o.e             1.f.Y.Y.4.O                                         "
};
