/* XPM */
static char *mright_copy1709130845[] = {
/* columns rows colors chars-per-pixel */
"60 60 161 2 ",
"   c None",
".  c #0D1417",
"X  c #0D161D",
"o  c #0F1B1E",
"O  c #151515",
"+  c #1A1516",
"@  c #171815",
"#  c #1B1915",
"$  c #15161B",
"%  c #1B161B",
"&  c #13181D",
"*  c #1C191C",
"=  c #221E1D",
"-  c #24211E",
";  c #2A241E",
":  c #0F1621",
">  c #0E1B23",
",  c #0F1E28",
"<  c #131720",
"1  c #1D1720",
"2  c #121A22",
"3  c #1C1A21",
"4  c #131C29",
"5  c #201622",
"6  c #221B24",
"7  c #261E29",
"8  c #281F2C",
"9  c #0D2029",
"0  c #102024",
"q  c #252323",
"w  c #2A2423",
"e  c #2C2924",
"r  c #26212B",
"t  c #2B232D",
"y  c #2D2B2A",
"u  c #312B27",
"i  c #322D2A",
"p  c #3A2E28",
"a  c #33302A",
"s  c #39332D",
"d  c #2D2432",
"f  c #2E2834",
"g  c #312635",
"h  c #322936",
"j  c #322639",
"k  c #352B3B",
"l  c #392C3E",
"z  c #373333",
"x  c #393632",
"c  c #3C3A36",
"v  c #37313D",
"b  c #3A313E",
"n  c #3E3D3A",
"m  c #443D35",
"M  c #463F39",
"N  c #434036",
"B  c #47433D",
"V  c #4B453D",
"C  c #362D41",
"Z  c #3A2D43",
"A  c #3D3244",
"S  c #3E3249",
"D  c #413447",
"F  c #43354D",
"G  c #46394F",
"H  c #4A3C4D",
"J  c #453652",
"K  c #483754",
"L  c #473952",
"P  c #4A3B55",
"I  c #4C3B5B",
"U  c #503F5D",
"Y  c #4E3C60",
"T  c #513E61",
"R  c #454543",
"E  c #4A4643",
"W  c #474844",
"Q  c #4F4842",
"!  c #4D4B4A",
"~  c #564F45",
"^  c #5B4F44",
"/  c #544D49",
"(  c #52524E",
")  c #59534E",
"_  c #4F415C",
"`  c #52425C",
"'  c #535250",
"]  c #5F5B51",
"[  c #67605A",
"{  c #6A635C",
"}  c #6B685F",
"|  c #544464",
" . c #594465",
".. c #5A4966",
"X. c #574568",
"o. c #5A466B",
"O. c #5C496D",
"+. c #5F4A71",
"@. c #604A6E",
"#. c #624B73",
"$. c #684F78",
"%. c #655073",
"&. c #67507A",
"*. c #6B527C",
"=. c #6E597E",
"-. c #70597F",
";. c #6F6961",
":. c #746D63",
">. c #777066",
",. c #7D7266",
"<. c #77706A",
"1. c #7D746B",
"2. c #817770",
"3. c #857E74",
"4. c #887F74",
"5. c #878077",
"6. c #8C8576",
"7. c #8C8379",
"8. c #92857A",
"9. c #918A7F",
"0. c #6E5781",
"q. c #765C86",
"w. c #785B87",
"e. c #775C89",
"r. c #785C8A",
"t. c #948C83",
"y. c #988D83",
"u. c #9A9184",
"i. c #9B9489",
"p. c #9F988C",
"a. c #A49B8E",
"s. c #A59C91",
"d. c #A99F94",
"f. c #AEA396",
"g. c #ADA39A",
"h. c #AFA89C",
"j. c #B6A895",
"k. c #B4A79A",
"l. c #B4A99B",
"z. c #BAAE9E",
"x. c #B6ADA2",
"c. c #B9AEA1",
"v. c #BDB2A3",
"b. c #BFB5A8",
"n. c #C1B5A5",
"m. c #C4BBAC",
"M. c #CABDAD",
"N. c #C7BDB0",
"B. c #CAC1B3",
"V. c #D3C6B4",
"C. c #D5C9B6",
"Z. c #D4C7B8",
"A. c #D5CABA",
"S. c #DACEBD",
"D. c #E1D3BF",
"F. c #DFD2C3",
"G. c #E4D6C3",
"H. c #E6D9C6",
"J. c #EADBC6",
"K. c #EBDDC9",
"L. c #EEE1D0",
/* pixels */
"                                                                                                                        ",
"                                                                                                                        ",
"                                                                                                                        ",
"                                                                                                                        ",
"                                                                                                                        ",
"                                                                                                                        ",
"                                                                                                                        ",
"                                              4 2 & & & & & & 2                                                         ",
"                                        4 2 2 7 l F P ` ` P F h 6 & &                                                   ",
"                                    2 & t D  .$.-.q.e.r.r.w.q.=.%.P f 3 2                                               ",
"                                2 * d K ..#.+.#.#.$.*.*.*.$.$.$.*.0.=.o.b * o                                           ",
"                            0 & 7 A ` O.#.O.+.+.+.#.O.#.#.#.O.@.o.#.#.0.0.O.b & o                                       ",
"                          2 + g J I o.@.+.+.+.+.+.+.+.+.+.#.+.+.+.+.+.#.#.&.*.| t &                                     ",
"                        2 * k P I I o.#.+.+.+.+.+.+.+.+.+.+.+.+.+.+.+.+.+.O.+.&.%.b % 2                                 ",
"                        + k I I I I T O.+.+.+.+.+.+.+.+.+.+.+.+.+.+.+.+.+.+.+.+.#.&.L * >                               ",
"                      $ d I I I K P I X.+.+.+.+.+.+.+.+.O.+.+.+.+.+.+.+.+.+.+.+.+.+.#.! * ,                             ",
"                    & 5 F I P L Z P I T o.#.#.+.#.+.+.+.+.+.+.+.+.o.T o.o.o.| J U O.#.@.D &                             ",
"                    & h I F J F j I I I T o.@.+.#.o.#.#.+.+.+.T Y Y Y I I Y P d 6 k U o...t &                           ",
"                  3 5 K I J K Z g P I I U T  .o.o.o.o.o.o.T Y I I I I I I I I K j 6 6 Z X.P %                           ",
"                  & C I I I I l d I I I I I I Y T U T U Y I I I I I I I Y I I I I K D F I I t &                         ",
"                & 6 L I I K Z t 8 I I I I I I K I I K I I I I I I I P J K L P I I I I K I I k $                         ",
"              4 * l I I P j j d 8 K I I I I P F J I I I I I Y I D g 7 = = 5 8 C L Y I J J I A *                         ",
"            4 & f P I I D = Z h 6 A F I I I P F J I I I I I J j 6 7 6 $ + u ; + 7 Z P L J I K 5 2                       ",
"          2 % f I I I P t 3 J l 5 h l I I I I J K I I I I I C j D b * - ;.s.u.[ y + t S I I K 6 &                       ",
"        2 * v I I I F A 6 6 I Z * f 8 L I I I F J I I K I K K I Z % u 6.f.k.M.n.s.] = 3 A P L r $                       ",
"        3 & t k C k d 6 + t I F = h 6 l I I I I I I I I I I I S % i 9.z.u.p.a.4.7.s.3.a + k L r &                       ",
"            $ & % % & 2 @ f I K 6 8 t 6 F I I Y I I I I I I S 7 w <.d.N.2.s = # + s 3.u.N + t 6 &                       ",
"                        & g U P j 5 A 5 d K I I I I I I I L d * 1.y.j.Z.8.y.a.5.E $ 6 1.s.c @ &                         ",
"                        $ g I P Z = C C % j I I I I I P P C $ ) k.M.G.J.K.B.:.B x * @ w t.' $                           ",
"                        $ d I I P 7 d K j 1 h P I I F Z A 3 i i.n.D.J.J.A.E - c n i * O m c &                           ",
"                        & t L J K k 1 D P g 1 h D k j D g + :.x.V.J.J.K.a.- W ( ' ' W y @ $ 2                           ",
"                        2 6 F J K K 6 g I P l 6 5 d F G 3 s d.c.G.J.J.K.y.* ! ( ' / ' ! q &                             ",
"                          1 S P I I Z 5 F I I J S L I k O ;.g.,.S.J.J.K.f.= E ( ( ' ! z * &                             ",
"                          + h I P I L d d I I I I I L 7 e a.5.V S.J.J.J.A.Q w E W x q y * 2                             ",
"                          > % k I I I J t A I I I U F + V x.[ s C.J.G.J.J.n.V w e m 3.s.q ,                             ",
"                            2 & f J I I F j P I I U Z % p 9.{ = h.J.j.B.J.J.S.l.x.A.K.A.s >                             ",
"                                & 7 l P I F J I I I F % + y E % V l.v.S.J.J.J.K.J.J.J.J.1..                             ",
"                                  2 % 6 k D I I I I L d k 6 + & @ - B 2.S.J.J.H.J.J.J.J.v.e ,                           ",
"                                      2 < 3 d k D K L F L P l r % @ O @ 3.J.J.K.J.J.J.J.C.x 2                           ",
"                                            < & + 5 7 d h k k k r * O O N S.H.z.S.J.m.C.A.x >                           ",
"                                              & + 6 q # @ @ + $ % % # * w m.G.^ n.L.1.6.B.y &                           ",
"                                            > 3 Z I D 3 % r % 6 l k t 3 # 3.k.m u.m.{ m / &                             ",
"                                            o w I K t % l | k % t v F b * * q + ; e 3 O o                               ",
"                                            , % t 3 + 6 H O.| 3 + + % 7 y h d % 2                                       ",
"                                              @ 1 1 $ h A O.o.t * b h 6 & q d &                                         ",
"                                            , * A y 3 A l | O.k 1 L U P k * $ >                                         ",
"                                            o 6 _ 6 5 Z j S P h % P o. ._ d @                                           ",
"                                            @ f | 6 7 A A _ _ v % L #.#.O.C $                                           ",
"                                          & @ A ` 3 + 3 6 r r * % L #.U o.L $                                           ",
"                                        4 $ * G L * i ) Q E Q y % U U C +._ %                                           ",
"                                        & @ * ` F + <.b.z.z.v.:.+ Z k P +._ 3 4                                         ",
"                                        $ O t o.K + 1.H.D.D.G.>.+ d P @.O._ 6 >                                         ",
"                                        & + d @.X.q y 8.M.C.a.u 6 _ +.+.@...r o                                         ",
"                                        = # 6 l G b * + y x - 3 A o.+.+.o.| t $                                         ",
"                                        w e * @ $ % + + @ O $ q f h g d y 4 & $                                         ",
"                                        6 s ; %       & O + * O O y z O O %                                             ",
"                                          3 &         2 x u.s./ % y i.9.i $                                             ",
"                                                      $ ~ j.v.b.;.O x 1.z X                                             ",
"                                                        & * = i w $ $ . &                                               ",
"                                                              :                                                         "
};
