/* XPM */
static char *_4531efe2b9a45d3a5bc779bab5e6dcanuUCpbckF57V0Y0q[] = {
/* columns rows colors chars-per-pixel */
"60 60 171 2 ",
"   c None",
".  c #050504",
"X  c #090706",
"o  c #080608",
"O  c #0C0C0C",
"+  c #130C0D",
"@  c #15070D",
"#  c #15120E",
"$  c #0E0C12",
"%  c #130F14",
"&  c #0F1111",
"*  c #111213",
"=  c #1B1213",
"-  c #1C1916",
";  c #14131C",
":  c #171A1B",
">  c #191D1E",
",  c #211416",
"<  c #241619",
"1  c #251C1B",
"2  c #2C1A1D",
"3  c #2B231F",
"4  c #25221F",
"5  c #161520",
"6  c #1B1C24",
"7  c #1D2224",
"8  c #1F2329",
"9  c #2A2522",
"0  c #22252C",
"q  c #24292D",
"w  c #342D23",
"e  c #392F23",
"r  c #392F2D",
"t  c #352826",
"y  c #373126",
"u  c #3B342D",
"i  c #262D32",
"p  c #282F34",
"a  c #2A3236",
"s  c #2C3439",
"d  c #35383C",
"f  c #402D29",
"g  c #433A2D",
"h  c #493C2C",
"j  c #512F35",
"k  c #443B33",
"l  c #4E3B32",
"z  c #443F3A",
"x  c #4E4335",
"c  c #4C433A",
"v  c #524739",
"b  c #524939",
"n  c #3C4244",
"m  c #4D4741",
"M  c #434749",
"N  c #454A4B",
"B  c #5D5241",
"V  c #56524C",
"C  c #59524C",
"Z  c #624E41",
"A  c #615445",
"S  c #675843",
"D  c #6D5C45",
"F  c #645D4E",
"G  c #715F46",
"H  c #665F57",
"J  c #6F5C58",
"K  c #6B5A55",
"L  c #746147",
"P  c #78614E",
"I  c #7A684E",
"U  c #6C655D",
"Y  c #7B6B56",
"T  c #7F7058",
"R  c #514F64",
"E  c #56556A",
"W  c #6A6A67",
"Q  c #6B6A68",
"!  c #736B63",
"~  c #796A63",
"^  c #787067",
"/  c #79746D",
"(  c #777571",
")  c #88775C",
"_  c #89795F",
"`  c #81725A",
"'  c #836A66",
"]  c #846F69",
"[  c #877967",
"{  c #8D7C74",
"}  c #847B72",
"|  c #907671",
" . c #947A74",
".. c #97805F",
"X. c #98805F",
"o. c #9D8564",
"O. c #9C846C",
"+. c #98866A",
"@. c #8E847A",
"#. c #9B847D",
"$. c #93897F",
"%. c #A38A66",
"&. c #A18B6A",
"*. c #A38C71",
"=. c #A69273",
"-. c #AB9574",
";. c #B69F7B",
":. c #B89E7A",
">. c #B29975",
",. c #BBA37D",
"<. c #6B6885",
"1. c #798082",
"2. c #9F8780",
"3. c #9A9086",
"4. c #8E949E",
"5. c #A38A83",
"6. c #A88D86",
"7. c #AC958C",
"8. c #A9998E",
"9. c #A4988A",
"0. c #A19A91",
"q. c #B49D93",
"w. c #B7A280",
"e. c #BDA683",
"r. c #BEA986",
"t. c #BAA78A",
"y. c #AFA396",
"u. c #B0A497",
"i. c #B8A297",
"p. c #B0A498",
"a. c #BCA59A",
"s. c #BFAA9E",
"d. c #B4A89B",
"f. c #9FA6AF",
"g. c #B6ADA2",
"h. c #BAB0A5",
"j. c #C0A786",
"k. c #C3AB85",
"l. c #C6AF89",
"z. c #C7B08A",
"x. c #CAB38E",
"c. c #C1AA9E",
"v. c #CCB79B",
"b. c #CEB99A",
"n. c #C3ADA1",
"m. c #C4B7AA",
"M. c #CAB5A9",
"N. c #C5B9AC",
"B. c #CEBBAD",
"V. c #CEBAA3",
"C. c #D0BCAF",
"Z. c #D2BFA4",
"A. c #CEBEB1",
"S. c #D0BEB0",
"D. c #D4C3B5",
"F. c #D7C6B8",
"G. c #D8C7B9",
"H. c #D7C8B9",
"J. c #DACABC",
"K. c #D9CABC",
"L. c #DDCEBF",
"P. c #DDCEBE",
"I. c #DCCDBE",
"U. c #DBCCBD",
"Y. c #B2BAC7",
"T. c #DECFC0",
"R. c #DFCFC1",
"E. c #DFCFC0",
"W. c #DFD0C1",
"Q. c #E1D1C2",
"!. c #E3D3C4",
/* pixels */
"                                                                                                                        ",
"                                                                                                                        ",
"                                                                                                                        ",
"                                                                                                                        ",
"                                                                                                                        ",
"                                                                                                                        ",
"                                                                                                                        ",
"                                                                                                                        ",
"                                                                                                                        ",
"                                                                                                                        ",
"                                                                                                                        ",
"                                                                                                                        ",
"                                                                                                                        ",
"                                                                                                                        ",
"                                                                                                                        ",
"                                                      = , = = , =                                                       ",
"                                                    = 2 1 2 2 1 2 =                                                     ",
"                                                  + 2 < = 2 < % 2 < X                                                   ",
"                                                  , 2 = = 2 = = l g X                                                   ",
"                                                X < 2 = < 2 = 3 +.x X                                                   ",
"                                                + 2 , + 2 2 l P O.B .                                                   ",
"                                                + 2 , + 2 2 Z l.j.v .                                                   ",
"                                                X = = O = t o.*.j ,                                                     ",
"                                                  X o - A f X.l @ +                                                     ",
"                                                    . k ;.o.D                                                           ",
"                                              1 4 / $.t.x.e.o.x                                                         ",
"                                            C y.N.U.!.U.v.z.l.r.9.C m                                                   ",
"                                          @.I.M.S.I.M.F.J.b.x.Z.I.T.A.V                                                 ",
"                                        z m.T.#.7.n.q.F.T.D.J.I.F.C.Q.U                                                 ",
"                                        } !.S.2.|  .q.J.T.M.C.I.B.q.A.p.9                                               ",
"                                      ! D.B.] r ' 7.C.I.I.J.J.I.J.M.7.J.H                                               ",
"                                    ! D.B.] 1 - ' q.I.I.I.T.T.J.I.U.a.D.u.-                                             ",
"                                  ^ D.S.{ 1   1 ' q.D.T.T.D.a.n.I.D.#.s.V.A                                             ",
"                                - d.Q.Q.!       K 6.i.s.7.5.#.c.B.~ 1 Y :.=.u                                           ",
"                                  c q.T.B.A     u J #.5.s.B.H.J.C.~ o g o.l.=.g                                         ",
"                                    k 8.v.e.B y T S ~ C.I.T.I.J.M.s.9   L %.l.-.g                                       ",
"                                      - B +.e.w.,.G [ W.I.I.T.J.M.s.4   # h I j.e.[ x g                                 ",
"                                            b *.&.x i.D.I.I.T.J.M.s.y         h +.r.x.-.Y                               ",
"                                              = u y.n.c.J.I.I.J.c.c.{           = b _ >.) #                             ",
"                                                U !.J.D.I.I.I.I.D.D.3.o               x 3                               ",
"                                                V 0.h.Q.T.T.T.T.Q.g.N :                                                 ",
"                                              O a a N Q W ( N.N.( M a :                                                 ",
"                                              O a s a p 0 i n n a 6 6 7                                                 ",
"                                              O a s s a ; 6 p p 6 ; q a O                                               ",
"                                              O a s s a ; % * ; 5 q s a O                                               ",
"                                              * a s s p ; o . $ 6 a s s 7                                               ",
"                                              0 s s s 6 O     o ; 0 s s q .                                             ",
"                                            . q s s i ; .       $ 6 a s q                                               ",
"                                            . q s s 0 O         o ; q s i *                                             ",
"                                              q s a ; .           $ 6 a s >                                             ",
"                                            * q i 0 O             . ; 0 s >                                             ",
"                                            6 s 8 $               . ; p i *                                             ",
"                                          & a s q O               o 6 s 7                                               ",
"                                          & a s >                 $ q a O                                               ",
"                                          & a q o                 $ a >                                                 ",
"                                          * a q                   $ p :                                                 ",
"                                          q a *                   ; 8 o                                                 ",
"                                        . s R 6                 * d F #                                                 ",
"                                        o R <.E 0               w ..;.`                                                 ",
"                                        O 4.Y.Y.f.1.            e o.%.-.G D w                                           "
};
