/* XPM */
static char *result[] = {
/* columns rows colors chars-per-pixel */
"60 60 239 2 ",
"   c #030101",
".  c #0B0201",
"X  c #0A0802",
"o  c #070608",
"O  c #130100",
"+  c #1B0201",
"@  c #1D0B03",
"#  c #150A07",
"$  c #18110C",
"%  c #181716",
"&  c #130F12",
"*  c #250201",
"=  c #270606",
"-  c #360303",
";  c #261509",
":  c #2A1A13",
">  c #251A14",
",  c #381B19",
"<  c #2F120C",
"1  c #3C2209",
"2  c #2D231C",
"3  c #29241A",
"4  c #3B251A",
"5  c #3C2B1D",
"6  c #382618",
"7  c #39321E",
"8  c #2C2623",
"9  c #2C2A29",
"0  c #3B2D24",
"q  c #362925",
"w  c #3D332B",
"e  c #38332A",
"r  c #3B3A34",
"t  c #393838",
"y  c #332E32",
"u  c #1D1928",
"i  c #450C09",
"p  c #461719",
"a  c #5A151A",
"s  c #520E0F",
"d  c #78161A",
"f  c #6B1316",
"g  c #49250E",
"h  c #442313",
"j  c #442C15",
"k  c #432D1B",
"l  c #492E1A",
"z  c #4A2413",
"x  c #44311D",
"c  c #49341E",
"v  c #54321E",
"b  c #522918",
"n  c #60391C",
"m  c #471C25",
"M  c #5A1824",
"N  c #791D24",
"B  c #681E25",
"V  c #422D23",
"C  c #422D2A",
"Z  c #492B25",
"A  c #54222B",
"S  c #443224",
"D  c #4C3423",
"F  c #44342C",
"G  c #4C352B",
"H  c #443A2C",
"J  c #4D3A28",
"K  c #543B2C",
"L  c #563727",
"P  c #443A34",
"I  c #4A3C33",
"U  c #473736",
"Y  c #583D35",
"T  c #582B38",
"R  c #682328",
"E  c #782428",
"W  c #633D2B",
"Q  c #6A3A27",
"!  c #673935",
"~  c #743933",
"^  c #6D2C38",
"/  c #5A412D",
"(  c #46413E",
")  c #5C4434",
"_  c #5C443A",
"`  c #584539",
"'  c #65432E",
"]  c #6B432D",
"[  c #644534",
"{  c #6B4534",
"}  c #654935",
"|  c #6B4A35",
" . c #64453A",
".. c #6B463A",
"X. c #654A3B",
"o. c #6B4A3B",
"O. c #724433",
"+. c #734935",
"@. c #744B3B",
"#. c #784739",
"$. c #77533C",
"%. c #714A35",
"&. c #1F3553",
"*. c #4A3C42",
"=. c #573C46",
"-. c #773840",
";. c #49454A",
":. c #584947",
">. c #58534C",
",. c #5A5C5B",
"<. c #565659",
"1. c #4E5052",
"2. c #644441",
"3. c #654B41",
"4. c #6C4C42",
"5. c #6A4E4A",
"6. c #664B47",
"7. c #734C43",
"8. c #78444B",
"9. c #6C5142",
"0. c #6A544B",
"q. c #665346",
"w. c #795749",
"e. c #625B57",
"r. c #7C5B54",
"t. c #795650",
"y. c #5F6259",
"u. c #68635B",
"i. c #7A6458",
"p. c #596262",
"a. c #6A6866",
"s. c #776C67",
"d. c #727273",
"f. c #87151A",
"g. c #82201F",
"h. c #892D30",
"j. c #A23E3E",
"k. c #8E1D21",
"l. c #83463D",
"z. c #83553C",
"x. c #813A43",
"c. c #874746",
"v. c #825544",
"b. c #825946",
"n. c #895A4A",
"m. c #915E4D",
"M. c #9A5E48",
"N. c #8B5C55",
"B. c #8B4752",
"V. c #8D614D",
"C. c #82634B",
"Z. c #94624C",
"A. c #9B624B",
"S. c #896557",
"D. c #946453",
"F. c #9B6553",
"G. c #946957",
"H. c #996B5B",
"J. c #976958",
"K. c #967256",
"L. c #A16D5A",
"P. c #896A63",
"I. c #966963",
"U. c #987466",
"Y. c #8D7C75",
"T. c #A17868",
"R. c #985B60",
"E. c #88837D",
"W. c #95827C",
"Q. c #B58576",
"!. c #BB9275",
"~. c #AC8A71",
"^. c #AE845E",
"/. c #D69D7A",
"(. c #C89B7B",
"). c #CDA17C",
"_. c #C4A27D",
"`. c #D5A279",
"'. c #55688D",
"]. c #787983",
"[. c #8A7E80",
"{. c #74829A",
"}. c #8B8987",
"|. c #968984",
" X c #999B98",
".X c #A69689",
"XX c #B79186",
"oX c #B99E96",
"OX c #A8908F",
"+X c #BAA497",
"@X c #A7A096",
"#X c #99A2B6",
"$X c #ACA8A8",
"%X c #B9ACA8",
"&X c #AEB1AE",
"*X c #9D9DA0",
"=X c #C79787",
"-X c #D89D86",
";X c #CAA587",
":X c #D7A987",
">X c #CBA896",
",X c #D8AA97",
"<X c #D4B49B",
"1X c #CCB19E",
"2X c #E1AB93",
"3X c #C7ABA6",
"4X c #C7B5A7",
"5X c #D8B7A7",
"6X c #D9B9B7",
"7X c #DCA0A2",
"8X c #E6BAA5",
"9X c #E0A2A5",
"0X c #B9C5BC",
"qX c #CBC4BB",
"wX c #DAC3B1",
"eX c #F2C8AD",
"rX c #EAC9B8",
"tX c #F7CBB5",
"yX c #FAD3BA",
"uX c #E7C3A8",
"iX c #BDB9C8",
"pX c #C8BEC7",
"aX c #B7C7E8",
"sX c #DAC7C6",
"dX c #CFC7CC",
"fX c #ECD5CC",
"gX c #FED6C4",
"hX c #F7D8CA",
"jX c #E8D4D7",
"kX c #F7DBD8",
"lX c #EFCCC9",
"zX c #DAE0DE",
"xX c #FDE5D9",
"cX c #DBD7E1",
"vX c #ECDCE5",
"bX c #DEEAE4",
"nX c #F6E7E5",
"mX c #F0EFF1",
"MX c None",
/* pixels */
"MXMXMXMXMXMXMXMXMXMXMXMXMXMXMXMXMXMXMXMXMXMXMXMXMXMXMXMXMXMXMXMXMXMXMXMXMXMXMXMXMXMXMXMXMXMXMXMXMXMXMXMXMXMXMXMXMXMXMXMX",
"MXMXMXMXMXMXMXMXMXMXMXMXMXMXMXMXMXMXMXMXMXMXMXMXMXMXMXMXMXMXMXMXMXMXMXMXMXMXMXMXMXMXMXMXMXMXMXMXMXMXMXMXMXMXMXMXMXMXMXMX",
"MXMXMXMXMXMXMXMXMXMXMXMXMXMXMXMXMXMXMXMXMXMXMXMXMXMXMXMXMXMXMXMXMXMXMXMXMXMXMXMXMXMXMXMXMXMXMXMXMXMXMXMXMXMXMXMXMXMXMXMX",
"MXMXMXMXMXMXMXMXMXMXMXMXMXMXMXMXMXMXMXMXMXMXMX3 q 0 6 q 0 0 0 e q t MXMXMXMXMXMXMXMXMXMXMXMXMXMXMXMXMXMXMXMXMXMXMXMXMXMX",
"MXMXMXMXMXMXMXMXMXMXMXMXMXMXMXMXMXMXMXMXMXMXMX6 S w F I C C I C y 1.MXMXMXMXMXMXMXMXMXMXMXMXMXMXMXMXMXMXMXMXMXMXMXMXMXMX",
"MXMXMXMXMXMXMXMXMXMXMXMXMXMXMXMXMXH ( P H I ` q.` _ X.X._ 3.` + O o % & % % o p.MXMXMXMXMXMXMXMXMXMXMXMXMXMXMXMXMXMXMXMX",
"MXMXMXMXMXMXMXMXMXMXMXMXMXMXMXMXMX5 5 5 6 k K ` X.X.) _  .5.) + O .   X   X   y.MXMXMXMXMXMXMXMXMXMXMXMXMXMXMXMXMXMXMXMX",
"MXMXMXMXMXMXMXMXMXMXMXMXMXMXMXMXt.` / ` ) / / X.X.X.} X.Y k K G F F F I I w I w r ;.r t t MXMXMXMXMXMXMXMXMXMXMXMXMXMXMX",
"MXMXMXMXMXMXMXMXMXMXMXMXMXMXF 6 1 [ o.X.o.o.} [ X.$.} X.c 1 x X.q.q.X.X.X.9.0.6 O . .     MXMXMXMXMXMXMXMXMXMXMXMXMXMXMX",
"MXMXMXMXMXMXMXMXMXMXMXMXMXMXY Y W b.w.@.' ' [ } } } } } / J / X.X.} ) [ | $.b.Y < C 8 9 9 p.MXMXMXMXMXMXMXMXMXMXMXMXMXMX",
"MXMXMXMXMXMXMXMXMX    w :._ Y 4.@.G.K.V.+.| | | X.' } } } } } } | | ] ] $.L.L.n. .5.>.e.,.  o   MXMXMXMXMXMXMXMXMXMXMXMX",
"MXMXMXMXMXMXMXMXMX  & F :.C t.4.@.m.D.V.+.O.+.] } } | } } } X.} ' ] z.O.z.F.F.b.7.2.` ( ( e r e MXMXMXMXMXMXMXMXMXMXMXMX",
"MXMXMXMXMXMXMXMXMXq U $ O + N.I.J.F.m.D.D.J.b.] ] +.| ' / } | } +.#.Z.A.A.A.A.H.G.P.6 .   MXMXMXMXMXMXMXMXMXMXMXMXMXMXMX",
"MXMXMXMXMXMXMXMXMX> U = * * r.J.m.F.m.D.D.D.v.O.+.O.' ] | $.%.] #.7.F.F.A.A.A.D.N.Y.V O O .XMXMXMXMXMXMXMXMXMXMXMXMXMXMX",
"MXMXMXMXMXMXMXMXa.  $ C 2.! 7...#.F.L.m.O.Q z.K.Z.b.%.] V.Z.V.V.m.F.F.A.M.A.F.+.p L V 5 V G Y K H 0 >.MXMXMXMXMXMXMXMXMX",
"MXMXMXMXMXMXMXMXe.. O U 6.7...! O.D.D.n.#.~ $.G.G.w.{ ' G.G.K.K.H.I.F.F.A.A.L.$.z h 4 Z 4 4 j j 4 5 ` MXMXMXMXMXMXMXMXMX",
"MXMXMXMXMXMX9 U U U U ! 4.! 4.4...7.7.7.......7.@.o.o.+.o.$.@.9.@...@.v.! Q W W ! L w.w.9.r.w.w.' } ) 0.:.MXMXMXMXMXMXMX",
"MXMXMXMXMXMX    C 6.5.4.4._ 9.[ ........ .{ ....o.o...o.} o.{ } @.o.{ +.L h 1 L o.W D.U.K.K.K.A.%.$./ 6 > y.MXMXMXMXMXMX",
"MXMXMXMXMXMX  . q 5.5.4. .X.X.X.3.o.......o...o...} ..{ ..| } { ' @.| ! o.[ D o.n.v.v.$.b.Z.A.A.z.v.@.7 3 u.MXMXMXMXMXMX",
"MXMXMXMXMXMXX . q 5.2.3.2.o...} o.......} o.....{ { { o.| { +.| { O.@.@.o.3. .r.I.I.#.Q ] V.A.F.J.G.r.J 7 a.MXMXMXMXMXMX",
"MXMXMXMXMXMX    q 5.:. .4... .o...} { } { o.{ ..{ { { { { { ~ ] | ] { } [ I I X.t.w.#.#.#.v.m.c.G.S.r., > ,.MXMXMXMXMXMX",
"MXMXMXMXMXMX  X , 5._ 2.X...} X.o.X.} o.} o.{ ..+.o...{ { { { [ } | | X.G + . : G Z Y 4.| p z b S.I.r.+ . ;.MXMXMXMXMXMX",
"MXMXMXMXMXMX    q 6._ 2.X.X.} } } } { } { } } } o.........o.o.| X.o.o.o.G @ ; : Z Z Y 6.3.Z l T P.P.5.+ . *.MXMXMXMXMXMX",
"MXMXMXMXMXMX  X > I G Y X.[ X.X.X.} } o.o.o...} X...} { o.X.....X.X.Z h 9.+X4X0.+ + , U q :.6.Y = = + # . ;.MXMXMXMXMXMX",
"MXMXMXMXMXMX    > w C ` X.X.9.} X...X.o.X.} o.X. .X.X.} 9.X.9.X.X.` D g ] 5X1X9.+ O 8 P y >.e.:.. . . .   t MXMXMXMXMXMX",
"MXMXMXMXMXMX    2 P 6 0 K G l L K ..X.[ } X.X.)  .9.X.` K S D J J k @.Q V.tXuX5X>X4XU   % % $ 8 }.MXMXMXMXMXMXMXMXMXMXMX",
"MXMXMXMXMXMX    $ r H w w S 5 l k ..X.X.X.9.X.9.X.q.) X./ x 5 k h v ] Q F.yXeXyXhXnX_ X X X X   MXMXMXMXMXMXMXMXMXMXMXMX",
"MXMXMXMXMXMXu.a.( $ > e S 5 k S S K K K K K D / D / K / x 6 x D b L T.J.!.yXrXyXrXxX_ # X >.s.u.MXMXMXMXMXMXMXMXMXMXMXMX",
"MXMXMXMXMXMXMXMXa.    3 w w S k k k k k j j x j c j 1 6 j l x l j b uX>X4XxXxXfXrXhX .O . $XMXMXMXMXMXMXMXMXMXMXMXMXMXMX",
"MXMXMXMXMXMXMXMX<.  $ 3 w 0 S 5 k x x x c c c c j / o.} v l j [ ' @.+XoX$X$X$XiXjXkXt.+ : $XMXMXMXMXMXMXMXMXMXMXMXMXMXMX",
"MXMXMXMXMXMXMXMXp.  o 3 H 6 7 D x x x j j 7 j j 1 U.uX>X| g v ;X4X1X|.*X].u u ].nXjXY. .:.3XMXMXMXMXMXMXMXMXMXMXMXMXMXMX",
"MXMXMXMXMXMXMXMXMXX & 3 r e H 5 7 7 5 x c j j ' j K.>X;X' g g ;X>X+XOX#X{.&.&.{.vXjXU.! :.3XMXMXMXMXMXMXMXMXMXMXMXMXMXMX",
"MXMXMXMXMXMXMXMXMXMXMXr   $ e 0 k V 7 7 J 1 $.<X_.).;X<X$.] ] eXeXhXbXmXaX'.'.#XcXkXU.-.2.3XMXMXMXMXMXMXMXMXMXMXMXMXMXMX",
"MXMXMXMXMXMXMXMXMXMXMXy X   8 P F 6 w 7 j 1 C.:X).).:X:X$.n n eXyXtXnXmXaX'.'.#XvXkXT.! Y MXMXMXMXMXMXMXMXMXMXMXMXMXMXMX",
"MXMXMXMXMXMXMXMXMXMXMXMXMXMXP q 0 H w 5 K g $.:X).).`.)._.!.!.yXtXyXhXjXcXpXiXdXfXlX,XXXOXMXMXMXMXMXMXMXMXMXMXMXMXMXMXMX",
"MXMXMXMXMXMXMXMXMXMXMXMXMXMXr q 3 H 7 6 K p w.uX:X:X`.`.:X).).tXyXgXrXfXlXvXvXkXhXhX5X>XMXMXMXMXMXMXMXMXMXMXMXMXMXMXMXMX",
"MXMXMXMXMXMXMXMXMXMXMXMXMXMX}.E.E.7 w w Z 4 ) w.$.^.`./.`.`._.<X,X2XtXgXlX8XhX5XT.~.3XMXMXMXMXMXMXMXMXMXMXMXMXMXMXMXMXMX",
"MXMXMXMXMXMXMXMXMXMXMXMXMXMXMXMXqX: 6 7 F G H 6 1 K.:X/.`.`.:X=X,X,XgXyXgXgXxXT.L l OXMXMXMXMXMXMXMXMXMXMXMXMXMXMXMXMXMX",
"MXMXMXMXMXMXMXMXMXMXMXMXMXMXMXMXMXe.e.>.> : 3 6 1 V.2X/./.(.:X!.Q.~.,X>X>X1X5XXXP.S.MXMXMXMXMXMXMXMXMXMXMXMXMXMXMXMXMXMX",
"MXMXMXMXMXMXMXMXMXMXMXMXMXMXMXMXMXMXsX@X  . X X X i.<X-X:X2X-X8.~ ~ Q ~ W ! Z Y.sXMXMXMXMXMXMXMXMXMXMXMXMXMXMXMXMXMXMXMX",
"MXMXMXMXMXMXMXMXMXMXMXMXMXMXMXMXMXMXqX|.O @ # #   i.4XXXXX=XT.v.~ c.l.~ 8.N.5.|.sXMXMXMXMXMXMXMXMXMXMXMXMXMXMXMXMXMXMXMX",
"MXMXMXMXMXMXMXMXMXMXMXMXMXMXMXMXMXMXMXoX, 4 C :.*.*.Y ` = - - R E f j.x.R.pXpXpXMXMXMXMXMXMXMXMXMXMXMXMXMXMXMXMXMXMXMXMX",
"MXMXMXMXMXMXMXMXMXMXMXMXMXMXMXMXMXMXMX>Xi a A =.=.;.;.` ; * - a f d j.E R.jXdXpXMXMXMXMXMXMXMXMXMXMXMXMXMXMXMXMXMXMXMXMX",
"MXMXMXMXMXMXMXMXMXMXMXMXMXMXMXMXMX8 , p R E ^ T =.,.u.u.$ O - R d d k.d B m & ].MXMXMXMXMXMXMXMXMXMXMXMXMXMXMXMXMXMXMXMX",
"MXMXMXMXMXMXMXMXMXMXMXMXMXMXMXMXMXo = - B f ^ 8.=.<.e.e.@ + * a E d f.d a * . <.MXMXMXMXMXMXMXMXMXMXMXMXMXMXMXMXMXMXMXMX",
"MXMXMXMXMXMXMXMXMXMXMXMXMXMXMXMXMX  + i N N M m & p..X.Xi.S.R.^ E k.f.k.f * O p.MXMXMXMXMXMXMXMXMXMXMXMXMXMXMXMXMXMXMXMX",
"MXMXMXMXMXMXMXMXMXMXMXMXMXMXMXMXMX. * - N N p * O u.1X;X,X7X7XB.x.h.d g.a *   p.MXMXMXMXMXMXMXMXMXMXMXMXMXMXMXMXMXMXMXMX",
"MXMXMXMXMXMXMXMXMXMXMXMXMXMXMXMXMX. * - B ^ , = O s.wX>X,X,X7XB.8.x.d E s *   p.MXMXMXMXMXMXMXMXMXMXMXMXMXMXMXMXMXMXMXMX",
"MXMXMXMXMXMXMXMXMXMXMXMXMXMXMXMXMXX + - A ^ p O . E.nXfXhXhXkXc.-.-.B R M * O ,.MXMXMXMXMXMXMXMXMXMXMXMXMXMXMXMXMXMXMXMX",
"MXMXMXMXMXMXMXMXMXMXMXMXMXMXMXMXMX$ , , T A m >   E.qX4XsX6X6Xw.6.8.^ A m = # MXMXMXMXMXMXMXMXMXMXMXMXMXMXMXMXMXMXMXMXMX",
"MXMXMXMXMXMXMXMXMXMXMXMXMXMXMXMXMXMXMXMX# < *.[.}.y   o # . + s.W.P.+ O U MXMXMXMXMXMXMXMXMXMXMXMXMXMXMXMXMXMXMXMXMXMXMX",
"MXMXMXMXMXMXMXMXMXMXMXMXMXMXMXMXMXMXMXMXo o y [.}.y o o   # . s.}.u.  $ *.MXMXMXMXMXMXMXMXMXMXMXMXMXMXMXMXMXMXMXMXMXMXMX",
"MXMXMXMXMXMXMXMXMXMXMXMXMXMXMXMXMXMXMXMXMXMXd.& & d.&X&X&X X$X&X0X*Xo . P MXMXMXMXMXMXMXMXMXMXMXMXMXMXMXMXMXMXMXMXMXMXMX",
"MXMXMXMXMXMXMXMXMXMXMXMXMXMXMXMXMXMXMXMXMXMXd.o o ].mXvXbXmXzXbXbX0X  o 9 MXMXMXMXMXMXMXMXMXMXMXMXMXMXMXMXMXMXMXMXMXMXMX",
"MXMXMXMXMXMXMXMXMXMXMXMXMXMXMXMXMXMXMXMXMXMXMXMX].a.<.1.<.1.;.<.<.y.d.MXMXMXMXMXMXMXMXMXMXMXMXMXMXMXMXMXMXMXMXMXMXMXMXMX",
"MXMXMXMXMXMXMXMXMXMXMXMXMXMXMXMXMXMXMXMXMXMXMXMXMX*.o o o o o o   o MXMXMXMXMXMXMXMXMXMXMXMXMXMXMXMXMXMXMXMXMXMXMXMXMXMX",
"MXMXMXMXMXMXMXMXMXMXMXMXMXMXMXMXMXMXMXMXMXMXMXMXMXMX;.;.1.;.;.1.;.MXMXMXMXMXMXMXMXMXMXMXMXMXMXMXMXMXMXMXMXMXMXMXMXMXMXMX",
"MXMXMXMXMXMXMXMXMXMXMXMXMXMXMXMXMXMXMXMXMXMXMXMXMXMXMXMXMXMXMXMXMXMXMXMXMXMXMXMXMXMXMXMXMXMXMXMXMXMXMXMXMXMXMXMXMXMXMXMX",
"MXMXMXMXMXMXMXMXMXMXMXMXMXMXMXMXMXMXMXMXMXMXMXMXMXMXMXMXMXMXMXMXMXMXMXMXMXMXMXMXMXMXMXMXMXMXMXMXMXMXMXMXMXMXMXMXMXMXMXMX",
"MXMXMXMXMXMXMXMXMXMXMXMXMXMXMXMXMXMXMXMXMXMXMXMXMXMXMXMXMXMXMXMXMXMXMXMXMXMXMXMXMXMXMXMXMXMXMXMXMXMXMXMXMXMXMXMXMXMXMXMX"
};
