/* XPM */
static char *e56863d0e99e4660be443e4651e78a1d[] = {
/* columns rows colors chars-per-pixel */
"60 60 144 2 ",
"   c #1C1A13",
".  c #201D16",
"X  c #232017",
"o  c #26231C",
"O  c #29261E",
"+  c #2B281F",
"@  c #272621",
"#  c #2A2721",
"$  c #2D2B24",
"%  c #2E2D28",
"&  c #312E26",
"*  c #312F29",
"=  c #333027",
"-  c #35322C",
";  c #39362F",
":  c #373631",
">  c #393631",
",  c #373830",
"<  c #3C3A33",
"1  c #3E3D38",
"2  c #413E36",
"3  c #413E39",
"4  c #45423C",
"5  c #49463E",
"6  c #49493F",
"7  c #464541",
"8  c #494641",
"9  c #4C4A43",
"0  c #4F4C48",
"q  c #514E46",
"w  c #514E49",
"e  c #54524C",
"r  c #58554E",
"t  c #5B584F",
"y  c #595651",
"u  c #5D5B54",
"i  c #5F5E59",
"p  c #615E57",
"a  c #615E59",
"s  c #636057",
"d  c #64625C",
"f  c #68655E",
"g  c #666561",
"h  c #696661",
"j  c #6D6A64",
"k  c #6F6E69",
"l  c #716D66",
"z  c #716E69",
"x  c #737067",
"c  c #74726C",
"v  c #79756E",
"b  c #777671",
"n  c #797671",
"m  c #7D7A73",
"M  c #7E7D78",
"N  c #817E76",
"B  c #827E79",
"V  c #808277",
"C  c #85827C",
"Z  c #89857E",
"A  c #88887E",
"S  c #878681",
"D  c #8A8681",
"F  c #8D8A84",
"G  c #8E8D88",
"H  c #918E86",
"J  c #928F89",
"K  c #929087",
"L  c #95928B",
"P  c #99958E",
"I  c #9B998F",
"U  c #979691",
"Y  c #989792",
"T  c #9A9792",
"R  c #9A9790",
"E  c #9A9790",
"W  c #989890",
"Q  c #9B9891",
"!  c #999893",
"~  c #9C9992",
"^  c #9D9A93",
"/  c #9E9B92",
"(  c #9C9994",
")  c #9E9B94",
"_  c #9C9C94",
"`  c #9F9C95",
"'  c #9E9E96",
"]  c #9C9A93",
"[  c #9F9E99",
"{  c #A09D96",
"}  c #A19E97",
"|  c #A19E96",
" . c #A09D98",
".. c #A29F98",
"X. c #A09F9A",
"o. c #A29F98",
"O. c #A3A097",
"+. c #A3A097",
"@. c #A3A099",
"#. c #A1A09B",
"$. c #A3A09B",
"%. c #A5A299",
"&. c #A4A19A",
"*. c #A5A29B",
"=. c #A6A498",
"-. c #A7A599",
";. c #A7A49B",
":. c #A3A29D",
">. c #A4A19C",
",. c #A6A39C",
"<. c #A7A49D",
"1. c #A7A49F",
"2. c #A5A39B",
"3. c #A8A59C",
"4. c #A9A69D",
"5. c #A8A59E",
"6. c #A9A69F",
"7. c #A9A69E",
"8. c #ABA89F",
"9. c #AAA89F",
"0. c #A6A5A1",
"q. c #A8A5A0",
"w. c #A9A6A1",
"e. c #AAA7A0",
"r. c #A9A6A0",
"t. c #ABA8A1",
"y. c #ACA9A0",
"u. c #ACA9A2",
"i. c #ADAAA3",
"p. c #ACA9A4",
"a. c #AEABA4",
"s. c #AFACA5",
"d. c #ACAAA3",
"f. c #AEADA9",
"g. c #B0ADA6",
"h. c #B1AEA6",
"j. c #B0ADA8",
"k. c #B2AFA8",
"l. c #B2AFAA",
"z. c #B1AEA9",
"x. c #B3B0A7",
"c. c #B5B2AB",
"v. c #B4B1AA",
"b. c #BCB9B4",
/* pixels */
"; - ; c ,.*.6.t.j - 3 < Z ` <.6.<.6.@.d . 2 H L K P <.,.<.R L c 1 F < j J D L K L a $ y ) :.a.*.;.;.p - 6 < 1 8 1 > % o ",
"3 4 m 6.,.*.,.6.@.q $ n } i.i...,.*.6.6.l - l L P H H ^ L J R e w b.B $ j F J J F e * u J R e.6.;.;.^ 9 - e I ` @.@.L e ",
"5 Z i.,.*.t.6.*.} h * v H P @.6.i...<.,.R 8 8 F F P P K L D d & h D d $ * < e y u % - 4 D L L <.6.6.i.C # y I ` :...U 7 ",
"Z 6.*.,.s.*.} ^ R q ; 9 Z R } 6.,.i.,...c > > j F D K F j < o 4 ; > < j c u 3 > $ s D < d F P P ^ O.8.*.0 4 D K L U 4 < ",
"*.6.<...} } ^ L r = ; # j F F P ^ R L Z 1 < ; $ l m u < 4 d Z L a * B k.a.k.<.J 1 z ..$ < D F J ) F P ..x # n U J 7 * C ",
"P J L Q L L Z u O c P 9 O v K J Q K L 8 = c D ; & $ 5 v @.e.,.k.n > L a.@.,.e.k.9 < > < X > m D C Q H J V > 8 n 4 * D Q ",
"Z C D F Z Z d   v i.t.i.e $ m Z Z P 0 . B <.c.j ; 4 R g.*.<.6.s.v 3 F } t.6.6.P ; - e ,.L > & m F B F J u @ : ; > n Z V ",
"Z Z D V D y X d i.6.*...i.4 = m D q o N s...6.K - u L } t.*.,.<.x < ^ L ..*.a.m @ 5 <.6.6.} 9 $ h D n 8 - c F > 3 b m Z ",
"> 5 8 9 4 $ e @.6.6.*.,.6.P 2 > 4 X n i.*.6.6.*.< p L P *.@.P Q e 4 J L H ^ ) q # H e.,.*.t...e % 5 = 8 ` e.c.h * * $ > ",
"u e < ; 4 3 n 6.*.6.e.<.6.6.m ; ; d } 6.*.<.<.t.9 r P L L P Z p ; w F D H R C o s *.i.*.,.,.t.} 9 - e [ Q Z u - 3 4 9 e ",
"t.,.R 5 > 5 H } 6.*.,.<.,.t.*.4 < P i.,.6.*.*.g.y 8 ^ K B p - $ - - u D H K 5 ; J } @.*.a.<.} a.S # r m a > > v D Q <.e.",
"<.e.a.C > 4 Z K <.,.,.6.*.<.Q 4 e ^ @.6.6.,.<.i.p ; d 9 ; 4 f Z B u * ; u 0 X j P K ^ *.6.6.,.i.F 1 * 1 4 = d J J L P e.",
"<.*.} t.u # m L P 6.i.6.<.*.F - j ^ } 6.%.6.*.O.u = - t H 6.c.*.i.i.Q 8 o ; 5 D H H P ^ ..6.6...V o j <.*.2 4 n F K L [ ",
"L } <.<.^ = e K J } @.@.<.^ C $ N P ^ ;.;.6.I ^ t $ l } } } 6.6.6.,.6.i.e * u C F L J L ` ` L K z 7 @.@.g.d > ; r B J F ",
"F L J R 6.j & C J L P R ) L l ; F L H } *.} H I q < F L } i./ ;.,.*.6.` u & 8 F C H L K K H K @.u y t.@.t.n o r 5 * y B ",
"u n H L F ) 5 e F J R L K ) e 2 K L L P L L H P < e L H ^ *.i.*.6.<.*.^ 2 ; ; f Z B L P J P L R 8 d f.<.<.r < @.a.j - < ",
"$ - 9 j J R D > m D F J J L > e F Z L J J L L F $ c F K P } i.*.6.*.t.C $ r 1 # m Z B J J D J Z % b ,.,.F $ m a.e.) 5 > ",
"r q ; $ - w n 8 7 J C D K j @ 8 D F C J L L H d # j Z P L ;.} *.*.<.i.r 1 *.*.< $ C C D F D B 9 * M L U f 4 ) <.,.m o 0 ",
"i.*.} D h 4 $ @ = 8 h e 1 $ ; - < d m B C x 4 $ & e C F K L i.6.6.<.F = C e.i.} > & u d y 0 ; - > C L J > u R L K < r R ",
"O.6.i.g.a.a.L u < 3 o > y u w 8 - X O < ;   > u e - N B K P H P L ,.d 4 i.6.*.i.D $ > - : * > w 4 e n y # C F D u ; L Q ",
"*.8./ *.e.*.e.i.8 > y L ` t.<.*.L B e = - j *.i.c.4 9 F Z H H L P H = N 6...i.*.*.e < e J L d - 5 $ @ . o * 3 2 - l ^ L ",
"i.O.a.i...*.6.Q 3 : F ^ P ..*.@.i.*.t.F ; j a.` 6.C o j F Z Z Z J u 3 *.i.<.6.*.P 4 > F a.e.k.j $ u Z F n e > > 4 H H P ",
"^ 6.} *.6.*.a.v . d Z H P *.6.e.<.t.@.s.s 5 Q Q ` F > $ 8 j Z D C & d ` *.<.<.t.m $ c k...<.k.u > ` i.g.,.g.v $ f L P H ",
"P } i.*.*.6.) 5 $ d D Z L @.t.*.<.<.@.x.n $ V P v 1 > u 8 = ; 8 > 1 F P } i...} 3 9 e.,.,.e.,.3 u t.6.*.*.i.Z & l J L P ",
"L L P 6.O.6.c + ; 0 F N F Q @.` @.<.s.D ; = 5 $ O > y ` f.` s $ ; 9 P H ^ 6.} x $ Z ,.,.,.s.D # C i.*.*.,.g.V & B C J P ",
"L H I H I H < 4 y O m Z C H J P Q @.h = ; 5 0 j q o e Q ` <.c.K 9 - n ^ J L F ; 4 L ) ,.Q R u > P } 8.*.*.i.c < Z B C D ",
"K K L H I r & L c.e 8 F B Z L P Z 9 X 4 c H t.a.a.w X c ^ Q @.e.m > 3 m H R u < q K L ) ` F = r Q H ,...` ^ s 1 F B V D ",
"Z F P P x O H g.6.P - v D F n a $ ; m *.i.i.e.@.6.P $ > F F ` D 9 = ; = j a   = $ z n c d 8 * j R L ^ R F v 9 O s C D B ",
"n V C z @ j s.*.@.c.u - h e > $ h L 6.*.<.) e.,.<.i.q $ 5 m u ; 2 p v < $ > p c 3 @ $ # $ > < d m c u 5 ; # = = % > e h ",
"$ $ ; o q 6.} 6.e.6.F - $ $ 0 m L L 6.6.,.6.6.<.} L 5 2 ; # 9 v ^ i.g.^ < 2 6.) < u D F m z 8 > * & # ; 8 r u s 4 > % @ ",
"D n w 1 v P i.<.,.J L > 9 < B D F I } 6.*.;.6.} ^ N $ > u J ,.k.t.} *.g.N $ 9 < s g.t.e.a.a.P $ 9 m L *.<.<.:.f.n < 9 h ",
"a.k.e.3 l L ,.^ H ) d - < - w D C L P I { ..L L J < > Z } e.e...6.6.,.@.i.u $ u ` *.,.,.,.t.) > j e.t.6.@.<.w.w.C $ e Q ",
"P 6.<.p r D P K ) h O 1 u e o f F F R L K H L P y o m } } *.6.,.6.} 6.*.6.F $ y P } e.,.,.e...< v ^ *.6.*.*.6.i.m o k ! ",
"^ L } x $ Z F K a # u P a.} 9 X c K F L L R R j # 0 F F Q e.,.e.*.a.6.} ;.N - 2 Z P ` e.<.e.) 2 m P I *.s.6...s.h * x P ",
"q q 8 2 > p F e @ c 6.t...6.*.; > B F L L L n ; = p F L R <.6.@.i.*.*.8.*.l - > j R K } <.e.P > N P P L ^ <.` } w ; 9 e ",
"5 9 4 4 * ; - $ n t.,...6.@.i.P o 4 D Z F B < 4 ; h D F K P ..6.;.O.6.*.^ 5 < q 4 D P L R R Z < v F H P H H L N * 3 2 > ",
"*.6.6.@.F ; > a ..a.6.*.e.i.} 6.V o w F m > ; < o e F J L L P L L ^ P P C $ v ^ 5 d L F H P l @ t F Z L L L Z ; - v L } ",
"*.*.<.6.e.j o d R @...*.t...} H Q h o 9 < $ > r 2 X < h F F H L H L P ^ q 4 P Q c ; j c u 4 $ - $ - p v Z N < $ h ) 6.,.",
"6.i.*.} <.) $ w F R <.@.@.L L L P K 5 $ < < F c.6.F e @ < h C F H H L l # d ^ P ^ q - o - r c H C d - & ; ; ; 4 C ..e.,.",
"*.*.,.i.*.6.e 3 D J L K L L L L P L m = - F i.@.6.t.s.R 5 o < 8 p f h ; 1 - e v J c ; e H ` 8.6.g.8.*.C q > > r J Q 6.*.",
"*.6.e.*.*.g.n $ B C F L F P P H P F n $ j ^ } <.6.*.@.g.P 4 > - - ; * > 4 a r > < 4 - y P @.;.*.;.6.*.s.<.5 $ c F Q *.6.",
"6.6...e.t.@.L * u J D Z F F F H D F p $ n L } <.<.*.t.,.L ; e P ) ` ^ 3 q R ..<.C e - e L *.*.6.;.} <.*.<.e - C D P } *.",
"O.8...e.6.^ L 9 $ h l j f u e 4 4 < & > r V F ^ ..@.} k.c - P a.,.i.c.d 2 L ` 6.s.x.j & C ^ } <.<.s.6.6.6.5 8 F Z K Q ^ ",
"^ *.6.6...P L y > $ o # O & ; 2 4 r e 2 @ j F F K J L L < y e.,.*.*.6.L < F L ..*...s.q 9 L L 6.<.` ..^ } 5 e F C H L F ",
"L L } ..R F F > > j N m Z Q ^ *.t.t.t.D 4 & c D H L ) c % b @.,.t.;.6.L 4 m F Q ^ 6.6.} * a L J P F W P L 2 a D V H P P ",
"L K L P H L u o c ) ^ <.a.,.*.8.,.*.*.s.P < & N C Z F < 1 J R ,.*.*./ / 9 s L F P F L ) m @ h L P P D m j # d F m B Z L ",
"K P K L F N * e J t.<.i.,...8.*.6.e.@.<.*.J ; > v Q a $ d G L P *.I H } r 5 C N F F F B j = - 9 y 0 5 - ; : 9 V D Z C C ",
"C C F F F 5 $ C J L P } *.t.;.;.,.6.^ R L L 9 o < e < 4 g J L L L H I H f $ < 4 < > - * $ > 9 & = 4 1 1 1 1 o 4 d m F D ",
"x Z V Z u   d F C P K H ^ H Q @.^ P K P D 5 @ u u $ < < e M C S F D Z Z i - 3 8 e e r p j 5 > 8 H 6.;.K A j e ; $ ; 0 d ",
"> ; 1 = # = e m D Z P P F P P F H K F j 2 = 8 ..f.U c 7 % % - : > 5 3 $ : > e K L x.i.a.x.P - p } ^ *.g.8.8.8.V : = 4 ; ",
"K F V v d e = , 5 u h c C F P K H m e o o - f P Q w.[ d : 7 4 4 > b ! C 7 4 4 J L P @.6...x.n - C K ^ *.<.t.<.<.> 8 K P ",
"` ` <.t.s.L 4 4 - $ ; > 5 5 e p q X & d v < 4 x d u : $ - - % - < V p...1 - * u J R ) P <.@.e.8 l F L ^ Q Q Q K # s @.K ",
"p d j l v v - > m v $ 8 Q S = $ 2 v ^ ;.x.P ; = ; & e n F G M y X g ! c 0 k : % 8 d Z L P L ..c 4 Z F H F K V 8 = = r s ",
"r r < ; # - ; h t.s.D ; d e > v O.6.i.O.O.x.c < 5 e X.c.<.p.p.` < 7 g 0 ! f.F 1 ; 1 3 0 l D F R > j F F z e ; = y h s s ",
"c.e.,.P h > 4 G w.:.w.F = : c P P *.8.*.6.;.F - 4 K <.O.<.<.<./ 4 1 ; K <.@.x.Z # u L d < < u c 4 * 8 > % < 4 e ) t.a.c.",
"@.<.<.k.J o s U [ :.w.p.M % e F L } O.6.6.^ x O C <.2.<.<.<.;.@.9 % n ..<.<.@.s.v ; J g.Q a : > > 8 a B v - 1 V ^ ,.*.*.",
"e.<...e.s # e J L [ p.:.! r % s K F L I I F < u *.;.;.;.;.;.6.} 7 4 F ! 6.*.<.,.t.0 h K [ t.M * u R p.f.Q - y L P ..6.6.",
"..e.,.F - 4 - u L L U :.D > 4 1 8 m K F I d 2 K ;.6.;.;.;.6.;.P < a R J R 6.i.@.x.u > F D x 7 : h L U w.K @ n D L Q / } ",
"U R F 5 * w 9 $ j Q G J 7 > ; : 1 # e n v & k @.;.6.;.;.6.6.O.F ; u F L L @.6.*.6.x $ 8 > @ % 4 - 7 h C b - n F Z F H J ",
"m B a $ e F k.h # c G 9 % 9 j K P k $ ; ; 8 F K *.6.;.*.;.6.I C ; > z L F J P P _ h > = 0 x m g g < - : < * - 9 a l m N "
};
