/* XPM */
static char *_5e45a84a5004e71c7b2cbfec967c45622S65bpLzwMI1T84[] = {
/* columns rows colors chars-per-pixel */
"60 60 158 2 ",
"   c black",
".  c #010101",
"X  c #020202",
"o  c gray1",
"O  c #040404",
"+  c gray2",
"@  c #060606",
"#  c #070707",
"$  c gray3",
"%  c #090909",
"&  c gray4",
"*  c #0B0B0B",
"=  c #0C0C0C",
"-  c gray5",
";  c #0E0E0E",
":  c gray6",
">  c #101010",
",  c #111111",
"<  c gray7",
"1  c #131313",
"2  c gray8",
"3  c #151515",
"4  c #161616",
"5  c gray9",
"6  c #181818",
"7  c #191919",
"8  c gray10",
"9  c #1B1B1B",
"0  c gray11",
"q  c #1D1D1D",
"w  c #1E1E1E",
"e  c gray12",
"r  c #202020",
"t  c gray13",
"y  c #222222",
"u  c #232323",
"i  c gray14",
"p  c #252525",
"a  c gray15",
"s  c #272727",
"d  c #282828",
"f  c gray16",
"g  c #2A2A2A",
"h  c gray17",
"j  c #2C2C2C",
"k  c #2D2D2D",
"l  c gray18",
"z  c #2F2F2F",
"x  c gray19",
"c  c #313131",
"v  c #323232",
"b  c gray20",
"n  c #343434",
"m  c #353535",
"M  c gray21",
"N  c #373737",
"B  c gray22",
"V  c #393939",
"C  c #3A3A3A",
"Z  c gray23",
"A  c #3C3C3C",
"S  c gray24",
"D  c #3E3E3E",
"F  c #3F3F3F",
"G  c gray25",
"H  c #414141",
"J  c gray26",
"K  c #434343",
"L  c #444444",
"P  c gray27",
"I  c #464646",
"U  c gray28",
"Y  c #484848",
"T  c #494949",
"R  c gray29",
"E  c #4B4B4B",
"W  c #4C4C4C",
"Q  c #4E4E4E",
"!  c gray31",
"~  c #505050",
"^  c #515151",
"/  c gray32",
"(  c #535353",
")  c gray33",
"_  c #555555",
"`  c #565656",
"'  c gray34",
"]  c #585858",
"[  c gray35",
"{  c #5A5A5A",
"}  c #5B5B5B",
"|  c #5D5D5D",
" . c gray37",
".. c #5F5F5F",
"X. c #606060",
"o. c gray38",
"O. c gray39",
"+. c #646464",
"@. c #656565",
"#. c gray40",
"$. c #676767",
"%. c #686868",
"&. c DimGray",
"*. c gray42",
"=. c #6D6D6D",
"-. c gray43",
";. c #6F6F6F",
":. c gray44",
">. c #717171",
",. c #727272",
"<. c gray45",
"1. c #747474",
"2. c gray46",
"3. c #767676",
"4. c #777777",
"5. c gray47",
"6. c gray48",
"7. c #7B7B7B",
"8. c gray49",
"9. c #7E7E7E",
"0. c gray51",
"q. c #838383",
"w. c #848484",
"e. c gray52",
"r. c #888888",
"t. c #898989",
"y. c gray54",
"u. c gray55",
"i. c #8D8D8D",
"p. c #8E8E8E",
"a. c #909090",
"s. c gray57",
"d. c #929292",
"f. c #939393",
"g. c #959595",
"h. c #979797",
"j. c #989898",
"k. c #9A9A9A",
"l. c #9B9B9B",
"z. c #9D9D9D",
"x. c #9F9F9F",
"c. c #A0A0A0",
"v. c #A2A2A2",
"b. c gray64",
"n. c #A4A4A4",
"m. c #A5A5A5",
"M. c gray66",
"N. c #A9A9A9",
"B. c gray67",
"V. c #ACACAC",
"C. c gray68",
"Z. c gray69",
"A. c #B1B1B1",
"S. c #B4B4B4",
"D. c gray71",
"F. c #B6B6B6",
"G. c gray77",
"H. c gray78",
/* pixels */
"                                                                        $ = , = O O O O         O O                     ",
"                                                                        $ = 2 6 r r = O = O   O       O O O             ",
"                                                        O O O             $ 2 6 r 2 h n 2   , 6 ,                       ",
"                                      O O               O O O O O O         $ , 6 H D p D H w   $ 6 6 O       O       O ",
"                                O O $ $ $ O O         O $ $ $ $ $ $ O         O =   w _ Q B H T h , O 2 r 2 O           ",
"                                O O $ = = = $ $ $ O O $ = = = = $ O O O         = 6 = = n T n p c H n =   O 6 6 $ O     ",
"                              O O O O $ $ $ $ $ $ $ $ $ = = = = $ O O               $ , $ 6 h p w $ r _ _ w   O , = $ O ",
"                              O             O O $ O O $ $ $ $ $ $ O       O     O = = = , $ O = O 6 =   p o.] w   O = , ",
"  O O     O       O O $ = = = $ $ $ $ $ O             O O O O O O O         O O $ $ , 2 2 , = = $ O   O $ w T ,.T   $   ",
"$ $ O         $ $ $ = $ $ $ $ O = , = = $ $ O O O O                     O O $ $ $ $ $ , 2 , = $ $ $ $ O O $ w n 3.%.O = ",
"= $ O O O $ = = = , , , 2 2 2 2 w 6 6 2 2 , = = $ O                     O $ = = , = , 2 2 , $ $ O O $ $ O   O , ^ q.%.2 ",
"            O $ , 2 6 w r p p p p p r w 6 2 2 2 O O         O O $ O       $ , 6 r w w w 6 , $ $ $ O O $ $ O $ = $ Q m.] ",
"h w = O O $ O   = , 6 w r p r p r r w w w 6 6 6 O O O $ O $ $ $ = $ O   O = 2 6 r r r p 6 = $ = $ O O O O O O $ $ c o.F.",
"n T Q n , O $ =   O = , 6 6 6 6 2 2 2 2 2 2 2 6 $ = = = $ $ O O O O $ $ $ = , , , , 6 r 6 $ $ = O O O O $ $ O O , 2 B m.",
"D n p w h B r       O $ = , 2 2 , , = = = = , , = = = = $ O         O O $ $ = = $ O = w w , $ = O O O $ $ = $ $ O   U o.",
"2 h h , = p D D , = = = = = = = , , = $ $ $ $ $ = = = $ $ O               O $ = $   $ 6 r 6 = $ $ $ O O O O O O O $ n ] ",
"w 6 p k 2 O c 7.D $ O $ , O = = = $ $ O O $ $ = $ $ = $ O       O   O     $ O = $   O 6 p 6 = $ =     , , O   $ O , T Q ",
"$ $ , p n n p 6 6 p $ w   = $ O $ $ $ = = $ O O $ = = $ O O $ $ = = =     $ $ $ $   $ 6 r 6 = $ O $ $ O   O = =   r _ ..",
"$ $ O $ r B B h 6 O =   ,   $ = = $ $ O O $ $ = O = $     $ $ $ , 6 = O O O $ = $ O = w w , $ $ $ $ $ O O $ $   r D Q ..",
"O $ = , 2 r D _ n r O   = 2   O   O $ = = = $ O $ $ O $ $ , 2 2 , 6 , 6 ,   O , O $ , w 6 $ O $ $ O O $ $ O = 6 H U U ,.",
"$ O $ , 2 2 h H ^ +.6 O   O w = $ O           O = $ $ , 2 = = , $ 2 6 w ,   O , $ , 2 w 2 $ O $ O $ = $ O = h H c B D ,.",
"= $ O $ = 2 r h ] T 3.p 2 ,   2 w 6 , $ $ = , 2 $ $ , w p p w w = $ , $   = = $ 2 6 w w 2 $ $ = O $ $   , k n h c T ..;.",
"O = , 2 2 6 6 6 h ..] u.] p w $ = , 2 6 6 2 , = 2 h U +.u.B.F.Z.T O $     6 $ O 6 w r w 2 $ $ = $ $     r H B 6 c U ;.3.",
"r 2 = , , , 6 r h p ^ ] ,.r.e.,..._ U D H ^ +.,.u.k.k.r.q.e.;.Q x.6 = = $ 2   $ 6 w w 6 , $ $ = $ O   $ 6 n H T Q k n w ",
"2 h 2 p 2 = w 6 w h n B U _ o.+.3.3.7.7.7.7.7.8.;.+...] ^ Q _ ..3.w 6 h ]   O = 2 = , 2 , , , $ $ O O O O $ $ $ O O O O ",
"h O h h 2 2 6 2 w p k c n B B B k k k k k k c c D D D D n c n H %.6 w B ] = O O 2 = , , , , , $ $ O O O $ $ $ $ $ $ $ $ ",
"w h $ c w 6 = w r p p p w 6 , $ = $ O O O O $ = , 6 p h r 6 r c _ 2 2 B B = O O , = , , = , , $ $ O O $ O $ $ O O O     ",
"2 H   h r 6 $ p r r w 6 , $     O                 $ 6 p r 6 r c D = , n 2 $   $ = $ , 2 = = = $ $ O O O O O O   O O O O ",
"p 2 c w w 2 6 w p w 2 = $ O O O O O O O O O       O = w r 6 w k w $ r B = $   $ $ $ , 2 = = = O $ O O O O O             ",
"6 r h r r 2 w 6 r 6 = O     O $ $ $ $ = = = $ O O   O 2 w 2 w h , , k h   O $ 6 , = 2 2 = = = O $ $ O O O O O   = = , = ",
"6 H = k w 2 2 w 6 , O       $ = = $ $ $ = = $ O O   O 2 6 2 6 p 2 2 c =   O , p w 6 6 2 = = , = = $ O O O O O O         ",
"H w w h = 2 w r 2 = O   O O = , , = $ $ = , = $ O   O 2 6 , 2 p , 2 D = $ $ 2 r p w w 2 = = , , = = $ O $ $ $ $ $ $ $ $ ",
"p p w 2 2 w r w $ O     O = , 2 = = = , 2 2 = O O O = , , = 6 h O w D O O O 2 r w p p r w w 2 $ $ $ $ $ $ $ $ $ $ O O O ",
"6 w w 2 6 w r 6 $ O     O $ = , 2 , = = = , = =   O = 2 , = 6 h r   k 2   O 6 w 2 6 w w 6 6 , O $ O $ $ O O O O $ $ O O ",
"2 w r w w w 6 , $ O     O $ = , , 2 2 6 2 , $ O O $ , 2 , = 6 h 2 w ^ O $ = , = O = , , , , =           O O             ",
"r r r w 6 2 = O $ O     O $ = , , 2 6 6 , $ O   $ = , , = = 6 h   h 7.O 6 $ = O   O $ $ $ $ O               O O O $ $ $ ",
"r r w 2 , = $   $ O       O $ = , , = $ O   O $ = , 2 , $ $ 6 h w $ ^ r ,   , , O O O O $ $ $ O O O O O O O O O $ $ $ $ ",
"2 , = $ $ $ O O $ O             O O O     O $ = , 2 2 , $ $ 2 r n 2 2 6 O $   , = = $ $ $ = = $ $ $ O O O O $ $ O O O $ ",
"= $ O O   O O O O O                 O $ $ $ $ $ , , 2 , = = , 2 k D w $ O ,   O = $ $ $ = = $ $ $ $ O O O O $ $ , , 2 2 ",
"$ O O O O               O O $ $ $ $ $ $ $ = = , = , 2 , , = = = w n Q p =   p   O O O $ = $ $ O $ O O O O O $ $ 2 , , = ",
"      O               O $ $ $ $ $ = , , = = , , , 2 2 2 2 2 2 2 2 6 n _ U 2 $ w =   O O = = $ = O , , $ = 6 6 =     O O ",
"$ $ $ = $ = $ $ $ O O   O $ $ $ = = , , 2 2 2 2 2 2 6 6 6 6 6 6 w 2 6 B ..+.H w 2 , $ O   =   k k 2 O O $     O O O     ",
"= = = = = = = = = $ O     O = , 2 2 , , 6 6 6 2 6 6 6 6 6 6 6 6 w p p p D %.r.f.3.U p $ $   2   O 2 r r 2 $ O O     O   ",
"= = = = = = = = = = $ O   O = , 6 2 2 2 2 6 2 2 6 6 6 6 6 w w w w r p p h D +.r.c.Z.r.H k   $   $ $ $ $ 6 h p 2 = O O $ ",
"= = = = = , , , = = = $ O O $ = 2 6 6 6 2 2 2 6 6 6 6 6 w w w w w 6 r h h h B _ r.C.B.F.r h = 2 $ O O = $   2 c c w $   ",
"= = = = = = = , , , , = $ O O   , 2 6 w 6 6 6 6 6 6 6 6 w w w r w r r r w p D _ ;.k.c.f.u.= c O $ O   $ 2 6 =   6 k h $ ",
"= $ $ $ $ $ = = , , , = = $ O   O = 2 w w w 6 6 6 6 6 6 6 w w r p w 6 w p k B D 8.C.c.F.o., B     , ,   O w r ,   r n p ",
"= $ $ $ $ $ = = , = = , , , = $   O = 6 r r w 2 2 2 2 2 6 6 w w r w r h h k Q ,.f.x.H.8.p k O $ = O     , p k h = , w c ",
"= = = , , = $ $ O = , , , , , = O     = 6 r r r r , 6 w = p , 2 w r r r k T ;.r.F.u._ h 2 = $ O $     $ r n H H c $ 2 D ",
"$ $ $ = = = = = $ = = = = 2 , = = $   O = 6 h c 6 p w 2 w , k 6 6 w h H o.,.,.%.n k w = O O O $ $ $ 6 k D H H U _ 2 = B ",
"$ $ $ = $ = = = = = $ $ $ , , , , = O     , p n B c 6 p H 6 h B D _ ;.%.Q h 2 , $ $ $       O $ $ 2 k H U U U Q ] n 6 2 ",
"= , , , = = = = = = $ $ $ = , , = = $ O   $ 2 r H H T D k ....] 8.Q 2   = 2 , O = $ O O $ = = = = r D U H D D H T ..H , ",
"$ = , , , , = $ O $ = = $ $ = , , , = $ O O O $ r T Q ^ ,.7._ f., = = , 2 , = ,       O $ $ $ $ 6 n T H c h p 6 2 k n B ",
"  O $ = = = $ $   O $ = $ O $ = 2 2 , = $ O O   $ 6 ^ ,.3.f.B.H = = 2 w 6 $     O O $ O   O = 6 n D B r , = $         = ",
"      O O O O O       $ $ $ O O , , 2 , = $ O O $   6 _ e.g.m...r 2 = = = $ $ $ O O O O = 6 h n c p , $ O   O O O O     ",
"                O     O = $ O     $ 2 2 2 = $ $   ,   O _ c.k.H.D p = $ $ O     O   O = 6 w w 6 ,     = 6 2 = , = = = = ",
"                          O O O     O = 2 2 = O O = $   O U u.B.m...w = =     O           O = , , , 6 p c D U T U B h 6 ",
"                              O         $ $ = = O   $ ,     p +.3.3.+.T h 6 = $ = = = = 2 r k n B n h w =         O 6 h ",
"                                            $ = 2     O $     O r c c p p H ^ ^ Q Q T U n r =         O     O $         ",
"                                    O           O , =     = $   = O     $ = O     O   O O       O O O                   "
};
